<?xml version="1.0" encoding="UTF-8"?>
<svg xmlns="http://www.w3.org/2000/svg" xmlns:xlink="http://www.w3.org/1999/xlink" baseProfile="tiny" contentScriptType="text/ecmascript" contentStyleType="text/css" height="57px" preserveAspectRatio="xMidYMid meet" version="1.1" viewBox="0 0 67 57" width="67px" x="0px" y="0px" zoomAndPan="magnify">
<rect color="#000000" display="inline" fill="#353535" fill-opacity="0.58823528999999997" fill-rule="nonzero" height="48" ry="8.2174387" stroke="none" visibility="visible" width="48" x="9.5" y="4.5"/>
<path d="M 33.5 21.54348 C 32.348 21.54348 31.413042 22.478437 31.413042 23.630436 C 31.413042 24.782434 32.348 25.717392 33.5 25.717392 C 34.652 25.717392 35.58696 24.782434 35.58696 23.630436 C 35.58696 22.478437 34.652004 21.54348 33.5 21.54348 z M 43.934784 12.500001 L 23.06522 12.500001 C 22.297218 12.500001 21.673916 13.123305 21.673916 13.891306 L 21.673916 43.108696 C 21.673916 43.876698 22.297218 44.499996 23.06522 44.499996 L 43.934784 44.499996 C 44.702785 44.499996 45.32609 43.876694 45.32609 43.108696 L 45.32609 13.891304 C 45.32609 13.123304 44.702785 12.499999 43.934784 12.499999 z M 24.108698 13.891303 C 24.684698 13.891303 25.152176 14.358781 25.152176 14.934781 C 25.152176 15.510781 24.684696 15.978259 24.108696 15.978259 C 23.532698 15.978259 23.065218 15.510782 23.065218 14.934781 C 23.065218 14.358781 23.532698 13.891303 24.108696 13.891303 z M 24.108696 43.108696 C 23.532698 43.108696 23.065218 42.641216 23.065218 42.065216 C 23.065218 41.489216 23.532698 41.02174 24.108696 41.02174 C 24.684696 41.02174 25.152176 41.48922 25.152176 42.065216 C 25.152176 42.641216 24.684696 43.108696 24.108696 43.108696 z M 40.45652 41.71739 L 26.543476 41.71739 C 25.778257 41.71739 25.15217 41.0913 25.15217 40.326084 L 25.15217 32.673912 C 25.15217 31.908695 25.460344 30.737911 25.838083 30.072172 L 26.0433 29.710434 C 26.42104 29.044695 26.441214 27.943478 26.08991 27.263824 C 26.08991 27.263824 25.151476 25.449564 25.151476 23.629736 C 25.151476 19.01965 28.889217 15.281911 33.499302 15.281911 C 38.10939 15.281911 41.84713 19.01965 41.84713 23.629736 C 41.84713 25.448868 40.908695 27.263824 40.908695 27.263824 C 40.55739 27.943478 40.577564 29.044695 40.955296 29.710434 L 41.16051 30.072172 C 41.539642 30.737911 41.847813 31.908695 41.847813 32.673912 L 41.847813 40.326088 C 41.847813 41.091305 41.221725 41.717392 40.45651 41.717392 z M 42.89128 43.1087 C 42.31528 43.1087 41.8478 42.64122 41.8478 42.065224 C 41.8478 41.489223 42.31528 41.021748 42.89128 41.021748 C 43.467278 41.021748 43.934757 41.489227 43.934757 42.065224 C 43.934757 42.641224 43.467278 43.108704 42.89128 43.108704 z M 42.89128 15.978266 C 42.31528 15.978266 41.8478 15.510788 41.8478 14.934787 C 41.8478 14.358788 42.31528 13.891309 42.89128 13.891309 C 43.467278 13.891309 43.934757 14.358787 43.934757 14.934787 C 43.934757 15.510787 43.467278 15.978266 42.89128 15.978266 z " fill="#ffffff" fill-opacity="1" stroke-opacity="0.3"/>
<defs>
<linearGradient gradientUnits="userSpaceOnUse" x1="34" x2="34" xlink:actuate="onLoad" xlink:show="other" xlink:type="simple" y1="51" y2="5.0005">
<stop offset="0" stop-color="#d0cbc5"/>
<stop offset="0.5031" stop-color="#fafcef"/>
<stop offset="0.9693" stop-color="#ffffff"/>
<stop offset="1" stop-color="#ffffff"/>
</linearGradient>
</defs>
</svg>
