<?xml version="1.0" encoding="UTF-8"?>
<svg xmlns="http://www.w3.org/2000/svg" xmlns:xlink="http://www.w3.org/1999/xlink" baseProfile="tiny" contentScriptType="text/ecmascript" contentStyleType="text/css" height="57px" preserveAspectRatio="xMidYMid meet" version="1.1" viewBox="0 0 67 57" width="67px" x="0px" y="0px" zoomAndPan="magnify">
<defs/>
<rect color="#000000" display="inline" fill="#01a0f3" fill-opacity="0.58823528999999997" fill-rule="nonzero" height="48" ry="8.2174387" stroke="none" visibility="visible" width="48" x="9.5" y="5.5"/>
<path d="M 33.500664 13.500001 C 21.646244 13.500001 17.50033 17.64658 17.50033 29.500332 C 17.50033 41.352757 21.646242 45.5 33.500664 45.5 C 45.354416 45.5 49.49967 41.352745 49.49967 29.500332 C 49.49967 17.64658 45.354424 13.5 33.500668 13.5 z M 29.598753 35.393543 L 27.273468 35.393543 L 27.273468 29.978325 C 27.273468 29.377005 27.146135 28.966349 26.891474 28.745684 C 26.63748 28.526354 26.324154 28.415691 25.954828 28.415691 C 25.573503 28.415691 25.260843 28.491022 25.017515 28.642353 C 24.774853 28.79235 24.586859 29.000345 24.453526 29.267675 C 24.32086 29.533003 24.226864 29.842997 24.176197 30.196321 C 24.122868 30.548979 24.098198 30.922974 24.098198 31.316296 L 24.098198 35.39488 L 21.77225 35.39488 L 21.77225 26.645727 L 23.88954 26.645727 L 23.97621 27.809036 C 24.05687 27.65771 24.169538 27.501709 24.314867 27.340382 C 24.459526 27.179052 24.636194 27.027721 24.844854 26.888391 C 25.05285 26.750393 25.295515 26.637062 25.572838 26.550398 C 25.8515 26.463058 26.164158 26.4204 26.51015 26.4204 C 27.620794 26.4204 28.412777 26.724394 28.887436 27.331717 C 29.361427 27.93904 29.59942 28.77502 29.59942 29.839668 L 29.598755 35.393547 L 29.598755 35.393547 z M 37.633926 24.198452 C 37.507927 24.176453 37.3446 24.155783 37.147938 24.137781 C 36.951275 24.12111 36.714615 24.111782 36.435955 24.111782 C 35.8813 24.111782 35.470642 24.253778 35.203983 24.537106 C 34.93799 24.821104 34.80332 25.32776 34.80332 26.055742 L 34.80332 26.645731 L 37.11261 26.645731 L 37.11261 28.607023 L 34.80332 28.607023 L 34.80332 35.393547 L 32.4607 35.393547 L 32.4607 28.607021 L 30.9334 28.607021 L 30.9334 26.64573 L 32.4607 26.64573 L 32.4607 25.986406 C 32.4607 25.489088 32.5127 25.00843 32.6167 24.546438 C 32.7207 24.083115 32.89936 23.675121 33.15469 23.322464 C 33.409355 22.969805 33.752678 22.689142 34.187332 22.481148 C 34.621326 22.272488 35.173313 22.167824 35.843967 22.167824 C 36.363953 22.167824 36.793278 22.193823 37.127937 22.246483 C 37.463932 22.298483 37.700592 22.341812 37.839924 22.375813 L 37.633926 24.198446 z M 41.02719 32.997593 C 41.415848 33.414253 41.97317 33.622913 42.703156 33.622913 C 43.189148 33.622913 43.58114 33.559574 43.8838 33.432915 C 44.1838 33.306923 44.417126 33.190926 44.57912 33.08559 L 45.462433 34.66489 C 45.359768 34.73423 45.221104 34.822887 45.045776 34.93222 C 44.872444 35.04288 44.66245 35.149548 44.41379 35.25288 C 44.165127 35.356876 43.877804 35.446877 43.554474 35.52154 C 43.231144 35.59553 42.873158 35.63421 42.479168 35.63421 C 41.03186 35.63421 39.94122 35.22155 39.2079 34.393566 C 38.472584 33.567585 38.105255 32.44161 38.105255 31.018303 C 38.105255 30.336317 38.207916 29.710999 38.409916 29.14301 C 38.612576 28.576353 38.901905 28.090364 39.2779 27.68504 C 39.653225 27.28038 40.111217 26.96839 40.64987 26.74839 C 41.18986 26.528397 41.793182 26.418398 42.465168 26.418398 C 42.893154 26.418398 43.284485 26.467728 43.645145 26.566395 C 44.005806 26.665064 44.31713 26.77706 44.583126 26.905052 C 44.84779 27.03172 45.06245 27.156384 45.225113 27.277712 C 45.386444 27.39971 45.489773 27.48371 45.537106 27.529707 L 44.495792 29.127008 C 44.436462 29.091679 44.35046 29.034338 44.234467 28.953012 C 44.1178 28.871683 43.9798 28.79435 43.81781 28.718351 C 43.65648 28.643692 43.473145 28.577023 43.27315 28.519024 C 43.069153 28.461023 42.85783 28.431694 42.639164 28.431694 C 41.979176 28.431694 41.450523 28.645683 41.04853 29.074343 C 40.64987 29.503002 40.45121 30.15099 40.45121 31.01897 C 40.44661 31.922285 40.639874 32.58094 41.0272 32.997597 z " fill="#c2c2c2" fill-opacity="1"/>
<linearGradient gradientTransform="matrix(1 0 0 1 -498.9609 -785.0391)" gradientUnits="userSpaceOnUse" x1="532.46" x2="532.46" xlink:actuate="onLoad" xlink:show="other" xlink:type="simple" y1="837.7334" y2="789.647">
<stop offset="0" stop-color="#d0cbc5"/>
<stop offset="0.5031" stop-color="#fafcef"/>
<stop offset="0.9693" stop-color="#ffffff"/>
<stop offset="1" stop-color="#ffffff"/>
</linearGradient>
</svg>
