<?xml version="1.0" encoding="UTF-8"?>
<svg xmlns="http://www.w3.org/2000/svg" xmlns:xlink="http://www.w3.org/1999/xlink" baseProfile="tiny" contentScriptType="text/ecmascript" contentStyleType="text/css" height="30px" preserveAspectRatio="xMidYMid meet" version="1.1" viewBox="0 0 30 30" width="30px" x="0px" y="0px" zoomAndPan="magnify">
<defs/>
<path d="M 12.113095 5.4375 C 12.167975 5.45053 12.220622 5.47159 12.269345 5.5 L 27.269344 14.5 C 27.45037 14.601309 27.5625 14.792554 27.5625 15.0 C 27.5625 15.207446 27.45037 15.398691 27.269344 15.5 L 12.269344 24.5 C 12.092546 24.59482 11.879034 24.59026 11.706445 24.48798 C 11.533855 24.385706 11.427325 24.200611 11.425595 24.0 L 11.425595 19.0625 L 1.9880953 19.0625 C 1.6797783 19.0569 1.4311823 18.808317 1.4255953 18.5 L 1.4255953 11.5 C 1.4311852 11.191683 1.6797783 10.943086 1.9880953 10.9375 L 11.425595 10.9375 L 11.425595 6.0 C 11.425267 5.827765 11.502436 5.6645193 11.635739 5.555454 C 11.769042 5.446388 11.944335 5.403073 12.113095 5.4375 z " fill="#ffffff" fill-opacity="0.78431373" stroke="#969696" stroke-opacity="0.78431373"/>
<rect fill="none" height="30" width="30"/>
</svg>
