<?xml version="1.0" encoding="UTF-8"?>
<svg xmlns="http://www.w3.org/2000/svg" xmlns:xlink="http://www.w3.org/1999/xlink" baseProfile="tiny" contentScriptType="text/ecmascript" contentStyleType="text/css" height="57px" preserveAspectRatio="xMidYMid meet" version="1.1" viewBox="0 0 67 57" width="67px" x="0px" y="0px" zoomAndPan="magnify">
<rect color="#000000" display="inline" fill="#01a0f3" fill-opacity="0.58823528999999997" fill-rule="nonzero" height="48" ry="8.2174387" stroke="none" visibility="visible" width="48" x="9" y="5.5"/>
<rect fill="none" height="57" width="67"/>
<path d="M 33.092545 35.729294 C 31.425835 35.729294 30.07146 37.082973 30.07146 38.74829 C 30.07146 40.415 31.425837 41.770073 33.092545 41.770073 C 34.757168 41.770073 36.11224 40.415 36.11224 38.74829 C 36.11224 37.08297 34.756474 35.729294 33.092545 35.729294 z M 32.996555 29.688515 C 30.315628 29.688515 27.811388 30.761858 25.940865 32.71377 C 25.908865 32.74716 25.628529 33.059494 25.628529 33.54017 C 25.628529 34.217705 26.180853 34.770725 26.859083 34.770725 C 27.227066 34.770725 27.574183 34.59543 27.782175 34.323437 C 29.18455 32.907845 31.0356 32.126663 32.996555 32.122486 C 35.039597 32.126686 36.942123 32.959316 38.322235 34.431255 C 38.560833 34.77281 38.923954 34.96758 39.31767 34.96758 C 39.9966 34.96758 40.54753 34.41873 40.54753 33.740505 C 40.54753 33.376698 40.256763 32.959324 40.141983 32.811157 C 38.264496 30.798723 35.726868 29.688513 32.99655 29.688513 z M 44.185623 28.185968 C 41.180534 25.171143 37.207844 23.510693 32.997246 23.510693 C 28.710125 23.510693 24.688044 25.213577 21.701735 28.275005 C 21.657915 28.311186 21.271147 28.643686 21.271147 29.212006 C 21.271147 29.891628 21.822079 30.443954 22.499615 30.443954 C 22.852991 30.443954 23.189672 30.284657 23.407404 30.028666 C 25.961725 27.404085 29.368881 25.951628 32.997936 25.943977 C 36.674297 25.951578 40.109276 27.435389 42.68795 30.135792 C 42.72343 30.1671 43.03576 30.443254 43.553993 30.443254 C 44.23014 30.443254 44.78177 29.89093 44.78177 29.21131 C 44.781075 28.649944 44.369965 28.327175 44.185623 28.185965 z M 48.716904 23.913452 L 48.718304 23.78824 L 48.595184 23.78824 C 48.586185 23.77924 48.578484 23.77294 48.570835 23.76737 C 44.415848 19.553299 38.884956 17.229921 32.996517 17.229921 C 27.096949 17.229921 21.5598 19.558863 17.419456 23.767376 C 17.149557 24.01224 17.0 24.33501 17.0 24.680733 C 17.0 25.361053 17.550932 25.91268 18.229858 25.91268 C 18.814877 25.91268 19.129297 25.539131 19.13695 25.525219 C 22.83348 21.754253 27.755703 19.674343 32.99652 19.66391 C 38.283245 19.67435 43.236767 21.787643 47.002865 25.667128 C 47.039734 25.691467 47.37641 25.91268 47.770134 25.91268 C 48.449062 25.91268 49.0 25.360355 49.0 24.680735 C 48.9993 24.411526 48.90052 24.1458 48.71688 23.913464 z " fill="#c2c2c2" fill-opacity="1" stroke-opacity="0.3"/>
<defs>
<linearGradient gradientUnits="userSpaceOnUse" x1="33.5005" x2="33.5005" xlink:actuate="onLoad" xlink:show="other" xlink:type="simple" y1="47.2334" y2="11.9575">
<stop offset="0" stop-color="#d0cbc5"/>
<stop offset="0.5031" stop-color="#fafcef"/>
<stop offset="0.9693" stop-color="#ffffff"/>
<stop offset="1" stop-color="#ffffff"/>
</linearGradient>
</defs>
</svg>
