<?xml version="1.0" encoding="UTF-8"?>
<svg xmlns="http://www.w3.org/2000/svg" xmlns:xlink="http://www.w3.org/1999/xlink" baseProfile="tiny" contentScriptType="text/ecmascript" contentStyleType="text/css" height="27px" preserveAspectRatio="xMidYMid meet" version="1.1" viewBox="0 0 27 27" width="27px" x="0px" y="0px" zoomAndPan="magnify">
<path d="M 25.0 16.0 L 17.0 16.0 C 16.45 16.0 16.0 16.45 16.0 17.0 L 16.0 25.0 C 16.0 25.55 16.45 26.0 17.0 26.0 L 25.0 26.0 C 25.55 26.0 26.0 25.55 26.0 25.0 L 26.0 17.0 C 26.0 16.45 25.55 16.0 25.0 16.0 z M 21.0 24.0 L 18.0 19.0 L 24.0 19.0 L 21.0 24.0 z " fill="#575757"/>
<rect fill="none" height="27" width="27"/>
<path d="M 22.954 4.034 C 20.226 1.3209999 15.788 1.323 13.062 4.034 L 2.464 14.574 C 1.521 15.513 1.0 16.761 1.0 18.088 C 1.0 19.415 1.521 20.662 2.464 21.602 C 3.407 22.54 4.6610003 23.057 5.9960003 23.057 C 7.331 23.057 8.585 22.539 9.529 21.602 L 20.128 11.060999 C 21.298 9.898999 21.298 8.006999 20.128 6.844999 C 18.959 5.6829987 17.058 5.6829987 15.889 6.844999 L 5.9960003 16.682999 C 5.6050005 17.071 5.6050005 17.7 5.9960003 18.088 C 6.1910005 18.281 6.4470005 18.379 6.703 18.379 C 6.958 18.379 7.214 18.281 7.409 18.088 L 17.302 8.250999 C 17.692 7.862999 18.325 7.862 18.715 8.249999 C 19.105 8.637999 19.105 9.268999 18.715 9.655999 L 8.116 20.195 C 6.983 21.321 5.009 21.321 3.8770003 20.195 C 3.3110003 19.632 2.9980004 18.884 2.9980004 18.088 C 2.9980004 17.292 3.3110003 16.543 3.8770003 15.98 L 14.476 5.4399996 C 16.421 3.5039997 19.592 3.5009997 21.541 5.4399996 C 23.489 7.3779993 23.489 10.53 21.541 12.466999 L 18.993 15.0 L 21.819 15.0 L 22.954 13.872 C 25.682 11.16 25.682 6.747 22.954 4.034 z M 11.649 23.709 C 11.845 23.902 12.101 24.0 12.355 24.0 C 12.610999 24.0 12.867 23.902 13.061999 23.709 L 15.0 21.782 L 15.0 18.971 L 11.649 22.303 C 11.259 22.691 11.259 23.32 11.649 23.709 z " fill="#575757" fill-opacity="1"/>
<defs>
<linearGradient gradientUnits="userSpaceOnUse" x1="13.0005" x2="13.0005" xlink:actuate="onLoad" xlink:show="other" xlink:type="simple" y1="24" y2="2.0005">
<stop offset="0" stop-color="#d0cbc5"/>
<stop offset="1" stop-color="#fcfcf9"/>
</linearGradient>
</defs>
</svg>
