<?xml version="1.0" encoding="UTF-8"?>
<svg xmlns="http://www.w3.org/2000/svg" xmlns:xlink="http://www.w3.org/1999/xlink" baseProfile="tiny" contentScriptType="text/ecmascript" contentStyleType="text/css" height="27px" preserveAspectRatio="xMidYMid meet" version="1.1" viewBox="0 0 27 27" width="27px" x="0px" y="0px" zoomAndPan="magnify">
<linearGradient gradientTransform="matrix(1 0 0 -1 0.04 26.1543)" gradientUnits="userSpaceOnUse" x1="12.9595" x2="12.9595" xlink:actuate="onLoad" xlink:show="other" xlink:type="simple" y1="1.1543" y2="24.1548">
<stop offset="0" stop-color="#d0cbc5"/>
<stop offset="1" stop-color="#fcfcf9"/>
</linearGradient>
<path d="M 7.0 2.901 L 7.0 13.901 C 9.543 12.172 12.964001 13.764 16.083 15.233 C 16.359 15.089 16.668 15.0 17.0 15.0 L 22.0 15.0 L 22.0 5.901 C 18.471 6.901 11.412 -0.099 7.0 2.901 z M 5.0 2.0 C 4.447 2.0 4.0 2.448 4.0 3.0 L 4.0 25.0 L 6.0 25.0 L 6.0 3.0 C 6.0 2.448 5.553 2.0 5.0 2.0 z " fill="#575757" fill-opacity="1"/>
<path d="M 25.0 16.0 L 17.0 16.0 C 16.45 16.0 16.0 16.45 16.0 17.0 L 16.0 25.0 C 16.0 25.55 16.45 26.0 17.0 26.0 L 25.0 26.0 C 25.55 26.0 26.0 25.55 26.0 25.0 L 26.0 17.0 C 26.0 16.45 25.55 16.0 25.0 16.0 z M 21.0 24.0 L 18.0 19.0 L 24.0 19.0 L 21.0 24.0 z " fill="#575757"/>
<rect fill="none" height="27" width="27"/>
</svg>
