<?xml version="1.0" encoding="UTF-8"?>
<svg xmlns="http://www.w3.org/2000/svg" xmlns:xlink="http://www.w3.org/1999/xlink" baseProfile="tiny" contentScriptType="text/ecmascript" contentStyleType="text/css" height="57px" preserveAspectRatio="xMidYMid meet" version="1.1" viewBox="0 0 67 57" width="67px" x="0px" y="0px" zoomAndPan="magnify">
<rect fill="#0500a7" fill-opacity="0.58823532" fill-rule="nonzero" height="48" ry="8.2174387" stroke="none" width="48" x="9.5" y="4.5"/>
<path d="M 43.889423 23.354116 L 43.03105 23.354116 L 43.03105 20.890812 C 43.245834 18.567257 42.43601 14.027536 37.831562 12.894079 C 37.75286 12.874219 36.005962 12.454229 33.515446 12.504245 C 31.026394 12.453495 29.276558 12.874219 29.203741 12.891871 C 24.592674 14.027536 23.783588 18.567257 23.999834 20.890812 L 23.999834 23.354116 L 22.942135 23.354116 C 21.777784 23.354116 20.995913 24.30737 20.995913 25.468042 L 20.995913 42.386074 C 20.995913 43.54896 21.777784 44.5 22.942135 44.5 L 43.889427 44.5 C 45.051575 44.5 46.00409 43.548954 46.00409 42.386074 L 46.00409 25.468042 C 46.00409 24.307373 45.051575 23.354116 43.889427 23.354116 z M 34.92547 34.240765 L 34.92547 39.037186 L 32.105427 39.037186 L 32.105427 34.241497 C 31.265451 33.7531 30.696146 32.85428 30.696146 31.812025 C 30.696146 30.255634 31.957588 28.993452 33.51545 28.993452 C 35.06816 28.993452 36.334747 30.25563 36.334747 31.812025 C 36.334747 32.85207 35.761772 33.751633 34.92547 34.240757 z M 39.86679 20.643654 L 39.86089 23.354832 L 27.171444 23.354832 L 27.171444 20.812092 L 27.163343 20.653214 C 27.124363 20.25382 26.876484 16.734285 29.963524 15.973009 C 29.977493 15.970009 31.233057 15.672909 33.066746 15.665555 L 33.066746 15.686145 C 33.219734 15.679445 33.36096 15.677245 33.509537 15.676545 C 33.66032 15.67728 33.806694 15.678745 33.964832 15.686145 L 33.964832 15.665555 C 35.797047 15.669955 37.052605 15.970066 37.068058 15.975215 C 40.15362 16.733551 39.905746 20.253082 39.866764 20.643654 z " fill="#ffffff" fill-opacity="1" stroke-opacity="0.3"/>
<defs>
<linearGradient gradientUnits="userSpaceOnUse" x1="34" x2="34" xlink:actuate="onLoad" xlink:show="other" xlink:type="simple" y1="49.9551" y2="6.4497">
<stop offset="0" stop-color="#d0cbc5"/>
<stop offset="0.5031" stop-color="#fafcef"/>
<stop offset="0.9693" stop-color="#ffffff"/>
<stop offset="1" stop-color="#ffffff"/>
</linearGradient>
</defs>
</svg>
