<?xml version="1.0" encoding="UTF-8"?>
<svg xmlns="http://www.w3.org/2000/svg" xmlns:xlink="http://www.w3.org/1999/xlink" baseProfile="tiny" contentScriptType="text/ecmascript" contentStyleType="text/css" height="27px" preserveAspectRatio="xMidYMid meet" version="1.1" viewBox="0 0 27 27" width="27px" x="0px" y="0px" zoomAndPan="magnify">
<rect fill="none" height="27" width="27"/>
<path d="M 15.0 17.0 C 15.0 16.524 15.174 16.094 15.451 15.75 L 8.0 15.75 C 7.586 15.75 7.25 15.414 7.25 15.0 C 7.25 14.586 7.586 14.25 8.0 14.25 L 17.0 14.25 C 17.414 14.25 17.75 14.586 17.75 15.0 L 23.0 15.0 L 23.0 4.0 C 23.0 3.45 22.55 3.0 22.0 3.0 L 5.0 3.0 C 4.45 3.0 4.0 3.45 4.0 4.0 L 4.0 23.0 C 4.0 23.55 4.45 24.0 5.0 24.0 L 15.0 24.0 L 15.0 17.0 z M 19.0 12.75 L 8.0 12.75 C 7.586 12.75 7.25 12.414 7.25 12.0 C 7.25 11.586 7.586 11.25 8.0 11.25 L 19.0 11.25 C 19.414 11.25 19.75 11.586 19.75 12.0 C 19.75 12.414 19.414 12.75 19.0 12.75 z M 6.75 8.0 C 6.75 7.31 7.31 6.75 8.0 6.75 L 19.0 6.75 C 19.69 6.75 20.25 7.31 20.25 8.0 C 20.25 8.690001 19.69 9.25 19.0 9.25 L 8.0 9.25 C 7.31 9.25 6.75 8.69 6.75 8.0 z " fill="#575757" fill-opacity="1"/>
<path d="M 25.0 16.0 L 17.0 16.0 C 16.45 16.0 16.0 16.45 16.0 17.0 L 16.0 25.0 C 16.0 25.55 16.45 26.0 17.0 26.0 L 25.0 26.0 C 25.55 26.0 26.0 25.55 26.0 25.0 L 26.0 17.0 C 26.0 16.45 25.55 16.0 25.0 16.0 z M 21.0 24.0 L 18.0 19.0 L 24.0 19.0 L 21.0 24.0 z " fill="#575757"/>
<defs>
<linearGradient gradientUnits="userSpaceOnUse" x1="13.5005" x2="13.5005" xlink:actuate="onLoad" xlink:show="other" xlink:type="simple" y1="24" y2="3.0005">
<stop offset="0" stop-color="#d0cbc5"/>
<stop offset="1" stop-color="#fcfcf9"/>
</linearGradient>
</defs>
</svg>
