<?xml version="1.0" encoding="UTF-8"?>
<svg xmlns="http://www.w3.org/2000/svg" xmlns:xlink="http://www.w3.org/1999/xlink" baseProfile="tiny" contentScriptType="text/ecmascript" contentStyleType="text/css" height="27px" preserveAspectRatio="xMidYMid meet" version="1.1" viewBox="0 0 27 27" width="27px" x="0px" y="0px" zoomAndPan="magnify">
<rect fill="none" height="27" width="27"/>
<path d="M 15.0 17.0 C 15.0 15.944 15.824 15.087 16.861 15.014 C 17.257 14.209 17.43 13.326 17.43 13.326 C 17.455 13.253 17.48 13.184 17.503 13.12 C 17.941 13.662 18.166 12.388 18.347 11.801 C 18.536 11.183 18.617 10.778999 18.617 10.778999 C 18.694 10.15 18.221 10.337999 18.221 10.337999 L 18.186 10.376999 C 18.251 9.503999 18.502 8.970999 18.504002 8.181999 C 18.508 6.965999 18.805002 6.5229993 17.576002 4.659999 C 17.194002 4.0829988 16.671001 3.987999 14.495002 3.276999 C 12.319002 2.564999 12.010002 3.467999 11.293002 3.380999 C 10.570003 3.2949991 10.468002 3.588999 10.331002 3.851999 C 10.193003 4.111999 10.331002 4.319999 9.936002 4.335999 C 9.544 4.352 9.368 4.658 9.368 4.658 C 8.194 6.557 8.633 7.127 8.59 8.344 C 8.568 8.989 8.674 9.472 9.005 10.362 L 8.969 10.313999 C 8.969 10.313999 8.509 10.094999 8.540999 10.725999 C 8.540999 10.725999 8.478 10.921999 8.742 11.765999 C 8.893 12.248999 9.013 13.600999 9.464 13.172998 C 9.481 13.223998 9.495999 13.273998 9.514 13.325998 C 9.514 13.325998 9.867 15.1849985 10.757999 15.966998 C 10.938999 16.137999 10.825 16.669998 10.700999 17.173998 C 10.648999 17.367 10.397999 18.679998 8.823999 19.316998 C 8.823999 19.316998 7.389 19.877998 5.9399996 20.731998 C 5.9399996 20.731998 4.9729996 21.222998 4.7719994 22.037998 L 4.75 22.158 C 5.572 22.632002 6.538 23.019 7.666 23.314 C 10.422 24.033 12.3220005 24.018002 13.607 23.990002 C 14.006 23.999002 14.474 24.004002 15.0 23.988 L 15.0 17.0 z " fill="#575757" fill-opacity="1"/>
<path d="M 25.0 16.0 L 17.0 16.0 C 16.45 16.0 16.0 16.45 16.0 17.0 L 16.0 25.0 C 16.0 25.55 16.45 26.0 17.0 26.0 L 25.0 26.0 C 25.55 26.0 26.0 25.55 26.0 25.0 L 26.0 17.0 C 26.0 16.45 25.55 16.0 25.0 16.0 z M 18.0 23.0 L 21.0 18.0 L 24.0 23.0 L 18.0 23.0 z " fill="#575757"/>
<defs>
<linearGradient gradientUnits="userSpaceOnUse" x1="11.688" x2="11.688" xlink:actuate="onLoad" xlink:show="other" xlink:type="simple" y1="24" y2="3.0005">
<stop offset="0" stop-color="#d0cbc5"/>
<stop offset="1" stop-color="#fcfcf9"/>
</linearGradient>
</defs>
</svg>
