<?xml version="1.0" encoding="UTF-8"?>
<svg xmlns="http://www.w3.org/2000/svg" xmlns:xlink="http://www.w3.org/1999/xlink" baseProfile="tiny" contentScriptType="text/ecmascript" contentStyleType="text/css" height="30px" preserveAspectRatio="xMidYMid meet" version="1.1" viewBox="0 0 30 30" width="30px" x="0px" y="0px" zoomAndPan="magnify">
<defs/>
<rect color="#000000" display="inline" fill="#353535" fill-opacity="0.58823529" fill-rule="nonzero" height="27.533897" ry="4.7137108" stroke="none" visibility="visible" width="27.533897" x="1.3601699" y="1.4872886"/>
<path d="M 7.460452 19.587572 L 7.460452 8.920905 L 22.12712 8.920905 L 22.12712 14.562906 C 22.622452 14.791574 23.073118 15.100239 23.460453 15.47424 L 23.460453 8.254238 C 23.460453 7.8875723 23.160454 7.587572 22.793787 7.587572 L 6.793787 7.587572 C 6.42712 7.587572 6.1271205 7.8875723 6.1271205 8.254238 L 6.1271205 20.254238 C 6.1271205 20.620905 6.4271207 20.920906 6.793787 20.920906 L 15.76912 20.920906 C 15.577787 20.504906 15.44512 20.057573 15.378453 19.587574 L 7.460453 19.587574 z M 17.224453 11.823574 L 13.793787 15.25424 L 11.696453 13.156907 C 11.567121 13.027575 11.354453 13.027575 11.225121 13.156907 L 8.460453 15.920907 L 8.460453 18.587574 L 15.343788 18.587574 C 15.513788 16.13824 17.524454 14.19224 19.999788 14.127573 L 17.69579 11.823573 C 17.566456 11.693573 17.354458 11.693573 17.224455 11.823573 z M 20.127121 14.920906 C 17.918453 14.920906 16.127121 16.712238 16.127121 18.920906 C 16.127121 21.129574 17.918453 22.920906 20.127121 22.920906 C 22.335789 22.920906 24.127121 21.129574 24.127121 18.920906 C 24.127121 16.712238 22.335789 14.920906 20.127121 14.920906 z M 22.23912 19.290905 L 19.348454 21.218239 C 19.043787 21.420904 18.793787 21.287569 18.793787 20.920904 L 18.793787 16.920904 C 18.793787 16.554237 19.043787 16.420904 19.348454 16.624237 L 22.23912 18.55157 C 22.543787 18.754238 22.543787 19.087572 22.23912 19.290903 z " fill="#ffffff"/>
</svg>
