<?xml version="1.0" encoding="UTF-8"?>
<svg xmlns="http://www.w3.org/2000/svg" xmlns:xlink="http://www.w3.org/1999/xlink" baseProfile="tiny" contentScriptType="text/ecmascript" contentStyleType="text/css" height="27px" preserveAspectRatio="xMidYMid meet" version="1.1" viewBox="0 0 27 27" width="27px" x="0px" y="0px" zoomAndPan="magnify">
<rect fill="none" height="27" width="27"/>
<defs>
<linearGradient gradientUnits="userSpaceOnUse" x1="13.5005" x2="13.5005" xlink:actuate="onLoad" xlink:show="other" xlink:type="simple" y1="23" y2="4.0005">
<stop offset="0" stop-color="#d0cbc5"/>
<stop offset="1" stop-color="#fcfcf9"/>
</linearGradient>
<linearGradient gradientTransform="matrix(1,0,0,-1,0.04,95.1543)" gradientUnits="userSpaceOnUse" x1="52.584999" x2="52.584999" xlink:actuate="onLoad" xlink:show="other" xlink:type="simple" y1="10.1465" y2="75.504402">
<stop offset="0" stop-color="#960000"/>
<stop offset="0.6768" stop-color="#ff0000"/>
<stop offset="1" stop-color="#fa3c3c"/>
</linearGradient>
</defs>
<path d="M 13.5 22.5 C 8.537144 22.5 4.5 18.462856 4.5 13.5 C 4.5 8.537145 8.537144 4.500002 13.5 4.500002 C 18.462856 4.500002 22.5 8.537146 22.5 13.5 C 22.5 18.462856 18.462856 22.5 13.5 22.5 L 13.5 22.5 z " fill="#e5e5e5" fill-opacity="0.78431374"/>
<path d="M 18.184608 12.208824 L 15.322262 12.208824 L 16.753359 9.730169 C 17.038956 9.235679 16.86958 8.603423 16.374933 8.317513 C 15.880752 8.032225 15.247568 8.201447 14.962433 8.696092 L 13.531337 11.174746 L 12.100086 8.696092 C 11.814642 8.201602 11.182233 8.032225 10.687587 8.317515 C 10.192785 8.602959 10.023719 9.235523 10.309164 9.730169 L 11.740259 12.208824 L 8.877759 12.208824 C 8.306716 12.208824 7.8436832 12.671858 7.8436832 13.243056 C 7.8436832 13.8141 8.306717 14.276979 8.877759 14.276979 L 11.740105 14.276979 L 10.309009 16.755787 C 10.023564 17.250587 10.192629 17.882689 10.687432 18.168444 C 10.850299 18.262344 11.027889 18.307133 11.2034645 18.307133 C 11.560965 18.307133 11.908398 18.12164 12.099931 17.789862 L 13.531181 15.311209 L 14.962277 17.789862 C 15.153347 18.12164 15.501398 18.307133 15.858746 18.307133 C 16.03401 18.307133 16.211908 18.262505 16.374777 18.168442 C 16.869425 17.882689 17.0388 17.250586 16.7532 16.755785 L 15.322104 14.276978 L 18.184605 14.276978 C 18.755651 14.276978 19.21868 13.814098 19.21868 13.243054 C 19.21868 12.672011 18.755651 12.208822 18.184605 12.208822 z " fill="#fa664b"/>
<path d="M 13.5 23.258698 C 8.118776 23.258698 3.7413025 18.881222 3.7413025 13.499999 C 3.7413025 8.118777 8.118776 3.7413034 13.5 3.7413034 C 18.881224 3.7413034 23.258698 8.118778 23.258698 13.499999 C 23.258698 18.881222 18.881222 23.258698 13.499999 23.258698 L 13.499999 23.258698 z " fill="none" stroke="#fa664b" stroke-dasharray="none" stroke-miterlimit="4" stroke-opacity="1" stroke-width="1.5"/>
</svg>
