<?xml version="1.0" encoding="UTF-8"?>
<svg xmlns="http://www.w3.org/2000/svg" xmlns:xlink="http://www.w3.org/1999/xlink" baseProfile="tiny" contentScriptType="text/ecmascript" contentStyleType="text/css" height="96px" preserveAspectRatio="xMidYMid meet" version="1.1" viewBox="0 0 96 96" width="96px" x="0px" y="0px" zoomAndPan="magnify">
<defs>
<linearGradient>
<stop offset="0" stop-color="#3a84ff" stop-opacity="1"/>
<stop offset="1" stop-color="#3a61ff" stop-opacity="0.99576271"/>
</linearGradient>
<linearGradient gradientUnits="userSpaceOnUse" id="linearGradient3804" x1="48.677967" x2="48.677967" y1="9.3559322" y2="88.678429">
<stop offset="0" stop-color="#3a84ff" stop-opacity="1"/>
<stop offset="1" stop-color="#3a61ff" stop-opacity="0.99576271"/>
</linearGradient>
<linearGradient gradientTransform="matrix(0,1,-1,0,96,0)" gradientUnits="userSpaceOnUse" id="linearGradient3804-1" x1="8" x2="88" y1="48" y2="48">
<stop offset="0" stop-color="#00b2d9" stop-opacity="1"/>
<stop offset="1" stop-color="#009cd9" stop-opacity="1"/>
</linearGradient>
<linearGradient gradientTransform="matrix(0,1,-1,0,177.35593,-23.59322)" gradientUnits="userSpaceOnUse" id="linearGradient3804-1" x1="8" x2="88" y1="48" y2="48">
<stop offset="0" stop-color="#00b2d9" stop-opacity="1"/>
<stop offset="1" stop-color="#009cd9" stop-opacity="1"/>
</linearGradient>
</defs>
<path d="M 88.0 49.0 C 88.0 78.633 77.637 89.0 48.0 89.0 C 18.365 89.0 8.0 78.633 8.0 49.0 C 8.0 19.365 18.365 9.0 48.0 9.0 C 77.636 9.0 88.0 19.365 88.0 49.0 z " fill-opacity="0.4" stroke-opacity="0.4"/>
<rect fill="none" height="96" width="96"/>
<linearGradient gradientUnits="userSpaceOnUse" x1="47.9995" x2="47.9995" xlink:actuate="onLoad" xlink:show="other" xlink:type="simple" y1="8.5449" y2="89.2398">
<stop offset="0" stop-color="#00bacc"/>
<stop offset="0.2312" stop-color="#01a1bb"/>
<stop offset="0.747" stop-color="#026d98"/>
<stop offset="1" stop-color="#02598b"/>
</linearGradient>
<path d="M 88.0 48.0 C 88.0 77.633 77.637 88.0 48.0 88.0 C 18.365 88.0 8.0 77.633 8.0 48.0 C 8.0 18.365 18.365 8.0 48.0 8.0 C 77.636 8.0 88.0 18.365 88.0 48.0 z " fill="url(#linearGradient3804)" fill-opacity="1"/>
<linearGradient gradientUnits="userSpaceOnUse" id="SVGID_2_" x1="47.9995" x2="47.9995" xlink:actuate="onLoad" xlink:show="other" xlink:type="simple" y1="8.2534" y2="87.4985">
<stop offset="0" stop-color="#ffffff"/>
<stop offset="1" stop-color="#ffffff" stop-opacity="0"/>
</linearGradient>
<path d="M 48.0 8.0 C 18.365 8.0 8.0 18.365 8.0 48.0 C 8.0 77.633 18.365 88.0 48.0 88.0 C 77.636 88.0 88.0 77.633 88.0 48.0 C 88.0 18.365 77.636 8.0 48.0 8.0 z M 48.0 87.0 C 18.842 87.0 9.0 77.159 9.0 48.0 C 9.0 18.842 18.842 9.0 48.0 9.0 C 77.158005 9.0 87.0 18.842 87.0 48.0 C 87.0 77.159 77.158 87.0 48.0 87.0 z " fill="url(#SVGID_2_)" fill-opacity="0.25" stroke-opacity="0.25"/>
<linearGradient gradientUnits="userSpaceOnUse" x1="47.9995" x2="47.9995" xlink:actuate="onLoad" xlink:show="other" xlink:type="simple" y1="27.8447" y2="77.9766">
<stop offset="0" stop-color="#fafcef"/>
<stop offset="0.3232" stop-color="#fafcef"/>
<stop offset="1" stop-color="#d0cbc5"/>
</linearGradient>
<g transform="translate(-3.427896,2.5531315)">
<path color="#000000" d="M 47.242012 23.75 C 41.819996 23.750034 36.941017 25.005808 32.899822 27.597904 C 28.894394 30.167114 25.810846 33.908245 23.717323 38.5586 C 21.9997 42.354565 21.093748 46.407 21.093752 50.62703 C 21.093748 54.43223 21.865704 58.04105 23.338364 61.354523 C 24.561317 64.074234 26.403845 66.51063 28.760412 68.55477 C 31.158367 70.63482 34.036015 72.16786 37.301594 73.1606 C 40.551994 74.148705 44.03203 74.58898 47.708427 74.58899 C 51.703625 74.58898 55.254734 74.076225 58.348465 72.92739 C 61.28888 71.835464 63.917797 70.35156 66.16088 68.37987 C 68.30137 66.49826 69.94473 64.51623 70.970764 62.403954 C 71.43799 61.455772 71.39747 60.315502 70.82501 59.40142 C 70.252556 58.487343 69.26 57.966625 68.20144 57.97303 L 65.34466 57.97303 C 68.42085 54.18804 70.12534 49.746536 70.12539 44.942627 C 70.12534 41.329178 69.26901 37.833454 67.501816 34.68155 C 65.46021 31.082 62.534813 28.268791 58.96063 26.431871 C 55.43228 24.618624 51.49236 23.750036 47.242012 23.75 z M 47.008804 33.31146 C 48.901077 33.311478 50.57752 33.662327 52.168495 34.18598 C 51.637737 34.33261 51.178234 34.55434 50.79841 34.9439 C 50.689255 34.86603 50.63817 34.81545 50.5069 34.739845 C 49.220795 33.999153 47.798187 33.58303 46.30919 33.398907 C 46.553215 33.389805 46.759453 33.31146 47.00881 33.31146 z M 59.514496 40.42425 C 60.149426 41.83727 60.534744 43.264515 60.534775 44.85517 C 60.534748 46.566135 60.12537 48.27844 59.281292 49.98571 C 58.571136 51.421986 57.7447 52.435005 56.745174 53.27975 C 56.750374 53.25561 56.739975 53.245842 56.745174 53.22145 L 59.5145 40.42425 z M 45.405518 42.90207 C 46.265144 42.902077 46.425385 42.95671 46.97966 43.572536 C 47.37493 44.011745 47.70841 44.79905 47.70843 46.429314 C 47.70841 47.635845 47.486942 48.8947 47.037964 50.160614 C 46.57545 51.464592 46.08334 52.327747 45.492973 53.01739 C 44.806934 53.81876 44.151722 54.350735 43.59817 54.649837 C 43.00349 54.97115 42.56609 55.028805 42.315536 55.028797 C 42.055378 55.028797 41.9721 55.004955 41.849125 54.94135 C 41.72615 54.87774 41.52509 54.729317 41.207806 54.358334 C 40.770935 53.847538 40.44987 53.089214 40.449886 51.443253 C 40.449875 50.47378 40.61597 49.28713 41.0329 47.945156 C 41.44663 46.613445 41.97414 45.577454 42.548744 44.79687 C 43.168015 43.955593 43.7385 43.46061 44.15204 43.22273 C 44.60573 42.96175 44.854877 42.90208 45.40552 42.90207 z M 47.620983 62.520554 C 48.09365 63.008904 48.517975 63.555717 49.136826 63.86149 C 50.091026 64.33299 51.10987 64.51201 52.168507 64.590256 C 50.808056 64.83003 49.34557 64.99836 47.650135 64.99837 C 45.86276 64.99836 44.186672 64.815254 42.607048 64.50281 C 44.06046 64.323875 45.465893 63.91481 46.74646 63.19102 C 47.17695 62.947697 47.360905 62.761395 47.620983 62.520554 z " display="inline" fill="#000000" fill-opacity="0.07843137" fill-rule="nonzero" stroke="none" visibility="visible"/>
<path color="#000000" d="M 47.242012 24.82858 C 41.984707 24.828617 37.32598 26.036518 33.482838 28.501581 C 29.664808 30.950588 26.729223 34.507107 24.708448 38.995865 C 23.050226 42.66055 22.172327 46.561825 22.172329 50.62703 C 22.172325 54.286285 22.917274 57.73979 24.329489 60.91726 C 25.486567 63.49047 27.213715 65.79004 29.46003 67.73855 C 31.734264 69.71128 34.48456 71.186455 37.622253 72.14032 C 40.75148 73.0916 44.115593 73.5104 47.708427 73.51041 C 51.609726 73.5104 55.028046 72.9994 57.969505 71.90711 C 60.80999 70.852295 63.332306 69.43502 65.46126 67.563644 C 67.52592 65.748695 69.065155 63.88018 70.00878 61.937542 C 70.31541 61.315277 70.27793 60.5786 69.90973 59.990673 C 69.54153 59.402744 68.89513 59.047417 68.20143 59.051613 L 64.003716 59.051613 C 63.34931 59.058712 62.739704 59.385258 62.371273 59.926136 C 61.247913 61.53453 59.437607 63.01793 56.920074 64.26961 C 54.528915 65.45841 51.48412 66.07695 47.650124 66.07696 C 44.093334 66.07695 40.91848 65.46853 38.059513 64.26961 C 35.26725 63.09866 33.247856 61.42262 31.821243 59.051617 C 30.38948 56.67209 29.66408 53.76062 29.664083 50.248077 C 29.664078 46.9191 30.377787 43.89094 31.879543 41.007275 C 33.36214 38.160416 35.413853 36.04947 38.08866 34.535797 C 40.79345 33.0052 43.705605 32.232914 47.008804 32.232883 C 49.903954 32.23291 52.46019 32.814228 54.792065 34.01108 C 55.36059 34.302902 55.760754 34.671455 56.249603 35.00221 L 52.926414 35.00221 C 52.031315 35.003147 51.245678 35.598328 51.002464 36.459747 C 50.660633 36.19557 50.35473 35.887253 49.982185 35.672676 C 48.49029 34.81347 46.83152 34.302628 45.114002 34.30259 C 42.875 34.302628 40.66482 35.123188 38.555073 36.51805 C 36.346615 37.978203 34.548264 40.13112 33.162174 42.843773 C 31.777277 45.55408 31.034157 48.346813 31.034166 51.15175 C 31.034157 53.424034 31.517376 55.56228 32.462555 57.506622 C 33.40365 59.442627 34.721905 61.016632 36.39791 62.054146 C 37.9589 63.020485 39.68626 63.599136 41.47015 63.599136 C 43.122227 63.599136 44.73655 63.097637 46.22173 62.2582 C 46.738724 61.96598 47.14141 61.479134 47.620968 61.12132 C 48.145924 61.872032 48.83002 62.517483 49.60322 62.899517 C 50.63887 63.411274 51.79096 63.599136 53.072166 63.599136 C 57.041195 63.599136 60.718666 61.654915 63.79966 58.23539 C 67.24677 54.433376 69.04675 49.897675 69.0468 44.942627 C 69.04675 41.496494 68.24242 38.190964 66.56898 35.20626 C 64.62656 31.78156 61.857697 29.137466 58.465057 27.393848 C 55.100594 25.664824 51.346294 24.828617 47.242 24.828579 z M 59.01892 37.567474 C 59.299034 37.93095 59.660267 38.250618 59.893444 38.646053 C 61.054623 40.615383 61.613304 42.623928 61.61334 44.85517 C 61.6133 46.741493 61.151867 48.614326 60.24325 50.45212 C 59.332577 52.293938 58.241116 53.64963 56.774307 54.678986 C 56.764606 54.678917 56.75488 54.678917 56.74516 54.678986 C 55.86606 55.30252 55.49086 55.34254 55.171017 55.436905 C 55.283447 54.858494 55.47014 54.04092 55.695732 52.98824 L 59.018925 37.56747 z M 45.405502 41.823486 C 46.437263 41.8235 47.07142 42.071243 47.766716 42.843765 C 48.390095 43.536438 48.786972 44.640038 48.786995 46.429314 C 48.786972 47.76557 48.54515 49.137516 48.058228 50.510426 C 47.563972 51.903893 46.99884 52.911377 46.30918 53.717014 C 45.558105 54.594357 44.82449 55.203556 44.12287 55.582664 C 43.3906 55.97832 42.769768 56.107384 42.31552 56.10738 C 41.601715 56.107384 41.12433 55.914734 40.39157 55.057953 C 39.760944 54.320618 39.37128 53.24432 39.371292 51.443253 C 39.371277 50.345306 39.568027 49.055473 40.01261 47.6245 C 40.453777 46.20447 41.01149 45.055847 41.674206 44.155556 C 42.366127 43.215576 43.051445 42.621162 43.627308 42.289906 C 44.210014 41.954723 44.718033 41.82351 45.405506 41.823494 z " display="inline" fill="#000000" fill-opacity="0.07843137" fill-rule="nonzero" stroke="none" visibility="visible"/>
<path d="M 35.134872 45.70871 L 35.134872 44.930733 C 35.128372 45.077187 35.120884 45.34957 35.134872 45.70871 z " fill="#f16522"/>
<path d="M 55.13558 50.717983 L 55.13558 50.431606 C 55.131878 50.512768 55.131878 50.608845 55.13558 50.717983 z " fill="#ffffff"/>
<path color="#000000" d="M 47.233147 27.767124 C 51.073288 27.767159 54.50621 28.536737 57.564438 30.108383 C 60.622597 31.680101 63.04593 34.01981 64.81122 37.13217 C 66.31316 39.811024 67.04094 42.72212 67.040985 45.86546 C 67.04093 50.355988 65.480095 54.347908 62.3213 57.831924 C 59.50307 60.95981 56.412354 62.514454 53.067726 62.514454 C 51.999264 62.514454 51.124386 62.356518 50.46632 62.031338 C 49.8082 61.70616 49.326633 61.26021 49.016964 60.656307 C 48.815643 60.269196 48.701054 59.594074 48.608173 58.64951 C 47.601654 59.81086 46.47283 60.732185 45.22635 61.43673 C 43.97982 62.141273 42.72712 62.51445 41.472893 62.51445 C 40.094746 62.51445 38.75998 62.093273 37.459305 61.288074 C 36.158585 60.482883 35.076218 59.244118 34.26329 57.57178 C 33.450344 55.899456 33.036907 54.069187 33.036915 52.07167 C 33.036907 49.60964 33.67022 47.14605 34.932228 44.676247 C 36.194206 42.206482 37.77827 40.340595 39.65192 39.10181 C 41.52553 37.863068 43.34961 37.24369 45.11487 37.243668 C 46.461994 37.243694 47.756504 37.61687 48.97981 38.321392 C 50.203056 39.025963 51.256012 40.077362 52.138657 41.517403 L 52.919075 37.949764 L 57.081318 37.949764 L 53.73666 53.521023 C 53.272087 55.68887 53.03053 56.893566 53.03056 57.12583 C 53.03053 57.543922 53.196217 57.90161 53.513676 58.203556 C 53.831078 58.50551 54.21664 58.649513 54.66573 58.64951 C 55.486374 58.649513 56.5672 58.18188 57.898903 57.23732 C 59.664104 55.998566 61.031384 54.340164 62.06115 52.25749 C 63.090828 50.174828 63.621956 48.005447 63.62199 45.791138 C 63.621956 43.205242 62.939083 40.78965 61.615192 38.54437 C 60.29122 36.299133 58.330883 34.50293 55.706287 33.155746 C 53.081623 31.808622 50.184464 31.148981 47.010162 31.148952 C 43.386757 31.148981 40.083908 32.017666 37.08766 33.713192 C 34.09139 35.40878 31.750128 37.830563 30.101034 40.99712 C 28.451923 44.163734 27.648273 47.55639 27.648281 51.17976 C 27.648273 54.973484 28.451921 58.250015 30.101036 60.99077 C 31.75013 63.73154 34.15333 65.73988 37.27348 67.04833 C 40.393597 68.356766 43.848198 69.01796 47.641937 69.01797 C 51.69886 69.01796 55.08378 68.33664 57.824574 66.974014 C 60.5653 65.611374 62.630947 63.945236 63.993626 61.994183 L 68.19304 61.994183 C 67.40327 63.620056 66.06232 65.286194 64.14227 66.974014 C 62.22214 68.66183 59.914955 70.00434 57.26713 70.98761 C 54.619244 71.97087 51.44801 72.43695 47.716263 72.436966 C 44.27867 72.43696 41.10589 72.018875 38.202557 71.13626 C 35.29919 70.25363 32.813923 68.93279 30.769974 67.15982 C 28.726007 65.38683 27.199232 63.33514 26.161772 61.02794 C 24.861069 58.101368 24.192133 54.94252 24.19214 51.551395 C 24.192133 47.773182 24.984945 44.15909 26.533401 40.73698 C 28.422512 36.54069 31.084305 33.34159 34.560593 31.111786 C 38.03686 28.882044 42.278076 27.767157 47.233154 27.767124 z M 45.412167 40.736977 C 44.42113 40.737 43.4998 40.97701 42.624943 41.480236 C 41.750042 41.9835 40.881363 42.780956 40.0607 43.89583 C 39.239998 45.01073 38.58655 46.38886 38.091064 47.98375 C 37.595543 49.57867 37.34779 51.037315 37.34781 52.368973 C 37.347794 54.490364 37.864975 56.13482 38.871487 57.31164 C 39.877964 58.488472 41.026917 59.0583 42.32764 59.0583 C 43.194748 59.0583 44.117634 58.79661 45.077694 58.277878 C 46.037712 57.75915 46.95285 56.99576 47.827747 55.973778 C 48.702606 54.95181 49.388565 53.680523 49.946037 52.108837 C 50.503452 50.537163 50.800755 48.93142 50.80078 47.351982 C 50.800755 45.2461 50.28512 43.60784 49.23994 42.44648 C 48.194714 41.285168 46.914143 40.737007 45.412167 40.736988 z " display="inline" fill="#000000" fill-opacity="0.07843137" fill-rule="nonzero" stroke="none" visibility="visible"/>
<path color="#000000" d="M 47.233147 24.968927 C 51.073284 24.968962 54.506203 25.73854 57.56443 27.31019 C 60.622593 28.881907 63.04592 31.221619 64.8112 34.33398 C 66.313156 37.012833 67.040924 39.923923 67.04097 43.06727 C 67.040924 47.5578 65.48009 51.549717 62.321285 55.03373 C 59.50306 58.161613 56.41234 59.71626 53.06771 59.71626 C 51.99925 59.71626 51.12437 59.558315 50.46631 59.233143 C 49.80819 58.907967 49.32662 58.462013 49.016953 57.858112 C 48.815628 57.471 48.70104 56.795876 48.608162 55.85131 C 47.60164 57.012665 46.472816 57.93399 45.226334 58.638535 C 43.979805 59.343082 42.727104 59.71626 41.472878 59.71626 C 40.09473 59.71626 38.759968 59.29508 37.459282 58.489883 C 36.158566 57.684685 35.0762 56.445927 34.26327 54.77359 C 33.450325 53.101265 33.03688 51.27099 33.036896 49.273476 C 33.03688 46.811443 33.670204 44.347855 34.932205 41.87805 C 36.194183 39.408287 37.77825 37.5424 39.651897 36.30361 C 41.52551 35.064873 43.34959 34.445503 45.114845 34.44547 C 46.461975 34.445503 47.75648 34.818672 48.979786 35.523197 C 50.203037 36.227768 51.25599 37.279167 52.138634 38.719208 L 52.919056 35.151566 L 57.081303 35.151566 L 53.736645 50.722828 C 53.27207 52.89067 53.030514 54.095367 53.030544 54.32763 C 53.030514 54.745716 53.1962 55.10341 53.51366 55.405354 C 53.831062 55.707306 54.216625 55.851307 54.665714 55.851307 C 55.48636 55.851307 56.567184 55.383682 57.898888 54.439117 C 59.66409 53.200363 61.03137 51.541965 62.061134 49.459286 C 63.090813 47.37662 63.62194 45.20724 63.621975 42.992935 C 63.621937 40.40704 62.939068 37.99145 61.615177 35.74617 C 60.291206 33.500935 58.330868 31.704727 55.706272 30.357544 C 53.081608 29.010418 50.18445 28.350779 47.010147 28.350748 C 43.38674 28.35078 40.083893 29.219467 37.087646 30.91499 C 34.091373 32.610573 31.750113 35.032356 30.101019 38.19892 C 28.451908 41.365536 27.648258 44.758194 27.648266 48.38156 C 27.648258 52.17528 28.451906 55.451813 30.10102 58.192574 C 31.750114 60.933342 34.153316 62.941685 37.273464 64.25013 C 40.39358 65.55856 43.848183 66.21976 47.641922 66.219765 C 51.698845 66.21976 55.083763 65.53844 57.824562 64.175804 C 60.565292 62.81316 62.63093 61.147026 63.99361 59.195972 L 68.19302 59.195972 C 67.40325 60.82185 66.0623 62.487988 64.14226 64.175804 C 62.22213 65.863625 59.91494 67.20613 57.267117 68.1894 C 54.61923 69.17266 51.447994 69.63875 47.716248 69.638756 C 44.278656 69.63875 41.105873 69.220665 38.20254 68.33805 C 35.299175 67.45542 32.813908 66.13459 30.769958 64.36161 C 28.725992 62.588627 27.199217 60.536926 26.161757 58.22973 C 24.861053 55.303154 24.192118 52.144306 24.192125 48.75318 C 24.192118 44.974964 24.98493 41.360878 26.533386 37.93877 C 28.422497 33.74248 31.08429 30.54338 34.560577 28.313576 C 38.036846 26.083836 42.27806 24.968948 47.23314 24.968914 z M 45.41215 37.938766 C 44.421116 37.93879 43.499786 38.1788 42.624928 38.682026 C 41.75003 39.185295 40.88135 39.982746 40.060688 41.09762 C 39.239986 42.21252 38.58654 43.59065 38.091053 45.18554 C 37.59553 46.780464 37.34778 48.239105 37.347797 49.570766 C 37.347786 51.692154 37.864964 53.336613 38.87148 54.513435 C 39.877953 55.69026 41.02691 56.260094 42.32763 56.26009 C 43.19474 56.260094 44.117626 55.9984 45.077686 55.47967 C 46.0377 54.96094 46.952847 54.197556 47.827744 53.175568 C 48.702595 52.153595 49.388557 50.882313 49.946026 49.310623 C 50.503445 47.73895 50.80075 46.13321 50.800774 44.553772 C 50.80075 42.44789 50.285114 40.809628 49.239933 39.64827 C 48.1947 38.486954 46.914127 37.938793 45.41215 37.938774 z " display="inline" fill="#ffffff" fill-opacity="1" fill-rule="nonzero" stroke="none" visibility="visible"/>
<g transform="translate(54.152042,15.914754)">
<path d="M 25.609 11.484 L 17.545 11.484 L 17.545 3.421 C 17.545 3.149 17.439 2.89 17.242 2.694 C 17.045 2.498 16.788 2.39 16.515 2.39 L 13.483 2.39 C 12.915 2.39 12.452 2.8520002 12.452 3.42 L 12.452 11.483 L 4.391 11.483 C 3.8229997 11.483 3.3599997 11.945 3.3599997 12.513 L 3.3599997 15.544 C 3.3599997 16.112 3.8219995 16.574 4.391 16.574 L 12.453 16.574 L 12.453 24.637 C 12.453 25.203999 12.915 25.665998 13.484 25.665998 L 16.516 25.665998 C 17.083 25.665998 17.545 25.203999 17.545 24.637 L 17.545 16.574 L 25.609001 16.574 C 26.177002 16.574 26.639002 16.112 26.639002 15.544 L 26.639002 12.513 C 26.640001 11.945999 26.178001 11.483999 25.609001 11.483999 z " fill-opacity="0.3" stroke-opacity="0.3"/>
<path d="M 13.483 27.609 C 12.38 27.609 11.483 26.712 11.483 25.609 L 11.483 18.516 L 4.391 18.516 C 3.2879996 18.516 2.3909998 17.619001 2.3909998 16.515001 L 2.3909998 13.484001 C 2.3909998 12.381001 3.2879999 11.484001 4.391 11.484001 L 11.483 11.484001 L 11.483 4.392 C 11.483 3.289 12.38 2.3920002 13.483 2.3920002 L 16.515 2.3920002 C 17.046 2.3920002 17.548 2.6000001 17.927 2.9800003 C 18.306 3.3570004 18.515 3.8600001 18.515 4.393 L 18.515 11.486 L 25.609 11.486 C 26.713 11.486 27.609999 12.383 27.609999 13.486 L 27.609999 16.517 C 27.609999 17.621 26.713 18.518 25.609 18.518 L 18.515 18.518 L 18.515 25.611 C 18.515 26.714 17.618 27.611 16.515 27.611 L 13.483 27.611 z " fill-opacity="0.15" stroke-opacity="0.15"/>
<path d="M 25.609 12.454 L 17.545 12.454 L 17.545 4.392 C 17.545 4.119 17.439 3.861 17.242 3.665 C 17.046 3.469 16.788 3.361 16.515 3.361 L 13.483 3.361 C 12.915 3.361 12.452 3.823 12.452 4.392 L 12.452 12.455 L 4.391 12.455 C 3.8229997 12.455 3.3599997 12.917 3.3599997 13.486 L 3.3599997 16.517 C 3.3599997 17.085001 3.8219995 17.547 4.391 17.547 L 12.453 17.547 L 12.453 25.61 C 12.453 26.177 12.915 26.639 13.484 26.639 L 16.516 26.639 C 17.083 26.639 17.545 26.177 17.545 25.61 L 17.545 17.547 L 25.609001 17.547 C 26.177002 17.547 26.639002 17.085001 26.639002 16.517 L 26.639002 13.486 C 26.640001 12.917 26.178001 12.454 25.609001 12.454 z " fill-opacity="0.15" stroke-opacity="0.15"/>
<path d="M 25.609 12.454 L 17.545 12.454 L 17.545 4.392 C 17.545 4.119 17.439 3.861 17.242 3.665 C 17.046 3.469 16.788 3.361 16.515 3.361 L 13.483 3.361 C 12.915 3.361 12.452 3.823 12.452 4.392 L 12.452 12.455 L 4.391 12.455 C 3.8229997 12.455 3.3599997 12.917 3.3599997 13.486 L 3.3599997 16.517 C 3.3599997 17.085001 3.8219995 17.547 4.391 17.547 L 12.453 17.547 L 12.453 25.61 C 12.453 26.177 12.915 26.639 13.484 26.639 L 16.516 26.639 C 17.083 26.639 17.545 26.177 17.545 25.61 L 17.545 17.547 L 25.609001 17.547 C 26.177002 17.547 26.639002 17.085001 26.639002 16.517 L 26.639002 13.486 C 26.640001 12.917 26.178001 12.454 25.609001 12.454 z " fill="#ffffff"/>
</g>
</g>
</svg>
