<?xml version="1.0" encoding="UTF-8"?>
<svg xmlns="http://www.w3.org/2000/svg" xmlns:xlink="http://www.w3.org/1999/xlink" baseProfile="tiny" contentScriptType="text/ecmascript" contentStyleType="text/css" height="57px" preserveAspectRatio="xMidYMid meet" version="1.1" viewBox="0 0 67 57" width="67px" x="0px" y="0px" zoomAndPan="magnify">
<rect color="#000000" display="inline" fill="#01a0f3" fill-opacity="0.58823528999999997" fill-rule="nonzero" height="48" ry="8.2174387" stroke="none" visibility="visible" width="48" x="9.5" y="4.5"/>
<rect color="#000000" display="inline" fill="#ffffff" fill-opacity="0" fill-rule="nonzero" height="33" ry="0" stroke="none" stroke-width="1" visibility="visible" width="33" x="17" y="12"/>
<path d="M 29.797983 38.57202 L 28.609514 39.908817 L 28.609514 30.291046 L 24.239428 33.78971 L 22.491642 32.041306 L 28.556364 27.669367 L 22.491642 22.426626 L 24.239428 20.678839 L 28.609512 25.04769 L 28.609512 15.433008 L 35.602512 23.2999 L 31.340582 27.668747 L 35.22613 31.655037 C 35.367043 31.617336 35.511044 31.590147 35.663082 31.590147 L 39.808205 31.590147 L 39.808205 29.736057 C 39.808205 29.259556 40.08261 28.824461 40.51338 28.619896 C 40.5412 28.606916 40.57024 28.601357 40.598667 28.590225 C 40.60177 28.355375 40.60737 28.125467 40.60737 27.881962 C 40.607357 14.812501 34.984528 13.049264 29.484066 13.049264 C 23.982988 13.049264 18.358305 14.811883 18.358305 27.881962 C 18.358305 40.951427 23.982368 42.714664 29.484066 42.714664 C 31.095882 42.714664 32.69596 42.618866 34.160076 42.163383 L 29.938936 38.729 C 29.882696 38.68388 29.843756 38.625786 29.798027 38.572018 z M 34.00496 35.494232 L 34.00496 33.83853 L 31.608866 36.534374 L 34.372692 36.534374 C 34.142773 36.249462 34.00495 35.887917 34.00495 35.494232 z M 30.356718 34.6636 L 32.980255 32.0413 L 30.35672 29.417152 L 30.35672 34.6636 z M 30.35672 20.678837 L 30.35672 25.922195 L 32.980255 23.30051 L 30.35672 20.678833 z M 35.24101 33.24831 L 35.24101 35.494843 C 35.24101 35.72661 35.431362 35.91634 35.663124 35.91634 L 48.64174 35.91634 L 41.044304 29.736052 L 41.044304 32.826195 L 35.663124 32.826195 C 35.431366 32.826195 35.24101 33.01655 35.24101 33.24831 z M 43.697502 37.77043 L 30.71889 37.77043 L 38.316322 43.950726 L 38.316322 40.86058 L 43.697502 40.86058 C 43.929264 40.86058 44.119617 40.670227 44.119617 40.438465 L 44.119617 38.191933 C 44.119617 37.96017 43.929264 37.770435 43.697502 37.770435 z " fill="#ffffff" fill-opacity="1" stroke-opacity="0.3"/>
<defs>
<linearGradient gradientUnits="userSpaceOnUse" x1="39.5" x2="39.5" xlink:actuate="onLoad" xlink:show="other" xlink:type="simple" y1="54" y2="4.0005">
<stop offset="0" stop-color="#d0cbc5"/>
<stop offset="0.5031" stop-color="#fafcef"/>
<stop offset="0.9693" stop-color="#ffffff"/>
<stop offset="1" stop-color="#ffffff"/>
</linearGradient>
</defs>
</svg>
