<?xml version="1.0" encoding="UTF-8"?>
<svg xmlns="http://www.w3.org/2000/svg" xmlns:xlink="http://www.w3.org/1999/xlink" baseProfile="tiny" contentScriptType="text/ecmascript" contentStyleType="text/css" height="70px" preserveAspectRatio="xMidYMid meet" version="1.1" viewBox="0 0 70 70" width="70px" x="0px" y="0px" zoomAndPan="magnify">
<rect color="#000000" display="inline" fill="#353535" fill-opacity="0.58823528999999997" fill-rule="nonzero" height="48" ry="8.2174387" stroke="none" visibility="visible" width="48" x="11" y="11"/>
<g transform="matrix(0.60376219,0,0,0.60376219,15.088317,13.842666)">
<path d="M 57.0 51.167 C 57.0 46.828 57.0 26.296 57.0 26.296 C 56.242 26.065 55.581 25.558 55.175 24.855 L 55.0 24.552 L 54.826 24.854 C 54.259 25.833 53.209 26.438 52.082 26.438 C 51.529 26.438 50.984 26.292 50.504 26.016 C 50.225 25.855 49.988003 25.647 49.775 25.419 L 33.0 38.0 L 9.0 20.0 L 9.0 53.0 C 9.0 54.104 9.896 55.0 11.0 55.0 C 11.0 55.0 53.105 55.0 54.334 55.0 C 55.563 55.0 57.0 55.506 57.0 51.167 z M 48.936 23.049 C 48.969 22.575 49.098 22.111 49.341 21.687 L 49.516 21.386 L 49.166 21.386 C 47.42 21.386 46.0 19.965 46.0 18.219 C 46.0 17.787 46.088 17.375 46.245 17.0 L 9.0 17.0 L 33.0 35.0 z " fill="#fafafa" fill-opacity="1"/>
<path d="M 60.834 17.535051 L 57.021 17.535051 L 58.927 14.233051 C 59.247993 13.675053 59.058 12.962051 58.497993 12.639051 C 57.939995 12.317053 57.226994 12.509051 56.902992 13.067053 L 54.999992 16.369053 L 53.094 13.067053 C 52.769997 12.507051 52.057 12.317053 51.499992 12.639051 C 50.940987 12.961051 50.749992 13.675053 51.07199 14.233051 L 52.97799 17.53505 L 49.16499 17.53505 C 48.51899 17.53505 47.99899 18.05705 47.99899 18.70205 C 47.99899 19.347052 48.51999 19.869053 49.16499 19.869053 L 52.97799 19.869053 L 51.07199 23.171053 C 50.749992 23.72905 50.940987 24.44205 51.499992 24.76505 C 51.683987 24.87005 51.88399 24.921053 52.081993 24.921053 C 52.483994 24.921053 52.87699 24.711052 53.09399 24.33705 L 54.99999 21.03505 L 56.905983 24.33705 C 57.122986 24.71205 57.512985 24.921053 57.917988 24.921053 C 58.114983 24.921053 58.315983 24.87005 58.49999 24.76505 C 59.05899 24.44305 59.24999 23.72905 58.927994 23.171053 L 57.021996 19.869053 L 60.834995 19.869053 C 61.480995 19.869053 62.000996 19.347052 62.000996 18.70205 C 62.000996 18.05705 61.478996 17.53505 60.833996 17.53505 z " fill="#fa664b"/>
</g>
<defs>
<linearGradient gradientUnits="userSpaceOnUse" x1="35.0015" x2="35.0015" xlink:actuate="onLoad" xlink:show="other" xlink:type="simple" y1="54" y2="16.0005">
<stop offset="0" stop-color="#d0cbc5"/>
<stop offset="0.5031" stop-color="#fafcef"/>
<stop offset="0.9693" stop-color="#ffffff"/>
<stop offset="1" stop-color="#ffffff"/>
</linearGradient>
</defs>
</svg>
