<?xml version="1.0" encoding="UTF-8"?>
<svg xmlns="http://www.w3.org/2000/svg" xmlns:xlink="http://www.w3.org/1999/xlink" baseProfile="tiny" contentScriptType="text/ecmascript" contentStyleType="text/css" height="46px" preserveAspectRatio="xMidYMid meet" version="1.1" viewBox="0 0 46 46" width="46px" x="0px" y="0px" zoomAndPan="magnify">
<defs/>
<path d="M 7.128366 2.5E-7 L 23.0 2.5E-7 L 23.0 46.0 L 7.128366 46.0 C 3.179251 46.0 0.0 42.962116 0.0 39.1886 L 0.0 6.811399 C 0.0 3.0378838 3.179251 2.5E-7 7.128366 2.5E-7 z " fill="#50b4fb" fill-opacity="1" stroke="#000000" stroke-dasharray="none" stroke-miterlimit="4" stroke-opacity="1" stroke-width="0"/>
<path d="M 8.681025 2.2500005 L 23.0 2.2500005 L 23.0 43.75 L 8.681025 43.75 C 5.118237 43.75 2.25 41.009296 2.25 37.604935 L 2.25 8.395065 C 2.25 4.9907 5.118237 2.2500005 8.681025 2.2500005 z " fill="#e4e4e4" fill-opacity="1" stroke="#000000" stroke-dasharray="none" stroke-miterlimit="4" stroke-opacity="1" stroke-width="0"/>
<rect fill="#50b4fb" fill-opacity="1" height="46" width="23" x="23" y="0"/>
<rect fill="#e4e4e4" fill-opacity="1" height="41.5" width="23" x="23" y="2.25"/>
</svg>
