<?xml version="1.0" encoding="UTF-8"?>
<svg xmlns="http://www.w3.org/2000/svg" xmlns:xlink="http://www.w3.org/1999/xlink" baseProfile="tiny" contentScriptType="text/ecmascript" contentStyleType="text/css" height="96" preserveAspectRatio="xMidYMid meet" version="1.1" viewBox="0 0 96 96" width="96" x="0" y="0" zoomAndPan="magnify">
<defs>
<linearGradient>
<stop offset="0" stop-color="#52bb0f" stop-opacity="1"/>
<stop offset="1" stop-color="#52a00f" stop-opacity="1"/>
</linearGradient>
<linearGradient gradientTransform="matrix(0,1,-1,0,96,0)" gradientUnits="userSpaceOnUse" id="linearGradient3798" x1="7.998" x2="88.002" y1="48" y2="48">
<stop offset="0" stop-color="#52bb0f" stop-opacity="1"/>
<stop offset="1" stop-color="#52a00f" stop-opacity="1"/>
</linearGradient>
</defs>
<path d="M 88.002 48.999 C 88.002 78.634 77.641 89.0 48.0 89.0 C 18.365 89.0 7.998 78.634 7.998 48.999 C 7.998 19.367 18.365 9.0 48.0 9.0 C 77.639 9.0 88.002 19.367 88.002 48.999 z " fill-opacity="0.4" stroke-opacity="0.4"/>
<linearGradient gradientTransform="matrix(1 0 0 -1 0.1401 96.9453)" gradientUnits="userSpaceOnUse" x1="47.8599" x2="47.8599" y1="88.9453" y2="8.9458">
<stop offset="0" stop-color="#6fa519"/>
<stop offset="1" stop-color="#064c00"/>
</linearGradient>
<path d="M 48.0 88.002 C 18.366 88.002 8.0 77.641 8.0 48.0 C 8.0 18.365 18.366 7.998 48.0 7.998 C 77.633 7.998 88.0 18.365 88.0 48.0 C 88.0 77.639 77.633 88.002 48.0 88.002 z " fill="url(#linearGradient3798)" fill-opacity="1"/>
<linearGradient gradientTransform="matrix(1 0 0 -1 194.0654 -718.8955)" gradientUnits="userSpaceOnUse" id="SVGID_2_" x1="-146.0654" x2="-146.0654" y1="-727.1484" y2="-806.3932">
<stop offset="0" stop-color="#ffffff"/>
<stop offset="1" stop-color="#ffffff" stopOpacity="0"/>
</linearGradient>
<path d="M 48.0 8.0 C 18.365 8.0 7.998 18.367 7.998 48.0 C 7.998 77.634 18.365 88.0 48.0 88.0 C 77.641 88.0 88.002 77.634 88.002 48.0 C 88.002 18.367 77.639 8.0 48.0 8.0 z M 48.0 87.0 C 18.84 87.0 8.998 77.157 8.998 48.0 C 8.998 18.842 18.84 9.0 48.0 9.0 C 77.162 9.0 87.002 18.842 87.002 48.0 C 87.002 77.157 77.162 87.0 48.0 87.0 z " fill="url(#SVGID_2_)" fill-opacity="0.15" stroke-opacity="0.15"/>
<rect fill="none" height="96" width="96"/>
<path d="M 51.02416 35.617115 L 51.20798 35.43415 L 62.301872 35.43415 C 64.31449 35.43415 65.95173 33.79691 65.95173 31.78429 L 65.95173 27.396557 C 65.95173 25.383938 64.31449 23.746696 62.30187 23.746696 L 33.868355 23.746696 C 31.854876 23.746696 30.217636 25.383936 30.217636 27.396557 L 30.217636 31.78429 C 30.217636 33.79691 31.854876 35.43415 33.868355 35.43415 L 44.95881 35.43415 L 45.272343 35.746822 C 35.917053 37.332523 28.770233 45.486942 28.770233 55.283752 C 28.770233 66.216156 37.663383 75.10931 48.594925 75.10931 C 59.526466 75.10931 68.41876 66.215294 68.41876 55.283752 C 68.41876 45.176846 60.81324 36.818844 51.024162 35.61712 z M 53.835644 67.68847 C 52.17607 68.39542 50.37562 68.767365 48.59407 68.767365 C 47.389763 68.767365 46.166557 68.595566 44.985443 68.264854 L 45.62625 68.264854 L 45.62625 64.36588 L 46.884674 63.10574 L 46.884674 58.538475 L 44.504406 58.538475 L 44.504406 57.35822 L 41.675743 57.35822 L 39.182087 54.86551 L 36.837894 54.86551 L 36.837894 52.795338 L 37.188362 52.795338 L 39.264545 50.718292 L 40.47143 50.718292 L 42.149044 49.062153 L 42.165363 49.062153 L 44.014774 47.23078 L 44.014774 46.56592 L 46.17514 46.56592 L 47.16384 45.5798 L 47.848457 45.5798 L 49.533802 43.89875 L 49.664284 43.89875 L 49.02004 44.433044 L 49.02004 44.79468 L 48.766636 45.05152 L 48.766636 48.681625 L 48.879166 48.681625 L 48.879166 49.93232 L 47.053806 51.75768 L 47.053806 58.072136 L 50.13587 61.1542 L 52.810776 61.1542 L 52.810776 61.586273 L 53.834694 62.61019 L 53.834694 67.68847 z " fill="#1a0900" fill-opacity="0.05" stroke-opacity="0.05"/>
<path d="M 49.12321 36.26995 C 49.18248 36.224422 49.24347 36.18147 49.296726 36.128216 L 50.85236 34.5743 L 62.301872 34.5743 C 63.841187 34.5743 65.09274 33.321888 65.09274 31.783432 L 65.09274 27.395699 C 65.09274 25.85647 63.84119 24.604916 62.301876 24.604916 L 33.868362 24.604916 C 32.32905 24.604916 31.076637 25.856382 31.076637 27.395699 L 31.076637 31.783432 C 31.076637 33.321888 32.32905 34.5743 33.868362 34.5743 L 45.314438 34.5743 L 46.867496 36.127357 C 46.940517 36.200367 47.020397 36.263077 47.10286 36.320633 C 37.30347 37.085136 29.56223 45.295387 29.56223 55.283752 C 29.56223 65.77807 38.09976 74.3156 48.59407 74.3156 C 59.088383 74.3156 67.62591 65.77807 67.62591 55.283756 C 67.62591 44.969833 59.373566 36.551704 49.123207 36.26995 z M 54.62849 68.20215 C 52.738705 69.09121 50.66252 69.55936 48.594925 69.55936 C 46.7249 69.55936 44.842846 69.175385 43.102524 68.44696 L 43.102524 67.67558 L 43.307823 67.472 L 44.831676 67.472 L 44.831676 64.03775 L 46.0901 62.778465 L 46.0901 59.33047 L 43.70983 59.33047 L 43.70983 58.151073 L 41.345882 58.151073 L 38.853085 55.656643 L 34.77287 55.656643 L 34.77287 54.57431 L 36.044178 54.57431 L 36.044178 52.124462 L 36.167873 52.001625 L 36.859364 52.001625 L 38.937267 49.922863 L 40.14501 49.922863 L 41.415462 48.669594 L 41.415462 48.266727 L 41.838085 48.266727 L 43.22012 46.89749 L 43.22012 45.769634 L 45.84692 45.769634 L 46.83562 44.783512 L 47.51938 44.783512 L 49.204723 43.102463 L 49.824917 43.102463 L 51.582417 41.3484 C 52.341766 41.50989 53.083935 41.733227 53.80463 42.016697 L 52.933613 42.88514 L 51.663162 42.88514 L 50.470024 43.997536 L 50.470024 44.25867 L 49.812035 44.803272 L 49.812035 45.118523 L 49.55863 45.375362 L 49.55863 47.8862 L 49.67116 47.8862 L 49.67116 50.257877 L 47.84666 52.08229 L 47.84666 57.741333 L 50.46487 60.358685 L 53.60277 60.358685 L 53.60277 61.255474 L 54.62669 62.278534 L 54.62669 68.20215 z " fill="#1a0900" fill-opacity="0.05" stroke-opacity="0.05"/>
<path d="M 48.08211 35.771736 C 47.86221 35.771736 47.642307 35.687557 47.474804 35.52005 L 45.67006 33.715305 L 33.86836 33.715305 C 32.803207 33.715305 31.935625 32.84858 31.935625 31.78343 L 31.935625 27.395697 C 31.935625 26.330545 32.803207 25.463821 33.86836 25.463821 L 62.301872 25.463821 C 63.367023 25.463821 64.23375 26.330545 64.23375 27.395697 L 64.23375 31.78343 C 64.23375 32.84858 63.367027 33.715305 62.301876 33.715305 L 50.49674 33.715305 L 48.68942 35.52005 C 48.521915 35.68841 48.302013 35.771736 48.08211 35.771736 z M 38.539562 30.193438 L 38.539562 28.89464 L 37.240765 28.89464 L 37.240765 30.193438 L 38.539562 30.193438 z M 48.594933 73.523605 C 38.536987 73.523605 30.355083 65.33998 30.355083 55.283752 C 30.355083 45.229244 38.536987 37.049057 48.594933 37.049057 C 58.65202 37.049057 66.83392 45.228386 66.83392 55.283752 C 66.83392 65.33998 58.65202 73.523605 48.594933 73.523605 L 48.594933 73.523605 z M 42.058 68.84467 C 47.709312 71.584 53.38897 69.73717 55.42135 68.695206 L 55.42135 61.950394 L 54.39743 60.927334 L 54.39743 59.56583 L 50.794815 59.56583 L 48.642178 57.412334 L 48.642178 52.411278 L 50.69345 50.359142 L 50.467537 50.13237 L 50.467537 47.629265 L 51.438198 47.629265 L 51.438198 47.1801 L 51.376347 47.1801 L 51.376347 47.093258 L 50.355865 47.093258 L 50.355865 45.700832 L 50.60927 45.445713 L 50.60927 45.17685 L 51.26554 44.632248 L 51.26554 44.343624 L 51.977646 43.68057 L 53.520397 43.68057 L 53.520397 43.424587 L 55.186844 41.75986 C 53.96364 41.16286 52.670856 40.7368 51.324814 40.48941 L 49.499454 42.31219 L 48.878403 42.31219 L 47.193058 43.992294 L 46.507584 43.992294 L 45.52146 44.97928 L 43.520866 44.97928 L 43.520866 42.75019 L 42.719425 43.555927 L 42.422215 43.555927 L 42.422215 43.575687 L 41.908535 44.087646 L 41.908535 45.076347 L 42.429085 45.596897 L 42.429085 46.569275 L 41.513397 47.47637 L 40.62262 47.47637 L 40.62262 48.34052 L 39.821266 49.131653 L 38.609142 49.131653 L 36.532955 51.209557 L 35.83975 51.209557 L 35.252197 51.797108 L 35.252197 53.7831 L 33.605507 53.7831 C 33.567707 54.152466 33.543655 54.51831 33.532497 54.88261 L 33.980892 54.88261 L 33.980892 56.78528 L 34.108883 56.91576 L 34.518623 56.91576 L 41.01776 58.94556 L 42.916996 58.94556 L 42.916996 59.994392 L 43.046703 60.1241 L 45.298122 60.1241 L 45.298122 62.450253 L 44.038837 63.709538 L 44.038837 66.67993 L 42.97798 66.67993 L 42.308826 67.34909 L 42.308826 68.59377 L 42.058 68.84469 z M 59.474937 50.950153 L 58.68123 50.156445 L 56.679775 50.156445 L 56.43926 50.396103 L 58.915733 50.396103 L 58.915733 50.950153 L 59.474937 50.950153 z M 55.26931 49.568035 L 54.80717 49.105038 L 54.61991 49.105038 L 54.61991 49.131668 L 54.183544 49.568035 L 55.26931 49.568035 z M 43.520866 42.13431 L 43.520866 41.482338 L 42.86975 41.482338 L 43.520866 42.13431 z " fill="#1a0900" fill-opacity="0.1" stroke-opacity="0.1"/>
<path d="M 32.794617 27.395697 L 32.794617 31.78343 C 32.794617 32.374416 33.276512 32.85631 33.86836 32.85631 L 46.02568 32.85631 L 48.082108 34.912743 L 50.140255 32.856316 L 62.301014 32.856316 C 62.89286 32.856316 63.373898 32.37442 63.373898 31.783434 L 63.373898 27.3957 C 63.374756 25.053226 32.794617 25.053226 32.794617 27.3957 z M 39.398552 30.32143 C 39.398552 30.725157 36.381767 30.725157 36.381767 30.32143 L 36.381767 28.767511 C 36.381767 28.363785 36.708187 28.03565 37.11277 28.03565 L 38.667545 28.03565 C 39.072132 28.03565 39.399406 28.363785 39.399406 28.767511 L 39.399406 30.32143 z M 59.456024 28.93158 L 42.14818 28.93158 L 42.14818 28.199718 L 59.456024 28.199718 L 59.456024 28.93158 z M 48.59578 37.84277 C 38.96046 37.84277 31.148779 45.65187 31.148779 55.28376 C 31.148779 64.922516 38.960457 72.73076 48.59578 72.73076 C 58.23282 72.73076 66.04106 64.922516 66.04106 55.28376 C 66.0402 45.651875 58.231956 37.842773 48.59578 37.842773 z M 64.004395 52.005844 L 64.13926 52.143284 C 64.20025 52.44393 64.23719 52.75231 64.279274 53.05725 L 63.61699 52.394108 L 64.004395 52.005844 z M 34.260914 59.597622 L 33.926765 59.936924 L 33.926765 61.29585 C 33.411377 60.04601 33.060047 58.71629 32.880516 57.33331 L 33.742947 58.19316 L 34.26006 58.19316 L 34.26006 59.597614 z M 36.994232 66.063255 C 36.50976 65.54185 36.05707 64.99295 35.645615 64.41055 L 36.10088 64.41055 L 36.994232 65.30305 L 36.994232 66.063255 z M 49.434166 52.74028 L 49.434166 57.085064 L 51.122086 58.77384 L 55.189415 58.77384 L 55.189415 60.5992 L 56.213333 61.62312 L 56.213333 68.43236 L 56.68492 68.90223 C 54.31238 70.3169 51.551582 71.14506 48.59407 71.14506 C 45.73448 71.14506 43.056145 70.37368 40.737724 69.04396 L 41.515972 68.26572 L 41.515972 67.02018 L 42.6507 65.88631 L 43.245037 65.88631 L 43.245037 63.381485 L 44.50432 62.122204 L 44.50432 60.917896 L 42.719418 60.917896 L 34.84847 57.70784 L 33.7816 57.70784 L 33.188896 57.114277 L 33.188896 55.674606 L 32.754246 55.674606 C 32.749947 55.5449 32.734486 55.41519 32.734486 55.28548 C 32.734486 54.10617 32.872784 52.961906 33.119312 51.85638 L 33.766994 51.85638 L 34.10286 52.188812 L 34.10286 52.99111 L 34.459343 52.99111 L 34.459343 51.469837 L 35.512466 50.416714 L 36.204815 50.416714 L 38.28186 48.33881 L 39.49639 48.33881 L 39.832256 48.009903 L 39.832256 46.957638 L 39.470707 46.957638 L 39.470707 46.68448 L 41.187836 46.68448 L 41.636143 46.23952 L 41.636143 45.92685 L 41.117397 45.408016 L 41.117397 43.98295 L 36.454784 45.103077 C 37.549057 43.799984 38.854725 42.687588 40.30728 41.79252 L 40.83814 42.322517 L 40.576145 42.58451 L 39.938858 42.58451 L 39.938858 42.946148 L 40.689533 43.691753 L 41.184315 43.691753 L 41.629272 43.248512 L 41.629272 42.7649 L 42.39034 42.7649 L 42.709026 42.443638 L 41.42569 41.161163 C 41.917892 40.910336 42.42384 40.68786 42.94353 40.48857 L 42.94353 40.69129 L 44.519783 40.69129 L 44.3162 42.268402 L 44.3162 44.18825 L 45.19409 44.18825 L 46.181934 43.20213 L 46.864834 43.20213 L 48.54932 41.52022 L 49.170372 41.52022 L 51.053284 39.640747 C 53.131187 39.966305 55.071564 40.691296 56.79986 41.742702 L 56.32578 41.742702 L 54.3123 43.753605 L 54.3123 44.689907 L 56.801662 44.47172 L 56.801662 43.41602 L 57.490574 42.727966 L 57.956062 42.727966 L 57.16931 43.514805 L 57.16931 44.135 L 58.289352 44.135 L 53.21279 46.695568 L 52.230103 46.695568 L 52.230103 47.15092 L 51.25944 48.423862 L 51.25944 49.80684 L 51.57804 50.127243 L 52.504036 50.127243 L 53.826885 48.803535 L 53.826885 48.31305 L 55.13513 48.31305 L 56.268143 49.44606 L 56.73801 48.97791 L 55.68746 47.924786 L 56.349747 47.924786 L 57.24997 48.82329 L 57.24997 49.364456 L 58.234375 49.364456 L 58.234375 49.00282 L 58.64944 49.00282 L 59.851173 50.205406 L 49.43417 52.740295 z M 59.535065 49.00282 L 59.1322 48.604244 L 59.145077 48.23144 L 59.7395 47.633583 L 61.166283 47.633583 L 62.142956 48.610256 L 62.142956 49.002815 L 59.535053 49.002815 z M 62.23401 63.336826 L 62.23401 61.09743 L 63.879837 59.451603 C 63.50274 60.830284 62.94783 62.134235 62.23401 63.336826 z M 63.01999 57.001755 L 60.988472 54.9668 L 60.988472 52.38209 L 61.556267 52.38209 L 61.556267 54.78727 L 63.13166 56.36352 L 64.238045 56.36352 L 64.40898 56.191723 C 64.3918 56.46145 64.38751 56.735466 64.357445 57.001755 L 63.019993 57.001755 z M 51.87628 46.00493 L 51.87628 45.785885 L 52.018013 45.64329 L 52.018013 45.30141 L 51.698467 45.30141 L 51.4004 45.5488 L 51.4004 45.77042 L 51.147854 46.02726 L 51.147854 46.301277 L 51.580788 46.301277 L 51.87628 46.004925 z M 52.582375 45.799625 L 52.44923 45.799625 L 52.169197 46.080517 L 52.169197 46.388035 L 53.13642 46.388035 L 53.404427 46.120888 L 53.404427 45.823677 L 52.69576 45.115868 L 52.88216 44.928608 L 52.88216 44.706127 L 52.401123 44.706127 L 52.638206 44.470848 L 52.288597 44.470848 L 52.05753 44.687313 L 52.05753 45.054016 L 52.582375 45.578003 L 52.582375 45.79962 z " fill="#1a0900" fill-opacity="0.15" stroke-opacity="0.15"/>
<linearGradient gradientUnits="userSpaceOnUse" x1="48.5933" x2="48.5933" y1="34.0947" y2="74.7104">
<stop offset="0" stop-color="#fafcef"/>
<stop offset="0.3232" stop-color="#fafcef"/>
<stop offset="1" stop-color="#d0cbc5"/>
</linearGradient>
<path d="M 48.59493 36.257065 C 38.95961 36.257065 31.147928 44.067028 31.147928 53.697193 C 31.147928 63.33767 38.95961 71.14591 48.59493 71.14591 C 58.231968 71.14591 66.040215 63.33767 66.040215 53.697197 C 66.03935 44.06703 58.23111 36.25707 48.594933 36.25707 z M 64.00354 50.42014 L 64.138405 50.556717 C 64.199394 50.858223 64.236336 51.165745 64.27842 51.471546 L 63.616135 50.808403 L 64.00354 50.42014 z M 34.26006 58.01106 L 33.92591 58.35122 L 33.92591 59.710144 C 33.411373 58.46117 33.060047 57.131447 32.880516 55.747612 L 33.742947 56.607464 L 34.26006 56.607464 L 34.26006 58.01106 z M 36.994232 64.477554 C 36.50976 63.957005 36.05707 63.40639 35.645615 62.823135 L 36.10088 62.823135 L 36.994232 63.717346 L 36.994232 64.477554 z M 60.889694 49.520775 L 60.25318 50.15643 L 58.12288 50.15643 L 58.12288 49.604095 L 55.49436 49.604095 L 55.49436 48.77345 L 51.815296 48.77345 L 49.435028 51.153717 L 49.435028 55.4985 L 51.122948 57.185562 L 55.190277 57.185562 L 55.190277 59.012638 L 56.214195 60.035698 L 56.214195 66.845795 L 56.685783 67.31567 C 54.313244 68.72957 51.552444 69.558495 48.594933 69.558495 C 45.735348 69.558495 43.057007 68.78712 40.738586 67.4574 L 41.516834 66.67829 L 41.516834 65.43361 L 42.65156 64.299736 L 43.245983 64.299736 L 43.245983 61.794056 L 44.505264 60.53563 L 44.505264 59.330463 L 42.72028 59.330463 L 42.12586 58.736042 L 42.12586 58.15107 L 40.69134 58.15107 L 38.197685 55.656555 L 35.313187 55.656555 L 34.85019 56.12127 L 33.78332 56.12127 L 33.190617 55.525986 L 33.190617 54.08803 L 32.755966 54.08803 C 32.751667 53.957466 32.736206 53.829475 32.736206 53.69719 C 32.736206 52.519512 32.874504 51.37533 33.121033 50.26981 L 33.768715 50.26981 L 34.10458 50.60224 L 34.10458 51.403683 L 34.461063 51.403683 L 34.461063 49.88241 L 35.514187 48.830227 L 36.206535 48.830227 L 38.28358 46.752323 L 39.498196 46.752323 L 39.83406 46.42333 L 39.83406 45.370205 L 39.472424 45.370205 L 39.472424 45.096188 L 41.189552 45.096188 L 41.637947 44.65209 L 41.637947 44.340275 L 41.11654 43.8205 L 41.11654 42.39543 L 40.548744 42.961506 L 39.968063 42.961506 L 39.968063 42.159206 L 39.10993 42.159206 L 38.475132 42.797436 L 38.12724 42.797436 L 38.12724 43.8351 L 37.200386 44.76195 L 37.200386 43.906395 L 36.45478 43.906395 L 36.45478 43.515553 C 37.549137 42.213318 38.854805 41.099205 40.30736 40.204136 L 40.83822 40.73585 L 40.576225 40.996986 L 39.93885 40.996986 L 39.93885 41.35948 L 40.68961 42.105087 L 41.18439 42.105087 L 41.62935 41.661846 L 41.62935 41.178234 L 42.390415 41.178234 L 42.709103 40.85697 L 41.425766 39.574497 C 41.91797 39.32367 42.423916 39.100334 42.943607 38.901905 L 42.943607 39.104626 L 44.51986 39.104626 L 44.51986 40.22475 L 45.31099 40.22475 L 44.854004 40.681736 L 44.316277 40.681736 L 44.316277 42.59987 L 45.194168 42.59987 L 46.18201 41.613747 L 46.86491 41.613747 L 48.549397 39.932697 L 49.170364 39.932697 L 51.053276 38.053223 C 53.13118 38.37964 55.071644 39.10463 56.79994 40.15432 L 56.325775 40.15432 L 54.312298 42.16694 L 54.312298 43.102383 L 55.354256 43.102383 L 55.891983 43.63925 L 56.435726 43.63925 L 56.802517 43.27418 L 56.802517 41.8285 L 57.49143 41.139587 L 57.957 41.139587 L 57.170162 41.925564 L 57.170162 42.547474 L 58.290287 42.547474 L 58.290287 42.854134 L 57.11261 44.028378 C 57.11261 44.028378 55.45905 44.091087 55.521755 44.028378 C 55.583607 43.964817 55.30271 43.602318 55.30271 43.602318 L 54.719456 43.602318 L 53.212784 45.106415 L 52.230095 45.106415 L 52.230095 45.5634 L 52.699104 45.5634 L 52.699104 46.835567 L 51.259434 46.835567 L 51.259434 48.219406 L 51.57812 48.538094 L 52.504116 48.538094 L 53.826965 47.21696 L 53.826965 46.72476 L 55.135212 46.72476 L 56.268223 47.858627 L 56.73809 47.389618 L 55.687542 46.33821 L 56.349827 46.33821 L 57.25005 47.236717 L 57.25005 47.776165 L 58.234455 47.776165 L 58.234455 47.415386 L 58.649433 47.415386 L 59.851166 48.61712 L 60.889687 48.61712 L 60.889687 49.52078 z M 59.535053 47.417107 L 59.132187 47.018536 L 59.145065 46.644875 L 59.739487 46.047874 L 61.16627 46.047874 L 62.142944 47.025406 L 62.142944 47.417107 L 59.53504 47.417107 z M 62.233997 61.751118 L 62.233997 59.511723 L 63.879826 57.865894 C 63.502728 59.245438 62.94782 60.54767 62.233997 61.751118 z M 63.019978 55.416046 L 60.98846 53.380234 L 60.98846 50.795525 L 61.556255 50.795525 L 61.556255 53.201565 L 63.13165 54.777817 L 64.23803 54.777817 L 64.408966 54.606018 C 64.391785 54.875744 64.3875 55.14976 64.35743 55.416046 L 63.019978 55.416046 z M 51.876266 44.420082 L 51.876266 44.20018 L 52.017998 44.057587 L 52.017998 43.716568 L 51.698452 43.716568 L 51.400383 43.96396 L 51.400383 44.18644 L 51.14784 44.442417 L 51.14784 44.714718 L 51.580772 44.714718 L 51.876266 44.420082 z M 52.58236 44.213062 L 52.449215 44.213062 L 52.16918 44.493954 L 52.16918 44.80147 L 53.136406 44.80147 L 53.40441 44.534325 L 53.40441 44.237972 L 52.695744 43.530163 L 52.882145 43.342045 L 52.882145 43.119564 L 52.401108 43.119564 L 52.63819 42.88506 L 52.28858 42.88506 L 52.057514 43.100666 L 52.057514 43.467457 L 52.58236 43.991444 L 52.58236 44.213062 z " fill="#ffffff" fill-opacity="1"/>
<path d="M 62.301876 24.604828 L 33.868362 24.604828 C 33.276516 24.604828 32.79462 25.085005 32.79462 25.67771 L 32.79462 30.065445 C 32.79462 30.656431 33.276516 31.138327 33.868362 31.138327 L 46.025684 31.138327 L 48.082115 33.194756 L 50.140263 31.138329 L 62.30102 31.138329 C 62.892868 31.138329 63.373905 30.656433 63.373905 30.065447 L 63.373905 25.677711 C 63.374763 25.085007 62.893726 24.60483 62.301884 24.60483 z M 39.398552 28.60344 C 39.398552 29.007166 39.071278 29.3353 38.66669 29.3353 L 37.111916 29.3353 C 36.70733 29.3353 36.380913 29.007166 36.380913 28.60344 L 36.380913 27.049522 C 36.380913 26.645796 36.707333 26.317661 37.111916 26.317661 L 38.66669 26.317661 C 39.071278 26.317661 39.398552 26.645796 39.398552 27.049522 L 39.398552 28.60344 z M 59.45517 28.67646 L 42.147324 28.67646 L 42.147324 27.9446 L 59.45517 27.9446 L 59.45517 28.67646 z M 59.45517 27.213594 L 42.147324 27.213594 L 42.147324 26.481733 L 59.45517 26.481733 L 59.45517 27.213594 z " fill="#ffffff"/>
</svg>
