<?xml version="1.0" encoding="UTF-8"?>
<svg xmlns="http://www.w3.org/2000/svg" xmlns:xlink="http://www.w3.org/1999/xlink" baseProfile="tiny" contentScriptType="text/ecmascript" contentStyleType="text/css" height="96px" preserveAspectRatio="xMidYMid meet" version="1.1" viewBox="0 0 96 96" width="96px" x="0px" y="0px" zoomAndPan="magnify">
<defs>
<linearGradient id="linearGradient4034">
<stop offset="0" stop-color="#1b2a38" stop-opacity="1"/>
<stop offset="1" stop-color="#111822" stop-opacity="1"/>
</linearGradient>
<linearGradient>
<stop offset="0" stop-color="#e94a4a" stop-opacity="1"/>
<stop offset="1" stop-color="#e73636" stop-opacity="1"/>
</linearGradient>
<linearGradient>
<stop offset="0" stop-color="#d5f6ff" stop-opacity="1"/>
<stop offset="1" stop-color="#0088aa" stop-opacity="1"/>
</linearGradient>
<linearGradient gradientTransform="matrix(1.0515857,0,0,1.01708,-253.45339,-715.60427)" gradientUnits="userSpaceOnUse" x1="254.83009" x2="358.8096" y1="763.97272" y2="763.97272">
<stop offset="0" stop-color="#f7f8f9"/>
<stop offset="1" stop-color="#d0d1d2"/>
</linearGradient>
<linearGradient gradientTransform="matrix(0.7261569,0,0,0.74770351,-174.61605,-527.27145)" gradientUnits="userSpaceOnUse" x1="254.83009" x2="358.8096" y1="763.97272" y2="763.97272">
<stop offset="0" stop-color="#f7f8f9"/>
<stop offset="1" stop-color="#d0d1d2"/>
</linearGradient>
<linearGradient gradientTransform="matrix(1,0,0,-1,-1.3115644,98.868328)" gradientUnits="userSpaceOnUse" x1="61.075901" x2="34.694302" y1="57.299801" y2="41.540901">
<stop offset="0" stop-color="#ffffff"/>
<stop offset="1" stop-color="#ffffff" stop-opacity="0.2"/>
</linearGradient>
<linearGradient gradientTransform="matrix(1,0,0,-1,1.0534719,96.841079)" gradientUnits="userSpaceOnUse" x1="61.075901" x2="34.694302" y1="57.299801" y2="41.540901">
<stop offset="0" stop-color="#ffffff"/>
<stop offset="1" stop-color="#ffffff" stop-opacity="0.2"/>
</linearGradient>
<linearGradient gradientTransform="matrix(1,0,0,-1,-2.4150126,95.9258)" gradientUnits="userSpaceOnUse" x1="34.720501" x2="60.039902" y1="56.8027" y2="41.976002">
<stop offset="0" stop-color="#ffffff"/>
<stop offset="1" stop-color="#ffffff" stop-opacity="0.2"/>
</linearGradient>
<linearGradient gradientTransform="matrix(1,0,0,-1,-2.5350845,97.20939)" gradientUnits="userSpaceOnUse" x1="34.720501" x2="60.039902" y1="56.8027" y2="41.976002">
<stop offset="0" stop-color="#ffffff"/>
<stop offset="1" stop-color="#ffffff" stop-opacity="0.2"/>
</linearGradient>
<linearGradient gradientTransform="matrix(1,0,0,-1,0.1597,95.9258)" gradientUnits="userSpaceOnUse" x1="63.148201" x2="61.403599" y1="26.3545" y2="22.778099">
<stop offset="0" stop-color="#ffffff"/>
<stop offset="1" stop-color="#a3a3a3"/>
</linearGradient>
<linearGradient gradientTransform="matrix(1,0,0,-1,0.1597,95.9258)" gradientUnits="userSpaceOnUse" x1="63.148201" x2="61.403599" y1="26.3545" y2="22.778099">
<stop offset="0" stop-color="#ffffff"/>
<stop offset="1" stop-color="#a3a3a3"/>
</linearGradient>
<linearGradient gradientTransform="matrix(1,0,0,-1,0.1597,95.9258)" gradientUnits="userSpaceOnUse" x1="62.543701" x2="64.113503" y1="40.8223" y2="37.072102">
<stop offset="0" stop-color="#ffffff"/>
<stop offset="1" stop-color="#a3a3a3"/>
</linearGradient>
<linearGradient gradientTransform="matrix(1,0,0,-1,0.1597,95.9258)" gradientUnits="userSpaceOnUse" x1="62.543701" x2="64.113503" y1="40.8223" y2="37.072102">
<stop offset="0" stop-color="#ffffff"/>
<stop offset="1" stop-color="#a3a3a3"/>
</linearGradient>
<linearGradient gradientTransform="matrix(1,0,0,-1,0.1597,95.9258)" gradientUnits="userSpaceOnUse" x1="45.003201" x2="45.003201" y1="40.209" y2="23.3596">
<stop offset="0" stop-color="#c2de91"/>
<stop offset="1" stop-color="#7b9e56"/>
</linearGradient>
<linearGradient gradientTransform="matrix(1,0,0,-1,0.1597,95.9258)" gradientUnits="userSpaceOnUse" x1="45.003201" x2="45.003201" y1="40.209" y2="23.3596">
<stop offset="0" stop-color="#c2de91"/>
<stop offset="1" stop-color="#7b9e56"/>
</linearGradient>
<linearGradient gradientTransform="matrix(1,0,0,-1,0.1597,95.9258)" gradientUnits="userSpaceOnUse" x1="45.003201" x2="45.003201" y1="40.209" y2="23.3596">
<stop offset="0" stop-color="#c2de91"/>
<stop offset="1" stop-color="#7b9e56"/>
</linearGradient>
<linearGradient gradientTransform="matrix(1,0,0,-1,0.1597,95.9258)" gradientUnits="userSpaceOnUse" x1="45.003201" x2="45.003201" y1="40.209" y2="23.3596">
<stop offset="0" stop-color="#c2de91"/>
<stop offset="1" stop-color="#7b9e56"/>
</linearGradient>
<linearGradient gradientTransform="matrix(1,0,0,-1,0.1597,95.9258)" gradientUnits="userSpaceOnUse" x1="45.003201" x2="45.003201" y1="40.209" y2="23.3596">
<stop offset="0" stop-color="#c2de91"/>
<stop offset="1" stop-color="#7b9e56"/>
</linearGradient>
<linearGradient gradientTransform="matrix(1,0,0,-1,0.1597,95.9258)" gradientUnits="userSpaceOnUse" x1="45.003201" x2="45.003201" y1="40.209" y2="23.3596">
<stop offset="0" stop-color="#c2de91"/>
<stop offset="1" stop-color="#7b9e56"/>
</linearGradient>
<linearGradient gradientTransform="matrix(1,0,0,-1,8.6194701,63.557984)" gradientUnits="userSpaceOnUse" x1="82.677498" x2="82.677498" y1="37.415001" y2="54.1577">
<stop offset="0" stop-color="#ffffff" stop-opacity="0.3"/>
<stop offset="1" stop-color="#ffffff"/>
</linearGradient>
<linearGradient gradientTransform="matrix(1,0,0,-1,-53.620329,92.86676)" gradientUnits="userSpaceOnUse" x1="82.677498" x2="82.677498" y1="37.415001" y2="54.1577">
<stop offset="0" stop-color="#ffffff" stop-opacity="0.3"/>
<stop offset="1" stop-color="#ffffff"/>
</linearGradient>
<linearGradient gradientTransform="matrix(1,0,0,-1,8.6194701,63.557984)" gradientUnits="userSpaceOnUse" x1="82.677498" x2="82.677498" y1="37.415001" y2="54.1577">
<stop offset="0" stop-color="#ffffff" stop-opacity="0.3"/>
<stop offset="1" stop-color="#ffffff"/>
</linearGradient>
<linearGradient gradientTransform="matrix(1,0,0,-1,-15.367455,78.154116)" gradientUnits="userSpaceOnUse" x1="82.677498" x2="82.677498" y1="37.415001" y2="54.1577">
<stop offset="0" stop-color="#ffffff" stop-opacity="0.3"/>
<stop offset="1" stop-color="#ffffff"/>
</linearGradient>
<linearGradient gradientTransform="matrix(1,0,0,-1,8.6194701,63.557984)" gradientUnits="userSpaceOnUse" x1="82.677498" x2="82.677498" y1="37.415001" y2="54.1577">
<stop offset="0" stop-color="#ffffff" stop-opacity="0.3"/>
<stop offset="1" stop-color="#ffffff"/>
</linearGradient>
<linearGradient gradientTransform="matrix(1,0,0,-1,-18.309984,107.94722)" gradientUnits="userSpaceOnUse" x1="82.677498" x2="82.677498" y1="37.415001" y2="54.1577">
<stop offset="0" stop-color="#ffffff" stop-opacity="0.3"/>
<stop offset="1" stop-color="#ffffff"/>
</linearGradient>
<linearGradient gradientTransform="matrix(1,0,0,1.0147106,0,-1.118872)" gradientUnits="userSpaceOnUse" x1="25.749846" x2="83.267105" y1="23.186441" y2="82.169495">
<stop offset="0" stop-color="#d5f6ff" stop-opacity="1"/>
<stop offset="1" stop-color="#0088aa" stop-opacity="1"/>
</linearGradient>
<linearGradient gradientTransform="matrix(1,0,0,-1,-111.07647,38.974359)" gradientUnits="userSpaceOnUse" x1="167.8877" x2="206.12601" y1="-45.7896" y2="-7.5511999">
<stop offset="0" stop-color="#ffffff"/>
<stop offset="1" stop-color="#e6e6e6"/>
</linearGradient>
<linearGradient gradientTransform="matrix(0.7653472,0,0,-0.76412837,-94.891385,27.599019)" gradientUnits="userSpaceOnUse" x1="167.8877" x2="206.12601" y1="-45.7896" y2="-7.5511999">
<stop offset="0" stop-color="#ffffff"/>
<stop offset="1" stop-color="#e6e6e6"/>
</linearGradient>
<linearGradient gradientTransform="matrix(0.586,0,0,0.586,-1005.8297,-1092.6387)" gradientUnits="userSpaceOnUse" x1="1752.5493" x2="1752.5493" y1="1899.4333" y2="1919.2712">
<stop offset="0" stop-color="#ed2828"/>
<stop offset="0.0056" stop-color="#ed2828"/>
<stop offset="0.5" stop-color="#ef3b39"/>
<stop offset="0.9944" stop-color="#c02126"/>
<stop offset="1" stop-color="#c02126"/>
</linearGradient>
<linearGradient gradientTransform="matrix(0.586,0,0,-0.586,-951.5854,-1185.6289)" gradientUnits="userSpaceOnUse" x1="1642.4807" x2="1642.4807" y1="-2043.7046" y2="-2061.4199">
<stop offset="0" stop-color="#ed2828"/>
<stop offset="0.0056" stop-color="#ed2828"/>
<stop offset="0.5" stop-color="#ef3b39"/>
<stop offset="0.9944" stop-color="#c02126"/>
<stop offset="1" stop-color="#c02126"/>
</linearGradient>
<linearGradient gradientTransform="matrix(0.586,0,0,-0.586,-951.5854,-1185.6289)" gradientUnits="userSpaceOnUse" x1="1642.4807" x2="1642.4807" y1="-2043.7046" y2="-2061.4199">
<stop offset="0" stop-color="#ed2828"/>
<stop offset="0.0056" stop-color="#ed2828"/>
<stop offset="0.5" stop-color="#ef3b39"/>
<stop offset="0.9944" stop-color="#c02126"/>
<stop offset="1" stop-color="#c02126"/>
</linearGradient>
<linearGradient gradientTransform="matrix(0,1,-1,0,96.000013,-6.1129896e-5)" gradientUnits="userSpaceOnUse" x1="8" x2="88" y1="48" y2="48">
<stop offset="0" stop-color="#e75039" stop-opacity="1"/>
<stop offset="1" stop-color="#e73619" stop-opacity="1"/>
</linearGradient>
<linearGradient gradientTransform="matrix(0,1,-1,0,95.999954,-7.55e-5)" gradientUnits="userSpaceOnUse" id="linearGradient4040" x1="8.000015" x2="88.000015" y1="47.999939" y2="47.999939">
<stop offset="0" stop-color="#1b2a38" stop-opacity="1"/>
<stop offset="1" stop-color="#111822" stop-opacity="1"/>
</linearGradient>
</defs>
<path d="M 88.0 49.0 C 88.0 78.633 77.637 89.0 48.0 89.0 C 18.365 89.0 8.0 78.633 8.0 49.0 C 8.0 19.365 18.365 9.0 48.0 9.0 C 77.637 9.0 88.0 19.365 88.0 49.0 z " fill-opacity="0.4"/>
<linearGradient gradientUnits="userSpaceOnUse" x1="47.9995" x2="47.9995" y1="8" y2="88.0005">
<stop offset="0" stop-color="#00aad4" stop-opacity="1"/>
<stop offset="1" stop-color="#2ad4ff" stop-opacity="1"/>
</linearGradient>
<path d="M 8.000014 47.99994 C 8.000014 18.36694 18.363014 7.999939 48.000015 7.999939 C 77.63502 7.999939 88.000015 18.36694 88.000015 47.99994 C 88.000015 77.63494 77.63502 87.99994 48.000015 87.99994 C 18.363016 87.99994 8.000015 77.63494 8.000015 47.99994 z " fill="url(#linearGradient4040)" fill-opacity="1"/>
<rect fill="none" height="96" width="96"/>
<linearGradient gradientUnits="userSpaceOnUse" id="SVGID_2_" x1="47.9995" x2="47.9995" y1="8.2534" y2="87.4985">
<stop offset="0" stop-color="#ffffff"/>
<stop offset="1" stop-color="#ffffff" stop-opacity="0"/>
</linearGradient>
<path d="M 48.0 8.0 C 18.365 8.0 8.0 18.365 8.0 48.0 C 8.0 77.633 18.365 88.0 48.0 88.0 C 77.637 88.0 88.0 77.633 88.0 48.0 C 88.0 18.365 77.637 8.0 48.0 8.0 z M 48.0 87.0 C 18.842 87.0 9.0 77.158 9.0 48.0 C 9.0 18.842005 18.842 9.0 48.0 9.0 C 77.158005 9.0 87.0 18.842 87.0 48.0 C 87.0 77.158005 77.158 87.0 48.0 87.0 z " fill="url(#SVGID_2_)" fill-opacity="0.25" stroke-opacity="0.25"/>
<linearGradient gradientTransform="matrix(0.7071 -0.7071 0.7071 0.7071 -208.9813 3059.7412)" gradientUnits="userSpaceOnUse" x1="2309.3584" x2="2344.3584" y1="-1947.9287" y2="-1947.9287">
<stop offset="0" stop-color="#58595b"/>
<stop offset="1" stop-color="#000000"/>
</linearGradient>
<linearGradient gradientTransform="matrix(0.7071 -0.7071 0.7071 0.7071 -208.9813 3059.7412)" gradientUnits="userSpaceOnUse" x1="2309.3584" x2="2313.3604" y1="-1957.9277" y2="-1957.9277">
<stop offset="0" stop-color="#58595b"/>
<stop offset="1" stop-color="#000000"/>
</linearGradient>
<linearGradient gradientUnits="userSpaceOnUse" x1="54.292" x2="59.292" y1="10.3501" y2="38.934">
<stop offset="0" stop-color="#58595b"/>
<stop offset="1" stop-color="#000000"/>
</linearGradient>
<linearGradient gradientUnits="userSpaceOnUse" x1="32.5508" x2="42.1758" y1="12.6343" y2="45.1342">
<stop offset="0" stop-color="#58595b"/>
<stop offset="1" stop-color="#000000"/>
</linearGradient>
<linearGradient gradientUnits="userSpaceOnUse" x1="57.1484" x2="60.063" y1="35.2275" y2="38.1421">
<stop offset="0" stop-color="#ffffff"/>
<stop offset="0.7362" stop-color="#ffffff" stop-opacity="0"/>
<stop offset="1" stop-color="#ffffff" stop-opacity="0"/>
</linearGradient>
<linearGradient gradientUnits="userSpaceOnUse" x1="44.6177" x2="38.0733" y1="37.2412" y2="43.7856">
<stop offset="0" stop-color="#ffffff"/>
<stop offset="0.7362" stop-color="#ffffff" stop-opacity="0"/>
<stop offset="1" stop-color="#ffffff" stop-opacity="0"/>
</linearGradient>
<linearGradient gradientUnits="userSpaceOnUse" x1="47.9995" x2="47.9995" y1="45.5" y2="53.8766">
<stop offset="0" stop-color="#ffffff"/>
<stop offset="1" stop-color="#6d6e70"/>
</linearGradient>
<path d="M 53.16247 53.809708 M 45.458797 33.98504 L 45.458797 38.94074 " fill="#ffffff"/>
<path d="M 57.85459 72.01924 M 57.85459 71.23411 M 57.85459 68.30854 M 57.85459 67.51967 " fill="#ffffff"/>
<path d="M 80.526146 20.7124 C 84.72504 26.75982 86.824486 35.935764 86.824486 48.239174 C 86.824486 62.67379 83.931 72.784584 78.14402 78.57156 C 72.35599 84.358536 62.244133 87.25203 47.81163 87.25203 C 33.37913 87.25203 23.249279 84.35854 17.426306 78.57156 C 15.716469 76.84902 14.260727 74.75063 13.059076 72.27217 C 14.098742 71.0737 14.760444 70.33259 15.04418 70.0478 C 17.302433 67.75461 18.344217 65.723976 18.16741 63.960148 C 17.49724 62.05339 17.161625 60.449425 17.161625 59.141903 C 17.161625 58.766056 17.197624 58.217636 17.267496 57.500885 C 14.811261 51.775314 13.187181 48.104725 12.397375 46.490173 C 12.201511 46.073036 11.081383 44.423546 9.035932 41.540646 C 9.221208 38.87161 9.529296 36.383717 9.962314 34.07676 C 10.388979 34.606014 10.820938 35.16195 11.259248 35.74414 C 10.892931 34.14346 10.62825 32.80206 10.465207 31.721104 C 10.836818 30.117138 11.278306 28.609518 11.78861 27.195066 C 12.656761 29.701061 13.671018 32.74489 14.832437 36.326546 C 16.093374 40.18347 17.028225 43.120365 17.63805 45.140408 C 17.887909 45.53531 18.13459 45.923862 18.379156 46.305 C 18.153648 40.78694 17.30667 34.654823 15.8382225 27.909702 C 15.356504 25.73191 14.941485 23.57 14.594225 21.42503 C 15.44332 20.095274 16.3877 18.904213 17.426308 17.851845 C 18.958279 16.33893 20.784575 15.023998 22.905195 13.908105 C 22.961306 14.568642 23.005775 15.247282 23.037535 15.948156 C 23.214342 19.794493 23.443026 25.476654 23.725704 32.993584 L 23.990385 33.152393 C 26.713419 30.625223 29.325287 27.017097 31.824926 22.32696 C 31.888447 22.066513 31.941385 21.828302 31.983734 21.612322 C 33.02022 16.301771 33.628986 12.552836 33.81003 10.363399 C 34.24834 10.281878 34.68877 10.203531 35.133434 10.125187 C 35.068855 11.397771 34.97145 12.827045 34.842285 14.413012 C 34.842285 14.987898 34.771355 15.694065 34.63054 16.530457 C 35.88089 13.860359 36.95655 11.602106 37.859642 9.754635 C 39.067642 9.614884 40.32117 9.500542 41.618103 9.41055 C 40.465157 12.911744 37.907284 18.42557 33.942368 25.953083 C 31.731756 30.137154 29.958395 33.56 28.622292 36.222687 C 27.33065 39.75882 26.316395 42.30822 25.578465 43.871956 C 25.641994 50.511204 26.454027 56.713196 28.013525 62.478996 C 31.224628 74.23081 36.88879 80.10672 45.006012 80.10672 C 56.933575 80.10672 64.82106 78.554634 68.66845 75.45046 C 72.434326 72.402405 75.67084 65.142746 78.382225 53.667255 C 77.59666 46.62252 77.111755 42.51997 76.92648 41.357494 C 76.86189 40.90648 75.39874 35.682743 72.53278 25.688406 C 70.2523 20.815107 67.60549 15.901578 64.59237 10.9457 C 65.30171 11.11933 65.98882 11.304606 66.656876 11.50153 C 67.06342 12.116647 67.485855 12.769877 67.927345 13.460165 C 68.77009 14.799449 69.48685 15.972513 70.07126 16.980415 C 69.616005 15.281166 69.21158 13.693083 68.85373 12.216166 C 70.077614 12.665065 71.22315 13.159488 72.29458 13.698378 C 73.89536 18.975048 74.71376 21.66632 74.75611 21.771133 C 76.58876 27.768795 78.30918 33.220154 79.91738 38.12839 C 80.464745 30.989428 80.73789 26.349049 80.73789 24.206196 C 80.658485 22.980196 80.58967 21.815601 80.526146 20.712414 z " fill="#3e3e3e" fill-opacity="0.62234044"/>
<g transform="matrix(0.90505199,0,0,0.90505199,-11.29253,-39.949111)">
<g transform="translate(27.227951,56.229815)">
<g>
<path d="M 50.611 17.28 C 52.438 17.035 54.175 17.297 55.822 18.065 L 55.899 18.230001 L 49.342 31.353 C 51.697998 32.018 53.194 33.568 53.826 36.002 C 53.847 36.075897 53.864 36.149998 53.879 36.2249 C 53.923 35.434998 53.97 34.593 54.02 33.697 C 54.027 33.355 54.033 32.981 54.04 32.573997 C 54.06 32.148 54.082 31.734997 54.1069 31.333998 C 54.1329 30.939999 54.158897 30.587997 54.1849 30.277998 C 54.2039 29.961998 54.222897 29.721998 54.242897 29.560997 C 54.268898 29.392998 54.452896 29.253998 54.794895 29.143997 C 55.137894 29.033997 55.582893 28.962997 56.131897 28.930998 C 56.693897 28.885998 57.335896 28.885998 58.0599 28.930998 C 58.782898 28.969997 59.534897 29.036999 60.3159 29.133997 C 61.936897 29.340998 63.3709 29.734997 64.6169 30.315996 C 65.8629 30.890997 66.8829 31.584995 67.677895 32.398994 C 68.4779 33.211895 69.0629 34.106895 69.43089 35.081993 C 69.79189 36.062893 69.90889 37.060894 69.77989 38.074993 C 69.566895 39.714993 69.065895 41.012894 68.27789 41.968994 C 67.497894 42.923996 66.496895 43.553894 65.275894 43.857994 C 65.688896 44.425896 66.1189 45.064896 66.563896 45.774895 C 67.0029 46.471893 67.4099 47.223896 67.7849 48.031895 C 67.842896 48.140896 67.8649 48.244896 67.8519 48.341896 C 67.8389 48.445896 67.7649 48.506897 67.6289 48.526897 C 66.8999 48.7529 66.204895 48.942898 65.5469 49.097897 C 64.8819 49.252895 64.1459 49.374897 63.338898 49.465897 C 63.202896 49.485897 63.0929 49.4909 63.0099 49.485897 C 62.8279 49.459896 62.6969 49.352898 62.6129 49.165897 C 62.1479 47.945896 61.421898 46.811897 60.4329 45.7669 L 60.2199 47.5009 C 60.194897 47.6619 59.993896 47.7489 59.618896 47.7619 C 59.244896 47.774902 58.808895 47.7619 58.311897 47.723904 C 57.800896 47.684902 57.290897 47.6299 56.7819 47.558903 C 56.2649 47.487904 55.8509 47.432903 55.541897 47.3949 C 55.192898 47.3489 54.889996 47.3109 54.631996 47.2789 C 54.379997 47.2459 54.144897 47.1939 53.924995 47.1239 C 53.731995 47.0849 53.608994 46.8399 53.556995 46.3879 C 53.493 45.936 53.473 45.2 53.498 44.18 C 53.528 43.241 53.581 42.016 53.658 40.504 C 53.091 42.2309 51.882 43.634003 50.031002 44.712 C 50.354004 45.3319 50.486004 45.974903 50.428 46.6399 C 49.731003 47.5639 48.826 47.8669 47.716003 47.5499 C 47.348003 47.4409 47.070004 47.2049 46.883003 46.843 C 46.831005 46.766 46.796 46.684998 46.777004 46.600998 C 46.693005 46.303997 46.671005 45.990997 46.709003 45.662 L 37.712006 45.614 L 37.121006 47.182 L 33.712006 46.64 L 33.886005 44.781 C 31.624004 44.065998 30.155006 42.718 29.479006 40.732 C 29.338005 42.927 29.148006 45.135998 28.908007 47.357 C 28.928007 47.493 28.724007 47.643997 28.298006 47.812 C 27.859007 47.954 27.068007 48.122 25.925007 48.316 C 25.628006 48.361 25.315107 48.390003 24.986107 48.403004 C 24.663008 48.410004 24.457108 48.332005 24.366007 48.171005 C 23.681107 46.712006 23.004007 45.288006 22.332108 43.900005 C 21.654108 42.512005 21.047108 41.108006 20.511108 39.687004 C 20.44011 41.211002 20.30111 42.735004 20.094109 44.258003 C 19.88111 45.788002 19.629108 47.351 19.33911 48.946003 C 19.35911 49.0819 19.15511 49.230003 18.729109 49.391003 C 18.303108 49.5399 17.525108 49.7079 16.39511 49.895004 C 16.07911 49.946903 15.756109 49.979004 15.427109 49.991905 C 15.097109 49.998905 14.894109 49.918903 14.817109 49.750904 C 13.416109 47.141903 12.109109 44.526905 10.895109 41.905003 C 9.668109 39.2779 8.5351095 36.549904 7.496109 33.721 C 7.496109 33.689 7.486109 33.659 7.467109 33.634 C 7.4542093 33.614 7.4441094 33.579 7.4381094 33.528 C 7.3931093 33.25 7.5841093 33.063 8.010109 32.966 C 8.436109 32.882 9.114109 32.763 10.044109 32.607998 L 11.168109 32.414997 C 11.743109 32.323997 12.207109 32.255997 12.563108 32.211 C 12.918108 32.153 13.205109 32.121 13.425108 32.114 C 13.638108 32.107998 13.787107 32.114 13.871108 32.133 C 13.968108 32.146 14.042109 32.175 14.094108 32.22 C 14.261107 32.717003 14.501107 33.318 14.810107 34.021 C 15.126107 34.731 15.623107 35.59 16.302107 36.597 C 16.373106 36.229 16.438107 35.832 16.496107 35.406 C 16.554108 34.98 16.612106 34.563 16.670107 34.156 C 16.715107 33.743 16.751106 33.344997 16.776108 32.964996 C 16.821108 32.583996 16.847107 32.257996 16.853107 31.986996 C 16.847107 31.824995 16.950008 31.689995 17.163008 31.579996 C 17.395008 31.475996 17.683008 31.382996 18.025007 31.298996 C 18.367008 31.214996 18.742008 31.139996 19.149008 31.075996 C 19.556007 31.004997 19.940008 30.939997 20.302008 30.881996 C 20.747007 30.810997 21.167007 30.747097 21.561008 30.689096 C 21.949009 30.631096 22.291008 30.585096 22.588009 30.553097 C 22.904009 30.521097 23.15301 30.511097 23.33401 30.524097 C 23.508009 30.537098 23.602009 30.575098 23.61501 30.640097 C 23.82201 31.163097 24.08701 31.770096 24.40901 32.461098 C 24.75801 33.145096 25.24501 33.998096 25.87101 35.018097 C 26.04501 34.134098 26.15501 33.249096 26.20001 32.364098 C 26.25801 31.479097 26.29001 30.708097 26.29701 30.050098 C 26.278011 29.946098 26.34601 29.856098 26.50101 29.779099 C 26.64991 29.702099 26.852911 29.624098 27.11091 29.547098 C 27.36191 29.476099 27.64291 29.418098 27.95391 29.373098 C 28.26391 29.322098 28.57691 29.267097 28.89291 29.208097 L 29.33791 29.140097 C 29.48591 29.115097 29.57391 29.166096 29.599909 29.295097 C 29.599909 29.328098 29.60591 29.399097 29.61991 29.508097 C 29.63291 29.624096 29.645908 29.724096 29.658909 29.808096 C 29.72691 31.676096 29.74491 33.523094 29.711908 35.348095 C 30.659908 32.698093 32.655907 30.893095 35.70091 29.934095 L 33.405907 14.273095 C 34.787907 12.833096 36.359905 12.501095 38.122906 13.275095 C 38.154907 13.281095 38.177906 13.304095 38.190907 13.343095 C 39.410908 18.657095 39.730907 24.093094 39.149906 29.653095 L 46.326805 30.282095 L 50.519806 17.420094 L 50.611008 17.279993 z M 64.02501 40.311993 C 64.09501 39.74399 63.93401 39.288994 63.541008 38.94599 C 63.141006 38.616993 62.659008 38.416992 62.098007 38.34499 C 61.84601 38.31299 61.611008 38.30599 61.391006 38.32599 L 60.83901 42.59699 C 61.743008 42.64299 62.47601 42.47199 63.03701 42.08399 C 63.59901 41.689987 63.92901 41.099987 64.02501 40.31199 z M 47.551 37.406 C 47.009 36.896 46.363 36.650997 45.614 36.67 C 44.864998 36.689 44.232 36.967 43.716 37.503 C 43.199 38.045 42.95 38.690998 42.97 39.44 C 42.99 40.189 43.271 40.817997 43.813 41.328 C 44.355 41.844997 45.001 42.093998 45.75 42.073997 C 46.5 42.053997 47.132 41.773 47.648 41.231 C 48.164997 40.695 48.413998 40.052998 48.393997 39.304 C 48.373997 38.555 48.093998 37.922 47.551 37.406002 z M 40.655 37.261 C 40.622997 35.957 40.138 34.859 39.202 33.968002 C 38.253 33.064003 37.126 32.628002 35.822 32.660004 C 34.524 32.699005 33.426 33.190002 32.529 34.132004 C 31.625 35.075005 31.189999 36.198006 31.222 37.503002 C 31.254 38.801003 31.745 39.899002 32.694 40.796 C 33.643 41.699 34.766 42.132 36.064 42.094 C 37.368 42.062 38.468998 41.573 39.367 40.631 C 40.258 39.682 40.688 38.559002 40.655 37.261 z " fill="#ffffff"/>
<path d="M 24.195 52.875 C 24.317 52.895 24.388 52.965 24.407 53.088 C 24.425999 53.332 24.437 53.563 24.442 53.779 C 24.446999 53.994 24.449 54.224 24.449 54.47 C 24.449 55.033 24.435 55.603 24.407 56.177002 C 24.397 56.24 24.379 56.295002 24.35 56.338 C 24.322 56.379 24.27 56.4 24.195 56.4 L 22.925 56.4 C 22.914999 56.646 22.899 56.927002 22.876 57.249 C 22.852 57.566 22.824 57.907 22.791 58.266 C 22.758 58.621998 22.723 58.987 22.685 59.36 C 22.647 59.731 22.609999 60.0889 22.571999 60.438 C 22.553 60.5419 22.463999 60.6119 22.303999 60.651 C 22.144 60.6879 21.928099 60.7079 21.6551 60.7079 C 21.3731 60.7079 21.1281 60.7019 20.9211 60.692 C 20.7141 60.682003 20.517101 60.669003 20.329102 60.651 C 20.263102 60.63 20.2161 60.600002 20.1881 60.559002 C 20.1601 60.516003 20.1411 60.423 20.131102 60.284 C 20.0841 59.579 20.0421 58.905 20.0041 58.266 C 19.9661 57.624 19.9151 56.995 19.8491 56.374 C 19.7171 56.353 19.5901 56.346 19.4681 56.346 C 19.3461 56.346 19.219099 56.346 19.0871 56.346 L 18.5651 56.346 C 18.424099 56.346 18.3531 56.276 18.3531 56.134 C 18.3341 55.862 18.3231 55.580997 18.3181 55.294 C 18.3131 55.007 18.3111 54.729 18.3111 54.454 C 18.3111 54.199997 18.3131 53.96 18.3181 53.733997 C 18.3231 53.506996 18.3351 53.273 18.3531 53.028996 C 18.3531 52.942997 18.4001 52.882996 18.4941 52.844997 C 18.5881 52.808098 18.7061 52.784096 18.847101 52.775097 C 18.988102 52.767097 19.1361 52.763096 19.291101 52.767097 C 19.446102 52.773098 19.585102 52.775097 19.707102 52.775097 C 20.459103 52.775097 21.214102 52.777096 21.972101 52.781998 C 22.730001 52.788998 23.471 52.817997 24.195002 52.874996 z " fill="#8fd900" fill-opacity="1"/>
<path d="M 32.576 54.738 C 32.576 55.246 32.574 55.709 32.569 56.127 C 32.564 56.546997 32.552002 56.968998 32.534 57.398 C 32.515 57.826 32.487 58.281 32.449 58.765 C 32.411003 59.248 32.355 59.812 32.280003 60.453 C 32.261 60.564 32.191 60.621 32.069004 60.621 C 31.787004 60.621 31.436005 60.616997 31.018003 60.607 C 30.600004 60.597 30.207104 60.579998 29.840103 60.549 C 29.774103 60.539 29.720102 60.528 29.678102 60.515 C 29.636103 60.5 29.605103 60.459 29.586103 60.396 C 29.567104 60.32 29.546103 60.215 29.523104 60.084 C 29.500103 59.951 29.474104 59.81 29.445105 59.651 C 29.417105 59.498 29.391104 59.34 29.367105 59.186 C 29.343105 59.033 29.323105 58.893 29.304106 58.77 C 29.116106 58.958 28.987106 59.074 28.916105 59.117 C 28.845106 59.16 28.801105 59.179 28.782104 59.179 C 28.707104 59.179 28.641205 59.122 28.585205 59.011 C 28.557205 59.218002 28.543205 59.419003 28.543205 59.616 C 28.543205 59.813 28.524206 60.036 28.486206 60.280003 C 28.477205 60.337 28.448206 60.378002 28.402206 60.407 C 28.355206 60.434002 28.294207 60.456 28.218206 60.469 C 28.143206 60.485 28.063206 60.49 27.978207 60.49 C 27.894207 60.49 27.809206 60.49 27.724207 60.49 C 27.197206 60.49 26.788206 60.487003 26.496206 60.483 C 26.204206 60.477 25.988207 60.465 25.847206 60.449 C 25.706205 60.428 25.619205 60.403 25.586206 60.371002 C 25.553205 60.338 25.537207 60.293003 25.537207 60.235 L 25.368206 56.016 C 25.340206 55.337997 25.324205 54.766 25.319206 54.295 C 25.314207 53.823997 25.307207 53.453 25.298206 53.179996 C 25.298206 53.105995 25.345207 53.046997 25.439207 53.003998 C 25.533207 52.961 25.648207 52.9321 25.785208 52.912 C 25.921207 52.892097 26.065208 52.8811 26.215208 52.877098 C 26.365208 52.871098 26.497208 52.8691 26.610209 52.8691 C 27.062208 52.8691 27.462208 52.8671 27.809208 52.8631 C 28.157207 52.857098 28.411207 52.8551 28.571207 52.8551 C 28.721207 52.8551 28.797207 52.9311 28.797207 53.081997 C 28.797207 53.653996 28.792208 54.281 28.783207 54.957096 C 28.774206 55.635098 28.736206 56.298996 28.670206 56.947098 C 28.774206 56.871098 28.856207 56.822 28.917206 56.7991 C 28.978207 56.7761 29.022205 56.7641 29.051207 56.7641 C 29.098207 56.7641 29.164207 56.8171 29.249207 56.920097 L 29.249207 53.081997 C 29.249207 53.006096 29.298206 52.947098 29.397207 52.9041 C 29.496208 52.8631 29.616207 52.8321 29.757208 52.8121 C 29.898209 52.7931 30.042109 52.7831 30.187208 52.7771 C 30.333208 52.773098 30.453108 52.7711 30.547108 52.7711 C 30.632107 52.7711 30.785109 52.773098 31.005108 52.7771 C 31.226109 52.7831 31.452108 52.7971 31.682108 52.8201 C 31.912107 52.843098 32.12011 52.877098 32.30311 52.920097 C 32.486107 52.961098 32.57811 53.016098 32.57811 53.081997 L 32.57811 54.735996 L 32.576008 54.735996 z " fill="#8fd900" fill-opacity="1"/>
<path d="M 39.024 53.143 C 39.024 53.557003 39.007 53.961002 38.975 54.358 C 38.941998 54.754 38.901997 55.106003 38.855 55.418003 C 38.808 55.728004 38.756 55.978004 38.7 56.164 C 38.644 56.352 38.596 56.446003 38.559002 56.446003 C 38.455 56.446003 38.284 56.436005 38.044003 56.418003 C 37.804 56.399002 37.416004 56.392002 36.88 56.392002 C 36.870003 56.467003 36.866 56.566 36.866 56.689003 C 36.866 56.81 36.866 56.910004 36.866 56.984 C 37.138 56.976 37.362 56.965 37.536 56.957 C 37.71 56.947002 37.854 56.937 37.967 56.93 C 38.079998 56.920002 38.172 56.912 38.242 56.909 C 38.313 56.903 38.39 56.901 38.475002 56.901 C 38.673004 56.901 38.771004 57.002003 38.771004 57.198 C 38.752003 57.34 38.714005 57.504 38.658005 57.692 C 38.601006 57.88 38.550003 58.010002 38.503006 58.088 C 38.409004 58.211002 38.042007 58.273003 37.402004 58.273003 L 36.823006 58.273003 C 36.814007 58.357002 36.806007 58.457 36.802006 58.570004 C 36.797005 58.681004 36.795006 58.791004 36.795006 58.894005 C 36.870007 58.912006 36.945007 58.920006 37.021008 58.920006 C 37.09601 58.920006 37.17101 58.920006 37.24701 58.920006 C 37.45401 58.920006 37.64901 58.912006 37.83201 58.899006 C 38.016006 58.884007 38.22501 58.878006 38.460007 58.878006 C 38.55401 58.878006 38.613007 58.907005 38.636005 58.964005 C 38.659004 59.021004 38.672005 59.084904 38.672005 59.161003 C 38.672005 59.424904 38.667004 59.653004 38.658005 59.845 C 38.648006 60.037903 38.630005 60.2299 38.601006 60.4169 C 38.592007 60.4639 38.552006 60.5029 38.481007 60.5359 C 38.410007 60.5689 38.285007 60.5999 38.107006 60.6279 C 37.928104 60.6569 37.686005 60.6769 37.380005 60.6919 C 37.074005 60.7059 36.681107 60.7129 36.202003 60.7129 C 35.760105 60.7129 35.400105 60.708897 35.122105 60.7049 C 34.845104 60.6979 34.623104 60.6839 34.459106 60.6619 C 34.295105 60.6399 34.179108 60.5999 34.113106 60.5429 C 34.047104 60.4849 34.009106 60.4049 34.000107 60.3029 C 33.96211 60.0309 33.925106 59.681 33.887108 59.2519 C 33.84911 58.822998 33.814106 58.366 33.78111 57.883 C 33.748108 57.399998 33.71811 56.906998 33.68911 56.406998 C 33.66111 55.908997 33.63511 55.453 33.61111 55.040997 C 33.58811 54.626995 33.56911 54.274 33.55511 53.986996 C 33.54111 53.699997 33.53411 53.523994 33.53411 53.458996 C 33.53411 53.374996 33.58611 53.302998 33.68911 53.238995 C 33.79311 53.177994 33.98311 53.126995 34.26111 53.077995 C 34.53811 53.029995 34.91411 52.995995 35.389107 52.973995 C 35.864105 52.950996 36.478107 52.938995 37.230106 52.938995 L 38.811108 52.938995 C 38.954006 52.931995 39.024006 53.001995 39.024006 53.142994 z " fill="#8fd900" fill-opacity="1"/>
<path d="M 45.541 52.748 C 46.199 52.748 46.795002 52.84 47.326 53.023003 C 47.857 53.206 48.308 53.465004 48.681 53.797 C 49.052 54.131 49.338 54.533 49.539 55.004 C 49.742 55.476 49.845 55.992 49.845 56.558002 C 49.845 57.299004 49.722 57.939003 49.478 58.469902 C 49.234 59.000004 48.912003 59.438904 48.511 59.780903 C 48.111 60.124905 47.652 60.376904 47.136 60.536903 C 46.617 60.696903 46.086002 60.776905 45.539 60.776905 C 45.397003 60.776905 45.235 60.764904 45.054 60.741905 C 44.870003 60.718906 44.695 60.681004 44.525 60.634907 C 44.357002 60.587906 44.209 60.531006 44.082 60.466908 C 43.955 60.400906 43.8771 60.329906 43.850002 60.253906 C 43.8011 59.454906 43.762104 58.656006 43.729103 57.856007 C 43.696102 57.056908 43.680103 56.228905 43.680103 55.375008 C 43.680103 55.01901 43.684105 54.65101 43.694103 54.280006 C 43.705 53.910007 43.717102 53.551006 43.737103 53.201008 C 43.737103 53.090008 43.766003 53.002007 43.83 52.940006 C 43.892002 52.878006 43.992 52.836006 44.133003 52.805008 C 44.275 52.778008 44.459003 52.76001 44.691 52.75601 C 44.918003 52.750008 45.203003 52.74801 45.541 52.74801 z M 47.432 57.88501 C 47.432 57.23501 47.119 56.87701 46.487 56.81301 C 46.461 57.311012 46.446 57.80901 46.446 58.30701 C 46.446 58.44001 46.446 58.56701 46.446 58.69001 C 46.446 58.81101 46.451 58.93401 46.461 59.05501 C 46.556 59.047012 46.66 59.012012 46.775997 58.95101 C 46.894997 58.88901 47.002 58.80701 47.093998 58.705013 C 47.188 58.602013 47.267998 58.477013 47.334 58.338013 C 47.398 58.19501 47.432 58.045013 47.432 57.885014 z " fill="#8fd900" fill-opacity="1"/>
<path d="M 54.402 53.242 C 54.392002 53.279 54.381 53.672 54.367 54.420002 C 54.353 55.168003 54.322002 56.315002 54.275 57.856003 C 54.254 58.403004 54.244003 58.899002 54.24 59.344 C 54.234 59.791 54.232002 60.137 54.232002 60.381 C 54.232002 60.4939 54.187004 60.576 54.099003 60.6289 C 54.008003 60.679897 53.900105 60.7109 53.7731 60.720898 C 53.646103 60.731 53.5171 60.730896 53.3861 60.720898 C 53.2521 60.7109 53.1421 60.706997 53.0451 60.706997 C 52.7741 60.706997 52.4901 60.698997 52.1991 60.685997 C 51.9081 60.67 51.6531 60.655 51.4361 60.635 C 51.3321 60.627 51.2541 60.592 51.2051 60.53 C 51.1511 60.468998 51.1171 60.357998 51.1011 60.197998 C 51.0251 59.144997 50.9631 58.034996 50.9161 56.862 C 50.8671 55.69 50.8451 54.489 50.8451 53.258 C 50.8451 53.09 50.9551 52.987 51.1771 52.946 C 51.3981 52.91 51.7631 52.889 52.271103 52.889 C 52.601105 52.889 52.922104 52.895 53.238102 52.905 C 53.5521 52.916 53.8511 52.938 54.1341 52.975 C 54.238102 52.996 54.3091 53.022 54.346104 53.059 C 54.382004 53.095997 54.402004 53.157997 54.402004 53.241997 z " fill="#8fd900" fill-opacity="1"/>
<path d="M 61.781 57.023 C 61.921997 57.043 62.003998 57.07 62.026997 57.107 C 62.048996 57.146 62.061996 57.219997 62.061996 57.334 C 62.061996 57.4 62.057995 57.551 62.046997 57.785 C 62.037 58.021 62.024998 58.287 62.005997 58.582 C 61.984997 58.879 61.964996 59.176003 61.942997 59.471 C 61.92 59.768 61.893997 60.0099 61.864998 60.198 C 61.864998 60.247902 61.808 60.299004 61.697 60.3539 C 61.584 60.4119 61.428997 60.4609 61.238 60.5079 C 61.045 60.5549 60.822 60.5959 60.568 60.6289 C 60.314 60.6619 60.049 60.6779 59.777 60.6779 C 59.166 60.6779 58.589 60.5999 58.048 60.4459 C 57.5071 60.2909 57.036 60.0449 56.639 59.7069 C 56.239 59.3669 55.9231 58.9359 55.6941 58.406902 C 55.4641 57.88 55.3481 57.251904 55.3481 56.516003 C 55.3481 56.028004 55.434097 55.551003 55.608097 55.090004 C 55.784096 54.629005 56.041996 54.219006 56.384 53.856003 C 56.729 53.496002 57.153 53.205 57.661 52.981003 C 58.169 52.760002 58.757 52.651 59.425 52.651 C 59.79 52.651 60.089 52.666 60.321 52.692 C 60.55 52.721 60.753 52.75 60.920998 52.778 C 60.968 52.789 61.012997 52.862 61.055996 53.004 C 61.098995 53.146 61.135998 53.3209 61.168995 53.532 C 61.201996 53.746002 61.229996 53.977 61.252995 54.2309 C 61.275993 54.4849 61.295994 54.731 61.309994 54.9709 C 61.323994 55.210903 61.334995 55.427902 61.344994 55.6189 C 61.354992 55.8119 61.358994 55.9509 61.358994 56.0349 C 61.358994 56.177902 61.289993 56.247902 61.147995 56.247902 C 61.043995 56.247902 60.920994 56.2279 60.780994 56.190903 C 60.641994 56.153904 60.436993 56.132904 60.174995 56.132904 C 59.894997 56.132904 59.660995 56.186905 59.478996 56.286903 C 59.293995 56.390903 59.150997 56.519905 59.045998 56.676903 C 58.941998 56.8319 58.87 56.995903 58.829 57.169903 C 58.786 57.344902 58.766 57.501904 58.766 57.6439 C 58.766 57.870903 58.824997 58.100903 58.941998 58.3339 C 59.059 58.566902 59.274 58.7369 59.585 58.8419 C 59.605 58.7379 59.612 58.6399 59.612 58.5449 C 59.612 58.450897 59.612 58.359898 59.612 58.275898 C 59.612 58.1059 59.61 57.964897 59.606 57.8519 C 59.6 57.741898 59.593 57.6489 59.585 57.5779 C 59.575 57.5079 59.569 57.4509 59.564 57.4099 C 59.559998 57.3669 59.558 57.3279 59.558 57.288902 C 59.558 57.230904 59.597 57.184902 59.677 57.146904 C 59.757 57.108906 59.864998 57.079903 60.001 57.054905 C 60.137 57.031906 60.288 57.017906 60.452 57.011906 C 60.616 57.007904 60.784 57.005905 60.954 57.005905 C 61.058 57.005905 61.202 57.005905 61.392 57.005905 C 61.573997 57.010006 61.704998 57.014004 61.781 57.023006 z " fill="#8fd900" fill-opacity="1"/>
</g>
</g>
<circle cx="35.952999" cy="37.235001" d="m 38.905999,37.235001 c 0,1.630897 -1.322103,2.953 -2.953,2.953 -1.630897,0 -2.953,-1.322103 -2.953,-2.953 0,-1.630897 1.322103,-2.953 2.953,-2.953 1.630897,0 2.953,1.322103 2.953,2.953 z" fill="#8fd900" fill-opacity="1" r="2.9530001" transform="translate(27.227951,56.229815)"/>
</g>
</svg>
