<?xml version="1.0" encoding="UTF-8"?>
<svg xmlns="http://www.w3.org/2000/svg" xmlns:xlink="http://www.w3.org/1999/xlink" baseProfile="tiny" contentScriptType="text/ecmascript" contentStyleType="text/css" height="43px" preserveAspectRatio="xMidYMid meet" version="1.1" viewBox="0 0 43 43" width="43px" x="0px" y="0px" zoomAndPan="magnify">
<g>
<rect fill="none" height="43" width="43"/>
</g>
<g display="none">
<path d="M 38.707 31.069 C 37.519 34.98 34.932 37.72 29.766 39.053 C 25.911001 40.046 23.253 40.026 21.454 39.985 C 19.653 40.026 16.996 40.047 13.14 39.053 C 7.9760003 37.72 5.195 35.034 4.201 31.069 C 1.5010002 20.316 4.201 11.934 4.201 11.934 C 5.585 8.084 7.9760003 5.28 13.14 3.949 C 16.997 2.9509997 19.654 2.975 21.454 3.0119998 C 23.253 2.9739997 25.91 2.9509997 29.766 3.949 C 34.932 5.281 37.32 8.085 38.707 11.934 C 38.707 11.935 41.616 21.471 38.707 31.069 z " display="inline" fill="#6d6e70"/>
</g>
<g>
<path d="M 38.707 31.068 C 37.519 34.981003 34.932 37.719 29.766 39.054 C 25.911001 40.047 23.253 40.026 21.454 39.985 C 19.653 40.026 16.997002 40.048 13.14 39.054 C 7.975 37.72 5.195 35.036 4.2 31.068 C 1.4999998 20.316002 4.2 11.934 4.2 11.934 C 5.585 8.085 7.975 5.281 13.139 3.949 C 16.996 2.9509997 19.653 2.975 21.453 3.0119998 C 23.251999 2.9739997 25.908998 2.9509997 29.765 3.949 C 34.931 5.281 37.319 8.085 38.706 11.934 C 38.707 11.935 41.616 21.472 38.707 31.068 z " display="none" fill="#f7d303"/>
<path d="M 38.707 31.069 C 37.519 34.98 34.932 37.721 29.766 39.053 C 25.911001 40.046 23.253 40.027 21.454 39.986 C 19.653 40.027 16.996 40.047 13.14 39.053 C 7.9760003 37.721 5.195 35.034 4.201 31.069 C 1.5010002 20.316 4.201 11.934999 4.201 11.934999 C 5.585 8.084999 7.9760003 5.2809997 13.14 3.9499993 C 16.997 2.9519992 19.654 2.9759994 21.454 3.0129993 C 23.253 2.9749992 25.91 2.9519992 29.766 3.9499993 C 34.932 5.2819996 37.32 8.0859995 38.707 11.934999 C 38.707 11.935 41.616 21.472 38.707 31.069 z " fill="#ffa300"/>
<path d="M 38.707 31.07 C 37.519 34.98 34.932 37.72 29.766 39.054 C 25.911001 40.046 23.253 40.027 21.454 39.986 C 19.653 40.027 16.996 40.047 13.14 39.054 C 7.9760003 37.72 5.195 35.034 4.201 31.07 C 1.5010002 20.316 4.201 11.934999 4.201 11.934999 C 5.585 8.084999 7.9760003 5.2809997 13.14 3.9499993 C 16.997 2.9519992 19.654 2.9759994 21.454 3.0129993 C 23.253 2.9749992 25.91 2.9519992 29.766 3.9499993 C 34.932 5.2819996 37.32 8.0859995 38.707 11.934999 C 38.707 11.935 41.616 21.472 38.707 31.07 z " display="none" fill="#ff5b00"/>
<path d="M 38.707 31.07 C 37.519 34.98 34.932 37.72 29.766 39.054 C 25.911001 40.046 23.253 40.027 21.454 39.986 C 19.653 40.027 16.996 40.047 13.14 39.054 C 7.9760003 37.72 5.195 35.034 4.201 31.07 C 1.5010002 20.316 4.201 11.934999 4.201 11.934999 C 5.585 8.084999 7.9760003 5.2809997 13.14 3.9499993 C 16.997 2.9519992 19.654 2.9759994 21.454 3.0129993 C 23.253 2.9749992 25.91 2.9519992 29.766 3.9499993 C 34.932 5.2819996 37.32 8.0859995 38.707 11.934999 C 38.707 11.935 41.616 21.472 38.707 31.07 z " display="none" fill="#f74000"/>
<path d="M 38.707 31.07 C 37.519 34.98 34.932 37.72 29.766 39.054 C 25.911001 40.046 23.253 40.027 21.454 39.986 C 19.653 40.027 16.996 40.047 13.14 39.054 C 7.9760003 37.72 5.195 35.034 4.201 31.07 C 1.5010002 20.316 4.201 11.934999 4.201 11.934999 C 5.585 8.084999 7.9760003 5.2809997 13.14 3.9499993 C 16.997 2.9519992 19.654 2.9759994 21.454 3.0129993 C 23.253 2.9749992 25.91 2.9519992 29.766 3.9499993 C 34.932 5.2819996 37.32 8.0859995 38.707 11.934999 C 38.707 11.935 41.616 21.472 38.707 31.07 z " display="none" fill="#e21429"/>
</g>
<g>
<path d="M 38.707 31.069 C 37.519 34.98 34.932 37.72 29.766 39.053 C 25.911001 40.046 23.253 40.026 21.454 39.985 C 19.653 40.026 16.996 40.047 13.14 39.053 C 7.9760003 37.72 5.195 35.034 4.201 31.069 C 1.5010002 20.316 4.201 11.934 4.201 11.934 C 5.585 8.084 7.9760003 5.28 13.14 3.949 C 16.997 2.9509997 19.654 2.975 21.454 3.0119998 C 23.253 2.9739997 25.91 2.9509997 29.766 3.949 C 34.932 5.281 37.32 8.085 38.707 11.934 C 38.707 11.935 41.616 21.471 38.707 31.069 z " display="none" fill="#ec297b"/>
<path d="M 38.707 31.07 C 37.518 34.98 34.932 37.72 29.766 39.054 C 25.911001 40.046 23.252 40.027 21.454 39.986 C 19.653 40.027 16.996 40.047 13.14 39.054 C 7.9760003 37.72 5.195 35.034 4.201 31.07 C 1.5010002 20.316 4.201 11.934999 4.201 11.934999 C 5.585 8.084999 7.9760003 5.2809997 13.14 3.9499993 C 16.997 2.9519992 19.654 2.9759994 21.454 3.0129993 C 23.252 2.9749992 25.911 2.9519992 29.766 3.9499993 C 34.932 5.2819996 37.319 8.0859995 38.707 11.934999 C 38.707 11.935 41.615 21.472 38.707 31.07 z " display="none" fill="#e50c98"/>
<path d="M 38.707 31.07 C 37.519 34.98 34.932 37.72 29.766 39.054 C 25.911001 40.046 23.253 40.027 21.454 39.986 C 19.653 40.027 16.996 40.047 13.14 39.054 C 7.9760003 37.72 5.195 35.034 4.201 31.07 C 1.5010002 20.316 4.201 11.934999 4.201 11.934999 C 5.585 8.084999 7.9760003 5.2809997 13.14 3.9499993 C 16.997 2.9519992 19.654 2.9759994 21.454 3.0129993 C 23.253 2.9749992 25.91 2.9519992 29.766 3.9499993 C 34.932 5.2819996 37.32 8.0859995 38.707 11.934999 C 38.707 11.935 41.616 21.472 38.707 31.07 z " fill="#942478"/>
<path d="M 38.707 31.07 C 37.519 34.98 34.932 37.72 29.766 39.054 C 25.911001 40.046 23.253 40.027 21.454 39.986 C 19.653 40.027 16.996 40.047 13.14 39.054 C 7.9760003 37.72 5.195 35.034 4.201 31.07 C 1.5010002 20.316 4.201 11.934999 4.201 11.934999 C 5.585 8.084999 7.9760003 5.2809997 13.14 3.9499993 C 16.997 2.9519992 19.654 2.9759994 21.454 3.0129993 C 23.253 2.9749992 25.91 2.9519992 29.766 3.9499993 C 34.932 5.2819996 37.32 8.0859995 38.707 11.934999 C 38.707 11.935 41.616 21.472 38.707 31.07 z " display="none" fill="#6222a0"/>
</g>
<g display="none">
<path d="M 38.707 31.07 C 37.519 34.98 34.932 37.72 29.766 39.054 C 25.911001 40.046 23.253 40.027 21.454 39.986 C 19.653 40.027 16.996 40.047 13.14 39.054 C 7.9760003 37.72 5.195 35.034 4.201 31.07 C 1.5010002 20.316 4.201 11.934999 4.201 11.934999 C 5.585 8.084999 7.9760003 5.2809997 13.14 3.9499993 C 16.997 2.9519992 19.654 2.9759994 21.454 3.0129993 C 23.253 2.9749992 25.91 2.9519992 29.766 3.9499993 C 34.932 5.2819996 37.32 8.0859995 38.707 11.934999 C 38.707 11.935 41.616 21.472 38.707 31.07 z " display="inline" fill="#2c00a5"/>
<path d="M 38.707 31.07 C 37.519 34.98 34.932 37.72 29.766 39.054 C 25.911001 40.046 23.253 40.027 21.454 39.986 C 19.653 40.027 16.996 40.047 13.14 39.054 C 7.9760003 37.72 5.195 35.034 4.201 31.07 C 1.5010002 20.316 4.201 11.934999 4.201 11.934999 C 5.585 8.084999 7.9760003 5.2809997 13.14 3.9499993 C 16.997 2.9519992 19.654 2.9759994 21.454 3.0129993 C 23.253 2.9749992 25.91 2.9519992 29.766 3.9499993 C 34.932 5.2819996 37.32 8.0859995 38.707 11.934999 C 38.707 11.935 41.616 21.472 38.707 31.07 z " fill="#1b34b2"/>
<path d="M 38.707 31.07 C 37.519 34.98 34.932 37.72 29.766 39.054 C 25.911001 40.046 23.253 40.027 21.454 39.986 C 19.653 40.027 16.996 40.047 13.14 39.054 C 7.9760003 37.72 5.195 35.034 4.201 31.07 C 1.5010002 20.316 4.201 11.934999 4.201 11.934999 C 5.585 8.084999 7.9760003 5.2809997 13.14 3.9499993 C 16.997 2.9519992 19.654 2.9759994 21.454 3.0129993 C 23.253 2.9749992 25.91 2.9519992 29.766 3.9499993 C 34.932 5.2819996 37.32 8.0859995 38.707 11.934999 C 38.707 11.935 41.616 21.472 38.707 31.07 z " fill="#0066a8"/>
<path d="M 38.707 31.069 C 37.519 34.98 34.932 37.72 29.766 39.053 C 25.911001 40.046 23.253 40.026 21.454 39.985 C 19.653 40.026 16.996 40.047 13.14 39.053 C 7.9760003 37.72 5.195 35.034 4.201 31.069 C 1.5010002 20.316 4.201 11.934 4.201 11.934 C 5.585 8.084 7.9760003 5.28 13.14 3.949 C 16.997 2.9509997 19.654 2.975 21.454 3.0119998 C 23.253 2.9739997 25.91 2.9509997 29.766 3.949 C 34.932 5.281 37.32 8.085 38.707 11.934 C 38.707 11.935 41.616 21.471 38.707 31.069 z " fill="#0082b6"/>
</g>
<g display="none">
<path d="M 38.707 31.069 C 37.519 34.98 34.932 37.72 29.766 39.053 C 25.911001 40.046 23.253 40.026 21.454 39.985 C 19.653 40.026 16.996 40.047 13.14 39.053 C 7.9760003 37.72 5.195 35.034 4.201 31.069 C 1.5010002 20.316 4.201 11.934 4.201 11.934 C 5.585 8.084 7.9760003 5.28 13.14 3.949 C 16.997 2.9509997 19.654 2.975 21.454 3.0119998 C 23.253 2.9739997 25.91 2.9509997 29.766 3.949 C 34.932 5.281 37.32 8.085 38.707 11.934 C 38.707 11.935 41.616 21.471 38.707 31.069 z " display="inline" fill="#0d9758"/>
<path d="M 38.707 31.069 C 37.519 34.98 34.932 37.72 29.766 39.053 C 25.911001 40.046 23.253 40.026 21.454 39.985 C 19.653 40.026 16.996 40.047 13.14 39.053 C 7.9760003 37.72 5.195 35.034 4.201 31.069 C 1.5010002 20.316 4.201 11.934 4.201 11.934 C 5.585 8.084 7.9760003 5.28 13.14 3.949 C 16.997 2.9509997 19.654 2.975 21.454 3.0119998 C 23.253 2.9739997 25.91 2.9509997 29.766 3.949 C 34.932 5.281 37.32 8.085 38.707 11.934 C 38.707 11.935 41.616 21.471 38.707 31.069 z " fill="#128406"/>
<path d="M 38.707 31.069 C 37.519 34.98 34.932 37.72 29.766 39.053 C 25.911001 40.046 23.253 40.026 21.454 39.985 C 19.653 40.026 16.996 40.047 13.14 39.053 C 7.9760003 37.72 5.195 35.034 4.201 31.069 C 1.5010002 20.316 4.201 11.934 4.201 11.934 C 5.585 8.084 7.9760003 5.28 13.14 3.949 C 16.997 2.9509997 19.654 2.975 21.454 3.0119998 C 23.253 2.9739997 25.91 2.9509997 29.766 3.949 C 34.932 5.281 37.32 8.085 38.707 11.934 C 38.707 11.935 41.616 21.471 38.707 31.069 z " fill="#64af2d"/>
</g>
<g>
<g>
<g>
<path d="M 3.228 16.311 L 39.566 16.311 C 39.509003 15.804001 39.445004 15.297001 39.367 14.7890005 L 3.426 14.7890005 C 3.35 15.296 3.284 15.803 3.228 16.311 z " fill="#020202"/>
</g>
</g>
<g>
<g>
<path d="M 3.175 16.854 L 39.617 16.854 C 39.601 16.672 39.586002 16.491 39.565002 16.311 L 3.228 16.311 C 3.208 16.491 3.192 16.672 3.175 16.854 z " fill="#515151"/>
</g>
</g>
<g>
<g>
<path d="M 3.821 28.318 L 38.969997 28.318 C 39.771996 24.498001 39.985996 20.676 39.616997 16.855 L 3.175 16.855 C 2.807 20.676 3.022 24.498 3.821 28.318 z " fill="#191919"/>
</g>
</g>
<g>
<g>
<path d="M 3.938 28.863 L 38.855 28.863 C 38.895 28.682001 38.933 28.502 38.97 28.318 L 3.821 28.318 C 3.859 28.501 3.897 28.683 3.938 28.863 z " fill="#515151"/>
</g>
</g>
<g>
<g>
<path d="M 4.268 30.222 L 38.525 30.222 C 38.657 29.716 38.778 29.207 38.890003 28.701 L 3.903 28.701 C 4.014 29.207 4.136 29.716 4.268 30.222 z " fill="#020202"/>
</g>
</g>
<g>
<linearGradient gradientTransform="matrix(1.2611 0 0 1.3351 -614.4789 -1192.0131)" gradientUnits="userSpaceOnUse" id="SVGID_1_" x1="504.4111" x2="504.4111" y1="903.1699" y2="916.8457">
<stop offset="0" stop-color="#dbdbdb"/>
<stop offset="1" stop-color="#dbdbdb"/>
</linearGradient>
<path d="M 21.635 13.811 C 16.617 13.811 12.554 17.896 12.554 22.939 C 12.554 27.984 16.617 32.068 21.635 32.068 C 26.652 32.068 30.714 27.985 30.714 22.939001 C 30.714 17.896 26.65 13.811 21.635 13.811 z M 21.635 31.032 C 17.189 31.032 13.587 27.411 13.587 22.939 C 13.587 18.469 17.189 14.848999 21.635 14.848999 C 26.08 14.848999 29.682 18.47 29.682 22.939 C 29.682 27.411 26.08 31.032 21.635 31.032 z " fill="url(#SVGID_1_)"/>
<linearGradient gradientTransform="matrix(1.2611 0 0 1.3351 -614.4789 -1192.0131)" gradientUnits="userSpaceOnUse" id="SVGID_2_" x1="504.4102" x2="504.4102" y1="914.5684" y2="904.7988">
<stop offset="0" stop-color="#3c3c3c"/>
<stop offset="1" stop-color="#292929"/>
</linearGradient>
<ellipse cx="21.635" cy="22.506" fill="url(#SVGID_2_)" rx="6.483" ry="6.522"/>
<linearGradient gradientTransform="matrix(1.2611 0 0 1.3351 -614.4789 -1192.0131)" gradientUnits="userSpaceOnUse" id="SVGID_3_" x1="504.4102" x2="504.4102" y1="913.2656" y2="906.1016">
<stop offset="0" stop-color="#5f87d9"/>
<stop offset="0.1919" stop-color="#507ac3"/>
<stop offset="0.5315" stop-color="#3a66a1"/>
<stop offset="0.8131" stop-color="#2c5a8c"/>
<stop offset="1" stop-color="#275685"/>
</linearGradient>
<ellipse cx="21.635" cy="22.505" fill="url(#SVGID_3_)" rx="4.756" ry="4.782" stroke="#000000" stroke-width="0.75"/>
<linearGradient gradientTransform="matrix(0.7045 -1.1074 1.046 0.7458 -521.9285 -1699.7012)" gradientUnits="userSpaceOnUse" id="SVGID_4_" x1="-829.688" x2="-827.9775" y1="1076.9609" y2="1076.9609">
<stop offset="0" stop-color="#fdfdfe"/>
<stop offset="0.4848" stop-color="#fdfdfe"/>
<stop offset="0.9538" stop-color="#fdfdfe"/>
<stop offset="1" stop-color="#fdfdfe"/>
</linearGradient>
<path d="M 21.285 20.414 C 21.072 20.269 20.779 20.326 20.635 20.541 L 19.911 21.623001 C 19.765999 21.838001 19.823 22.131 20.036999 22.277 L 20.036999 22.277 C 20.251999 22.421 20.543 22.366001 20.688 22.148 L 21.411 21.067001 C 21.555 20.852 21.5 20.56 21.285 20.414 L 21.285 20.414 z " fill="url(#SVGID_4_)" fill-opacity="0.5" stroke-opacity="0.5"/>
<linearGradient gradientTransform="matrix(0.7196 -1.0964 1.0356 0.7618 -525.3546 -1676.1742)" gradientUnits="userSpaceOnUse" id="SVGID_5_" x1="-798.314" x2="-796.3936" y1="1085.3008" y2="1085.3008">
<stop offset="0" stop-color="#fdfdfe"/>
<stop offset="0.4848" stop-color="#fdfdfe"/>
<stop offset="0.9538" stop-color="#fdfdfe"/>
<stop offset="1" stop-color="#fdfdfe"/>
</linearGradient>
<path d="M 25.519 23.794 C 25.237999 23.597 24.686998 23.899 24.292 24.474 C 23.898 25.044 23.805 25.668001 24.088 25.865002 C 24.370998 26.063002 24.92 25.761002 25.316 25.188002 C 25.71 24.615 25.803 23.993 25.519 23.794 z " fill="url(#SVGID_5_)" fill-opacity="0.5" stroke-opacity="0.5"/>
<g>
<path d="M 21.635 15.332 C 17.693 15.332 14.5 18.543 14.5 22.505 C 14.5 26.467999 17.692 29.678 21.635 29.678 C 25.575 29.678 28.767 26.469 28.767 22.505 C 28.767 18.543 25.575 15.332 21.635 15.332 z M 21.635 29.027 C 18.051 29.027 15.15 26.107 15.15 22.505001 C 15.15 18.903002 18.050999 15.984001 21.635 15.984001 C 25.216 15.984001 28.118 18.903002 28.118 22.505001 C 28.118 26.107 25.216 29.027 21.635 29.027 z " fill="#3f3f3f"/>
<path d="M 21.635 15.984 C 18.051 15.984 15.15 18.903 15.15 22.505001 C 15.15 26.108002 18.050999 29.027 21.635 29.027 C 25.216 29.027 28.118 26.107 28.118 22.505001 C 28.118 18.903 25.216 15.984 21.635 15.984 z M 21.635 28.7 C 18.23 28.7 15.473 25.928001 15.473 22.505001 C 15.473 19.084002 18.229 16.311 21.635 16.311 C 25.036 16.311 27.794 19.084002 27.794 22.505001 C 27.794 25.928 25.037 28.7 21.635 28.7 z " fill="#161616"/>
</g>
<g>
<linearGradient gradientTransform="matrix(1.2611 0 0 1.3351 -614.4789 -1192.0131)" gradientUnits="userSpaceOnUse" id="SVGID_6_" x1="504.4092" x2="504.4092" y1="915.3828" y2="903.9863">
<stop offset="0" stop-color="#3c3c3c"/>
<stop offset="1" stop-color="#292929"/>
</linearGradient>
<path d="M 21.635 14.898 C 17.454 14.898 14.068001 18.303 14.068001 22.507 C 14.068001 26.709 17.454 30.112999 21.635 30.112999 C 25.815 30.112999 29.198 26.709 29.198 22.507 C 29.198 18.303 25.813 14.898 21.635 14.898 z M 21.635 29.678 C 17.693 29.678 14.5 26.467999 14.5 22.505 C 14.5 18.543 17.692 15.331999 21.635 15.331999 C 25.575 15.331999 28.767 18.543 28.767 22.505 C 28.767 26.468 25.575 29.678 21.635 29.678 z " fill="url(#SVGID_6_)"/>
<path d="M 21.635 14.246 C 17.096 14.246 13.42 17.942001 13.42 22.505001 C 13.42 27.069 17.095 30.765001 21.635 30.765001 C 26.173 30.765001 29.848999 27.070002 29.848999 22.505001 C 29.849 17.941 26.173 14.246 21.635 14.246 z M 21.635 30.112 C 17.454 30.112 14.068001 26.706999 14.068001 22.505 C 14.068001 18.303 17.454 14.897999 21.635 14.897999 C 25.815 14.897999 29.198 18.303 29.198 22.505 C 29.198 26.706999 25.813 30.112 21.635 30.112 z " fill="#141414"/>
</g>
<g>
<radialGradient cx="101.0039" cy="137.7227" gradientTransform="matrix(0.3351 0 0 0.352 -12.2138 -25.9663)" gradientUnits="userSpaceOnUse" id="SVGID_7_" r="26.5224">
<stop offset="0" stop-color="#5e5e5e"/>
<stop offset="0.471" stop-color="#5c5c5c"/>
<stop offset="0.6548" stop-color="#555555"/>
<stop offset="0.7884" stop-color="#494949"/>
<stop offset="0.897" stop-color="#383838"/>
<stop offset="0.9905" stop-color="#222222"/>
<stop offset="1" stop-color="#1f1f1f"/>
</radialGradient>
<path d="M 21.635 13.377 C 16.617 13.377 12.554 17.461 12.554 22.505001 C 12.554 27.548 16.617 31.635002 21.635 31.635002 C 26.652 31.635002 30.714 27.549002 30.714 22.505001 C 30.714 17.46 26.65 13.377 21.635 13.377 z M 21.635 30.597 C 17.189 30.597 13.587 26.976 13.587 22.505001 C 13.587 18.034002 17.189 14.414001 21.635 14.414001 C 26.08 14.414001 29.682 18.035002 29.682 22.505001 C 29.682 26.976 26.08 30.597 21.635 30.597 z " fill="url(#SVGID_7_)" stroke="#000000" stroke-width="0.5"/>
<linearGradient gradientTransform="matrix(1.2611 0 0 1.3351 -614.4789 -1192.0131)" gradientUnits="userSpaceOnUse" id="SVGID_8_" x1="504.4092" x2="504.4092" y1="916.5215" y2="902.8467">
<stop offset="0" stop-color="#ffffff"/>
<stop offset="0.8858" stop-color="#ffffff"/>
<stop offset="1" stop-color="#ffffff"/>
</linearGradient>
<path d="M 21.635 13.377 C 16.617 13.377 12.554 17.461 12.554 22.505001 C 12.554 27.548 16.617 31.635002 21.635 31.635002 C 26.652 31.635002 30.714 27.549002 30.714 22.505001 C 30.714 17.46 26.65 13.377 21.635 13.377 z M 21.635 31.199 C 16.857 31.199 12.988 27.307999 12.988 22.507 C 12.988 17.702 16.857 13.812 21.635 13.812 C 26.412 13.812 30.281 17.703001 30.281 22.507 C 30.281 27.309 26.412 31.199 21.635 31.199 z " fill="url(#SVGID_8_)" fill-opacity="0.5" stroke-opacity="0.5"/>
</g>
<linearGradient gradientTransform="matrix(1.2611 0 0 1.3351 -614.4789 -1192.0131)" gradientUnits="userSpaceOnUse" id="SVGID_9_" x1="496.3574" x2="496.3574" y1="901.3008" y2="897.8633">
<stop offset="0" stop-color="#ffffff"/>
<stop offset="0.19" stop-color="#fafafa"/>
<stop offset="0.414" stop-color="#ececec"/>
<stop offset="0.6553" stop-color="#d4d4d4"/>
<stop offset="0.9071" stop-color="#b3b3b3"/>
<stop offset="1" stop-color="#a5a5a5"/>
</linearGradient>
<path d="M 14.511 9.654 C 14.511 10.577001 13.811 11.324 12.948 11.324 L 10.009 11.324 C 9.146999 11.324 8.448 10.577001 8.448 9.654 L 8.448 8.403 C 8.448 7.48 9.146 6.733 10.009 6.733 L 12.948 6.733 C 13.811 6.733 14.511 7.4799995 14.511 8.403 L 14.511 9.654 z " fill="url(#SVGID_9_)"/>
<path d="M 14.895 7.339 C 14.812 7.405 14.715 7.46 14.6050005 7.5010004 C 14.76 7.852 14.727 8.277 14.51 8.594001 C 14.51 8.598001 14.51 8.603001 14.51 8.607 L 14.51 9.858001 C 14.51 10.781001 13.81 11.528001 12.9470005 11.528001 L 10.008 11.528001 C 9.145 11.528001 8.446 10.780001 8.446 9.858001 L 8.446 8.607 C 8.446 8.604 8.446 8.6 8.446 8.596001 C 8.397 8.469 8.38 8.333 8.379 8.197 C 8.35 7.93 8.413 7.655 8.568 7.434 C 8.422 7.356 8.302 7.254 8.217 7.13 C 7.929 7.489 7.749 7.95 7.749 8.462 L 7.749 10.003 C 7.749 11.139 8.61 12.058001 9.6710005 12.058001 L 13.2890005 12.058001 C 14.351001 12.058001 15.211 11.139001 15.211 10.003 L 15.211 8.462 C 15.21 8.047 15.093 7.663 14.895 7.339 z " fill="#0a0a0a"/>
<path d="M 14.895 10.72 C 14.812 10.651 14.715 10.596001 14.6050005 10.556001 C 14.76 10.205001 14.727 9.781001 14.51 9.463 C 14.51 9.46 14.51 9.454 14.51 9.450001 L 14.51 8.198 C 14.51 7.275 13.81 6.5299997 12.9470005 6.5299997 L 10.008 6.5299997 C 9.145 6.5299997 8.446 7.2769995 8.446 8.198 L 8.446 9.451 C 8.446 9.454 8.446 9.458 8.446 9.462 C 8.397 9.589 8.38 9.725 8.379 9.861 C 8.349999 10.128 8.413 10.403 8.568 10.624001 C 8.422 10.702001 8.302 10.803 8.217 10.928 C 7.929 10.569 7.748 10.107 7.748 9.596001 L 7.748 8.055 C 7.748 6.919 8.609 6.0 9.67 6.0 L 13.288 6.0 C 14.349 6.0 15.21 6.92 15.21 8.055 L 15.21 9.597 C 15.21 10.011 15.093 10.396 14.895 10.72 z " fill="#bababa"/>
<linearGradient gradientTransform="matrix(1.2611 0 0 1.3351 -614.4789 -1192.0131)" gradientUnits="userSpaceOnUse" id="SVGID_10_" x1="493.4004" x2="499.3174" y1="899.5898" y2="899.5898">
<stop offset="0" stop-color="#3c3c3c"/>
<stop offset="1" stop-color="#292929"/>
</linearGradient>
<path d="M 13.289 6.203 L 9.67 6.203 C 8.609 6.203 7.749 7.124 7.749 8.258 L 7.749 9.799001 C 7.749 10.935 8.61 11.8550005 9.67 11.8550005 L 13.288 11.8550005 C 14.35 11.8550005 15.21 10.935 15.21 9.799001 L 15.21 8.259001 C 15.21 7.124 14.349 6.203 13.289 6.203 z M 14.511 9.654 C 14.511 10.577001 13.811 11.324 12.948 11.324 L 10.009 11.324 C 9.146999 11.324 8.448 10.577001 8.448 9.654 L 8.448 8.403 C 8.448 7.48 9.146 6.733 10.009 6.733 L 12.948 6.733 C 13.811 6.733 14.511 7.4799995 14.511 8.403 L 14.511 9.654 z " fill="url(#SVGID_10_)"/>
<linearGradient gradientTransform="matrix(1.2611 0 0 1.3351 -614.4789 -1192.0131)" gradientUnits="userSpaceOnUse" id="SVGID_11_" x1="496.415" x2="496.415" y1="898.6865" y2="898.1729">
<stop offset="0" stop-color="#fdfdfe"/>
<stop offset="0.9104" stop-color="#fdfdfe"/>
<stop offset="1" stop-color="#fdfdfe"/>
</linearGradient>
<path d="M 14.122 7.491 C 14.122 7.681 13.957 7.834 13.754 7.834 L 9.349 7.834 C 9.146 7.834 8.981 7.681 8.981 7.491 L 8.981 7.491 C 8.981 7.301 9.1449995 7.1480002 9.349 7.1480002 L 13.755 7.1480002 C 13.958 7.147 14.122 7.301 14.122 7.491 L 14.122 7.491 z " fill="url(#SVGID_11_)"/>
<g>
<linearGradient gradientTransform="matrix(0 -1.3351 1.2611 0 -729.2435 -1999.7672)" gradientUnits="userSpaceOnUse" id="SVGID_12_" x1="-1515.9995" x2="-1515.9995" y1="582.8301" y2="581.7203">
<stop offset="0" stop-color="#fdfdfe"/>
<stop offset="0.9104" stop-color="#fdfdfe"/>
<stop offset="1" stop-color="#fdfdfe"/>
</linearGradient>
<path d="M 5.583 24.072 C 5.684 24.072 5.768 24.149 5.768 24.244001 L 5.768 24.244001 C 5.768 24.339 5.685 24.416002 5.583 24.416002 L 4.5530005 24.416002 C 4.4500003 24.416002 4.3670006 24.339003 4.3670006 24.244001 L 4.3670006 24.244001 C 4.3670006 24.149002 4.450001 24.072 4.5530005 24.072 L 5.583 24.072 z " fill="url(#SVGID_12_)" fill-opacity="0.3" stroke-opacity="0.3"/>
<linearGradient gradientTransform="matrix(0 -1.3351 1.2611 0 -729.2435 -1999.7672)" gradientUnits="userSpaceOnUse" id="SVGID_13_" x1="-1514.3711" x2="-1514.3711" y1="584.9238" y2="583.3223">
<stop offset="0" stop-color="#fdfdfe"/>
<stop offset="0.9104" stop-color="#fdfdfe"/>
<stop offset="1" stop-color="#fdfdfe"/>
</linearGradient>
<path d="M 8.143 21.821 C 8.289 21.821 8.408999 21.932999 8.408999 22.068998 L 8.408999 22.068998 C 8.408999 22.208998 8.289 22.318998 8.143 22.318998 L 6.655 22.318998 C 6.5080004 22.318998 6.388 22.208998 6.388 22.068998 L 6.388 22.068998 C 6.388 21.932999 6.508 21.821 6.655 21.821 L 8.143 21.821 z " fill="url(#SVGID_13_)" fill-opacity="0.3" stroke-opacity="0.3"/>
<linearGradient gradientTransform="matrix(1.2611 0 0 1.3351 -614.4789 -1192.0131)" gradientUnits="userSpaceOnUse" id="SVGID_14_" x1="494.2324" x2="494.2324" y1="912.6602" y2="911.25">
<stop offset="0" stop-color="#fdfdfe"/>
<stop offset="0.9104" stop-color="#fdfdfe"/>
<stop offset="1" stop-color="#fdfdfe"/>
</linearGradient>
<path d="M 9.065 26.241 C 9.065 26.377998 8.945999 26.49 8.797999 26.49 L 8.797999 26.49 C 8.650999 26.49 8.532 26.378 8.532 26.241 L 8.532 24.855 C 8.532 24.716 8.651999 24.605999 8.797999 24.605999 L 8.797999 24.605999 C 8.945 24.605999 9.065 24.716 9.065 24.855 L 9.065 26.241 z " fill="url(#SVGID_14_)" fill-opacity="0.3" stroke-opacity="0.3"/>
<linearGradient gradientTransform="matrix(1.2611 0 0 1.3351 -614.4789 -1192.0131)" gradientUnits="userSpaceOnUse" id="SVGID_15_" x1="492.0391" x2="492.0391" y1="908.3193" y2="906.9082">
<stop offset="0" stop-color="#fdfdfe"/>
<stop offset="0.9104" stop-color="#fdfdfe"/>
<stop offset="1" stop-color="#fdfdfe"/>
</linearGradient>
<path d="M 6.301 20.446 C 6.301 20.582998 6.181 20.695 6.033 20.695 L 6.033 20.695 C 5.887 20.695 5.767 20.584 5.767 20.446 L 5.767 19.06 C 5.767 18.921999 5.887 18.810999 6.033 18.810999 L 6.033 18.810999 C 6.1809998 18.810999 6.301 18.921999 6.301 19.06 L 6.301 20.446 z " fill="url(#SVGID_15_)" fill-opacity="0.3" stroke-opacity="0.3"/>
<linearGradient gradientTransform="matrix(1.2611 0 0 1.3351 -614.4789 -1192.0131)" gradientUnits="userSpaceOnUse" id="SVGID_16_" x1="494.9707" x2="494.9707" y1="908.3193" y2="906.9082">
<stop offset="0" stop-color="#fdfdfe"/>
<stop offset="0.9104" stop-color="#fdfdfe"/>
<stop offset="1" stop-color="#fdfdfe"/>
</linearGradient>
<path d="M 9.997 20.446 C 9.997 20.582998 9.879 20.695 9.731 20.695 L 9.731 20.695 C 9.583 20.695 9.464 20.584 9.464 20.446 L 9.464 19.06 C 9.464 18.921999 9.584 18.810999 9.731 18.810999 L 9.731 18.810999 C 9.878 18.810999 9.997 18.921999 9.997 19.06 L 9.997 20.446 z " fill="url(#SVGID_16_)" fill-opacity="0.3" stroke-opacity="0.3"/>
</g>
<g>
<g>
<linearGradient gradientTransform="matrix(0.4061 -1.2641 1.194 0.4299 -600.6376 -1889.9111)" gradientUnits="userSpaceOnUse" id="SVGID_17_" x1="-1195.1187" x2="-1195.1187" y1="937.1748" y2="936.0801">
<stop offset="0" stop-color="#fdfdfe"/>
<stop offset="0.9104" stop-color="#fdfdfe"/>
<stop offset="1" stop-color="#fdfdfe"/>
</linearGradient>
<path d="M 32.915 23.49 C 33.011 23.519 33.062 23.618 33.029 23.709 L 33.029 23.709 C 32.998 23.798 32.892998 23.847 32.797 23.817 L 31.820002 23.505999 C 31.724 23.474998 31.674002 23.377998 31.706001 23.286999 L 31.706001 23.286999 C 31.737001 23.197998 31.844002 23.147999 31.939001 23.179998 L 32.915 23.49 z " fill="url(#SVGID_17_)" fill-opacity="0.3" stroke-opacity="0.3"/>
<linearGradient gradientTransform="matrix(0.4061 -1.2641 1.194 0.4299 -600.6376 -1889.9111)" gradientUnits="userSpaceOnUse" id="SVGID_18_" x1="-1193.4014" x2="-1193.4014" y1="939.3105" y2="937.7285">
<stop offset="0" stop-color="#fdfdfe"/>
<stop offset="0.9104" stop-color="#fdfdfe"/>
<stop offset="1" stop-color="#fdfdfe"/>
</linearGradient>
<path d="M 36.116 22.129 C 36.257 22.173 36.332 22.316 36.283 22.442999 L 36.283 22.442999 C 36.235 22.574999 36.083 22.644 35.945 22.598999 L 34.536 22.153 C 34.395 22.107 34.321 21.968 34.37 21.837 L 34.37 21.837 C 34.417 21.707 34.569 21.638 34.707 21.683 L 36.116 22.129 z " fill="url(#SVGID_18_)" fill-opacity="0.3" stroke-opacity="0.3"/>
<linearGradient gradientTransform="matrix(1.194 0.4299 -0.4061 1.2641 -737.6713 -1085.9934)" gradientUnits="userSpaceOnUse" id="SVGID_19_" x1="848.5098" x2="848.5098" y1="591.707" y2="590.2764">
<stop offset="0" stop-color="#fdfdfe"/>
<stop offset="0.9104" stop-color="#fdfdfe"/>
<stop offset="1" stop-color="#fdfdfe"/>
</linearGradient>
<path d="M 35.465 26.59 C 35.417 26.719 35.264 26.789 35.124 26.745 L 35.124 26.745 C 34.983 26.7 34.91 26.559 34.957 26.429 L 35.436 25.116001 C 35.484 24.986002 35.635002 24.916 35.776 24.962002 L 35.776 24.962002 C 35.915 25.006002 35.989002 25.147001 35.941 25.276001 L 35.465 26.59 z " fill="url(#SVGID_19_)" fill-opacity="0.3" stroke-opacity="0.3"/>
<linearGradient gradientTransform="matrix(1.194 0.4299 -0.4061 1.2641 -737.6713 -1085.9934)" gradientUnits="userSpaceOnUse" id="SVGID_20_" x1="846.5254" x2="846.5254" y1="587.3838" y2="585.9531">
<stop offset="0" stop-color="#fdfdfe"/>
<stop offset="0.9104" stop-color="#fdfdfe"/>
<stop offset="1" stop-color="#fdfdfe"/>
</linearGradient>
<path d="M 34.848 20.271 C 34.8 20.401 34.651 20.471 34.51 20.426 L 34.51 20.426 C 34.369 20.382 34.295 20.241001 34.343 20.111 L 34.822 18.798 C 34.87 18.668001 35.018997 18.599 35.161 18.643 L 35.161 18.643 C 35.301 18.687 35.376 18.828 35.327 18.958 L 34.848 20.271 z " fill="url(#SVGID_20_)" fill-opacity="0.3" stroke-opacity="0.3"/>
<linearGradient gradientTransform="matrix(1.194 0.4299 -0.4061 1.2641 -737.6713 -1085.9934)" gradientUnits="userSpaceOnUse" id="SVGID_21_" x1="849.4189" x2="849.4189" y1="587.2773" y2="585.8477">
<stop offset="0" stop-color="#fdfdfe"/>
<stop offset="0.9104" stop-color="#fdfdfe"/>
<stop offset="1" stop-color="#fdfdfe"/>
</linearGradient>
<path d="M 38.348 21.381 C 38.3 21.511 38.149 21.581001 38.009 21.536001 L 38.009 21.536001 C 37.868 21.492 37.794 21.351002 37.842 21.220001 L 38.321 19.909 C 38.37 19.779001 38.52 19.709 38.659 19.754 L 38.659 19.754 C 38.799 19.798 38.873 19.939 38.825 20.069 L 38.348 21.381 z " fill="url(#SVGID_21_)" fill-opacity="0.3" stroke-opacity="0.3"/>
</g>
</g>
</g>
</g>
<g>
<g>
<g>
<defs/>
<linearGradient gradientUnits="userSpaceOnUse" id="SVGID_24_" x1="21.5015" x2="21.5015" y1="29.7412" y2="3.3613">
<stop offset="0" stop-color="#ffffff"/>
<stop offset="1" stop-color="#ffffff"/>
</linearGradient>
<path d="M 21.953 29.741 C 35.836998 29.741 38.861 25.109999 38.861 16.571999 C 38.861 8.010999 35.754 3.3639984 21.953 3.3639984 L 21.046 3.3609984 C 7.162999 3.3609984 4.142 7.996999 4.142 16.533998 C 4.142 25.092 7.2460003 29.740997 21.046 29.740997 L 21.953 29.740997 z " fill="url(#SVGID_24_)" fill-opacity="0.07" stroke-opacity="0.07"/>
</g>
<g>
<defs/>
<linearGradient gradientUnits="userSpaceOnUse" id="SVGID_27_" x1="21.501" x2="21.501" y1="29.3574" y2="3.7456">
<stop offset="0" stop-color="#ffffff"/>
<stop offset="1" stop-color="#ffffff"/>
</linearGradient>
<path d="M 21.939 29.357 C 35.418 29.357 38.354 24.861 38.354 16.571 C 38.354 8.258999 35.337 3.7479992 21.939 3.7479992 L 21.059 3.7449992 C 7.58 3.7449992 4.6469994 8.244999 4.6469994 16.535 C 4.6469994 24.842999 7.6599994 29.358 21.059 29.358 L 21.939 29.358 z " fill="url(#SVGID_27_)" fill-opacity="0.07" stroke-opacity="0.07"/>
</g>
<g>
<defs/>
<linearGradient gradientUnits="userSpaceOnUse" id="SVGID_30_" x1="21.5005" x2="21.5005" y1="28.9844" y2="4.1187">
<stop offset="0" stop-color="#ffffff"/>
<stop offset="1" stop-color="#ffffff"/>
</linearGradient>
<path d="M 21.927 28.984 C 35.014 28.984 37.864 24.619 37.864 16.571 C 37.864 8.501999 34.934998 4.1209993 21.926998 4.1209993 L 21.071999 4.1179996 C 7.985998 4.1179996 5.1379986 8.4869995 5.1379986 16.535 C 5.1379986 24.601 8.063999 28.984001 21.071999 28.984001 L 21.927 28.984001 z " fill="url(#SVGID_30_)" fill-opacity="0.07" stroke-opacity="0.07"/>
</g>
<g>
<defs/>
<linearGradient gradientUnits="userSpaceOnUse" id="SVGID_33_" x1="21.5005" x2="21.5005" y1="28.6221" y2="4.481">
<stop offset="0" stop-color="#ffffff"/>
<stop offset="1" stop-color="#ffffff"/>
</linearGradient>
<path d="M 21.915 28.622 C 34.621002 28.622 37.387 24.383999 37.387 16.571 C 37.387 8.7369995 34.543 4.4839993 21.915 4.4839993 L 21.085001 4.4809995 C 8.379001 4.4809995 5.6150007 8.723 5.6150007 16.536 C 5.6150007 24.368 8.456001 28.622 21.085001 28.622 L 21.915 28.622 z " fill="url(#SVGID_33_)" fill-opacity="0.07" stroke-opacity="0.07"/>
</g>
</g>
</g>
</svg>
