<?xml version="1.0" encoding="UTF-8"?>
<svg xmlns="http://www.w3.org/2000/svg" xmlns:xlink="http://www.w3.org/1999/xlink" baseProfile="tiny" contentScriptType="text/ecmascript" contentStyleType="text/css" height="96px" preserveAspectRatio="xMidYMid meet" version="1.1" viewBox="0 0 96 96" width="96px" x="0px" y="0px" zoomAndPan="magnify">
<defs>
<linearGradient xlink:actuate="onLoad" xlink:show="other" xlink:type="simple">
<stop offset="0" stop-color="#d6dfe2" stop-opacity="1"/>
<stop offset="1" stop-color="#c4d1d6" stop-opacity="1"/>
</linearGradient>
<linearGradient xlink:actuate="onLoad" xlink:show="other" xlink:type="simple">
<stop offset="0" stop-color="#ffffff" stop-opacity="1"/>
<stop offset="1" stop-color="#ffffff" stop-opacity="0.78431374"/>
</linearGradient>
<linearGradient xlink:actuate="onLoad" xlink:show="other" xlink:type="simple">
<stop offset="0" stop-color="#46d4fc" stop-opacity="1"/>
<stop offset="1" stop-color="#46b1fc" stop-opacity="1"/>
</linearGradient>
<linearGradient gradientUnits="userSpaceOnUse" id="linearGradient3826" x1="48.271187" x2="48.271187" xlink:actuate="onLoad" xlink:show="other" xlink:type="simple" y1="8.1355934" y2="87.14875">
<stop offset="0" stop-color="#44beff" stop-opacity="1"/>
<stop offset="1" stop-color="#44beff" stop-opacity="1"/>
</linearGradient>
<linearGradient gradientTransform="matrix(0.66071887,0,0,0.66071887,14.065812,15.190326)" gradientUnits="userSpaceOnUse" x1="45.428997" x2="45.428997" xlink:actuate="onLoad" xlink:show="other" xlink:type="simple" y1="19.829666" y2="87.520874">
<stop offset="0" stop-color="#ffffff" stop-opacity="1"/>
<stop offset="1" stop-color="#ffffff" stop-opacity="0.78431374"/>
</linearGradient>
<linearGradient gradientTransform="matrix(0.66071887,0,0,0.66071887,14.065811,15.190326)" gradientUnits="userSpaceOnUse" x1="45.428997" x2="45.428997" xlink:actuate="onLoad" xlink:show="other" xlink:type="simple" y1="19.829666" y2="87.520874">
<stop offset="0" stop-color="#46d4fc" stop-opacity="1"/>
<stop offset="1" stop-color="#46b1fc" stop-opacity="1"/>
</linearGradient>
<linearGradient gradientUnits="userSpaceOnUse" x1="87.585358" x2="87.585358" xlink:actuate="onLoad" xlink:show="other" xlink:type="simple" y1="8.7741842" y2="92.062881">
<stop offset="0" stop-color="#d6dfe2" stop-opacity="1"/>
<stop offset="1" stop-color="#c4d1d6" stop-opacity="1"/>
</linearGradient>
<linearGradient gradientTransform="matrix(0.66071887,0,0,0.66071887,14.065811,15.190326)" gradientUnits="userSpaceOnUse" x1="45.428997" x2="45.428997" xlink:actuate="onLoad" xlink:show="other" xlink:type="simple" y1="19.829666" y2="87.520874">
<stop offset="0" stop-color="#44beff" stop-opacity="1"/>
<stop offset="1" stop-color="#44beff" stop-opacity="1"/>
</linearGradient>
<linearGradient gradientTransform="matrix(0.66071887,0,0,0.66071887,14.065812,15.190326)" gradientUnits="userSpaceOnUse" x1="45.428997" x2="45.428997" xlink:actuate="onLoad" xlink:show="other" xlink:type="simple" y1="19.829666" y2="86.45932">
<stop offset="0" stop-color="#ffffff" stop-opacity="1"/>
<stop offset="1" stop-color="#ffffff" stop-opacity="0.78431374"/>
</linearGradient>
<linearGradient gradientUnits="userSpaceOnUse" x1="48.271187" x2="48.271187" xlink:actuate="onLoad" xlink:show="other" xlink:type="simple" y1="8.1355934" y2="87.14875">
<stop offset="0" stop-color="#46d4fc" stop-opacity="1"/>
<stop offset="1" stop-color="#46b1fc" stop-opacity="1"/>
</linearGradient>
<linearGradient gradientTransform="matrix(1.000024,0,0,1,-0.00161411,0)" gradientUnits="userSpaceOnUse" x1="67.1875" x2="88" xlink:actuate="onLoad" xlink:show="other" xlink:type="simple" y1="47.671875" y2="47.671875">
<stop offset="0" stop-color="#d6dfe2" stop-opacity="1"/>
<stop offset="1" stop-color="#c4d1d6" stop-opacity="1"/>
</linearGradient>
</defs>
<rect fill="none" height="96" width="96"/>
<path d="M 88.0 49.0 C 88.0 78.635 77.637 89.0 48.0 89.0 C 18.365 89.0 8.0 78.635 8.0 49.0 C 8.0 19.367 18.365 9.0 48.0 9.0 C 77.637 9.0 88.0 19.367 88.0 49.0 z " fill-opacity="0.4" stroke-opacity="0.4"/>
<linearGradient gradientUnits="userSpaceOnUse" x1="48.0005" x2="48.0005" xlink:actuate="onLoad" xlink:show="other" xlink:type="simple" y1="88" y2="8.0005">
<stop offset="0" stop-color="#02598b"/>
<stop offset="0.253" stop-color="#026d98"/>
<stop offset="0.7688" stop-color="#01a1bb"/>
<stop offset="1" stop-color="#00bacc"/>
</linearGradient>
<path d="M 88.0 48.0 C 88.0 77.635 77.637 88.0 48.0 88.0 C 18.365 88.0 8.0 77.635 8.0 48.0 C 8.0 18.367 18.365 8.0 48.0 8.0 C 77.637 8.0 88.0 18.367 88.0 48.0 z " fill="url(#linearGradient3826)" fill-opacity="1"/>
<rect fill="none" height="80" width="80" x="7.953" y="8"/>
<linearGradient gradientUnits="userSpaceOnUse" id="SVGID_2_" x1="47.9995" x2="47.9995" xlink:actuate="onLoad" xlink:show="other" xlink:type="simple" y1="8.2534" y2="87.4985">
<stop offset="0" stop-color="#ffffff"/>
<stop offset="1" stop-color="#ffffff" stop-opacity="0"/>
</linearGradient>
<path d="M 48.0 8.0 C 18.365 8.0 8.0 18.367 8.0 48.0 C 8.0 77.635 18.365 88.0 48.0 88.0 C 77.637 88.0 88.0 77.635 88.0 48.0 C 88.0 18.367 77.637 8.0 48.0 8.0 z M 48.0 87.0 C 18.842 87.0 9.0 77.159 9.0 48.0 C 9.0 18.842 18.842 9.0 48.0 9.0 C 77.158005 9.0 87.0 18.842 87.0 48.0 C 87.0 77.159 77.158 87.0 48.0 87.0 z " fill="url(#SVGID_2_)" fill-opacity="0.25" stroke-opacity="0.25"/>
<radialGradient cx="47.9995" cy="33.5469" gradientUnits="userSpaceOnUse" r="35.5926" xlink:actuate="onLoad" xlink:show="other" xlink:type="simple">
<stop offset="0" stop-color="#fdfef9"/>
<stop offset="0.2121" stop-color="#fdfef9"/>
<stop offset="1" stop-color="#d0cbc5"/>
</radialGradient>
<g transform="matrix(1.1579785,0,0,1.1579785,-5.0676314,-7.1693252)">
<path d="M 66.049194 66.84533 C 65.373276 66.11193 64.56919 65.49019 63.75055 65.061386 C 61.652763 63.8384 59.428787 62.75548 57.14138 61.842365 C 55.98776 61.381844 55.070023 60.44825 54.415913 59.06801 C 54.264606 58.75086 54.15559 58.42315 54.10009 58.1212 C 54.16352 58.05182 54.224304 57.98047 54.283108 57.90713 C 54.700684 57.389786 55.078613 56.797123 55.440025 56.0961 C 55.96331 55.072647 56.256016 54.085533 56.532856 53.130795 C 57.8761 52.341896 58.34851 50.67028 58.585052 49.833145 L 58.602234 49.768387 C 58.639893 49.634266 58.693413 49.469746 58.762787 49.25369 L 58.786575 49.179028 C 59.037643 48.396736 59.38188 47.32505 59.538475 46.31151 C 59.785587 44.701996 59.423508 43.66533 59.003296 43.032356 C 59.003296 43.032356 59.190937 42.03599 59.208115 41.942173 C 59.350166 41.171776 59.419544 40.468105 59.421524 39.79087 C 59.422184 39.554333 59.430725 39.31648 59.438705 39.10371 C 59.473064 38.40601 58.860577 34.83944 58.172768 33.336304 C 57.578117 32.033367 56.67426 30.4113 54.961674 29.418907 C 53.80013 28.74497 52.618103 28.387522 51.47572 28.042624 L 51.40369 28.020826 C 51.19755 27.958715 50.993393 27.896612 50.792538 27.833178 C 50.498516 27.739355 50.20119 27.640251 49.86885 27.527924 C 48.247444 26.984154 46.570538 26.422544 44.647182 26.422544 C 44.392147 26.422544 44.13777 26.432442 43.882072 26.454262 C 42.94253 26.532885 42.199223 26.804443 41.541805 27.044945 C 41.323765 27.124891 41.099125 27.207478 40.890335 27.258354 C 40.843426 27.256351 40.789906 27.253054 40.717884 27.248455 C 40.532887 27.237225 40.3459 27.227976 40.159576 27.227976 C 39.82063 27.227976 39.512074 27.257046 39.215412 27.315857 C 37.41429 27.671326 36.629356 29.0291 36.312874 29.618462 C 34.805775 30.176104 34.1107 31.441387 33.7288 32.137783 L 33.63762 32.30098 C 32.532234 34.28777 32.034714 38.37497 32.061146 38.814342 C 32.064445 38.877117 32.065147 39.005955 32.066444 39.226635 L 32.068443 39.486954 C 32.073742 40.332012 32.079674 40.666996 32.09355 40.832836 C 32.09555 41.725468 32.18539 42.620743 32.35916 43.498833 C 31.871552 44.483307 31.837196 45.765102 32.254105 47.404343 C 32.267975 47.459183 32.315556 47.690434 32.316216 47.693077 C 32.80515 50.020782 33.287464 51.89591 34.54614 52.874435 C 34.793247 53.746586 35.06018 54.64648 35.49229 55.5814 C 35.96867 56.615425 36.472794 57.429432 37.0648 58.113277 C 37.0364 58.23155 36.848747 58.94247 36.848747 58.94247 C 36.669693 59.67719 36.311592 60.32337 35.81208 60.81099 C 35.240555 61.37194 34.395496 61.726746 33.325794 62.17604 L 33.261703 62.20313 C 33.015263 62.306866 32.76881 62.4106 32.52765 62.518295 L 32.18671 62.669594 C 30.253448 63.525887 28.254774 64.41125 26.452332 65.74129 C 25.954811 66.109955 25.550451 66.678185 25.213486 67.452545 C 45.78723 72.37053 45.78723 72.43158 66.41196 67.38187 C 66.29434 67.16582 66.17871 66.98478 66.04922 66.84537 z " fill-opacity="0.02999998" stroke-opacity="0.02999998"/>
<path d="M 65.91771 67.852264 C 65.81001 67.628944 65.69769 67.43734 65.56356 67.29263 C 64.939186 66.615395 64.18794 66.03595 63.417545 65.631584 C 61.349503 64.42577 59.155254 63.35673 56.89625 62.45485 C 55.583405 61.93024 54.547394 60.886303 53.819283 59.350796 C 53.58539 58.858555 53.43937 58.341877 53.40501 57.893906 C 53.531208 57.766388 53.655422 57.632927 53.76973 57.491528 C 54.16021 57.007885 54.513695 56.45288 54.85264 55.7948 C 55.364037 54.79447 55.649464 53.81 55.926308 52.8546 L 55.978497 52.675545 C 57.260952 52.094772 57.718178 50.476013 57.9481 49.660686 L 57.967262 49.589325 C 58.01087 49.434055 58.074303 49.239803 58.158875 48.976837 C 58.403343 48.21569 58.738323 47.173077 58.886986 46.211067 C 59.12484 44.66102 58.752193 43.736015 58.302246 43.1929 C 58.3888 42.733707 58.53614 41.951412 58.559925 41.82257 C 58.69405 41.092476 58.760784 40.42713 58.762768 39.78888 C 58.763428 39.54375 58.77197 39.29797 58.78061 39.07134 C 58.807037 38.533512 58.22891 35.042267 57.57414 33.610497 C 57.0198 32.397415 56.18531 30.889656 54.632614 29.990416 C 53.538467 29.356129 52.39344 29.009909 51.28674 28.674925 C 51.053505 28.604883 50.82159 28.534851 50.593647 28.462835 C 50.29632 28.367697 49.996357 28.267263 49.66666 28.15626 C 48.092175 27.628344 46.465485 27.083252 44.64719 27.083252 C 44.411312 27.083252 44.174774 27.092451 43.937576 27.112322 C 43.085907 27.18368 42.391495 27.437395 41.769756 27.664682 C 41.490273 27.767096 41.225983 27.86356 40.957733 27.920382 C 40.876465 27.920382 40.795197 27.91508 40.67759 27.907831 C 40.5058 27.89726 40.332695 27.888672 40.159584 27.888672 C 39.866222 27.888672 39.598633 27.913122 39.343597 27.963991 C 37.77968 28.272549 37.13482 29.481005 36.8593 29.998346 C 36.830887 30.051208 36.80446 30.10406 36.78001 30.15956 C 35.338985 30.57912 34.69809 31.74595 34.306946 32.458202 L 34.215767 32.62206 C 33.191654 34.462826 32.697433 38.378902 32.721878 38.77996 C 32.725777 38.85462 32.72648 39.01848 32.72778 39.22132 L 32.72978 39.482964 C 32.73438 40.26922 32.74035 40.676224 32.754887 40.799774 C 32.754887 41.739323 32.85598 42.680843 33.056175 43.601227 C 32.542797 44.455536 32.491264 45.650776 32.895622 47.241787 C 32.907513 47.286057 32.963673 47.556953 32.963673 47.556953 C 33.445335 49.850307 33.91907 51.687107 35.12026 52.47204 C 35.379257 53.388466 35.646847 54.336594 36.0935 55.304543 C 36.59829 56.40002 37.139416 57.239132 37.781628 57.91901 C 37.759167 58.05578 37.708286 58.290997 37.598606 58.694695 C 37.560947 58.834103 37.525265 58.966915 37.49223 59.098396 C 37.284103 59.952705 36.863884 60.707905 36.27585 61.282738 C 35.612488 61.93222 34.680874 62.323364 33.57615 62.787853 C 33.315166 62.897533 33.05352 63.007217 32.795837 63.122177 L 32.45557 63.272816 C 30.554022 64.11458 28.58772 64.98607 26.846727 66.27249 C 26.394136 66.60681 26.028095 67.15718 25.724169 67.92692 C 45.78724 72.493614 45.78724 72.55068 65.917694 67.85226 z " fill-opacity="0.05" stroke-opacity="0.05"/>
<path d="M 65.406975 68.3108 C 65.315125 68.08219 65.21272 67.88596 65.07728 67.7406 C 64.50444 67.118866 63.806717 66.58237 63.08389 66.20311 C 61.04491 65.01382 58.88039 63.95931 56.64981 63.06932 C 55.17707 62.48062 54.023457 61.326344 53.222 59.636227 C 52.896927 58.953705 52.722496 58.228893 52.73703 57.631603 C 52.77205 57.592625 52.81896 57.54769 52.877106 57.488228 C 53.006607 57.358067 53.137432 57.223934 53.254375 57.077923 C 53.61645 56.628635 53.946148 56.11129 54.26263 55.49418 C 54.74562 54.55001 55.019817 53.6032 55.29005 52.67225 C 55.33894 52.502445 55.38717 52.334618 55.43673 52.168777 C 56.641216 51.854942 57.085228 50.28243 57.310528 49.484276 L 57.33101 49.409615 C 57.37924 49.238483 57.44994 49.021774 57.52923 48.775986 C 57.76709 48.03466 58.09282 47.01979 58.2329 46.11197 C 58.461506 44.626675 58.07961 43.831165 57.588036 43.406326 C 57.588036 43.406326 57.87545 41.888653 57.908485 41.703655 C 58.034683 41.011223 58.09811 40.38552 58.100098 39.78823 C 58.100754 39.533855 58.1093 39.280136 58.1186 39.038975 C 58.13842 38.635933 57.588043 35.235214 56.97093 33.88537 C 56.45821 32.76149 55.690453 31.367369 54.29964 30.562614 C 53.27157 29.967304 52.16552 29.63232 51.09317 29.308567 C 50.857296 29.237207 50.62208 29.165852 50.392147 29.093176 C 50.08359 28.996056 49.773712 28.890997 49.45657 28.78462 C 47.93493 28.271902 46.359116 27.743988 44.64719 27.743988 C 44.429813 27.743988 44.211777 27.752588 43.993076 27.771078 C 43.229942 27.835169 42.584423 28.070389 42.00563 28.281816 C 41.70633 28.390837 41.423546 28.494566 41.14802 28.5646 C 41.105743 28.57584 41.041645 28.58046 40.957733 28.58046 C 40.856644 28.58046 40.75423 28.57386 40.637943 28.56659 C 40.47937 28.55739 40.319477 28.54875 40.159584 28.54875 C 39.909832 28.54875 39.683865 28.56923 39.471115 28.61218 C 38.214424 28.85995 37.693783 29.837152 37.44271 30.307585 C 37.36607 30.45228 37.31255 30.593014 37.272907 30.721851 C 37.241856 30.727152 37.211456 30.732431 37.18239 30.73837 C 35.84905 31.021158 35.268948 32.07831 34.884407 32.777348 L 34.79257 32.942528 C 33.868217 34.604237 33.358807 38.39214 33.380608 38.74299 C 33.385906 38.838787 33.38651 39.06872 33.388508 39.3416 L 33.38981 39.477707 C 33.393707 40.11728 33.398407 40.624058 33.414917 40.798485 C 33.414917 41.78692 33.532524 42.772713 33.76378 43.735386 C 33.759777 43.740685 33.75588 43.745956 33.75123 43.749916 C 33.213398 44.44367 33.142044 45.531876 33.534508 47.075317 C 33.55103 47.140728 33.576126 47.26098 33.60917 47.41955 C 34.084885 49.68648 34.553997 51.492214 35.681183 52.030712 C 35.70563 52.114624 35.729424 52.19986 35.752544 52.284428 C 36.00494 53.17904 36.26526 54.10405 36.69143 55.026413 C 37.214054 56.160873 37.7717 56.996017 38.445637 57.653435 C 38.500477 57.886665 38.314816 58.568535 38.234207 58.865856 C 38.19721 59.001965 38.16285 59.13081 38.1318 59.254356 C 37.894596 60.228256 37.411613 61.092476 36.73636 61.753197 C 35.983143 62.49122 34.964973 62.918705 33.85629 63.38451 C 33.59134 63.496834 33.32441 63.60849 33.061443 63.72544 L 32.723816 63.875423 C 30.85464 64.702644 28.921375 65.55893 27.237206 66.803734 C 26.843418 67.09377 26.513716 67.634254 26.246788 68.3868 C 45.787243 72.426575 45.787243 72.35058 65.40692 68.310814 z " fill-opacity="0.1" stroke-opacity="0.1"/>
<path d="M 64.869804 68.742256 C 64.802414 68.5196 64.71718 68.32402 64.591644 68.188576 C 64.070335 67.62299 63.425476 67.128784 62.75154 66.77398 C 60.74163 65.601204 58.60685 64.56057 56.406 63.682472 C 54.772697 63.030342 53.50148 61.764404 52.62602 59.91968 C 52.2362 59.10105 52.037983 58.215683 52.082253 57.49021 C 52.090153 57.354763 52.17805 57.254337 52.40865 57.021763 C 52.52295 56.90812 52.637913 56.790516 52.740986 56.662334 C 53.07332 56.25005 53.37923 55.769043 53.674576 55.19224 C 54.13179 54.298943 54.398067 53.378563 54.655743 52.487915 C 54.747585 52.17077 54.83612 51.862213 54.932587 51.560265 C 54.953728 51.561565 54.974216 51.561565 54.994698 51.561565 C 56.03797 51.561565 56.45158 50.09213 56.674908 49.30323 L 56.69605 49.22724 C 56.746258 49.050167 56.81894 48.826187 56.900867 48.571808 C 57.132786 47.850964 57.449272 46.86451 57.580746 46.0102 C 57.768387 44.787212 57.52525 44.01615 56.85791 43.715523 C 56.916714 43.39838 57.19753 41.923653 57.25963 41.58206 C 57.37988 40.927288 57.43869 40.339252 57.44001 39.783592 C 57.440674 39.521942 57.44921 39.258984 57.45917 39.00328 C 57.47172 38.756832 56.96099 35.447952 56.37096 34.15757 C 55.897892 33.122223 55.197525 31.842413 53.96925 31.131475 C 53.00724 30.573832 51.93688 30.250738 50.90285 29.93756 C 50.663673 29.86554 50.425156 29.792864 50.19324 29.719522 C 49.881386 29.621073 49.568203 29.51536 49.251717 29.408983 C 47.777004 28.916082 46.25272 28.404686 44.64717 28.404686 C 44.446976 28.404686 44.2481 28.412586 44.04856 28.429136 C 43.371326 28.485956 42.795177 28.696728 42.23753 28.900229 C 41.920383 29.017174 41.62042 29.126854 41.31054 29.20482 C 41.21275 29.229927 41.10109 29.24182 40.958378 29.24182 C 40.838787 29.24182 40.719196 29.23452 40.598946 29.22728 C 40.452923 29.21868 40.306908 29.21076 40.16023 29.21076 C 39.954086 29.21076 39.770405 29.22728 39.599277 29.260971 C 38.65049 29.447954 38.26001 30.181353 38.026108 30.619408 C 37.915108 30.827536 37.87084 31.031698 37.8345 31.195553 C 37.8246 31.241802 37.81402 31.290031 37.803448 31.33034 C 37.75786 31.33624 37.70368 31.34024 37.662052 31.34355 C 37.539818 31.353449 37.42221 31.364029 37.3198 31.38649 C 36.282467 31.60651 35.827896 32.433727 35.462517 33.09841 L 35.369995 33.265568 C 34.51107 34.80901 34.027424 38.493168 34.03997 38.70791 C 34.04657 38.824196 34.04787 39.130108 34.05054 39.475662 C 34.05384 40.02076 34.05784 40.58501 34.07565 40.800407 C 34.07565 41.860863 34.217705 42.91405 34.49851 43.938824 C 34.41526 43.999615 34.33994 44.07295 34.273865 44.15818 C 33.87479 44.671555 33.84176 45.60053 34.176743 46.918007 C 34.193928 46.98805 34.221016 47.11688 34.256695 47.286022 C 34.80113 49.876705 35.28808 51.35077 36.222336 51.51793 C 36.279816 51.714165 36.33532 51.91106 36.39016 52.107956 C 36.635284 52.97746 36.889004 53.87736 37.292698 54.75281 C 37.78824 55.82846 38.310867 56.610096 38.93921 57.213333 C 39.280804 57.541058 39.04493 58.408573 38.87248 59.041546 C 38.8368 59.172363 38.803757 59.297237 38.77469 59.413532 C 38.507763 60.50636 37.96267 61.48026 37.19954 62.22819 C 36.35646 63.054092 35.282127 63.50602 34.14504 63.983063 C 33.872814 64.09737 33.599937 64.21168 33.32905 64.33192 L 32.9921 64.48125 C 31.154638 65.294586 29.255074 66.136345 27.630363 67.33687 C 27.20486 67.65137 26.92009 68.4145 26.790592 68.82349 C 45.78723 72.48732 45.78723 72.53025 64.8698 68.74222 z " fill-opacity="0.2" stroke-opacity="0.2"/>
<path d="M 64.30093 69.15784 C 64.26855 68.94707 64.20445 68.742905 64.10469 68.63653 C 63.62633 68.11654 63.044235 67.67518 62.417873 67.344826 C 60.416557 66.176674 58.312828 65.15586 56.159546 64.29693 C 54.252712 63.535774 52.89956 62.041233 52.02807 60.204437 C 51.6356 59.37986 51.366028 58.36235 51.421528 57.45122 C 51.455227 56.90084 51.905174 56.647125 52.225624 56.24871 C 52.56259 55.831142 52.841415 55.369297 53.08588 54.892258 C 53.788223 53.520603 54.018818 52.045883 54.553997 50.62996 C 55.378574 51.63756 55.911777 49.5662 56.059776 49.04754 C 56.396744 47.866177 57.66136 44.659046 56.5051 44.28838 C 56.334637 44.23354 56.18399 44.29368 56.069687 44.425148 C 56.091496 44.141697 56.417225 42.512363 56.609493 41.465794 C 56.710583 40.91013 56.777317 40.34984 56.779297 39.7836 C 56.779957 39.513367 56.788494 39.24313 56.79912 38.971577 C 56.80182 38.920708 56.336613 35.673267 55.76972 34.434418 C 55.29664 33.400394 54.656406 32.29567 53.63758 31.704988 C 52.525593 31.060793 51.206795 30.736376 49.992393 30.351175 C 48.102737 29.751242 46.124542 28.918076 44.102745 29.08788 C 43.15263 29.167831 42.37365 29.61712 41.471764 29.845726 C 40.892315 29.993069 40.30956 29.793526 39.725483 29.909157 C 39.132156 30.026102 38.872498 30.433764 38.608204 30.929966 C 38.47408 31.181698 38.48531 31.476376 38.357788 31.72481 C 38.189964 32.045918 37.747944 31.969278 37.45657 32.032043 C 36.645206 32.20449 36.31485 32.927975 35.947487 33.586716 C 35.15 35.01915 34.694763 38.584393 34.699387 38.669624 C 34.715908 38.95968 34.704685 40.38419 34.736385 40.80044 C 34.736385 41.980484 34.927338 43.206783 35.328396 44.394096 C 34.217064 44.193897 34.694767 46.2745 34.817 46.75418 C 34.965 47.333633 35.70038 51.66464 36.67824 50.744263 C 37.077312 51.997646 37.33565 53.266884 37.892643 54.47468 C 38.269253 55.293976 38.74034 56.105335 39.395782 56.735004 C 40.117287 57.426117 39.621742 58.734997 39.416264 59.569485 C 39.12621 60.75547 38.538822 61.839054 37.662056 62.69799 C 36.514385 63.82254 35.027767 64.299576 33.59665 64.934525 C 31.712934 65.77033 29.687834 66.63587 28.022823 67.86679 C 27.775717 68.04915 27.496231 68.71517 27.35946 69.22655 C 45.78724 72.56375 45.78724 72.67067 64.3009 69.15783 z " fill-opacity="0.3" stroke-opacity="0.3"/>
<path d="M 60.976852 66.06568 C 58.975533 64.89753 58.313496 64.495155 56.16021 63.63556 C 54.253372 62.874413 52.900223 61.379864 52.028736 59.543068 C 51.63627 58.71849 51.366695 57.700985 51.422195 56.789852 C 51.455894 56.23947 51.90584 55.985756 52.22629 55.58734 C 52.563263 55.169765 52.842083 54.707924 53.086548 54.230885 C 53.78889 52.859234 54.01948 51.38451 54.554665 49.968582 C 55.37924 50.976185 55.91244 48.90483 56.060444 48.38617 C 56.39741 47.204803 57.662025 43.997673 56.505768 43.62701 C 56.335304 43.57217 56.184654 43.63231 56.07035 43.76378 C 56.09216 43.480328 56.417892 41.851 56.61016 40.80442 C 56.71125 40.248756 56.777985 39.688465 56.779964 39.122227 C 56.780624 38.851994 56.789165 38.581757 56.799786 38.310204 C 56.802486 38.259335 56.33728 35.011894 55.770386 33.773045 C 55.29731 32.73902 54.65707 31.634298 53.638245 31.043615 C 52.526257 30.399414 51.20746 30.075 49.993057 29.689802 C 48.1034 29.08987 46.12521 28.256702 44.10341 28.426506 C 43.153297 28.506456 42.374306 28.955744 41.472427 29.184353 C 40.89298 29.331692 40.310223 29.132153 39.726147 29.247784 C 39.13282 29.364729 38.87316 29.772396 38.608868 30.268597 C 38.474743 30.52033 38.485973 30.81501 38.358448 31.06344 C 38.190628 31.38455 37.748608 31.307907 37.45723 31.370676 C 36.645863 31.54312 36.315502 32.26661 35.948147 32.925346 C 35.15066 34.357784 34.695423 37.92302 34.70005 38.00826 C 34.71657 38.298313 34.70535 39.722824 34.73705 40.139076 C 34.73705 41.31912 34.928 42.545418 35.329052 43.732723 C 34.217724 43.532524 34.695423 45.61313 34.817657 46.09281 C 34.96566 46.67226 35.70104 51.003273 36.6789 50.082893 C 37.077976 51.336277 37.336315 52.60552 37.893303 53.813313 C 38.269913 54.632607 38.741005 55.44397 39.39644 56.07363 C 40.117943 56.764744 39.6224 58.073624 39.41692 58.90811 C 39.126865 60.0941 38.53949 61.17768 37.662712 62.036617 C 36.51504 63.161167 35.044285 63.674545 33.59731 64.273155 C 29.262997 66.06569 26.44437 68.58699 26.61946 68.708565 C 44.133453 73.011795 44.038017 73.05571 64.94116 68.708565 C 65.110306 68.59096 62.298286 66.72641 60.976852 66.06569 z " fill="#ffffff" fill-opacity="1"/>
</g>
<radialGradient cx="47.8164" cy="68.2734" gradientUnits="userSpaceOnUse" r="9.2964" xlink:actuate="onLoad" xlink:show="other" xlink:type="simple">
<stop offset="0" stop-color="#000000" stop-opacity="0.5"/>
<stop offset="0.4" stop-color="#000000" stop-opacity="0.5"/>
<stop offset="1" stop-color="#595959" stop-opacity="0"/>
</radialGradient>
<rect fill="none" height="96" width="96"/>
</svg>
