<?xml version="1.0" encoding="UTF-8"?>
<svg xmlns="http://www.w3.org/2000/svg" xmlns:xlink="http://www.w3.org/1999/xlink" baseProfile="tiny" contentScriptType="text/ecmascript" contentStyleType="text/css" height="96px" preserveAspectRatio="xMidYMid meet" version="1.1" viewBox="0 0 96 96" width="96px" x="0px" y="0px" zoomAndPan="magnify">
<defs>
<linearGradient>
<stop offset="0" stop-color="#ffffff" stop-opacity="1"/>
<stop offset="1" stop-color="#ffffff" stop-opacity="0.78431374"/>
</linearGradient>
<linearGradient>
<stop offset="0" stop-color="#26a5f3" stop-opacity="1"/>
<stop offset="1" stop-color="#2697f3" stop-opacity="1"/>
</linearGradient>
<linearGradient>
<stop offset="0" stop-color="#9faebc" stop-opacity="1"/>
<stop offset="1" stop-color="#899cad" stop-opacity="1"/>
</linearGradient>
<linearGradient gradientTransform="matrix(0,1,-1,0,96,0)" gradientUnits="userSpaceOnUse" x1="8" x2="88" y1="48" y2="48">
<stop offset="0" stop-color="#9faebc" stop-opacity="1"/>
<stop offset="1" stop-color="#899cad" stop-opacity="1"/>
</linearGradient>
<linearGradient gradientTransform="matrix(0,1,-1,0,96,0)" gradientUnits="userSpaceOnUse" x1="8" x2="88" y1="48" y2="48">
<stop offset="0" stop-color="#11e3d8" stop-opacity="1"/>
<stop offset="1" stop-color="#12bdd4" stop-opacity="1"/>
</linearGradient>
<linearGradient gradientTransform="matrix(1.4945702,0,0,1.4945702,-128.91659,29.761177)" gradientUnits="userSpaceOnUse" x1="111.35184" x2="111.35184" y1="-0.15808071" y2="24.79711">
<stop offset="0" stop-color="#ffffff" stop-opacity="1"/>
<stop offset="1" stop-color="#ffffff" stop-opacity="0.78431374"/>
</linearGradient>
<linearGradient gradientTransform="matrix(0,0.81039681,-0.81039681,0,91.761425,21.100956)" gradientUnits="userSpaceOnUse" id="linearGradient4001" x1="31.3125" x2="64.6875" y1="54" y2="54">
<stop offset="0" stop-color="#ffffff" stop-opacity="1"/>
<stop offset="1" stop-color="#ffffff" stop-opacity="0.78431374"/>
</linearGradient>
<linearGradient gradientUnits="userSpaceOnUse" x1="46.15485" x2="46.15485" y1="28.881346" y2="67.127922">
<stop offset="0" stop-color="#ffffff" stop-opacity="1"/>
<stop offset="1" stop-color="#ffffff" stop-opacity="0.78431374"/>
</linearGradient>
<linearGradient gradientUnits="userSpaceOnUse" x1="47.9995" x2="47.9995" y1="8" y2="88.000504">
<stop offset="0" stop-color="#3f3f3f" stop-opacity="1"/>
<stop offset="1" stop-color="#2e2e2e" stop-opacity="1"/>
</linearGradient>
<linearGradient gradientTransform="translate(-54.508474,-0.81355896)" gradientUnits="userSpaceOnUse" x1="47.9995" x2="47.9995" y1="8" y2="88.000504">
<stop offset="0" stop-color="#3f3f3f" stop-opacity="1"/>
<stop offset="1" stop-color="#2e2e2e" stop-opacity="1"/>
</linearGradient>
<linearGradient gradientUnits="userSpaceOnUse" x1="47.245083" x2="47.245083" y1="15.052355" y2="31.196066">
<stop offset="0" stop-color="#ffffff" stop-opacity="1"/>
<stop offset="1" stop-color="#ffffff" stop-opacity="0.78431374"/>
</linearGradient>
<linearGradient gradientUnits="userSpaceOnUse" x1="46.15485" x2="46.15485" y1="28.881346" y2="67.127922">
<stop offset="0" stop-color="#ffffff" stop-opacity="1"/>
<stop offset="1" stop-color="#ffffff" stop-opacity="0.78431374"/>
</linearGradient>
<linearGradient gradientTransform="translate(5.6e-6,0.75)" gradientUnits="userSpaceOnUse" id="linearGradient3927" x1="47.245083" x2="47.245083" y1="15.052355" y2="31.196066">
<stop offset="0" stop-color="#ffffff" stop-opacity="1"/>
<stop offset="1" stop-color="#ffffff" stop-opacity="0.78431374"/>
</linearGradient>
<linearGradient gradientTransform="matrix(0,1,-1,0,96,0)" gradientUnits="userSpaceOnUse" id="linearGradient3907" x1="8" x2="88" y1="48" y2="48">
<stop offset="0" stop-color="#3f3f3f" stop-opacity="1"/>
<stop offset="1" stop-color="#2e2e2e" stop-opacity="1"/>
</linearGradient>
</defs>
<path d="M 88.0 49.0 C 88.0 78.635 77.639 89.0 48.0 89.0 C 18.366 89.0 8.0 78.635 8.0 49.0 C 8.0 19.367 18.366 9.0 48.0 9.0 C 77.637 9.0 88.0 19.367 88.0 49.0 z " fill-opacity="0.4" stroke-opacity="0.4"/>
<linearGradient gradientUnits="userSpaceOnUse" x1="48.0005" x2="48.0005" xlink:actuate="onLoad" xlink:show="other" xlink:type="simple" y1="88" y2="8.0005">
<stop offset="0" stop-color="#3d465b"/>
<stop offset="1" stop-color="#a1b2c0"/>
</linearGradient>
<path d="M 48.0 8.0 C 77.635 8.0 88.0 18.361 88.0 48.0 C 88.0 77.634 77.635 88.0 48.0 88.0 C 18.367 88.0 8.0 77.634 8.0 48.0 C 8.0 18.363 18.367 8.0 48.0 8.0 z " fill="url(#linearGradient3907)" fill-opacity="1"/>
<linearGradient gradientTransform="matrix(1 0 0 1 193.9253 -815.8408)" gradientUnits="userSpaceOnUse" id="SVGID_2_" x1="-145.9253" x2="-145.9253" xlink:actuate="onLoad" xlink:show="other" xlink:type="simple" y1="824.0938" y2="903.3385">
<stop offset="0" stop-color="#ffffff"/>
<stop offset="1" stop-color="#ffffff" stop-opacity="0"/>
</linearGradient>
<path d="M 48.0 8.0 C 18.366 8.0 8.0 18.367 8.0 48.0 C 8.0 77.635 18.366 88.0 48.0 88.0 C 77.639 88.0 88.0 77.635 88.0 48.0 C 88.0 18.367 77.637 8.0 48.0 8.0 z M 48.0 87.0 C 18.842 87.0 9.0 77.158 9.0 48.0 C 9.0 18.842005 18.842 9.0 48.0 9.0 C 77.159 9.0 87.0 18.842 87.0 48.0 C 87.0 77.158005 77.159 87.0 48.0 87.0 z " fill="url(#SVGID_2_)" fill-opacity="0.15"/>
<linearGradient gradientTransform="matrix(0.95325904,0,0,0.95325904,-4.6912532,5.6457946)" gradientUnits="userSpaceOnUse" x1="34.8496" x2="61.3034" xlink:actuate="onLoad" xlink:show="other" xlink:type="simple" y1="19.9487" y2="72.3524">
<stop offset="0" stop-color="#ffffff"/>
<stop offset="1" stop-color="#ffffff"/>
</linearGradient>
<linearGradient gradientUnits="userSpaceOnUse" x1="34.8496" x2="61.3034" xlink:actuate="onLoad" xlink:show="other" xlink:type="simple" y1="19.9487" y2="72.3524">
<stop offset="0" stop-color="#cfcfcf"/>
<stop offset="0.26" stop-color="#f7f7f7"/>
<stop offset="0.74" stop-color="#f7f7f7"/>
<stop offset="1" stop-color="#878787"/>
</linearGradient>
<linearGradient gradientTransform="matrix(0.45454545,0,0,1,23.181818,0)" gradientUnits="userSpaceOnUse" x1="47.9995" x2="47.9995" xlink:actuate="onLoad" xlink:show="other" xlink:type="simple" y1="66" y2="69">
<stop offset="0" stop-color="#808184"/>
<stop offset="1" stop-color="#ffffff"/>
</linearGradient>
<linearGradient gradientUnits="userSpaceOnUse" x1="48.0005" x2="48.0005" xlink:actuate="onLoad" xlink:show="other" xlink:type="simple" y1="68.5" y2="66.5">
<stop offset="0" stop-color="#323233"/>
<stop offset="1" stop-color="#5a5b5c"/>
</linearGradient>
<linearGradient gradientUnits="userSpaceOnUse" x1="48.0005" x2="48.0005" xlink:actuate="onLoad" xlink:show="other" xlink:type="simple" y1="68.5" y2="66.5">
<stop offset="0" stop-color="#ffffff" stop-opacity="0"/>
<stop offset="1" stop-color="#ffffff"/>
</linearGradient>
<linearGradient gradientUnits="userSpaceOnUse" x1="48.0005" x2="48.0005" xlink:actuate="onLoad" xlink:show="other" xlink:type="simple" y1="71.9014" y2="19.8005">
<stop offset="0" stop-color="#ffffff" stop-opacity="0"/>
<stop offset="1" stop-color="#ffffff"/>
</linearGradient>
<linearGradient gradientUnits="userSpaceOnUse" x1="47.9995" x2="47.9995" xlink:actuate="onLoad" xlink:show="other" xlink:type="simple" y1="66.583" y2="72.0836">
<stop offset="0" stop-color="#000000" stop-opacity="0.06"/>
<stop offset="1" stop-color="#000000" stop-opacity="0.2"/>
</linearGradient>
<linearGradient gradientUnits="userSpaceOnUse" x1="47.9995" x2="47.9995" xlink:actuate="onLoad" xlink:show="other" xlink:type="simple" y1="8.2393" y2="88.2878">
<stop offset="0" stop-color="#a1b2c0"/>
<stop offset="1" stop-color="#3d465b"/>
</linearGradient>
<rect fill="none" height="96" width="96"/>
<path d="M 61.52349 60.0 C 61.52349 52.533222 55.466766 46.4765 47.999996 46.4765 C 40.533222 46.4765 34.4765 52.533222 34.4765 60.0 C 34.4765 67.46678 40.533222 73.5235 48.0 73.5235 C 55.466778 73.5235 61.523495 67.46678 61.523495 60.000004 z M 57.572815 59.772083 C 57.572247 59.767586 57.572903 59.979248 57.572815 59.97468 C 57.572727 59.970177 57.572414 60.1565 57.572815 60.151955 C 57.573215 60.147453 57.546604 60.333706 57.547485 60.329235 C 57.548374 60.324738 57.495487 60.510864 57.496834 60.50651 C 57.498234 60.502113 57.444378 60.687977 57.446182 60.68379 C 57.447983 60.67959 57.34264 60.86504 57.344883 60.861057 C 57.347183 60.857056 57.24093 61.016727 57.243584 61.01301 C 57.246284 61.009308 57.139248 61.16837 57.142284 61.16495 C 57.145283 61.161552 57.01228 61.29465 57.01566 61.291565 C 57.01906 61.288464 56.860023 61.420883 56.86371 61.4182 C 56.86731 61.4155 56.70781 61.52178 56.71176 61.519505 C 56.71576 61.517204 56.530308 61.597324 56.534477 61.59547 C 56.538574 61.593575 56.352856 61.672855 56.35721 61.671444 C 56.361607 61.670044 56.175465 61.723034 56.179935 61.722095 C 56.184437 61.721195 55.998116 61.747875 56.002663 61.747425 C 56.007164 61.746975 55.82082 61.74739 55.825382 61.747425 L 49.74741 61.747425 L 49.74741 67.8254 C 49.74738 67.8215 49.74709 67.98123 49.74741 67.97735 C 49.747738 67.97345 49.72141 68.133125 49.72208 68.129295 C 49.722755 68.125496 49.695732 68.285 49.69675 68.28124 C 49.69785 68.27754 49.644753 68.43685 49.6461 68.43319 C 49.6475 68.42959 49.56845 68.588646 49.57013 68.58513 C 49.57183 68.58163 49.49216 68.74042 49.49416 68.73707 C 49.49616 68.733765 49.4159 68.86686 49.41819 68.8637 C 49.42049 68.860504 49.314327 68.99325 49.31689 68.990326 C 49.319492 68.98743 49.212772 69.09432 49.21559 69.09162 C 49.21839 69.08892 49.085915 69.19534 49.088966 69.192924 C 49.092068 69.19052 48.959084 69.29636 48.96234 69.29423 C 48.96554 69.29213 48.806953 69.37204 48.81039 69.37021 C 48.81379 69.36831 48.680176 69.44768 48.683765 69.44618 C 48.687366 69.44468 48.528103 69.49799 48.531815 69.49683 C 48.535515 69.49564 48.37606 69.54832 48.379864 69.547485 C 48.383663 69.54668 48.22405 69.573296 48.227913 69.57281 C 48.232414 69.57224 48.02075 69.57289 48.02531 69.57281 C 48.029816 69.57272 47.84349 69.57241 47.84804 69.57281 C 47.852543 69.57321 47.666286 69.54661 47.670765 69.547485 C 47.675262 69.54838 47.48913 69.49548 47.493492 69.49683 C 47.49789 69.49824 47.312027 69.444374 47.31622 69.44618 C 47.32042 69.44798 47.134968 69.34263 47.138943 69.34488 C 47.142944 69.347176 46.983276 69.24093 46.98699 69.24359 C 46.990692 69.24629 46.83163 69.13925 46.835037 69.14228 C 46.838436 69.14528 46.70534 69.01228 46.708416 69.01566 C 46.711517 69.019066 46.579098 68.86002 46.581787 68.86372 C 46.584488 68.86732 46.478203 68.70782 46.480488 68.71177 C 46.482788 68.71577 46.402657 68.53033 46.40452 68.53449 C 46.406418 68.53859 46.327137 68.35288 46.32855 68.357216 C 46.32995 68.36162 46.27697 68.17547 46.277897 68.17995 C 46.27879 68.18445 46.252117 67.99812 46.252567 68.00267 C 46.253017 68.00717 46.252605 67.82083 46.252567 67.82539 L 46.252567 61.747425 L 40.225243 61.747425 C 40.22585 61.747417 40.205814 61.747658 40.199913 61.747425 C 40.164543 61.746025 40.044334 61.747116 40.04796 61.747425 C 40.05216 61.747784 39.866512 61.721325 39.87069 61.722095 C 39.87489 61.722874 39.689335 61.670265 39.693413 61.671444 C 39.697514 61.67265 39.53752 61.619205 39.541466 61.620792 C 39.545464 61.62239 39.385742 61.54285 39.38951 61.54481 C 39.39321 61.54671 39.23401 61.46651 39.23756 61.46883 C 39.24116 61.47113 39.082302 61.36486 39.08561 61.36753 C 39.08891 61.37023 38.95596 61.237923 38.95899 61.24091 C 38.961987 61.243908 38.82965 61.11102 38.832363 61.11428 C 38.835064 61.11748 38.728683 60.984142 38.731064 60.98766 C 38.733463 60.99116 38.653072 60.83197 38.655094 60.835716 C 38.657093 60.839417 38.577484 60.67985 38.579124 60.68377 C 38.580723 60.687668 38.501904 60.50243 38.503155 60.50649 C 38.504356 60.51059 38.476994 60.35038 38.477825 60.354546 C 38.47864 60.358646 38.452076 60.17304 38.452507 60.17727 C 38.452927 60.18147 38.427177 59.99575 38.427177 59.99999 C 38.427177 60.00419 38.452927 59.81849 38.452507 59.822712 C 38.452087 59.826912 38.47867 59.641266 38.477825 59.645435 C 38.477016 59.649536 38.504387 59.48942 38.503155 59.493484 C 38.501953 59.497585 38.580765 59.312298 38.579124 59.316208 C 38.57753 59.320107 38.657116 59.16052 38.655094 59.164265 C 38.653095 59.167965 38.733456 59.00879 38.731064 59.012325 C 38.728764 59.015827 38.83508 58.882435 38.832363 58.885693 C 38.829662 58.888893 38.962013 58.75609 38.95899 58.759075 C 38.95599 58.762074 39.088917 58.62977 39.08561 58.63244 C 39.08231 58.635143 39.24111 58.528812 39.23756 58.531147 C 39.23396 58.533447 39.393276 58.453205 39.38951 58.45517 C 39.38581 58.457066 39.545403 58.377605 39.541466 58.379196 C 39.53746 58.380795 39.69749 58.32737 39.693413 58.328545 C 39.689312 58.329742 39.874863 58.277115 39.87069 58.277893 C 39.86649 58.27867 40.052197 58.252213 40.04796 58.252563 C 40.04436 58.25288 40.16454 58.253963 40.199913 58.252563 L 40.225243 58.252563 L 46.252563 58.252563 L 46.252563 52.22524 C 46.252575 52.225845 46.252335 52.20581 46.252563 52.19991 C 46.253963 52.16454 46.252872 52.04433 46.252563 52.04796 C 46.252205 52.05216 46.278664 51.86651 46.277893 51.87069 C 46.277115 51.87489 46.329723 51.68933 46.328545 51.693417 C 46.327343 51.697517 46.380783 51.537525 46.379196 51.541466 C 46.3776 51.545467 46.457134 51.385742 46.45517 51.389515 C 46.453262 51.393215 46.533463 51.234013 46.531136 51.237564 C 46.528835 51.241165 46.6351 51.08231 46.632435 51.085613 C 46.629738 51.088913 46.762043 50.955963 46.759064 50.958984 C 46.756065 50.961983 46.88895 50.829643 46.885685 50.832363 C 46.882484 50.835064 47.015827 50.728683 47.012314 50.731064 C 47.008812 50.733463 47.168 50.653072 47.164265 50.655094 C 47.160564 50.657093 47.320133 50.577484 47.316216 50.579124 C 47.312317 50.580723 47.49755 50.501904 47.49349 50.503155 C 47.489388 50.504356 47.6496 50.476994 47.64544 50.477825 C 47.64134 50.47864 47.826942 50.452076 47.822712 50.452507 C 47.818512 50.452927 48.00423 50.427177 47.999985 50.427177 C 47.995785 50.427177 48.181484 50.452927 48.177258 50.452507 C 48.173058 50.452087 48.358696 50.47867 48.354534 50.477825 C 48.350433 50.477016 48.510544 50.504387 48.50648 50.503155 C 48.50238 50.501953 48.687675 50.580765 48.68375 50.579124 C 48.679855 50.57753 48.839443 50.657116 48.835705 50.655094 C 48.832005 50.653095 48.991173 50.733456 48.987656 50.731064 C 48.984154 50.728764 49.117542 50.83508 49.11428 50.832363 C 49.11108 50.829662 49.243885 50.962013 49.240906 50.958984 C 49.237907 50.955982 49.370197 51.088913 49.36753 51.085613 C 49.36483 51.082314 49.471157 51.24111 49.46883 51.237564 C 49.46653 51.233963 49.546772 51.393276 49.5448 51.389515 C 49.5429 51.385815 49.62236 51.545406 49.62077 51.541466 C 49.61917 51.537464 49.6726 51.697495 49.67142 51.693417 C 49.67022 51.689316 49.72285 51.874863 49.722073 51.87069 C 49.7213 51.86649 49.747753 52.052197 49.7474 52.04796 C 49.747093 52.044357 49.746 52.16453 49.7474 52.19991 C 49.74763 52.20581 49.747395 52.22584 49.7474 52.22524 L 49.7474 58.252563 L 55.82538 58.252563 C 55.82148 58.25259 55.98121 58.252884 55.97733 58.252563 C 55.97343 58.252243 56.133114 58.278564 56.12928 58.277893 C 56.12548 58.27722 56.28499 58.30424 56.28123 58.303223 C 56.27753 58.302124 56.436832 58.35522 56.43318 58.35387 C 56.42958 58.35247 56.58864 58.431538 56.585133 58.429855 C 56.58163 58.42815 56.74043 58.507824 56.737083 58.505825 C 56.733784 58.503822 56.86686 58.584095 56.86371 58.581806 C 56.860508 58.579502 56.993263 58.685677 56.990337 58.683098 C 56.98744 58.680496 57.09432 58.787216 57.091633 58.784397 C 57.088932 58.781597 57.19535 58.91408 57.192932 58.911022 C 57.190533 58.907925 57.296364 59.040905 57.29423 59.037647 C 57.29213 59.034447 57.37204 59.19304 57.3702 59.1896 C 57.3683 59.1862 57.44768 59.319817 57.44617 59.316227 C 57.44467 59.312626 57.498 59.471893 57.496822 59.468178 C 57.49562 59.46448 57.5483 59.623928 57.54747 59.62013 C 57.546665 59.61633 57.573284 59.775948 57.572803 59.772068 z " fill="url(#linearGradient4001)" fill-opacity="1" stroke="none"/>
<path color="#000000" d="M 35.875 15.9375 C 35.53754 16.6196 34.93632 17.33735 34.125 18.0625 C 33.31368 18.787676 32.3654 19.396494 31.28125 19.90625 L 31.28125 21.78125 C 31.884363 21.558683 32.55862 21.22641 33.3125 20.78125 C 34.07356 20.336111 34.68956 19.882662 35.15625 19.4375 L 35.15625 31.78125 L 37.125 31.78125 L 37.125 15.9375 L 35.875 15.9375 z M 47.34375 15.9375 C 45.84316 15.937516 44.6403 16.311165 43.75 17.09375 C 42.8597 17.869186 42.32392 19.013786 42.1875 20.5 L 44.1875 20.71875 C 44.1945 19.727943 44.47122 18.93504 45.03125 18.375 C 45.59128 17.814987 46.34787 17.531263 47.28125 17.53125 C 48.16437 17.531263 48.89183 17.812456 49.4375 18.34375 C 49.99034 18.867891 50.28124 19.51302 50.28125 20.28125 C 50.28124 21.013603 49.94685 21.79933 49.34375 22.625 C 48.74064 23.443508 47.59098 24.530258 45.875 25.9375 C 44.7693 26.842163 43.9325 27.65449 43.34375 28.34375 C 42.76218 29.033016 42.32816 29.7267 42.0625 30.4375 C 41.89737 30.868292 41.82939 31.314562 41.84375 31.78125 L 52.28125 31.78125 L 52.28125 29.9375 L 44.53125 29.9375 C 44.74664 29.58569 45.01348 29.219631 45.34375 28.875 C 45.67402 28.523191 46.43061 27.882711 47.59375 26.90625 C 48.98663 25.728764 49.96657 24.76866 50.5625 24.09375 C 51.1656 23.418854 51.61652 22.797794 51.875 22.1875 C 52.13347 21.577225 52.24999 20.944338 52.25 20.3125 C 52.24999 19.0704 51.78936 18.027555 50.90625 17.1875 C 50.02312 16.347475 48.85869 15.937516 47.34375 15.9375 z M 59.3125 15.9375 C 58.06321 15.937516 57.027534 16.313282 56.1875 17.03125 C 55.34746 17.742067 54.79944 18.731712 54.5625 20.03125 L 56.5 20.375 C 56.6436 19.427277 56.96616 18.723885 57.46875 18.25 C 57.97134 17.776146 58.62111 17.531263 59.375004 17.53125 C 60.136063 17.531263 60.737705 17.752075 61.218754 18.21875 C 61.699795 18.685452 61.937492 19.28921 61.937504 20.0 C 61.937492 20.897491 61.59804 21.56922 60.937504 22.0 C 60.276947 22.4308 59.544434 22.62501 58.71875 22.625 C 58.63975 22.625011 58.53548 22.63933 58.40625 22.625 L 58.1875 24.3125 C 58.73317 24.168913 59.196327 24.093758 59.562504 24.09375 C 60.459972 24.093758 61.199677 24.387192 61.781258 24.96875 C 62.36281 25.543142 62.65624 26.297209 62.656258 27.1875 C 62.65624 28.120882 62.350574 28.899427 61.718754 29.53125 C 61.094105 30.163078 60.318077 30.468752 59.406258 30.46875 C 58.63801 30.468752 57.97599 30.23105 57.4375 29.75 C 56.90619 29.261774 56.53508 28.473518 56.3125 27.375 L 54.375 27.625 C 54.50424 28.938911 55.02566 29.98682 55.9375 30.8125 C 56.85652 31.638182 58.02054 32.0625 59.40625 32.0625 C 60.94273 32.0625 62.21357 31.57992 63.21875 30.625 C 64.22392 29.662905 64.71874 28.503532 64.71875 27.125 C 64.71874 26.105469 64.45444 25.26866 63.9375 24.59375 C 63.42054 23.911673 62.68337 23.465405 61.75 23.25 C 62.46798 22.919737 63.04007 22.466288 63.40625 21.90625 C 63.772404 21.346231 63.93749 20.713346 63.9375 20.03125 C 63.93749 19.31328 63.7627 18.639015 63.375 18.0 C 62.99446 17.361008 62.41266 16.866188 61.6875 16.5 C 60.96233 16.126663 60.17408 15.937516 59.3125 15.9375 z " display="inline" fill="url(#linearGradient3927)" fill-opacity="1" fill-rule="nonzero" stroke="none" visibility="visible"/>
<path color="#000000" d="M 8.59375 37.0 C 8.514107 37.65723 8.438251 38.316746 8.375 39.0 L 87.625 39.0 C 87.56176 38.31671 87.48588 37.657265 87.40625 37.0 L 8.59375 37.0 z " display="inline" fill="#000000" fill-opacity="0.11764706" fill-rule="nonzero" stroke="none" stroke-width="1.01400006" visibility="visible"/>
<path color="#000000" d="M 8.59375 37.0 C 8.553288 37.333897 8.504959 37.659412 8.46875 38.0 L 87.53125 38.0 C 87.49505 37.659397 87.4467 37.333908 87.40625 37.0 L 8.59375 37.0 z " display="inline" fill="#000000" fill-opacity="0.11764706" fill-rule="nonzero" stroke="none" stroke-width="1.01400006" visibility="visible"/>
</svg>
