<?xml version="1.0" encoding="UTF-8"?>
<svg xmlns="http://www.w3.org/2000/svg" xmlns:xlink="http://www.w3.org/1999/xlink" baseProfile="tiny" contentScriptType="text/ecmascript" contentStyleType="text/css" height="96px" preserveAspectRatio="xMidYMid meet" version="1.1" viewBox="0 0 96 96" width="96px" x="0px" y="0px" zoomAndPan="magnify">
<defs>
<linearGradient>
<stop offset="0" stop-color="#ffffff" stop-opacity="1"/>
<stop offset="1" stop-color="#ffffff" stop-opacity="0.78431374"/>
</linearGradient>
<linearGradient>
<stop offset="0" stop-color="#0061d4" stop-opacity="1"/>
<stop offset="1" stop-color="#004ccb" stop-opacity="1"/>
</linearGradient>
<linearGradient gradientUnits="userSpaceOnUse" id="linearGradient3808" x1="48.271187" x2="48.271187" y1="10.576271" y2="87.887718">
<stop offset="0" stop-color="#00d461" stop-opacity="1"/>
<stop offset="1" stop-color="#00b961" stop-opacity="1"/>
</linearGradient>
<linearGradient gradientUnits="userSpaceOnUse" x1="47.808662" x2="47.808662" y1="22.834524" y2="67.889435">
<stop offset="0" stop-color="#ffffff" stop-opacity="1"/>
<stop offset="1" stop-color="#ffffff" stop-opacity="0.78431374"/>
</linearGradient>
<linearGradient gradientUnits="userSpaceOnUse" x1="47.808662" x2="47.808662" y1="22.834524" y2="67.889435">
<stop offset="0" stop-color="#0061d4" stop-opacity="1"/>
<stop offset="1" stop-color="#004ccb" stop-opacity="1"/>
</linearGradient>
<path d="M 0.44567 28.254932 L 4.54576 27.408794 L 8.06647 2.852233 L 4.01096 1.916344 C 4.01096 1.381551 4.27834 0.401094 4.59032 0.0 L 16.534044 0.0 L 16.043814 2.316821 L 12.121984 2.763102 L 8.289299 27.497307 L 12.656784 27.80927 C 12.656784 28.477764 12.344824 29.726233 11.899144 30.304976 L 0.0 30.304976 L 0.44567 28.254932 z M 26.784233 30.171896 C 26.204872 30.617558 25.580954 31.107784 23.575502 31.107784 C 21.748272 31.107784 20.188452 30.038197 18.316673 27.631626 C 16.935123 25.760468 13.592684 20.367966 11.676323 17.248333 C 10.829573 15.866783 10.517603 14.529181 10.517603 14.529181 L 23.575504 2.8528519 L 19.742804 1.9169629 C 19.742804 1.3821698 20.010183 0.40171385 20.322144 6.188154E-4 L 31.374584 6.188154E-4 L 30.884335 2.31744 L 28.032095 2.808285 L 14.662255 14.217218 C 16.355766 17.336845 20.856936 23.620674 22.505896 25.49245 C 24.021145 27.231148 25.670095 28.83491 26.784235 29.682287 L 26.784235 30.171896 z "/>
<path d="M 29.617504 30.215687 C 28.771824 31.729994 27.433603 33.033 23.735874 33.033 C 19.158234 33.033 11.903654 28.877464 7.7123985 24.721928 C 2.18294 24.721926 0.0 20.953768 0.0 15.389575 C 0.0 7.606746 4.71901 0.0 12.290045 0.0 C 17.819525 0.0 20.038635 3.73294 20.038635 9.332351 C 20.038635 16.058687 16.481295 22.679375 10.6353655 24.334545 C 17.432146 28.454866 22.292006 29.969662 25.531425 29.969662 C 27.222305 29.969662 28.419176 29.652714 29.405235 29.370493 L 29.617506 30.215687 z M 10.740525 2.746881 C 5.2120404 2.746881 2.9577003 9.473216 2.9577003 13.980919 C 2.9577003 18.38297 4.64857 21.975046 9.261921 21.975046 C 14.791396 21.975046 17.044765 15.283926 17.044765 10.741009 C 17.044765 6.338956 15.354856 2.746882 10.740525 2.746882 z "/>
<path d="M 0.461668 32.107517 C 0.461668 32.107517 3.147755 32.779034 5.833825 32.779034 C 6.4214053 32.779034 7.008965 32.737072 7.554585 32.652546 C 8.268075 32.106937 9.359285 30.386173 9.862915 27.280403 C 10.576425 22.915539 13.472345 2.6860695 13.472345 2.6860695 L 9.233385 1.804703 C 9.233385 1.301064 9.485195 0.377729 9.778975 0.0 L 21.446585 0.0 L 20.984934 2.181849 L 17.291594 2.602131 C 17.291594 2.602131 14.605524 21.236746 13.472343 26.860706 C 12.255194 33.282093 9.737023 35.758316 5.4980536 35.758316 C 2.7280436 35.758316 1.0912137 34.87695 -1.4305115E-6 33.659824 L 0.46166658 32.10752 z "/>
<path d="M 8.738286 16.0 L 4.448229 16.0 L 4.448229 15.894629 C 5.3977146 14.75177 5.749257 13.591085 6.0306287 11.1296 L 5.925257 11.1296 C 5.3801146 12.307657 4.342629 12.800229 3.2528 12.800229 C 1.1430857 12.800229 0.0 11.3056 0.0 9.248458 C 0.0 7.472457 1.7933714 5.397714 2.8662856 4.167086 C 4.0969143 2.760457 5.7142854 0.931886 6.5757713 0.0 L 6.6109715 0.0 C 7.472457 0.931886 9.090057 2.760457 10.320913 4.167086 C 11.393143 5.397714 13.186743 7.472457 13.186743 9.248457 C 13.186743 11.305599 12.044114 12.800229 9.934172 12.800229 C 8.844114 12.800229 7.8066287 12.307886 7.261943 11.129601 L 7.156343 11.129601 C 7.4374857 13.591314 7.789486 14.751772 8.738515 15.8946295 L 8.738515 16.0 z " id="spade"/>
<path d="M 6.6448 2.994057 C 7.192 0.978743 8.583772 0.0 10.058971 0.0 C 11.832458 0.0 13.256914 1.650286 13.256914 3.857371 C 13.256914 6.4288 12.047771 8.309943 10.804571 10.056 C 9.612115 11.725714 7.2585144 14.604343 6.6450286 15.314285 L 6.6118855 15.314285 C 5.9986286 14.604343 3.6459427 11.725714 2.4523427 10.056 C 1.2093714 8.309943 0.0 6.4288 0.0 3.857371 C 0.0 1.650286 1.4256 0.0 3.1984 0.0 C 4.6729145 0.0 6.064914 0.978743 6.6121144 2.994057 L 6.6448007 2.994057 z " id="heart"/>
<path d="M 11.6592 8.0 L 5.821257 16.0 L 0.0 8.0 L 5.821257 0.0 L 11.6592 8.0 z " id="diamond"/>
<path d="M 5.215771 5.882057 C 4.7718854 5.271543 4.328 4.494857 4.328 3.458743 C 4.328 1.461029 5.9186287 0.0 7.8610287 0.0 C 9.840229 0.0 11.394057 1.498286 11.394057 3.458743 C 11.394057 4.494629 10.950171 5.271314 10.506058 5.882057 L 10.598628 5.974627 C 11.135085 5.586284 11.949028 5.327084 12.429942 5.327084 C 14.372342 5.327084 15.722742 7.028798 15.722742 8.878628 C 15.722742 10.91337 14.150399 12.485712 12.17097 12.485712 C 11.098285 12.485712 9.581257 11.875198 8.527084 10.302855 L 8.45303 10.302855 C 8.712001 13.465829 9.119316 14.686628 10.117944 15.889143 L 10.117944 16.0 L 5.6045713 16.0 L 5.6045713 15.889143 C 6.603429 14.686629 7.0105143 13.465829 7.2694855 10.302857 L 7.195429 10.302857 C 6.1408 11.874971 4.624229 12.485714 3.5515428 12.485714 C 1.5721143 12.485714 0.0 10.913371 0.0 8.87863 C 0.0 7.0288 1.3501714 5.327086 3.2925713 5.327086 C 3.7734857 5.327086 4.5872 5.586286 5.1236567 5.974629 L 5.2157707 5.882059 z " id="club"/>
<g>
<text x="2" y="15">K</text>
<text transform="rotate(180,36,55)" x="2" y="15">K</text>
</g>
<g>
<text x="2" y="15">Q</text>
<text transform="rotate(180,36,55)" x="2" y="15">Q</text>
</g>
<g>
<text x="2" y="15">J</text>
<text transform="rotate(180,36,55)" x="2" y="15">J</text>
</g>
<g>
<text x="2" y="15">10</text>
<text transform="rotate(180,36,55)" x="2" y="15">10</text>
</g>
<g>
<text x="2" y="15">9</text>
<text transform="rotate(180,36,55)" x="2" y="15">9</text>
</g>
<g>
<text x="2" y="15">8</text>
<text transform="rotate(180,36,55)" x="2" y="15">8</text>
</g>
<g>
<text x="2" y="15">7</text>
<text transform="rotate(180,36,55)" x="2" y="15">7</text>
</g>
<g>
<text x="2" y="15">6</text>
<text transform="rotate(180,36,55)" x="2" y="15">6</text>
</g>
<g>
<text x="2" y="15">5</text>
<text transform="rotate(180,36,55)" x="2" y="15">5</text>
</g>
<g>
<text x="2" y="15">4</text>
<text transform="rotate(180,36,55)" x="2" y="15">4</text>
</g>
<g>
<text x="2" y="15">3</text>
<text transform="rotate(180,36,55)" x="2" y="15">3</text>
</g>
<g>
<text x="2" y="15">2</text>
<text transform="rotate(180,36,55)" x="2" y="15">2</text>
</g>
<g>
<text x="2" y="15">A</text>
<text transform="rotate(180,36,55)" x="2" y="15">A</text>
</g>
<g>
<use xlink:href="#out"/>
<use transform="scale(0.5, 0.5)" x="5" xlink:href="#spade" y="35"/>
<use transform="rotate(180,36,55) scale(.5)" x="5" xlink:href="#spade" y="35"/>
</g>
<g>
<use xlink:href="#out"/>
<use transform="scale(0.5, 0.5)" x="5" xlink:href="#heart" y="35"/>
<use transform="rotate(180,36,55) scale(.5)" x="5" xlink:href="#heart" y="35"/>
</g>
<g>
<use xlink:href="#out"/>
<use transform="scale(0.5, 0.5)" x="6" xlink:href="#diamond" y="35"/>
<use transform="rotate(180,36,55) scale(.5)" x="6" xlink:href="#diamond" y="35"/>
</g>
<g>
<use xlink:href="#out"/>
<use transform="scale(.5)" x="5" xlink:href="#club" y="35"/>
<use transform="rotate(180,36,55) scale(.5)" x="5" xlink:href="#club" y="35"/>
</g>
<rect fill="none" height="110" id="out" rx="6" stroke="#000000" stroke-width=".5" width="72"/>
</defs>
<rect fill="none" height="96" width="96"/>
<path d="M 88.0 49.0 C 88.0 78.635 77.639 89.0 48.0 89.0 C 18.366 89.0 8.0 78.635 8.0 49.0 C 8.0 19.367 18.366 9.0 48.0 9.0 C 77.637 9.0 88.0 19.367 88.0 49.0 z " fill-opacity="0.4"/>
<linearGradient gradientTransform="matrix(1 0 0 -1 -300.9004 -120.5996)" gradientUnits="userSpaceOnUse" x1="348.9004" x2="348.9004" y1="-208.5996" y2="-128.5996">
<stop offset="0" stop-color="#003d9d"/>
<stop offset="1" stop-color="#0078d0"/>
</linearGradient>
<path d="M 88.0 48.0 C 88.0 77.635 77.639 88.0 48.0 88.0 C 18.366 88.0 8.0 77.635 8.0 48.0 C 8.0 18.367 18.366 8.0 48.0 8.0 C 77.637 8.0 88.0 18.367 88.0 48.0 z " fill="url(#linearGradient3808)" fill-opacity="1"/>
<linearGradient gradientTransform="matrix(1 0 0 -1 -106.9746 -936.4414)" gradientUnits="userSpaceOnUse" id="SVGID_2_" x1="154.9746" x2="154.9746" y1="-944.6938" y2="-1023.9385">
<stop offset="0" stop-color="#ffffff"/>
<stop offset="1" stop-color="#ffffff" stop-opacity="0"/>
</linearGradient>
<path d="M 48.0 8.0 C 18.366 8.0 8.0 18.367 8.0 48.0 C 8.0 77.635 18.366 88.0 48.0 88.0 C 77.639 88.0 88.0 77.635 88.0 48.0 C 88.0 18.367 77.637 8.0 48.0 8.0 z M 48.0 87.0 C 18.842 87.0 9.0 77.158 9.0 48.0 C 9.0 18.842005 18.842 9.0 48.0 9.0 C 77.159 9.0 87.0 18.842 87.0 48.0 C 87.0 77.158005 77.159 87.0 48.0 87.0 z " fill="url(#SVGID_2_)" fill-opacity="0.15"/>
<linearGradient gradientTransform="matrix(1 0 0 -1 -300.9004 -120.5996)" gradientUnits="userSpaceOnUse" x1="348.9004" x2="348.9004" y1="-188.5996" y2="-143.4277">
<stop offset="0" stop-color="#d0cbc5"/>
<stop offset="0.5031" stop-color="#fafcef"/>
<stop offset="0.9693" stop-color="#ffffff"/>
<stop offset="1" stop-color="#ffffff"/>
</linearGradient>
<linearGradient gradientTransform="matrix(1 0 0 -1 -300.9004 -120.5996)" gradientUnits="userSpaceOnUse" x1="348.9004" x2="348.9004" y1="-186.5996" y2="-184.4551">
<stop offset="0" stop-color="#d0cbc5"/>
<stop offset="0.5031" stop-color="#fafcef"/>
<stop offset="0.9693" stop-color="#ffffff"/>
<stop offset="1" stop-color="#ffffff"/>
</linearGradient>
<use fill="#000034" fill-opacity="1" font-family="Arial" font-size="12px" height="1" transform="matrix(0.73067139,0,0,0.73067139,1.074843,-12.430913)" width="1" x="28" xlink:href="#club" y="47"/>
<use fill="#ff5757" fill-opacity="1" font-family="Arial" font-size="12px" height="1" transform="matrix(0.98532981,0,0,0.98532981,-8.0262529,15.432082)" width="1" x="30" xlink:href="#diamond" y="47"/>
<use fill="#ff5757" fill-opacity="1" font-family="Arial" font-size="12px" height="1" transform="matrix(0.86657849,0,0,0.86657849,36.980847,-19.60869)" width="1" x="30" xlink:href="#heart" y="47"/>
<use fill="#000034" fill-opacity="1" font-family="Arial" font-size="12px" height="1" transform="matrix(0.87118992,0,0,0.87118992,52.523922,45.231904)" width="1" x="12" xlink:href="#spade" y="20"/>
<path d="M 38.625 41.03125 C 38.379032 41.106808 38.213146 41.336502 38.21875 41.59375 L 38.21875 52.75 C 38.22554 53.057804 38.473446 53.30571 38.78125 53.3125 L 45.21875 53.3125 C 45.293 53.316315 45.367287 53.305702 45.4375 53.28125 L 48.0 53.3125 L 50.53125 53.28125 C 50.552067 53.282383 50.572933 53.282383 50.59375 53.28125 C 50.654083 53.30199 50.71745 53.312553 50.78125 53.3125 L 57.21875 53.3125 C 57.526554 53.30571 57.77446 53.057804 57.78125 52.75 L 57.78125 41.59375 C 57.77822 41.348743 57.62035 41.132538 57.387897 41.055054 C 57.15545 40.97757 56.899426 41.055813 56.75 41.25 L 52.625 46.625 L 48.46875 41.28125 C 48.360813 41.129578 48.186157 41.039505 48.0 41.039505 C 47.813843 41.039505 47.639187 41.129578 47.53125 41.28125 L 43.375 46.625 L 39.25 41.25 C 39.10871 41.052486 38.85862 40.964954 38.625 41.03125 z " fill="#f0ff4a" fill-opacity="1" stroke="#c5c5c5" stroke-linecap="round" stroke-linejoin="round" stroke-miterlimit="4" stroke-opacity="1" stroke-width="0" transform="matrix(1.2499573,0,0,1.2499573,-11.997865,-10.949645)"/>
</svg>
