<?xml version="1.0" encoding="UTF-8"?>
<svg xmlns="http://www.w3.org/2000/svg" xmlns:xlink="http://www.w3.org/1999/xlink" baseProfile="tiny" contentScriptType="text/ecmascript" contentStyleType="text/css" height="96px" preserveAspectRatio="xMidYMid meet" version="1.1" viewBox="0 0 96 96" width="96px" x="0px" y="0px" zoomAndPan="magnify">
<defs/>
<path d="M 47.999996 3.0E-6 C 21.519688 3.0E-6 0.0 21.519695 0.0 48.0 C 0.0 74.4803 21.519688 96.0 47.999996 96.0 C 74.48031 96.0 96.0 74.4803 96.0 48.0 C 96.0 21.519695 74.48031 3.0E-6 47.999996 3.0E-6 z " fill="#000000" fill-opacity="0.03921569" stroke="none"/>
<path d="M 92.56175 47.999996 C 92.56175 72.61076 72.61076 92.56175 47.999996 92.56175 C 23.389225 92.56175 3.4382515 72.61076 3.4382515 48.0 C 3.4382515 23.389229 23.389225 3.4382553 47.999996 3.4382553 C 72.61076 3.4382553 92.56175 23.389225 92.56175 48.0 z " fill="#000000" fill-opacity="0.07843137" stroke="none" stroke-miterlimit="4"/>
<rect fill="none" height="96" width="96"/>
<path d="M 88.74238 46.677967 C 88.74238 69.17937 70.501396 87.42035 48.000008 87.42035 C 25.498608 87.42035 7.2576294 69.17935 7.2576294 46.67796 C 7.2576294 24.176567 25.498613 5.935585 48.000008 5.935585 C 70.501396 5.935585 88.74238 24.176565 88.74238 46.67796 z " fill="#fa664b" fill-opacity="1" fill-rule="nonzero" stroke="#fa664b" stroke-dasharray="none" stroke-dashoffset="0" stroke-linecap="round" stroke-linejoin="round" stroke-miterlimit="4" stroke-opacity="1" stroke-width="5"/>
<path d="M 69.345795 25.329975 C 69.268776 25.258936 69.187614 25.19253 69.10272 25.131098 C 68.031494 24.282934 66.49101 24.388182 65.54509 25.374168 L 47.999996 42.919254 L 30.454908 25.374168 C 29.961897 24.854992 29.292568 24.564905 28.576656 24.556576 C 27.86074 24.548275 27.15916 24.822401 26.654213 25.329973 C 26.583153 25.406973 26.51677 25.488161 26.455338 25.573042 C 25.607172 26.644276 25.71242 28.184752 26.698406 29.130672 L 44.243492 46.675762 L 26.654211 64.26504 C 25.616882 65.30236 25.61688 66.984215 26.654211 68.021545 C 27.691542 69.058876 29.373388 69.05887 30.410711 68.021545 L 47.999996 50.432262 L 65.58928 68.02155 C 66.6266 69.058876 68.30846 69.05888 69.34579 68.02155 C 70.38312 66.98422 70.38311 65.302376 69.34579 64.265045 L 51.756496 46.67577 L 69.30159 29.13068 C 69.82077 28.637672 70.110855 27.96834 70.11918 27.252426 C 70.12748 26.53651 69.853355 25.834929 69.34578 25.32998 z " fill="#f1f1f1" fill-opacity="0.94509804"/>
</svg>
