<?xml version="1.0" encoding="UTF-8"?>
<svg xmlns="http://www.w3.org/2000/svg" xmlns:xlink="http://www.w3.org/1999/xlink" baseProfile="tiny" contentScriptType="text/ecmascript" contentStyleType="text/css" height="96px" preserveAspectRatio="xMidYMid meet" version="1.1" viewBox="0 0 96 96" width="96px" x="0px" y="0px" zoomAndPan="magnify">
<defs/>
<path d="M 47.999992 3.5E-6 C 21.519686 3.5E-6 -2.0E-6 21.519695 -2.0E-6 47.999996 C -2.0E-6 74.48031 21.519686 96.0 47.99999 96.0 C 74.48031 96.0 96.0 74.48031 96.0 48.0 C 96.0 21.5197 74.4803 7.6293945E-6 47.99999 7.6293945E-6 z " fill="#000000" fill-opacity="0.03921569" stroke="none"/>
<path d="M 92.56175 47.999996 C 92.56175 72.61076 72.61076 92.561745 47.999992 92.561745 C 23.38922 92.561745 3.4382477 72.61076 3.4382477 47.999996 C 3.4382477 23.389223 23.38922 3.4382515 47.999996 3.4382515 C 72.61076 3.4382515 92.56175 23.389223 92.56175 47.999996 z " fill="#000000" fill-opacity="0.07843137" stroke="none" stroke-miterlimit="4"/>
<rect fill="none" height="96" width="96"/>
<path d="M 88.74238 46.57628 C 88.74238 69.07768 70.50139 87.31865 48.000008 87.31865 C 25.498608 87.31865 7.257633 69.07765 7.257633 46.57626 C 7.257633 24.074867 25.498617 5.833885 48.000008 5.833885 C 70.50139 5.833885 88.74238 24.074865 88.74238 46.57626 z " fill="#f1f1f1" fill-opacity="0.94509804" fill-rule="nonzero" stroke="#fa664b" stroke-dasharray="none" stroke-dashoffset="0" stroke-linecap="round" stroke-linejoin="round" stroke-miterlimit="4" stroke-opacity="1" stroke-width="5"/>
<path d="M 69.345795 25.22828 C 69.268776 25.15724 69.187614 25.090834 69.10272 25.029402 C 68.031494 24.181238 66.49101 24.286486 65.54509 25.272472 L 48.0 42.81756 L 30.45491 25.27247 C 29.961899 24.753294 29.29257 24.463207 28.576658 24.454878 C 27.860743 24.446577 27.159163 24.720703 26.654215 25.228275 C 26.583155 25.305275 26.516771 25.386463 26.45534 25.471344 C 25.607174 26.542578 25.712421 28.083054 26.698408 29.028975 L 44.243496 46.574062 L 26.654213 64.163345 C 25.616882 65.20067 25.616882 66.88252 26.654213 67.91985 C 27.691544 68.957184 29.373388 68.95718 30.410713 67.91985 L 48.0 50.330566 L 65.58928 67.91985 C 66.6266 68.95718 68.30846 68.957184 69.34579 67.91985 C 70.38312 66.88252 70.38311 65.200676 69.34579 64.163345 L 51.756504 46.574062 L 69.30159 29.028975 C 69.82077 28.535967 70.110855 27.866634 70.11918 27.15072 C 70.12748 26.434805 69.853355 25.733223 69.34578 25.228275 z " fill="#fa664b" fill-opacity="1"/>
</svg>
