<?xml version="1.0" encoding="UTF-8"?>
<svg xmlns="http://www.w3.org/2000/svg" xmlns:xlink="http://www.w3.org/1999/xlink" baseProfile="tiny" contentScriptType="text/ecmascript" contentStyleType="text/css" height="30px" preserveAspectRatio="xMidYMid meet" version="1.1" viewBox="0 0 30 30" width="30px" x="0px" y="0px" zoomAndPan="magnify">
<defs/>
<path d="M 15.21875 5.90625 L 15.21875 5.9375 C 14.555009 6.1753 14.170533 6.802362 14.1875 7.4375 L 14.15625 7.4375 L 14.15625 10.375 L 3.625 10.375 C 2.753378 10.3766 2.0328932 11.097125 2.03125 11.96875 L 2.03125 18.03125 C 2.03289 18.902878 2.753367 19.623358 3.625 19.625 L 14.15625 19.625 L 14.15625 22.5625 L 14.1875 22.5625 C 14.17763 23.114 14.431662 23.702297 15.0 24.0 C 15.5612545 24.293991 16.185389 24.24661 16.6875 23.875 C 16.69898 23.8665 16.70739 23.85258 16.71875 23.84375 L 27.21875 16.34375 L 27.28125 16.3125 L 27.25 16.28125 C 27.689953 15.971823 27.96875 15.497359 27.96875 15.0 C 27.96875 14.502642 27.689943 14.028174 27.25 13.71875 L 27.28125 13.6875 L 27.21875 13.65625 L 16.6875 6.125 L 16.6875 6.15625 C 16.6781 6.14912 16.66565 6.16314 16.65625 6.15625 C 16.220434 5.8368745 15.741351 5.752301 15.25 5.90625 C 15.2394 5.90957 15.22935 5.90273 15.21875 5.90625 z " fill="#000000" fill-opacity="0.11764706"/>
<path d="M 15.543131 5.809773 C 15.27864 5.895371 15.104156 6.1473994 15.117138 6.425097 L 15.117138 10.3537 L 3.615323 10.3537 C 3.2757552 10.354341 3.0006404 10.629456 3.0 10.969024 L 3.0 17.027592 C 3.0006402 17.367155 3.275755 17.642273 3.615323 17.642914 L 15.117138 17.642914 L 15.117138 21.571518 C 15.103818 21.81274 15.232625 22.039515 15.446633 22.151613 C 15.660643 22.263714 15.920406 22.240473 16.111122 22.092173 L 26.71362 14.518963 C 26.891937 14.405904 27.0 14.20945 27.0 13.998308 C 27.0 13.787164 26.891937 13.59071 26.71362 13.477649 L 16.111122 5.9044385 C 15.949065 5.780968 15.736474 5.7455363 15.543131 5.809773 z " fill="#000000" fill-opacity="0.11764706"/>
<rect fill="none" height="30" width="30"/>
<path d="M 15.543131 6.809612 C 15.27864 6.89521 15.104156 7.1472383 15.117138 7.424936 L 15.117138 11.3535385 L 3.615323 11.3535385 C 3.2757552 11.354179 3.0006404 11.629294 3.0 11.968863 L 3.0 18.027431 C 3.0006402 18.366995 3.275755 18.642113 3.615323 18.642754 L 15.117138 18.642754 L 15.117138 22.571358 C 15.103818 22.81258 15.232625 23.039354 15.446633 23.151453 C 15.660643 23.263554 15.920406 23.240313 16.111122 23.092012 L 26.71362 15.518803 C 26.891937 15.405743 27.0 15.209289 27.0 14.998147 C 27.0 14.787003 26.891937 14.590549 26.71362 14.477488 L 16.111122 6.904278 C 15.949065 6.780807 15.736474 6.745375 15.543131 6.809612 z " fill="#ffffff" fill-opacity="1"/>
</svg>
