<?xml version="1.0" encoding="UTF-8"?>
<svg xmlns="http://www.w3.org/2000/svg" xmlns:xlink="http://www.w3.org/1999/xlink" baseProfile="tiny" contentScriptType="text/ecmascript" contentStyleType="text/css" height="20px" preserveAspectRatio="xMidYMid meet" version="1.1" viewBox="0 0 306 20" width="306px" x="0px" y="0px" zoomAndPan="magnify">
<g>
<g>
<path d="M 5.691 15.313 C 1.1100001 15.313 0.49300003 12.625 0.49300003 9.995 C 0.49300003 7.372 1.11 4.69 5.691 4.69 L 300.31 4.69 C 304.88998 4.69 305.507 7.379 305.507 10.01 C 305.507 12.6310005 304.88998 15.313 300.31 15.313 L 5.691 15.313 z " fill="url(#SVGID_1_)" fill-opacity="0.3" stroke-opacity="0.3"/>
<path d="M 300.31 5.689 C 303.735 5.689 304.507 7.209 304.507 10.009001 C 304.507 12.794001 303.757 14.312 300.31 14.312 L 5.691 14.312 C 2.265 14.312 1.493 12.792 1.493 9.994 C 1.493 7.2070007 2.243 5.6890006 5.691 5.6890006 L 300.31 5.6890006 " fill="#fa664b"/>
<defs>
<linearGradient gradientUnits="userSpaceOnUse" id="SVGID_1_" x1="153.0002" x2="153.0002" xlink:actuate="onLoad" xlink:show="other" xlink:type="simple" y1="15.3125" y2="4.6899">
<stop offset="0" stop-color="#ffffff"/>
<stop offset="1" stop-color="#ffffff" stop-opacity="0"/>
</linearGradient>
</defs>
</g>
<rect fill="none" height="20" width="306" x="0"/>
<g fill-opacity="0.5" stroke-opacity="0.5">
<polygon fill="#ffffff" points="11.066,5.704 3.097,13.682 6.113,13.683 14.066,5.704   "/>
<path d="M 1.746 7.855 L 3.642 5.953 C 2.599 6.284 2.031 6.928 1.746 7.855 z " fill="#ffffff"/>
<polygon fill="#ffffff" points="21.222,5.704 13.254,13.683 16.269,13.683 24.222,5.704   "/>
<polygon fill="#ffffff" points="31.377,5.704 23.408,13.683 26.424,13.683 34.377,5.704   "/>
<polygon fill="#ffffff" points="41.533,5.704 33.564,13.683 36.58,13.683 44.533,5.704   "/>
<polygon fill="#ffffff" points="51.688,5.704 43.719,13.683 46.735,13.683 54.688,5.704   "/>
<polygon fill="#ffffff" points="61.844,5.704 53.875,13.683 56.89,13.683 64.844,5.704   "/>
<polygon fill="#ffffff" points="72,5.703 64.031,13.683 67.047,13.683 75,5.703   "/>
<polygon fill="#ffffff" points="82.155,5.703 74.186,13.683 77.202,13.683 85.155,5.703   "/>
<polygon fill="#ffffff" points="92.31,5.703 84.342,13.683 87.357,13.683 95.31,5.703   "/>
<polygon fill="#ffffff" points="102.467,5.703 94.498,13.683 97.513,13.683 105.467,5.703   "/>
<polygon fill="#ffffff" points="112.621,5.704 104.652,13.683 107.668,13.683 115.621,5.704   "/>
<polygon fill="#ffffff" points="122.777,5.704 114.808,13.683 117.824,13.683 125.777,5.704   "/>
<polygon fill="#ffffff" points="132.932,5.704 124.964,13.683 127.979,13.683 135.932,5.704   "/>
<polygon fill="#ffffff" points="143.088,5.703 135.119,13.683 138.135,13.683 146.088,5.703   "/>
<polygon fill="#ffffff" points="153.244,5.704 145.275,13.683 148.291,13.683 156.244,5.704   "/>
<polygon fill="#ffffff" points="163.399,5.704 155.43,13.683 158.446,13.683 166.399,5.704   "/>
<polygon fill="#ffffff" points="173.554,5.703 165.586,13.683 168.601,13.683 176.554,5.703   "/>
<polygon fill="#ffffff" points="183.711,5.703 175.742,13.683 178.758,13.683 186.711,5.703   "/>
<polygon fill="#ffffff" points="193.866,5.704 185.897,13.683 188.913,13.683 196.866,5.704   "/>
<polygon fill="#ffffff" points="204.021,5.703 196.052,13.683 199.068,13.683 207.021,5.703   "/>
<polygon fill="#ffffff" points="214.177,5.704 206.209,13.683 209.224,13.683 217.177,5.704   "/>
<polygon fill="#ffffff" points="224.332,5.703 216.363,13.683 219.379,13.683 227.332,5.703   "/>
<polygon fill="#ffffff" points="234.488,5.703 226.519,13.683 229.535,13.683 237.488,5.703   "/>
<polygon fill="#ffffff" points="244.643,5.703 236.675,13.683 239.69,13.683 247.643,5.703   "/>
<polygon fill="#ffffff" points="254.799,5.703 246.83,13.683 249.845,13.683 257.799,5.703   "/>
<polygon fill="#ffffff" points="264.955,5.703 256.986,13.683 260.002,13.683 267.955,5.703   "/>
<polygon fill="#ffffff" points="275.11,5.703 267.141,13.683 270.157,13.683 278.11,5.703   "/>
<polygon fill="#ffffff" points="285.265,5.703 277.297,13.683 280.312,13.683 288.265,5.703   "/>
<polygon fill="#ffffff" points="295.422,5.704 287.453,13.683 290.469,13.683 298.422,5.704   "/>
<path d="M 300.623 13.683 L 304.504 9.789 C 304.488 8.766 304.354 7.924 304.008 7.273999 L 297.608 13.681999 L 300.623 13.681999 z " fill="#ffffff"/>
</g>
<g>
<path d="M 5.689 7.379 L 300.134 7.379 C 303.21802 7.379 304.146 8.619 304.3 10.906 C 304.31998 10.648 304.33298 10.386 304.33298 10.101 C 304.33298 7.3 303.56097 5.7809997 300.13397 5.7809997 L 5.689 5.7809997 C 2.242 5.7809997 1.493 7.299 1.493 10.086 C 1.493 10.365 1.5070001 10.622999 1.524 10.877 C 1.68 8.609 2.594 7.379 5.689 7.379 z " fill="#191919" fill-opacity="0.1" stroke-opacity="0.1"/>
<path d="M 5.689 6.58 L 300.134 6.58 C 303.388 6.58 304.239 7.967 304.318 10.504 C 304.32098 10.369 304.33398 10.244 304.33398 10.101999 C 304.33398 7.300999 303.56198 5.781999 300.13498 5.781999 L 5.689 5.781999 C 2.242 5.781999 1.493 7.299999 1.493 10.086999 C 1.493 10.227999 1.5040001 10.348999 1.5090001 10.482999 C 1.587 7.961 2.419 6.58 5.689 6.58 z " fill="#6f6f6e"/>
</g>
</g>
</svg>
