<?xml version="1.0" encoding="UTF-8"?>
<svg xmlns="http://www.w3.org/2000/svg" xmlns:xlink="http://www.w3.org/1999/xlink" baseProfile="tiny" contentScriptType="text/ecmascript" contentStyleType="text/css" height="57px" preserveAspectRatio="xMidYMid meet" version="1.1" viewBox="0 0 67 57" width="67px" x="0px" y="0px" zoomAndPan="magnify">
<rect color="#000000" display="inline" fill="#0500a7" fill-opacity="0.58823528999999997" fill-rule="nonzero" height="48" ry="8.2174387" stroke="none" visibility="visible" width="48" x="9.5" y="5.5"/>
<defs>
<linearGradient gradientUnits="userSpaceOnUse" x1="37.498" x2="37.498" xlink:actuate="onLoad" xlink:show="other" xlink:type="simple" y1="53.4639" y2="13.0005">
<stop offset="0" stop-color="#d0cbc5"/>
<stop offset="0.5031" stop-color="#fafcef"/>
<stop offset="0.9693" stop-color="#ffffff"/>
<stop offset="1" stop-color="#ffffff"/>
</linearGradient>
</defs>
<path d="M 44.57692 43.26923 L 44.57692 13.73077 C 44.57692 13.053845 44.023075 12.5 43.346153 12.5 L 23.653843 12.5 C 22.976921 12.5 22.423073 13.053845 22.423073 13.730768 L 22.423073 43.269226 C 22.42308 43.94615 22.976923 44.5 23.65385 44.5 L 43.34616 44.5 C 44.023083 44.5 44.576927 43.94615 44.576927 43.26923 z M 43.34616 36.5 L 43.34616 38.961536 L 40.88462 38.961536 L 40.88462 36.5 L 43.34616 36.5 z M 43.34616 32.807693 L 43.34616 35.26923 L 40.88462 35.26923 L 40.88462 32.807693 L 43.34616 32.807693 z M 43.34616 29.115383 L 43.34616 31.57692 L 40.88462 31.57692 L 40.88462 29.115381 L 43.34616 29.115381 z M 43.34616 21.730766 L 43.34616 24.192305 L 40.88462 24.192305 L 40.88462 21.730766 L 43.34616 21.730766 z M 43.34616 18.038458 L 43.34616 20.499998 L 40.88462 20.499998 L 40.88462 18.038462 L 43.34616 18.038462 z M 43.34616 14.346159 L 43.34616 16.807697 L 40.88462 16.807697 L 40.88462 14.346157 L 43.34616 14.346157 z M 39.65385 14.346155 L 39.65385 27.269232 L 27.346159 27.269232 L 27.346159 14.346155 L 39.65385 14.346155 z M 23.653852 16.807695 L 23.653852 14.346155 L 26.115393 14.346155 L 26.115393 16.807695 L 23.653852 16.807695 z M 23.653852 20.500002 L 23.653852 18.038464 L 26.115393 18.038464 L 26.115393 20.500002 L 23.653852 20.500002 z M 23.653852 24.19231 L 23.653852 21.730772 L 26.115393 21.730772 L 26.115393 24.19231 L 23.653852 24.19231 z M 23.653852 27.88462 L 23.653852 25.423082 L 26.115393 25.423082 L 26.115393 27.88462 L 23.653852 27.88462 z M 40.88462 27.88462 L 40.88462 25.423082 L 43.34616 25.423082 L 43.34616 27.88462 L 40.88462 27.88462 z M 23.65385 31.576927 L 23.65385 29.115389 L 26.11539 29.115389 L 26.11539 31.576927 L 23.65385 31.576927 z M 23.65385 35.269234 L 23.65385 32.807697 L 26.11539 32.807697 L 26.11539 35.269234 L 23.65385 35.269234 z M 23.65385 38.961544 L 23.65385 36.500008 L 26.11539 36.500008 L 26.11539 38.961544 L 23.65385 38.961544 z M 23.65385 42.65385 L 23.65385 40.192314 L 26.11539 40.192314 L 26.11539 42.65385 L 23.65385 42.65385 z M 27.346159 42.65385 L 27.346159 29.730778 L 39.653847 29.730778 L 39.653847 42.65385 L 27.346155 42.65385 z M 40.884617 42.65385 L 40.884617 40.192314 L 43.346157 40.192314 L 43.346157 42.65385 L 40.884617 42.65385 z " fill="#ffffff"/>
</svg>
