<?xml version="1.0" encoding="UTF-8"?>
<svg xmlns="http://www.w3.org/2000/svg" xmlns:xlink="http://www.w3.org/1999/xlink" baseProfile="tiny" contentScriptType="text/ecmascript" contentStyleType="text/css" height="70px" preserveAspectRatio="xMidYMid meet" version="1.1" viewBox="0 0 70 70" width="70px" x="0px" y="0px" zoomAndPan="magnify">
<rect color="#000000" display="inline" fill="#353535" fill-opacity="0.58823529" fill-rule="nonzero" height="48" ry="8.2174387" stroke="none" visibility="visible" width="48" x="11" y="11"/>
<defs>
<linearGradient gradientUnits="userSpaceOnUse" x1="34.7925" x2="34.7925" xlink:actuate="onLoad" xlink:show="other" xlink:type="simple" y1="61.2329" y2="8.3545">
<stop offset="0" stop-color="#d0cbc5"/>
<stop offset="0.5031" stop-color="#fafcef"/>
<stop offset="0.9693" stop-color="#ffffff"/>
<stop offset="1" stop-color="#ffffff"/>
</linearGradient>
</defs>
<path d="M 19.59375 17.53125 L 19.59375 17.59375 C 18.329754 17.832989 17.34375 19.086702 17.34375 20.59375 L 17.34375 46.46875 C 17.34375 48.144176 18.650726 49.53125 20.25 49.53125 L 36.9375 49.53125 C 36.800514 48.93129 36.49151 48.19142 35.78125 47.375 C 35.68747 47.28109 34.012238 45.59638 32.90625 43.125 C 32.337753 41.85467 31.925213 40.372585 32.03125 38.78125 C 32.137287 37.189915 32.801987 35.5107 34.25 34.0625 C 35.697968 32.61472 37.375805 31.91803 38.96875 31.8125 C 39.559017 31.7734 40.131767 31.7943 40.6875 31.875 L 40.71875 31.875 C 41.169804 31.158619 41.406242 30.458584 41.40625 29.8125 C 41.40624 29.014093 41.133324 28.329708 40.5625 27.78125 C 39.991657 27.232817 39.230297 26.968765 38.3125 26.96875 C 37.342453 26.968765 36.58202 27.261742 36.0 27.84375 C 35.417973 28.425789 35.1325 29.220278 35.125 30.25 L 33.03125 30.03125 C 33.173023 28.48666 33.730976 27.309626 34.65625 26.5 C 35.581512 25.69041 36.81547 25.281265 38.375 25.28125 C 39.949436 25.28127 41.175934 25.751982 42.09375 26.625 C 43.011543 27.498049 43.468742 28.584114 43.46875 29.875 C 43.468742 30.531654 43.362366 31.147005 43.09375 31.78125 C 43.00584 31.98881 42.87676 32.21875 42.75 32.4375 C 45.55721 33.51108 47.505005 35.564415 47.5625 35.625 L 47.59375 35.59375 C 48.27158 36.19334 48.855354 36.51135 49.34375 36.6875 L 49.34375 20.59375 C 49.34375 19.038702 48.30693 17.743069 46.96875 17.5625 L 46.96875 17.53125 L 19.59375 17.53125 z M 27.9375 25.28125 L 29.21875 25.28125 L 29.21875 41.78125 L 27.21875 41.78125 L 27.21875 28.9375 C 26.733727 29.400146 26.099718 29.849874 25.3125 30.3125 C 24.52527 30.775146 23.814293 31.143692 23.1875 31.375 L 23.1875 29.40625 C 24.314234 28.876474 25.281803 28.253662 26.125 27.5 C 26.968182 26.746367 27.586786 25.990143 27.9375 25.28125 z M 39.03125 32.9375 C 37.685337 33.02666 36.306847 33.568317 35.03125 34.84375 C 29.929525 39.946136 36.625 46.65625 36.625 46.65625 C 38.57735 48.90043 38.09375 51.03125 38.09375 51.03125 L 39.5625 52.46875 L 44.5625 47.46875 C 44.903847 48.281513 45.717377 48.84375 46.65625 48.84375 C 47.904114 48.84375 48.90625 47.841618 48.90625 46.59375 C 48.90625 45.65686 48.344013 44.842007 47.53125 44.5 L 52.65625 39.375 L 51.40625 38.09375 L 51.21875 37.90625 C 51.21875 37.90625 49.291943 38.60311 46.84375 36.4375 C 46.84375 36.4375 43.068985 32.670006 39.03125 32.9375 z " fill="#ffffff" fill-opacity="1" stroke-opacity="0.3"/>
</svg>
