<?xml version="1.0" encoding="UTF-8"?>
<svg xmlns="http://www.w3.org/2000/svg" xmlns:xlink="http://www.w3.org/1999/xlink" baseProfile="tiny" contentScriptType="text/ecmascript" contentStyleType="text/css" height="57px" preserveAspectRatio="xMidYMid meet" version="1.1" viewBox="0 0 67 57" width="67px" x="0px" y="0px" zoomAndPan="magnify">
<rect fill="#1083ff" fill-opacity="0.58823532" fill-rule="nonzero" height="48" ry="8.2174387" stroke="none" width="48" x="9.5" y="4.5"/>
<rect fill="none" height="57" width="67"/>
<rect fill="none" height="46" width="46" x="10.5" y="5.5"/>
<defs>
<linearGradient gradientUnits="userSpaceOnUse" x1="33.5005" x2="33.5005" xlink:actuate="onLoad" xlink:show="other" xlink:type="simple" y1="45.6924" y2="10.3081">
<stop offset="0" stop-color="#d0cbc5"/>
<stop offset="0.5031" stop-color="#fafcef"/>
<stop offset="0.9693" stop-color="#ffffff"/>
<stop offset="1" stop-color="#ffffff"/>
</linearGradient>
</defs>
<path color="#000000" d="M 28.364183 15.982154 C 27.823664 16.058674 27.362192 16.354004 27.129616 16.772278 L 24.561714 21.266104 C 24.543774 21.298483 24.527294 21.331434 24.512344 21.364874 L 19.52469 21.364874 C 18.41476 21.364874 17.5 22.279633 17.5 23.389566 L 17.5 38.9945 C 17.5 40.10443 18.41476 41.01919 19.524693 41.01919 L 47.475307 41.01919 C 48.585236 41.01919 49.5 40.10443 49.5 38.9945 L 49.5 23.389565 C 49.5 22.279633 48.585236 21.364874 47.475307 21.364874 L 42.487656 21.364874 C 42.472637 21.331434 42.456207 21.298485 42.438274 21.266104 L 39.870358 16.772274 C 39.585953 16.280293 38.98873 15.972051 38.339493 15.982152 L 28.66048 15.982152 C 28.61112 15.980352 28.5617 15.980352 28.512337 15.982152 C 28.462976 15.980352 28.413557 15.980352 28.364193 15.982152 z M 33.499996 23.528278 C 37.552673 23.528278 40.85802 26.785742 40.85802 30.836922 C 40.85802 34.889202 37.55227 38.194942 33.499996 38.194942 C 29.448818 38.194942 26.141972 34.889187 26.141972 30.836922 C 26.141972 26.785751 29.448423 23.52828 33.499996 23.52828 z M 33.499996 24.76285 C 30.155607 24.76285 27.425922 27.492537 27.425922 30.836926 C 27.425922 34.18131 30.15561 36.910995 33.499996 36.910995 C 36.844383 36.910995 39.57407 34.18131 39.57407 30.836926 C 39.57407 27.492535 36.844383 24.76285 33.499996 24.76285 z " display="inline" fill="#ffffff" fill-opacity="1" fill-rule="nonzero" stroke="none" visibility="visible"/>
</svg>
