<?xml version="1.0" encoding="UTF-8"?>
<svg xmlns="http://www.w3.org/2000/svg" xmlns:xlink="http://www.w3.org/1999/xlink" baseProfile="tiny" contentScriptType="text/ecmascript" contentStyleType="text/css" height="30px" preserveAspectRatio="xMidYMid meet" version="1.1" viewBox="0 0 30 30" width="30px" x="0px" y="0px" zoomAndPan="magnify">
<defs/>
<path d="M 19.0 2.125 C 18.501102 2.125 17.932053 2.331473 17.53125 2.78125 L 7.96875 13.5625 C 7.235391 14.385476 7.235394 15.614523 7.96875 16.4375 L 17.53125 27.21875 C 18.289915 28.070126 19.710085 28.070126 20.46875 27.21875 L 22.03125 25.4375 C 22.78022 24.597008 22.780216 23.371744 22.03125 22.53125 L 16.75 16.59375 C 16.739584 16.593586 16.729166 16.593586 16.71875 16.59375 C 16.211365 16.03735 15.864274 15.611151 15.6875 15.34375 C 15.510726 15.076349 15.530765 15.008569 15.53125 15.0 C 15.531735 14.9914 15.55103 14.90469 15.75 14.625 C 15.945939 14.349575 16.303238 13.938434 16.75 13.40625 C 16.7569 13.39805 16.743 13.3833 16.75 13.375 L 22.03125 7.46875 C 22.780222 6.6282573 22.780222 5.4029922 22.03125 4.5625 L 20.46875 2.78125 C 20.067944 2.3314664 19.498898 2.125 19.0 2.125 z " fill="#e2e2e2" fill-opacity="1"/>
<rect fill="none" height="30" width="30"/>
<rect color="#000000" display="inline" fill="#bfbfbf" fill-opacity="0" fill-rule="nonzero" height="25" ry="5.5297503" stroke="none" stroke-width="1" visibility="visible" width="25" x="2.5" y="2.5"/>
<path d="M 16.000002 12.755597 L 21.293003 6.815786 C 21.682005 6.37925 21.682005 5.6655283 21.293003 5.2289925 L 19.707005 3.4491825 C 19.318005 3.012646 18.682005 3.012646 18.293 3.4491825 L 8.707 14.206602 C 8.318 14.643138 8.318 15.356858 8.707 15.793396 L 18.293 26.550816 C 18.682 26.987352 19.318 26.987352 19.707 26.550816 L 21.293 24.771004 C 21.682 24.334469 21.682 23.620749 21.293 23.184212 L 16.0 17.2444 C 13.934582 14.979459 14.193942 14.908011 16.0 12.755596 z " fill="#575757"/>
<rect fill="none" height="33.177967" width="30" x="-32.923729" y="-4.0042377"/>
</svg>
