<?xml version="1.0" encoding="UTF-8"?>
<svg xmlns="http://www.w3.org/2000/svg" xmlns:xlink="http://www.w3.org/1999/xlink" baseProfile="tiny" contentScriptType="text/ecmascript" contentStyleType="text/css" height="30px" preserveAspectRatio="xMidYMid meet" version="1.1" viewBox="0 0 30 30" width="30px" x="0px" y="0px" zoomAndPan="magnify">
<rect fill="none" height="30" width="30"/>
<g>
<path d="M 25.609 11.484 L 17.544998 11.484 L 17.544998 3.421 C 17.544998 3.149 17.438997 2.8899999 17.241999 2.694 C 17.045 2.4980001 16.787998 2.39 16.515 2.39 L 13.483 2.39 C 12.915 2.39 12.452 2.8520002 12.452 3.42 L 12.452 11.483 L 4.391 11.483 C 3.8229997 11.483 3.3599997 11.945 3.3599997 12.513 L 3.3599997 15.544 C 3.3599997 16.112 3.8219995 16.574 4.391 16.574 L 12.453 16.574 L 12.453 24.637 C 12.453 25.203999 12.915 25.665998 13.484 25.665998 L 16.516 25.665998 C 17.083 25.665998 17.545 25.203999 17.545 24.637 L 17.545 16.574 L 25.609001 16.574 C 26.177002 16.574 26.639002 16.112 26.639002 15.544 L 26.639002 12.513 C 26.64 11.946 26.178 11.484 25.609 11.484 z " fill-opacity="0.3" stroke-opacity="0.3"/>
<path d="M 13.483 27.609 C 12.38 27.609 11.483 26.712 11.483 25.609 L 11.483 18.515999 L 4.391 18.515999 C 3.2879996 18.515999 2.3909998 17.619 2.3909998 16.515 L 2.3909998 13.483999 C 2.3909998 12.381 3.2879999 11.483999 4.391 11.483999 L 11.483 11.483999 L 11.483 4.392 C 11.483 3.289 12.38 2.3920002 13.483 2.3920002 L 16.515 2.3920002 C 17.046 2.3920002 17.548 2.6000001 17.927 2.9800003 C 18.306 3.3570004 18.515 3.8600001 18.515 4.393 L 18.515 11.486 L 25.609 11.486 C 26.713 11.486 27.609999 12.383 27.609999 13.486 L 27.609999 16.517 C 27.609999 17.621 26.713 18.518 25.609 18.518 L 18.515 18.518 L 18.515 25.611 C 18.515 26.714 17.618 27.611 16.515 27.611 L 13.483 27.611 z " fill-opacity="0.15" stroke-opacity="0.15"/>
<path d="M 25.609 12.454 L 17.544998 12.454 L 17.544998 4.392 C 17.544998 4.1190004 17.438997 3.861 17.241999 3.6650002 C 17.046 3.469 16.787998 3.3610003 16.515 3.3610003 L 13.483 3.3610003 C 12.915 3.3610003 12.452 3.8230004 12.452 4.392 L 12.452 12.455 L 4.391 12.455 C 3.8229997 12.455 3.3599997 12.917 3.3599997 13.486 L 3.3599997 16.517 C 3.3599997 17.085001 3.8219995 17.547 4.391 17.547 L 12.453 17.547 L 12.453 25.61 C 12.453 26.177 12.915 26.639 13.484 26.639 L 16.516 26.639 C 17.083 26.639 17.545 26.177 17.545 25.61 L 17.545 17.547 L 25.609001 17.547 C 26.177002 17.547 26.639002 17.085001 26.639002 16.517 L 26.639002 13.486 C 26.64 12.917 26.178 12.454 25.609 12.454 z " fill-opacity="0.15" stroke-opacity="0.15"/>
<path d="M 25.609 12.454 L 17.544998 12.454 L 17.544998 4.392 C 17.544998 4.1190004 17.438997 3.861 17.241999 3.6650002 C 17.046 3.469 16.787998 3.3610003 16.515 3.3610003 L 13.483 3.3610003 C 12.915 3.3610003 12.452 3.8230004 12.452 4.392 L 12.452 12.455 L 4.391 12.455 C 3.8229997 12.455 3.3599997 12.917 3.3599997 13.486 L 3.3599997 16.517 C 3.3599997 17.085001 3.8219995 17.547 4.391 17.547 L 12.453 17.547 L 12.453 25.61 C 12.453 26.177 12.915 26.639 13.484 26.639 L 16.516 26.639 C 17.083 26.639 17.545 26.177 17.545 25.61 L 17.545 17.547 L 25.609001 17.547 C 26.177002 17.547 26.639002 17.085001 26.639002 16.517 L 26.639002 13.486 C 26.64 12.917 26.178 12.454 25.609 12.454 z " fill="#575757"/>
</g>
</svg>
