<?xml version="1.0" encoding="UTF-8"?>
<svg xmlns="http://www.w3.org/2000/svg" xmlns:xlink="http://www.w3.org/1999/xlink" baseProfile="tiny" contentScriptType="text/ecmascript" contentStyleType="text/css" height="30px" preserveAspectRatio="xMidYMid meet" version="1.1" viewBox="0 0 30 30" width="30px" x="0px" y="0px" zoomAndPan="magnify">
<path d="M 7.189 29.0 C 7.027 29.0 6.862 28.98 6.701 28.941 C 4.5720005 28.434 3.0060005 27.364 2.0430002 25.759 C 0.3510002 22.939 1.2180002 19.521 1.2550002 19.377 C 2.0700002 15.018001 5.0550003 11.314001 6.838 9.432001 C 6.871 9.384 6.91 9.337 6.953 9.294 L 8.797 7.4489994 C 8.826 7.418999 8.859 7.3909993 8.891 7.365999 C 10.194 6.0489993 14.372 2.190999 19.447 1.2409992 C 19.446 1.2419993 19.446 1.2419993 19.446 1.2419993 C 19.436 1.2419993 20.384 0.9999993 21.655998 0.9999993 C 23.87 0.9999993 27.759998 1.7409992 28.941998 6.7019997 C 29.254995 8.013 28.280998 8.922999 27.655998 9.254 C 27.617998 9.275 27.579 9.292 27.537998 9.307 L 23.277 10.899 C 22.909998 11.082 22.534998 11.173 22.163998 11.173 L 22.163998 11.173 C 21.352997 11.173 20.832998 10.747001 20.630997 10.543 C 20.630997 10.543 18.557997 8.825 18.549995 8.819 C 18.545998 8.816 18.389996 8.715 18.028996 8.715 C 17.253998 8.715 15.486998 9.166 12.370997 12.188 C 12.357998 12.2 12.103997 12.451 12.103997 12.451 C 7.8799977 16.808 8.686997 18.512 8.748997 18.622 L 10.527997 20.613 C 10.962997 21.029 11.516997 22.033998 10.899997 23.279 L 9.303997 27.542 C 9.288997 27.582 9.271997 27.62 9.251997 27.657 C 9.18 27.794 8.506 29.0 7.189 29.0 L 7.189 29.0 z " fill-opacity="0.15" stroke-opacity="0.15"/>
<path d="M 27.969 5.934 C 26.422 -0.5580001 19.63 1.2249999 19.63 1.2249999 C 14.766001 2.135 10.748001 5.893 9.512001 7.162 L 9.504 7.156 L 7.66 9.001 L 7.669 9.01 C 6.11 10.635 3.0350003 14.297001 2.223 18.631 C 2.223 18.631 0.444 25.424 6.933 26.969002 C 7.843 27.186 8.368 26.191002 8.368 26.191002 L 9.983 21.876 C 10.497 20.894 9.815 20.315 9.815 20.315 L 7.936 18.213 C 8.12 18.372002 5.899 16.416 11.398 10.744001 L 11.398 10.742002 L 11.672 10.469002 L 11.674 10.470002 C 17.348 4.9690022 19.301 7.1900024 19.143 7.010002 L 21.314 8.812002 C 21.314 8.812002 21.893 9.497003 22.874 8.982002 L 27.188 7.371002 C 27.188 7.37 28.186 6.842 27.969 5.934 z " fill-opacity="0.3" stroke-opacity="0.3"/>
<path d="M 27.969 6.934 C 26.422 0.4419999 19.63 2.225 19.63 2.225 C 14.766001 3.135 10.748001 6.893 9.512001 8.162 L 9.504 8.156 L 7.66 10.001 L 7.669 10.01 C 6.1099997 11.635 3.0349998 15.297001 2.2229996 19.631 C 2.2229996 19.631 0.44399953 26.424 6.933 27.969002 C 7.843 28.186 8.368 27.191002 8.368 27.191002 L 9.983 22.876 C 10.497 21.894 9.815 21.315 9.815 21.315 L 7.936 19.213 C 8.12 19.372002 5.899 17.416 11.398 11.744001 L 11.398 11.742002 L 11.672 11.469002 L 11.674 11.470002 C 17.348 5.9690022 19.301 8.190002 19.143 8.010002 L 21.314 9.812002 C 21.314 9.812002 21.893 10.497003 22.874 9.982002 L 27.188 8.371002 C 27.188 8.37 28.186 7.842 27.969 6.934 z " fill="#575757"/>
<rect fill="none" height="30" width="30"/>
</svg>
