<?xml version="1.0" encoding="UTF-8"?>
<svg xmlns="http://www.w3.org/2000/svg" xmlns:xlink="http://www.w3.org/1999/xlink" baseProfile="tiny" contentScriptType="text/ecmascript" contentStyleType="text/css" height="75px" preserveAspectRatio="xMidYMid meet" version="1.1" viewBox="0 0 75 75" width="75px" x="0px" y="0px" zoomAndPan="magnify">
<rect fill="none" height="75" width="75"/>
<radialGradient cx="386.5029" cy="129.1045" gradientTransform="matrix(-0.5 0.866 0.866 0.5 144.9315 -346.7672)" gradientUnits="userSpaceOnUse" id="SVGID_1_" r="66.0139" xlink:actuate="onLoad" xlink:show="other" xlink:type="simple" xmlns:xlink="http://www.w3.org/1999/xlink">
<stop offset="0" stop-color="#ffffff"/>
<stop offset="1" stop-color="#fa664b"/>
</radialGradient>
<path d="M 66.942 54.5 C 76.333 38.234 70.763 17.444 54.499 8.055 C 38.235 -1.336 17.443 4.235 8.054 20.498 C -1.3380003 36.765 4.234 57.555 20.498 66.943 C 36.764 76.337 57.552 70.768 66.942 54.5 z M 12.384 23.0 C 20.391 9.131 38.14 4.384 52.0 12.386 C 65.869 20.393 70.62 38.131 62.613 52.0 C 54.611 65.859 36.87 70.622 23.0 62.614 C 9.141 54.614 4.383 36.86 12.384 23.0 z " fill="url(#SVGID_1_)"/>
</svg>
