<?xml version="1.0" encoding="UTF-8"?>
<svg xmlns="http://www.w3.org/2000/svg" xmlns:xlink="http://www.w3.org/1999/xlink" baseProfile="tiny" contentScriptType="text/ecmascript" contentStyleType="text/css" height="30px" preserveAspectRatio="xMidYMid meet" version="1.1" viewBox="0 0 30 30" width="30px" x="0px" y="0px" zoomAndPan="magnify">
<defs/>
<path d="M 27.01088 15.056376 C 27.01088 21.174866 21.638369 26.134884 15.011038 26.134884 C 8.383708 26.134884 3.011196 21.174866 3.011196 15.056376 C 3.011196 8.937886 8.383708 3.97787 15.011038 3.97787 C 21.638369 3.97787 27.01088 8.937886 27.01088 15.056376 z " fill="#cecece" fill-opacity="0" fill-rule="nonzero" stroke="#f9997d" stroke-dasharray="none" stroke-miterlimit="4" stroke-opacity="1" stroke-width="0.83854364000000003" transform="matrix(0.91667876,0,0,0.99291362,1.2397005,0.05031878)"/>
<path d="M 13.316859 18.815308 C 12.263742 19.104914 11.526559 19.104914 11.052656 19.078588 C 10.552425 19.10492 9.841569 19.10492 8.788451 18.815308 C 8.340876 18.709995 7.9722843 18.552027 7.656349 18.367731 L 7.682679 18.315071 C 7.735339 17.999138 8.130255 17.81484 8.130255 17.81484 C 8.683142 17.472576 9.209701 17.261951 9.209701 17.261951 C 9.815244 17.025 9.920555 16.49844 9.946883 16.419456 C 9.973213 16.23516 10.025864 16.024538 9.946883 15.971882 C 9.60462 15.655951 9.4729805 14.945096 9.4729805 14.945096 C 9.4729805 14.918766 9.4729805 14.892436 9.4729805 14.866116 C 9.288685 15.050409 9.236029 14.52385 9.1833725 14.339555 C 9.07806 13.997291 9.104392 13.918308 9.104392 13.918308 C 9.104392 13.681356 9.26236 13.760342 9.26236 13.760342 L 9.28869 13.786672 C 9.157051 13.444402 9.130723 13.233779 9.130723 12.996826 C 9.157053 12.522923 8.972755 12.285971 9.42033 11.548788 C 9.42033 11.548788 9.4993105 11.443476 9.657282 11.443476 C 9.788922 11.417146 9.736262 11.338163 9.788922 11.232852 C 9.841582 11.153872 9.894235 11.022229 10.157515 11.074885 C 10.447122 11.101215 10.552433 10.732621 11.394928 11.022225 C 12.211095 11.285505 12.421719 11.3381605 12.553359 11.548784 C 13.027261 12.285967 12.92195 12.443935 12.92195 12.944166 C 12.92195 13.233774 12.816638 13.444397 12.79031 13.78666 L 12.81664 13.76033 C 12.81664 13.76033 13.000935 13.70768 12.974607 13.944626 C 12.974607 13.944626 12.9219475 14.102593 12.869295 14.339545 C 12.790315 14.576497 12.711327 15.076728 12.527031 14.839777 C 12.527031 14.866107 12.527031 14.892437 12.500701 14.945088 C 12.500701 14.945088 12.3690605 15.655945 12.026798 15.971879 C 11.974138 16.02454 12.000468 16.235159 12.053128 16.419455 C 12.079458 16.498434 12.237424 16.919685 12.579688 17.156637 C 12.632348 17.209297 12.711327 17.235617 12.790311 17.26195 C 12.790311 17.26195 13.343198 17.472574 13.896086 17.814838 C 13.896086 17.814838 14.264678 17.999132 14.34366 18.31507 L 14.34366 18.420382 C 14.054053 18.57835 13.711789 18.70999 13.31687 18.8153 z " fill="#f9997d" fill-opacity="1" fill-rule="nonzero" stroke="none"/>
<g transform="translate(-0.093995,-0.703077)">
<path d="M 22.437647 18.296383 L 15.750345 18.296383 C 15.539721 18.296383 15.381752 18.138414 15.381752 17.927792 C 15.381752 17.717167 15.53972 17.5592 15.750345 17.5592 L 22.437647 17.5592 C 22.648272 17.5592 22.806238 17.717167 22.806238 17.927792 C 22.806238 18.138416 22.64827 18.296383 22.437647 18.296383 z " fill="#f9997d" fill-opacity="1" fill-rule="nonzero" stroke="none"/>
<path d="M 22.437647 16.058504 L 15.750345 16.058504 C 15.539721 16.058504 15.381752 15.900537 15.381752 15.689912 C 15.381752 15.505617 15.53972 15.321321 15.750345 15.321321 L 22.437647 15.321321 C 22.648272 15.321321 22.806238 15.505616 22.806238 15.689912 C 22.806238 15.900536 22.64827 16.058504 22.437647 16.058504 z " fill="#f9997d" fill-opacity="1" fill-rule="nonzero" stroke="none"/>
<path d="M 22.437647 13.846956 L 15.750345 13.846956 C 15.539721 13.846956 15.381752 13.662661 15.381752 13.478364 C 15.381752 13.26774 15.53972 13.109772 15.750345 13.109772 L 22.437647 13.109772 C 22.648272 13.109772 22.806238 13.267739 22.806238 13.478364 C 22.806238 13.66266 22.64827 13.846956 22.437647 13.846956 z " fill="#f9997d" fill-opacity="1" fill-rule="nonzero" stroke="none"/>
</g>
</svg>
