<?xml version="1.0" encoding="UTF-8"?>
<svg xmlns="http://www.w3.org/2000/svg" xmlns:xlink="http://www.w3.org/1999/xlink" baseProfile="tiny" contentScriptType="text/ecmascript" contentStyleType="text/css" height="30px" preserveAspectRatio="xMidYMid meet" version="1.1" viewBox="0 0 30 30" width="30px" x="0px" y="0px" zoomAndPan="magnify">
<rect color="#000000" display="inline" fill="#353535" fill-opacity="0.58823529" fill-rule="nonzero" height="25" ry="4.2799163" stroke="none" visibility="visible" width="25" x="2.5" y="2.5"/>
<path d="M 20.883017 7.35208 L 9.116986 7.35208 C 8.791656 7.35208 8.528686 7.615051 8.528686 7.940382 L 8.528686 22.059618 C 8.528686 22.384949 8.791656 22.64792 9.116986 22.64792 L 20.883017 22.64792 C 21.208347 22.64792 21.471315 22.384949 21.471315 22.059618 L 21.471315 7.940382 C 21.471315 7.615051 21.208347 7.35208 20.883017 7.35208 z M 19.118109 20.294714 L 10.881889 20.294714 C 10.55656 20.294714 10.293588 20.031744 10.293588 19.706411 C 10.293588 19.381084 10.55656 19.11811 10.881889 19.11811 L 19.118109 19.11811 C 19.44344 19.11811 19.706411 19.381084 19.706411 19.706411 C 19.706411 20.031744 19.44344 20.294714 19.118109 20.294714 z M 19.118109 17.941507 L 10.881889 17.941507 C 10.55656 17.941507 10.293588 17.678535 10.293588 17.353209 C 10.293588 17.027874 10.55656 16.764904 10.881889 16.764904 L 19.118109 16.764904 C 19.44344 16.764904 19.706411 17.027874 19.706411 17.353209 C 19.706411 17.67854 19.44344 17.941507 19.118109 17.941507 z M 19.118109 15.588303 L 10.881889 15.588303 C 10.55656 15.588303 10.293588 15.325332 10.293588 15.000001 C 10.293588 14.67467 10.55656 14.411699 10.881889 14.411699 L 19.118109 14.411699 C 19.44344 14.411699 19.706411 14.67467 19.706411 15.000001 C 19.706411 15.325332 19.44344 15.588303 19.118109 15.588303 z M 19.118109 13.235097 L 10.881889 13.235097 C 10.55656 13.235097 10.293588 12.972126 10.293588 12.646795 C 10.293588 12.321465 10.55656 12.058495 10.881889 12.058495 L 19.118109 12.058495 C 19.44344 12.058495 19.706411 12.321464 19.706411 12.646794 C 19.706411 12.972125 19.44344 13.235097 19.118109 13.235097 z M 19.118109 10.881889 L 10.881889 10.881889 C 10.55656 10.881889 10.293588 10.618919 10.293588 10.293588 C 10.293588 9.968257 10.55656 9.705287 10.881889 9.705287 L 19.118109 9.705287 C 19.44344 9.705287 19.706411 9.968257 19.706411 10.293587 C 19.706411 10.618917 19.44344 10.881888 19.118109 10.881888 z " fill="#ffffff"/>
</svg>
