<?xml version="1.0" encoding="UTF-8"?>
<svg xmlns="http://www.w3.org/2000/svg" xmlns:xlink="http://www.w3.org/1999/xlink" baseProfile="tiny" contentScriptType="text/ecmascript" contentStyleType="text/css" height="30px" preserveAspectRatio="xMidYMid meet" version="1.1" viewBox="0 0 30 30" width="30px" x="0px" y="0px" zoomAndPan="magnify">
<rect color="#000000" display="inline" fill="#353535" fill-opacity="0.58823529" fill-rule="nonzero" height="25" ry="4.2799163" stroke="none" visibility="visible" width="25" x="2.5" y="2.5"/>
<path d="M 20.468056 22.290745 L 20.468056 7.709258 C 20.468056 7.375098 20.194654 7.101696 19.860497 7.101696 L 10.139504 7.101696 C 9.805346 7.101696 9.531941 7.3751 9.531941 7.7092576 L 9.531941 22.290745 C 9.531945 22.624905 9.8053465 22.898308 10.139507 22.898308 L 19.860498 22.898308 C 20.194656 22.898308 20.468058 22.624905 20.468058 22.290749 z M 19.8605 18.949154 L 19.8605 20.16428 L 18.645376 20.16428 L 18.645376 18.949154 L 19.8605 18.949154 z M 19.8605 17.126469 L 19.8605 18.34159 L 18.645376 18.34159 L 18.645376 17.126469 L 19.8605 17.126469 z M 19.8605 15.303782 L 19.8605 16.518904 L 18.645376 16.518904 L 18.645376 15.303781 L 19.8605 15.303781 z M 19.8605 11.658409 L 19.8605 12.873532 L 18.645376 12.873532 L 18.645376 11.658409 L 19.8605 11.658409 z M 19.8605 9.835723 L 19.8605 11.050848 L 18.645376 11.050848 L 18.645376 9.835725 L 19.8605 9.835725 z M 19.8605 8.0130415 L 19.8605 9.228166 L 18.645376 9.228166 L 18.645376 8.013041 L 19.8605 8.013041 z M 18.037811 8.01304 L 18.037811 14.392439 L 11.962195 14.392439 L 11.962195 8.013039 L 18.037815 8.013039 z M 10.139512 9.228164 L 10.139512 8.013039 L 11.354634 8.013039 L 11.354634 9.228164 L 10.139512 9.228164 z M 10.139512 11.050849 L 10.139512 9.835725 L 11.354634 9.835725 L 11.354634 11.050849 L 10.139512 11.050849 z M 10.139512 12.873534 L 10.139512 11.658411 L 11.354634 11.658411 L 11.354634 12.873534 L 10.139512 12.873534 z M 10.139512 14.696221 L 10.139512 13.481098 L 11.354634 13.481098 L 11.354634 14.696221 L 10.139512 14.696221 z M 18.64538 14.696221 L 18.64538 13.481098 L 19.860506 13.481098 L 19.860506 14.696221 L 18.64538 14.696221 z M 10.139513 16.518908 L 10.139513 15.303783 L 11.354636 15.303783 L 11.354636 16.518908 L 10.139514 16.518908 z M 10.139515 18.34159 L 10.139515 17.12647 L 11.354637 17.12647 L 11.354637 18.34159 L 10.139515 18.34159 z M 10.139515 20.164278 L 10.139515 18.949154 L 11.354637 18.949154 L 11.354637 20.164278 L 10.139515 20.164278 z M 10.139515 21.986963 L 10.139515 20.77184 L 11.354637 20.77184 L 11.354637 21.986963 L 10.139515 21.986963 z M 11.962202 21.986963 L 11.962202 15.607563 L 18.03782 15.607563 L 18.03782 21.986963 L 11.9622 21.986963 z M 18.645378 21.986963 L 18.645378 20.77184 L 19.860504 20.77184 L 19.860504 21.986963 L 18.645378 21.986963 z " fill="#ffffff"/>
</svg>
