<?xml version="1.0" encoding="UTF-8"?>
<svg xmlns="http://www.w3.org/2000/svg" xmlns:xlink="http://www.w3.org/1999/xlink" baseProfile="tiny" contentScriptType="text/ecmascript" contentStyleType="text/css" height="30px" preserveAspectRatio="xMidYMid meet" version="1.1" viewBox="0 0 30 30" width="30px" x="0px" y="0px" zoomAndPan="magnify">
<defs/>
<rect fill="none" height="30" width="30"/>
<g transform="matrix(1,0,0,0.90167568,0.01470453,1.5645295)">
<path d="M 6.34375 15.551907 C 5.832051 16.058998 2.1875 25.239407 2.1875 25.239407 L 2.15625 25.270657 C 2.145106 25.291117 2.134681 25.311966 2.125 25.333157 L 2.125 25.364407 C 2.087271 25.423376 2.055789 25.486341 2.03125 25.551907 C 1.970675 25.790737 1.970695 25.96937 2.03125 26.208157 C 2.0310864 26.218576 2.0310864 26.228987 2.03125 26.239407 C 2.1382163 26.625444 2.3709767 26.827362 2.65625 26.989407 L 2.65625 27.020657 C 2.66219 27.023956 2.681496 27.017456 2.6875 27.020657 C 2.9731674 27.172426 3.1132076 27.171463 3.15625 27.176907 L 13.78125 28.364407 L 13.78125 28.333157 C 13.937039 28.358387 14.038841 28.366787 14.21875 28.333157 C 14.24998 28.334656 14.28127 28.334656 14.3125 28.333157 C 14.760616 28.209005 14.960681 27.835094 15.03125 27.708157 L 15.0625 27.708157 C 15.0638 27.705656 15.0613 27.679127 15.0625 27.676907 C 15.0676 27.669006 15.0718 27.684206 15.09375 27.645657 C 15.13027 27.581406 15.214001 27.492146 15.25 27.208157 C 15.15159 26.281425 14.618245 25.724798 14.09375 24.833157 C 17.57223 24.211586 19.96792 24.3386 21.5 24.770657 C 23.136587 25.232187 23.880644 25.907839 24.28125 26.520657 C 24.473068 26.814089 24.633442 27.191374 24.71875 27.458157 C 24.80955 27.742094 24.824883 27.90227 24.875 28.083157 C 24.638895 27.233177 24.8768 28.330818 25.15625 28.645657 C 25.19147 28.685347 25.2024 28.692247 25.21875 28.708157 C 25.22695 28.716156 25.24286 28.732727 25.25 28.739407 C 25.2536 28.742706 25.27572 28.765627 25.28125 28.770657 C 25.28675 28.775656 25.34365 28.833086 25.34375 28.833157 C 25.34375 28.833157 25.62493 28.958134 25.625 28.958157 C 25.62507 28.95818 25.64999 28.987587 25.65625 28.989407 C 25.66877 28.993006 25.6836 28.988407 25.6875 28.989407 C 25.6946 28.991207 25.71198 28.987707 25.71875 28.989407 C 25.73228 28.992807 25.73409 28.985506 25.75 28.989407 C 25.75 28.989407 26.019012 29.051447 26.03125 29.051907 C 27.078444 29.202312 27.050272 29.171713 27.28125 28.333157 C 27.3643 28.160702 27.44774 27.931261 27.46875 27.833157 C 27.53214 27.537199 27.611769 27.117815 27.78125 26.426907 C 28.207722 24.688349 27.957079 22.94738 27.09375 21.489407 C 26.23688 20.042343 24.833235 18.865246 23.09375 18.051907 C 19.769745 16.497688 15.140261 16.17807 9.84375 17.426907 L 8.65625 15.333157 C 8.507822 15.074897 8.414472 14.981568 8.15625 14.833157 C 7.3669662 14.542276 6.8554497 15.044816 6.34375 15.551907 z " fill="#000000" fill-opacity="0.11764706"/>
<path d="M 7.412477 14.684299 C 7.3992043 14.695439 7.386926 14.70772 7.375783 14.720989 C 7.324593 14.75715 7.28608 14.808499 7.2657003 14.867766 L 3.0458603 24.775217 C 3.0325873 24.786367 3.0203092 24.798628 3.0091662 24.811907 C 2.9969513 24.860067 2.9969513 24.910517 3.0091662 24.958683 C 3.0309591 25.037333 3.0839972 25.103628 3.1559434 25.142155 C 3.1898844 25.161474 3.2272854 25.173944 3.266026 25.178844 L 13.907362 26.35306 C 13.943732 26.35986 13.981072 26.35986 14.017445 26.35306 C 14.096094 26.33127 14.162391 26.27823 14.200914 26.206284 C 14.220224 26.172333 14.232695 26.134933 14.237604 26.096199 C 14.245404 26.032688 14.232404 25.968374 14.200914 25.912727 L 12.623061 23.27074 C 12.844769 23.138306 13.055359 22.991795 13.320252 22.940493 C 17.300709 22.142836 19.972288 22.27924 21.796627 22.793716 C 23.620964 23.308193 24.602486 24.179537 25.135805 24.99537 C 25.402462 25.403292 25.549402 25.81979 25.649525 26.132896 C 25.749651 26.446001 25.791296 26.64289 25.832996 26.793394 C 25.843447 26.831015 25.809317 26.867483 25.906385 26.976866 C 25.918516 26.990536 25.942276 27.012976 25.943075 27.013556 C 25.943874 27.014143 26.052357 27.049976 26.053158 27.050245 C 26.053963 27.050516 26.16243 27.0503 26.16324 27.050245 C 26.164051 27.050188 26.272501 27.050627 26.273323 27.050245 C 26.274143 27.049866 26.329094 26.991955 26.346712 26.976856 C 26.364342 26.961756 26.373343 26.952597 26.383402 26.940166 C 26.403522 26.915306 26.411922 26.919376 26.420092 26.903477 C 26.485462 26.776264 26.466461 26.736095 26.49348 26.609924 C 26.547531 26.357576 26.64755 25.897062 26.82373 25.178846 C 27.195757 23.66224 26.969034 22.232586 26.236622 20.9957 C 25.50421 19.758818 24.270992 18.695257 22.677279 17.950077 C 19.48985 16.45972 14.810173 16.101145 9.393952 17.509748 C 9.361485 17.518148 9.383852 17.535788 9.357264 17.546438 L 7.77942 14.831076 C 7.753107 14.785292 7.715121 14.747307 7.669337 14.720993 C 7.6243734 14.696363 7.573825 14.683726 7.52256 14.6843 C 7.486183 14.677501 7.448855 14.677501 7.4124775 14.6843 z " fill="#000000" fill-opacity="0.11764706"/>
<path d="M 7.412477 15.683914 C 7.3992043 15.695054 7.386926 15.7073345 7.375783 15.720604 C 7.324593 15.756764 7.28608 15.808114 7.2657003 15.867381 L 3.0458603 25.774834 C 3.0325873 25.785984 3.0203092 25.798244 3.0091662 25.811523 C 2.9969513 25.859684 2.9969513 25.910133 3.0091662 25.9583 C 3.0309591 26.03695 3.0839972 26.103245 3.1559434 26.141771 C 3.1898844 26.16109 3.2272854 26.173561 3.266026 26.178461 L 13.907362 27.352676 C 13.943732 27.359476 13.981072 27.359476 14.017445 27.352676 C 14.096094 27.330887 14.162391 27.277847 14.200914 27.2059 C 14.220224 27.17195 14.232695 27.13455 14.237604 27.095816 C 14.245404 27.032305 14.232404 26.967989 14.200914 26.912344 L 12.62306 24.270355 C 12.844768 24.13792 13.055358 23.99141 13.320251 23.940107 C 17.300709 23.14245 19.972288 23.278854 21.796627 23.793331 C 23.620964 24.307808 24.602486 25.179152 25.135805 25.994986 C 25.402462 26.402905 25.549402 26.819405 25.649525 27.13251 C 25.749651 27.445614 25.791296 27.642504 25.832996 27.793007 C 25.843447 27.830627 25.809317 27.867096 25.906385 27.976479 C 25.918516 27.990149 25.942276 28.012589 25.943075 28.013168 C 25.943874 28.013756 26.052357 28.04959 26.053158 28.049858 C 26.053963 28.050127 26.16243 28.049913 26.16324 28.049858 C 26.164051 28.0498 26.272501 28.05024 26.273323 28.049858 C 26.274143 28.049477 26.329094 27.991568 26.346712 27.976469 C 26.364342 27.961369 26.373343 27.95221 26.383402 27.93978 C 26.403522 27.914919 26.411922 27.91899 26.420092 27.90309 C 26.485462 27.775877 26.466461 27.735708 26.49348 27.609537 C 26.547531 27.35719 26.64755 26.896675 26.82373 26.17846 C 27.195757 24.661854 26.969034 23.232199 26.236622 21.995314 C 25.50421 20.75843 24.270992 19.69487 22.67728 18.94969 C 19.48985 17.459332 14.810173 17.100758 9.393953 18.50936 C 9.3614855 18.51776 9.383853 18.535398 9.3572645 18.54605 L 7.77942 15.830691 C 7.753107 15.784911 7.715121 15.746922 7.669337 15.72061 C 7.624373 15.69598 7.573825 15.68334 7.522559 15.68392 C 7.486182 15.67712 7.448854 15.67712 7.4124765 15.68392 z " fill="#ffffff" fill-opacity="1"/>
<path d="M 6.34375 1.5519068 C 5.832051 2.058998 2.1875 11.239407 2.1875 11.239407 L 2.15625 11.270657 C 2.145106 11.291117 2.134681 11.311967 2.125 11.333157 L 2.125 11.364407 C 2.087271 11.423377 2.055789 11.4863405 2.03125 11.551907 C 1.970675 11.790735 1.970695 11.96937 2.03125 12.208157 C 2.0310864 12.218576 2.0310864 12.228987 2.03125 12.239407 C 2.1382163 12.625443 2.3709767 12.827362 2.65625 12.989407 L 2.65625 13.020657 C 2.66219 13.023956 2.681496 13.017457 2.6875 13.020657 C 2.9731674 13.172425 3.1132076 13.171463 3.15625 13.176907 L 13.78125 14.364407 L 13.78125 14.333157 C 13.937039 14.358387 14.038841 14.366787 14.21875 14.333157 C 14.24998 14.334657 14.28127 14.334657 14.3125 14.333157 C 14.760616 14.209004 14.960681 13.8350935 15.03125 13.708157 L 15.0625 13.708157 C 15.0638 13.705657 15.0613 13.679127 15.0625 13.676907 C 15.0676 13.669006 15.0718 13.684207 15.09375 13.645657 C 15.13027 13.581407 15.214001 13.492146 15.25 13.208157 C 15.15159 12.2814245 14.618245 11.724797 14.09375 10.833157 C 17.57223 10.211587 19.96792 10.338599 21.5 10.770657 C 23.136587 11.232185 23.880644 11.907839 24.28125 12.520657 C 24.473068 12.814091 24.633442 13.191374 24.71875 13.458157 C 24.80955 13.742094 24.824883 13.902268 24.875 14.083157 C 24.638895 13.233175 24.8768 14.330817 25.15625 14.645657 C 25.19147 14.685347 25.2024 14.692246 25.21875 14.708157 C 25.22695 14.716157 25.24286 14.732727 25.25 14.739407 C 25.2536 14.742706 25.27572 14.765627 25.28125 14.770657 C 25.28675 14.775657 25.34365 14.833087 25.34375 14.833157 C 25.34375 14.833157 25.62493 14.958134 25.625 14.958157 C 25.62507 14.9581785 25.64999 14.987587 25.65625 14.989407 C 25.66877 14.993007 25.6836 14.988406 25.6875 14.989407 C 25.6946 14.991206 25.71198 14.987706 25.71875 14.989407 C 25.73228 14.992806 25.73409 14.985507 25.75 14.989407 C 25.75 14.989407 26.019012 15.051447 26.03125 15.051907 C 27.078444 15.2023115 27.050272 15.171713 27.28125 14.333157 C 27.3643 14.160702 27.44774 13.931261 27.46875 13.833157 C 27.53214 13.537199 27.611769 13.117815 27.78125 12.426907 C 28.207722 10.688349 27.957079 8.947378 27.09375 7.489406 C 26.23688 6.042342 24.833235 4.865246 23.09375 4.051906 C 19.769745 2.497688 15.140261 2.178069 9.84375 3.426906 L 8.65625 1.3331561 C 8.507822 1.0748968 8.414472 0.98156977 8.15625 0.8331568 C 7.366966 0.54227775 6.8554497 1.0448158 6.34375 1.5519068 z " fill="#000000" fill-opacity="0.11764706"/>
<path d="M 7.412477 0.6842988 C 7.3992043 0.6954388 7.386926 0.7077188 7.375783 0.7209888 C 7.324593 0.7571488 7.28608 0.8084988 7.2657003 0.8677658 L 3.0458603 10.775217 C 3.0325873 10.786367 3.0203092 10.798627 3.0091662 10.811907 C 2.9969513 10.860066 2.9969513 10.910517 3.0091662 10.958683 C 3.0309591 11.037333 3.0839972 11.103628 3.1559434 11.142155 C 3.1898844 11.161474 3.2272854 11.173944 3.266026 11.178844 L 13.907362 12.353065 C 13.943732 12.359864 13.981072 12.359864 14.017445 12.353065 C 14.096094 12.331275 14.162391 12.2782345 14.200914 12.206286 C 14.220224 12.172337 14.232695 12.134936 14.237604 12.096204 C 14.245404 12.032694 14.232404 11.968379 14.200914 11.912733 L 12.623062 9.270744 C 12.8447695 9.1383095 13.05536 8.991798 13.320253 8.940496 C 17.30071 8.142839 19.972288 8.279243 21.796627 8.793719 C 23.620964 9.308196 24.602486 10.179542 25.135805 10.995376 C 25.402462 11.403295 25.549402 11.819795 25.649525 12.132898 C 25.749651 12.446002 25.791296 12.642892 25.832996 12.793396 C 25.843447 12.831016 25.809317 12.867486 25.906385 12.976867 C 25.918516 12.990537 25.942276 13.012977 25.943075 13.0135565 C 25.943874 13.014145 26.052357 13.049976 26.053158 13.050246 C 26.053963 13.050516 26.16243 13.050303 26.16324 13.050246 C 26.164051 13.050189 26.272501 13.05063 26.273323 13.050246 C 26.274143 13.049868 26.329094 12.991957 26.346712 12.976856 C 26.364342 12.961757 26.373343 12.952597 26.383402 12.940166 C 26.403522 12.915306 26.411922 12.919376 26.420092 12.903477 C 26.485462 12.776265 26.466461 12.7360935 26.49348 12.609923 C 26.547531 12.357575 26.64755 11.897061 26.82373 11.178845 C 27.195757 9.662238 26.969034 8.232585 26.236622 6.9957 C 25.504206 5.7588177 24.270988 4.695257 22.677277 3.9500768 C 19.489843 2.4597197 14.810169 2.1011448 9.393949 3.5097475 C 9.36148 3.5181477 9.383848 3.535788 9.35726 3.5464375 L 7.77942 0.8310768 C 7.753107 0.7852968 7.715121 0.7473068 7.669337 0.7209928 C 7.624373 0.6963628 7.573825 0.6837228 7.522559 0.6843028 C 7.486182 0.6775028 7.448854 0.6775028 7.4124765 0.6843028 z " fill="#000000" fill-opacity="0.11764706"/>
<path d="M 7.412477 1.6839138 C 7.3992043 1.6950538 7.386926 1.7073338 7.375783 1.7206038 C 7.324593 1.7567638 7.28608 1.8081138 7.2657003 1.8673809 L 3.0458603 11.774833 C 3.0325873 11.785983 3.0203092 11.798243 3.0091662 11.8115225 C 2.9969513 11.859682 2.9969513 11.910132 3.0091662 11.958299 C 3.0309591 12.036949 3.0839972 12.103244 3.1559434 12.141769 C 3.1898844 12.161089 3.2272854 12.173559 3.266026 12.178459 L 13.907362 13.352679 C 13.943732 13.359479 13.981072 13.359479 14.017445 13.352679 C 14.096094 13.33089 14.162391 13.277849 14.200914 13.205903 C 14.220224 13.171953 14.232695 13.134553 14.237604 13.0958185 C 14.245404 13.032309 14.232404 12.967995 14.200914 12.912349 L 12.623062 10.27036 C 12.8447695 10.137926 13.05536 9.991415 13.320253 9.940113 C 17.30071 9.142456 19.972288 9.27886 21.796627 9.793336 C 23.620964 10.307813 24.602486 11.179157 25.135805 11.994991 C 25.402462 12.40291 25.549402 12.81941 25.649525 13.132514 C 25.749651 13.445619 25.791296 13.642509 25.832996 13.793012 C 25.843447 13.830631 25.809317 13.867102 25.906385 13.976482 C 25.918516 13.990152 25.942276 14.012592 25.943075 14.013172 C 25.943874 14.013761 26.052357 14.049592 26.053158 14.049862 C 26.053963 14.050131 26.16243 14.049917 26.16324 14.049862 C 26.164051 14.049805 26.272501 14.050244 26.273323 14.049862 C 26.274143 14.0494795 26.329094 13.991572 26.346712 13.976472 C 26.364342 13.961372 26.373343 13.952212 26.383402 13.939782 C 26.403522 13.914922 26.411922 13.918992 26.420092 13.903092 C 26.485462 13.775881 26.466461 13.73571 26.49348 13.609539 C 26.547531 13.357191 26.64755 12.896677 26.82373 12.178461 C 27.195757 10.661855 26.969034 9.232201 26.236622 7.995316 C 25.50421 6.758434 24.270992 5.694873 22.67728 4.9496927 C 19.48985 3.4593349 14.810173 3.1007607 9.393953 4.5093637 C 9.3614855 4.5177636 9.383853 4.5354037 9.3572645 4.5460525 L 7.77942 1.8306907 C 7.753107 1.7849108 7.715121 1.7469207 7.669337 1.7206079 C 7.624373 1.6959779 7.573825 1.6833379 7.522559 1.6839179 C 7.486182 1.6771178 7.448854 1.6771178 7.4124765 1.6839179 z " fill="#ffffff" fill-opacity="1"/>
</g>
</svg>
