<?xml version="1.0" encoding="UTF-8"?>
<svg xmlns="http://www.w3.org/2000/svg" xmlns:xlink="http://www.w3.org/1999/xlink" baseProfile="tiny" contentScriptType="text/ecmascript" contentStyleType="text/css" height="30px" preserveAspectRatio="xMidYMid meet" version="1.1" viewBox="0 0 30 30" width="30px" x="0px" y="0px" zoomAndPan="magnify">
<rect color="#000000" display="inline" fill="#353535" fill-opacity="0.58823529" fill-rule="nonzero" height="25" ry="4.2799163" stroke="none" visibility="visible" width="25" x="2.5" y="2.5"/>
<path color="#000000" d="M 12.496879 8.898982 C 12.233437 8.936271 12.008522 9.080218 11.895166 9.284078 L 10.643606 11.474308 C 10.634906 11.490088 10.626836 11.506148 10.619536 11.522448 L 8.18862 11.522448 C 7.647654 11.522448 7.2018127 11.968289 7.2018127 12.509255 L 7.2018127 20.114891 C 7.2018127 20.655855 7.647654 21.1017 8.18862 21.1017 L 21.811373 21.1017 C 22.352337 21.1017 22.798182 20.655855 22.798182 20.114891 L 22.798182 12.509254 C 22.798182 11.968288 22.352337 11.522448 21.811373 11.522448 L 19.38046 11.522448 C 19.37316 11.506158 19.36513 11.490098 19.356388 11.474308 L 18.104832 9.284078 C 17.966215 9.044292 17.67514 8.894059 17.358711 8.898982 L 12.641291 8.898982 C 12.61723 8.898079 12.593141 8.898079 12.569091 8.898982 C 12.545031 8.898079 12.520941 8.898079 12.496891 8.898982 z M 15.0 12.576863 C 16.975222 12.576863 18.586205 14.164507 18.586205 16.138998 C 18.586205 18.114029 16.97502 19.7252 14.999998 19.7252 C 13.025509 19.7252 11.413796 18.11402 11.413796 16.138998 C 11.413796 14.164512 13.025316 12.576864 14.999998 12.576864 z M 14.999997 13.178576 C 13.3699875 13.178576 12.039576 14.508988 12.039576 16.138998 C 12.039576 17.769009 13.369988 19.09942 14.999998 19.09942 C 16.630007 19.09942 17.96042 17.769009 17.96042 16.138998 C 17.96042 14.508987 16.630007 13.178576 14.999998 13.178576 z " display="inline" fill="#ffffff" fill-opacity="1" fill-rule="nonzero" stroke="none" visibility="visible"/>
<rect fill="none" height="30" width="30"/>
</svg>
