<?xml version="1.0" encoding="UTF-8"?>
<svg xmlns="http://www.w3.org/2000/svg" xmlns:xlink="http://www.w3.org/1999/xlink" baseProfile="tiny" contentScriptType="text/ecmascript" contentStyleType="text/css" height="30px" preserveAspectRatio="xMidYMid meet" version="1.1" viewBox="0 0 30 30" width="30px" x="0px" y="0px" zoomAndPan="magnify">
<rect color="#000000" display="inline" fill="#353535" fill-opacity="0.58823529" fill-rule="nonzero" height="25" ry="4.2799163" stroke="none" visibility="visible" width="25" x="2.5" y="2.5"/>
<rect fill="none" height="30" width="30"/>
<path color="#000000" d="M 7.8752694 10.503842 C 7.307352 10.619468 6.9065566 11.119489 6.9065566 11.722547 L 6.9065566 18.284798 C 6.9065566 18.974009 7.4360514 19.503502 8.12526 19.503502 L 16.687435 19.503502 C 17.376646 19.503502 17.90614 18.974009 17.90614 18.284798 L 17.90614 17.097343 L 22.155975 19.159763 C 22.352276 19.247082 22.587938 19.24212 22.778872 19.146652 C 22.96981 19.051184 23.08882 18.878807 23.093445 18.691032 L 23.093445 11.316311 C 23.08882 11.128535 22.96981 10.95616 22.778872 10.860692 C 22.587936 10.765224 22.352276 10.7602625 22.155975 10.847579 L 17.90614 12.94125 L 17.90614 11.722546 C 17.90614 11.033337 17.376646 10.503841 16.687435 10.503841 L 8.12526 10.503841 C 8.03911 10.503841 7.956401 10.487322 7.8752694 10.503841 z " display="inline" fill="#ffffff" fill-opacity="1" fill-rule="nonzero" stroke="none" stroke-width="0.69999999000000002" visibility="visible"/>
</svg>
