<?xml version="1.0" encoding="UTF-8"?>
<svg xmlns="http://www.w3.org/2000/svg" xmlns:xlink="http://www.w3.org/1999/xlink" baseProfile="tiny" contentScriptType="text/ecmascript" contentStyleType="text/css" height="57px" preserveAspectRatio="xMidYMid meet" version="1.1" viewBox="0 0 67 57" width="67px" x="0px" y="0px" zoomAndPan="magnify">
<rect color="#000000" display="inline" fill="#f6da42" fill-opacity="0.58823528999999997" fill-rule="nonzero" height="48" ry="8.2174387" stroke="none" visibility="visible" width="48" x="9.5" y="4.5"/>
<path d="M 17.59588 33.324707 L 18.742556 37.90941 C 19.152561 39.548756 20.713903 40.496094 22.573254 40.252094 L 19.805231 29.43934 C 18.079882 30.099346 17.193876 31.70869 17.595879 33.324707 z M 45.37277 28.256 C 45.37277 28.198671 45.365368 28.145332 45.37277 28.089998 L 45.3421 28.082598 C 44.22009 21.626575 40.063393 16.70987 33.600006 16.70987 C 27.281288 16.70987 23.173256 21.403906 21.932579 27.64729 L 21.91458 27.64729 C 21.91458 27.68462 21.91458 27.72929 21.91128 27.784626 C 21.86662 28.005293 21.82061 28.223293 21.785278 28.45063 L 21.809278 28.45063 C 21.75994 28.714632 21.719948 28.9693 21.736609 29.108635 L 24.26463 39.480717 L 24.33263 39.75272 C 25.691309 38.971382 26.479313 37.5447 26.123981 36.12269 L 24.977972 31.529322 C 24.933983 31.348654 24.777302 30.619982 24.724634 30.40398 C 24.555964 29.733305 24.5453 29.069304 24.555964 28.409966 C 25.329304 23.333927 28.58333 19.520561 33.600708 19.520561 C 38.576748 19.520561 41.81611 23.28459 42.620777 28.305296 C 42.60544 29.006636 42.563446 29.455305 42.34211 30.287312 C 42.28211 30.501978 42.120773 31.229317 42.068775 31.418652 L 40.83943 35.978687 C 40.458096 37.378696 41.1941 38.789375 42.512775 39.60405 L 45.394135 28.363297 C 45.383465 28.329966 45.376804 28.290636 45.372803 28.255964 z M 47.04549 29.294643 L 46.91949 29.760649 L 44.252804 40.168064 C 46.127487 40.45473 47.7135 39.53006 48.156166 37.89805 L 49.386845 33.331345 C 49.841507 31.654001 48.899506 29.921318 47.04549 29.294645 z " fill="#ffffff" fill-opacity="1" stroke-opacity="0.3"/>
<defs>
<linearGradient gradientUnits="userSpaceOnUse" x1="34" x2="34" xlink:actuate="onLoad" xlink:show="other" xlink:type="simple" y1="46.1846" y2="10.8159">
<stop offset="0" stop-color="#d0cbc5"/>
<stop offset="0.5031" stop-color="#fafcef"/>
<stop offset="0.9693" stop-color="#ffffff"/>
<stop offset="1" stop-color="#ffffff"/>
</linearGradient>
</defs>
</svg>
