<?xml version="1.0" encoding="UTF-8"?>
<svg xmlns="http://www.w3.org/2000/svg" xmlns:xlink="http://www.w3.org/1999/xlink" baseProfile="tiny" contentScriptType="text/ecmascript" contentStyleType="text/css" height="70px" preserveAspectRatio="xMidYMid meet" version="1.1" viewBox="0 0 70 70" width="70px" x="0px" y="0px" zoomAndPan="magnify">
<defs>
<linearGradient gradientUnits="userSpaceOnUse" x1="35.5005" x2="35.5005" xlink:actuate="onLoad" xlink:show="other" xlink:type="simple" y1="57" y2="13.001">
<stop offset="0" stop-color="#d0cbc5"/>
<stop offset="0.5031" stop-color="#fafcef"/>
<stop offset="0.9693" stop-color="#ffffff"/>
<stop offset="1" stop-color="#ffffff"/>
</linearGradient>
</defs>
<rect color="#000000" display="inline" fill="#353535" fill-opacity="0.58823532" fill-rule="nonzero" height="48" ry="8.2174387" stroke="none" visibility="visible" width="48" x="11" y="11"/>
<path d="M 30.406248 11.0 L 30.406248 31.4375 L 25.624998 31.4375 C 25.287447 31.43798 24.942726 31.595984 24.781248 31.90625 C 24.61977 32.216515 24.694479 32.59879 24.906248 32.875 L 34.0 45.3125 C 34.03448 45.35688 34.06794 45.44294 34.15625 45.53125 C 34.476826 45.848667 34.909843 46.027225 35.34375 46.0 C 35.811005 45.96656 36.214565 45.689857 36.5 45.3125 L 45.5625 32.875 C 45.778645 32.59188 45.814884 32.201225 45.65625 31.90625 C 45.497616 31.611273 45.182465 31.43697 44.84375 31.4375 L 40.0625 31.4375 L 40.0625 11.0 L 30.40625 11.0 z " fill="#ffffff" fill-opacity="1"/>
</svg>
