<?xml version="1.0" encoding="UTF-8"?>
<svg xmlns="http://www.w3.org/2000/svg" xmlns:xlink="http://www.w3.org/1999/xlink" baseProfile="tiny" contentScriptType="text/ecmascript" contentStyleType="text/css" height="57px" preserveAspectRatio="xMidYMid meet" version="1.1" viewBox="0 0 67 57" width="67px" x="0px" y="0px" zoomAndPan="magnify">
<rect fill="#353535" fill-opacity="0.78431373" fill-rule="nonzero" height="48" ry="8.2174387" stroke="none" width="48" x="9.5" y="5.5"/>
<path d="M 49.69659 20.254707 L 41.888016 20.254707 L 41.888016 28.064083 L 44.118465 28.064083 L 44.118465 30.34415 C 44.118465 31.721476 42.94362 32.196854 42.649105 32.299297 L 36.5868 34.551353 C 36.0698 34.74903 35.609627 34.973915 35.19347 35.21401 L 35.19347 20.254711 L 38.4195 20.254711 L 33.45841 11.330512 L 28.50052 20.254711 L 31.845793 20.254711 L 31.845793 35.1876 C 31.427237 34.944305 30.962255 34.71622 30.440458 34.516144 L 24.331732 32.24968 C 24.096443 32.16565 22.921597 31.691866 22.921597 30.312944 L 22.921597 28.849186 C 24.556618 28.187334 25.71066 26.589125 25.71066 24.718012 C 25.71066 22.253872 23.713898 20.255512 21.24896 20.255512 C 18.785622 20.255512 16.78646 22.254671 16.78646 24.718012 C 16.78646 26.589125 17.9413 28.185734 19.574722 28.848385 L 19.574722 30.312944 C 19.574722 33.436535 22.016457 35.02914 23.226517 35.40608 L 29.25761 37.648537 C 31.65132 38.564884 31.83459 39.971024 31.844995 40.154293 L 31.844995 40.72571 C 30.530096 41.35315 29.616148 42.68405 29.616148 44.239048 C 29.616148 46.396667 31.365616 48.145336 33.519234 48.145336 C 35.676056 48.145336 37.42552 46.396664 37.42552 44.239048 C 37.42552 42.68405 36.509174 41.35395 35.192673 40.72571 L 35.192673 40.141495 C 35.192673 40.12629 35.306313 38.62652 37.766453 37.682957 L 43.73112 35.465313 C 45.023617 35.060356 47.463745 33.469353 47.463745 30.344969 L 47.463745 28.064896 L 49.695797 28.064896 L 49.695797 20.25472 z " fill="#ffffff" fill-opacity="1" stroke-opacity="0.3"/>
<defs>
<linearGradient gradientUnits="userSpaceOnUse" x1="33.0005" x2="33.0005" xlink:actuate="onLoad" xlink:show="other" xlink:type="simple" y1="51.5" y2="5.5005">
<stop offset="0" stop-color="#d0cbc5"/>
<stop offset="0.5031" stop-color="#fafcef"/>
<stop offset="0.9693" stop-color="#ffffff"/>
<stop offset="1" stop-color="#ffffff"/>
</linearGradient>
</defs>
</svg>
