<?xml version="1.0" encoding="UTF-8"?>
<svg xmlns="http://www.w3.org/2000/svg" xmlns:xlink="http://www.w3.org/1999/xlink" baseProfile="tiny" contentScriptType="text/ecmascript" contentStyleType="text/css" height="30px" preserveAspectRatio="xMidYMid meet" version="1.1" viewBox="0 0 30 30" width="30px" x="0px" y="0px" zoomAndPan="magnify">
<rect fill="none" height="30" width="30"/>
<path d="M 25.606 4.393 C 23.913 2.7000003 21.653 1.7670002 19.243 1.7670002 C 16.833 1.7670002 14.572 2.7000003 12.879 4.393 L 2.803 14.469 C 1.532 15.74 0.832 17.435 0.832 19.242 C 0.832 21.049002 1.5320001 22.745 2.803 24.015 C 4.073 25.285 5.7679996 25.985 7.575 25.986 C 7.575 25.986 7.575 25.986 7.576 25.986 C 9.382999 25.986 11.077 25.286 12.347 24.015 L 19.916 16.446 L 12.524 23.839 C 12.133 24.23 12.133 24.862 12.524 25.252998 L 14.292 27.020998 C 14.487 27.215998 14.743 27.313995 14.999 27.313995 C 15.254999 27.313995 15.511 27.215998 15.705999 27.020998 L 25.605 17.121998 C 29.115 13.612 29.115 7.902 25.606 4.393 z M 9.166 20.834 C 8.742001 21.258 8.178 21.49 7.576 21.49 C 6.973 21.49 6.408 21.258 5.984 20.834 C 5.5600004 20.409 5.327 19.844 5.327 19.242 C 5.327 18.64 5.56 18.076 5.984 17.651 L 6.1460004 17.490002 C 5.7700005 17.881002 5.7750006 18.503002 6.1610003 18.888002 L 7.929001 20.656002 C 8.117001 20.844002 8.370001 20.949 8.636001 20.949 C 8.902 20.949 9.156 20.844002 9.343 20.656002 L 9.166 20.834 z M 22.425 13.939 L 22.101 14.263 C 23.826 12.5060005 23.816 9.673 22.072 7.927001 C 21.224 7.080001 20.094 6.6140003 18.89 6.6140003 C 17.7 6.6140003 16.582 7.069 15.739001 7.895001 L 16.061 7.574001 C 16.91 6.725001 18.04 6.2590003 19.243 6.2590003 C 20.447 6.2590003 21.577 6.726 22.426 7.574001 C 23.275002 8.422001 23.741 9.553 23.741 10.757 C 23.74 11.961 23.273 13.091 22.425 13.939 z " fill-opacity="0.15"/>
<path d="M 21.364 12.271 C 22.724 10.911 22.724 8.683 21.364 7.322 C 20.003 5.961 17.775 5.961 16.414001 7.322 L 6.868002 16.868 L 8.636002 18.637 L 18.182 9.090001 C 18.566002 8.707001 19.213 8.707001 19.596 9.090001 C 19.98 9.4730015 19.98 10.121001 19.597 10.504002 L 9.873 20.228 C 8.606 21.495 6.545 21.495 5.277 20.227 C 4.009 18.96 4.009 16.899002 5.277 15.631 L 15.354 5.555 C 17.499 3.41 20.987 3.41 23.132 5.555 C 25.277 7.7 25.277 11.188999 23.132 13.332 L 13.233 23.231998 L 15.0 25.0 L 24.899 15.101 C 28.01 11.99 28.01 6.899 24.899 3.788 C 21.788 0.6770001 16.697 0.6770001 13.586 3.788 L 3.51 13.863 C 1.2739999 16.098999 1.2739999 19.759 3.51 21.994 C 5.745 24.23 9.405 24.231 11.641 21.995 L 15.354 18.282 L 21.364 12.271 z " fill-opacity="0.3"/>
<path d="M 21.364 13.586 C 22.724 12.225 22.724 9.997001 21.364 8.635 C 20.003 7.276 17.775 7.276 16.414001 8.636001 L 6.868002 18.182 L 8.636002 19.95 L 18.182 10.403999 C 18.566002 10.020999 19.213 10.020999 19.596 10.405 C 19.98 10.788 19.98 11.434999 19.597 11.819 L 9.873 21.542 C 8.606 22.809 6.545 22.808 5.277 21.542 C 4.009 20.274 4.009 18.213 5.277 16.945 L 15.354 6.868 C 17.499 4.723 20.987 4.723 23.132 6.868 C 25.277 9.0130005 25.277 12.502 23.132 14.646 L 13.233 24.545 L 15.0 26.313 L 24.899 16.414 C 28.01 13.303 28.01 8.212 24.899 5.0999994 C 21.788 1.9889994 16.697 1.9899997 13.586 5.0999994 L 3.51 15.176 C 1.2739999 17.412 1.2739999 21.072 3.51 23.309 C 5.745 25.545 9.405 25.545 11.641 23.309 L 15.354 19.596 L 21.364 13.586 z " fill="#575757"/>
</svg>
