<?xml version="1.0" encoding="UTF-8"?>
<svg xmlns="http://www.w3.org/2000/svg" xmlns:xlink="http://www.w3.org/1999/xlink" baseProfile="tiny" contentScriptType="text/ecmascript" contentStyleType="text/css" height="30px" preserveAspectRatio="xMidYMid meet" version="1.1" viewBox="0 0 30 30" width="30px" x="0px" y="0px" zoomAndPan="magnify">
<rect color="#000000" display="inline" fill="#353535" fill-opacity="0.58823529" fill-rule="nonzero" height="25" ry="4.2799158" stroke="none" visibility="visible" width="25" x="2.5" y="2.5"/>
<path d="M 19.06322 21.591211 C 17.212029 22.075453 15.936763 22.062529 15.072875 22.046072 C 14.210161 22.063692 12.933722 22.075462 11.081356 21.591211 C 10.324426 21.39257 9.674453 21.132816 9.123209 20.814297 L 9.138489 20.733196 C 9.273656 20.186657 9.927155 19.858734 9.927155 19.858734 C 10.895651 19.28398 11.86062 18.905514 11.86062 18.905514 C 12.916092 18.478855 13.087694 17.59734 13.11943 17.46805 C 13.20406 17.129547 13.280454 16.773413 13.1593895 16.658228 C 12.557605 16.134016 12.322533 14.884612 12.322533 14.884612 C 12.309603 14.850522 12.2978525 14.815262 12.288453 14.7800045 C 11.986384 15.066792 11.908813 14.16059 11.80303 13.835016 C 11.629076 13.268495 11.671389 13.136853 11.671389 13.136853 C 11.647879 12.712548 11.955827 12.858293 11.955827 12.858293 L 11.980507 12.891192 C 11.758364 12.291771 11.686666 11.970898 11.703121 11.536015 C 11.727801 10.720315 11.437491 10.335976 12.223806 9.063061 C 12.223806 9.063061 12.341342 8.856198 12.606975 8.843267 C 12.87143 8.831553 12.778578 8.691642 12.87143 8.5176935 C 12.965461 8.342565 13.033628 8.1439295 13.514353 8.202697 C 14.000951 8.261473 14.210163 7.656155 15.667612 8.1310005 C 17.132109 8.609371 17.48354 8.674016 17.738594 9.061885 C 18.56252 10.312468 18.366236 10.608657 18.361534 11.429058 C 18.361534 11.955619 18.192287 12.314104 18.146444 12.902957 L 18.171124 12.875927 C 18.171124 12.875927 18.48847 12.752518 18.436754 13.172116 C 18.436754 13.172116 18.382685 13.443624 18.256926 13.859701 C 18.13469 14.253447 17.98424 15.110284 17.6904 14.744747 C 17.672762 14.790587 17.65867 14.835258 17.6422 14.884607 C 17.6422 14.884607 17.405954 16.134014 16.80417 16.658224 C 16.685465 16.774588 16.76067 17.129543 16.84414 17.468046 C 16.873531 17.578535 17.174416 18.313126 17.77032 18.72215 C 17.876108 18.79031 17.994816 18.85262 18.128807 18.905506 C 18.128807 18.905506 19.09378 19.282797 20.064625 19.858725 C 20.064625 19.858725 20.715773 20.18665 20.848589 20.733192 L 20.87679 20.878944 C 20.361982 21.16808 19.764898 21.40668 19.06322 21.59121 z " fill="#ffffff"/>
<rect fill="none" height="30" width="30"/>
</svg>
