<?xml version="1.0" encoding="UTF-8"?>
<svg xmlns="http://www.w3.org/2000/svg" xmlns:xlink="http://www.w3.org/1999/xlink" baseProfile="tiny" contentScriptType="text/ecmascript" contentStyleType="text/css" height="30px" preserveAspectRatio="xMidYMid meet" version="1.1" viewBox="0 0 30 30" width="30px" x="0px" y="0px" zoomAndPan="magnify">
<rect fill="none" height="30" width="30"/>
<path d="M 27.171 15.066 C 27.067 15.031 26.959 15.013 26.852 15.013 C 26.817 15.013 26.785 15.033999 26.749 15.037 L 26.325998 14.663 C 26.318998 14.641 26.322998 14.616 26.314 14.595 C 26.196 13.952001 26.039 13.34 25.863 12.747 L 28.327 10.561 C 28.734 10.2 28.978 9.682 28.999 9.137 C 29.018 8.594 28.812 8.06 28.435 7.671 L 23.512 2.604 C 23.137 2.221 22.613 2.0 22.076 2.0 C 21.817 2.0 21.564 2.049 21.324 2.146 C 20.566 2.455 20.077 3.182 20.077 4.0 L 20.077 5.189 C 18.596 4.416 16.916 4.0 15.088 4.0 C 9.505 4.0 5.242 7.91 3.93 14.218 C 3.885 14.333 3.861 14.457001 3.861 14.586 C 3.824 14.766001 3.789 14.943001 3.761 15.131 C 3.7530005 15.186001 3.75 15.240001 3.751 15.294001 C 3.7430005 15.344001 3.735 15.393001 3.7300005 15.440001 C 3.656 15.365001 3.5710003 15.301001 3.4750004 15.252001 C 3.3310003 15.178 3.1740005 15.141001 3.0160005 15.141001 C 2.8950002 15.141001 2.7740002 15.162001 2.6590004 15.207001 C 0.7110005 15.952001 -0.3599997 17.876 0.11500049 19.782 L 1.1180005 23.794004 C 1.5490005 25.520002 3.0480003 26.634005 4.936001 26.634005 C 5.1430006 26.634005 5.355001 26.620005 5.571001 26.592005 C 5.854001 26.555002 6.108001 26.398005 6.268001 26.160004 C 6.3110013 26.097004 6.345001 26.031004 6.372001 25.962004 C 6.437001 26.012005 6.5090013 26.054005 6.5860014 26.086004 C 6.712002 26.140003 6.845001 26.166004 6.9780016 26.166004 C 7.1510015 26.166004 7.324002 26.121004 7.4770017 26.032003 C 9.103002 25.096004 9.921001 23.374004 9.515001 21.747004 L 8.515001 17.741005 C 8.515001 17.741005 8.320002 16.862003 8.290001 16.740004 C 8.174001 16.279003 8.166001 15.789003 8.172001 15.323004 C 8.700001 11.993004 10.789001 8.462004 15.088001 8.462004 C 15.0910015 8.462004 15.094001 8.462004 15.0980015 8.462004 C 15.024001 8.693004 14.989001 8.938004 15.004002 9.187004 C 15.035002 9.7210045 15.274002 10.210004 15.673001 10.564004 L 18.986002 13.502004 L 15.673002 16.440004 C 15.274002 16.794004 15.035002 17.283005 15.004003 17.817003 C 14.972003 18.350006 15.150003 18.864006 15.504003 19.262005 C 15.883002 19.690004 16.428003 19.936005 17.000002 19.936005 C 17.490002 19.936005 17.961002 19.756004 18.327002 19.432005 L 20.077002 17.880005 L 20.077002 23.0 C 20.077002 23.724 20.473 24.358 21.088 24.713 C 21.417002 25.158 21.839 25.561 22.362 25.884 C 22.521002 25.983 22.704002 26.032 22.886002 26.032 C 23.013002 26.032 23.14 26.008 23.260002 25.959 C 23.332005 25.931 23.400002 25.894 23.462002 25.85 C 23.489002 25.93 23.526 26.007 23.574 26.079 C 23.729002 26.315 23.977 26.474 24.257002 26.517 C 24.508 26.556 24.754002 26.575 24.994 26.575 C 24.994 26.575 24.994 26.575 24.995 26.575 C 26.843 26.575 28.332 25.488 28.79 23.804 L 29.865002 19.809002 C 30.408 17.805 29.25 15.767 27.171 15.066 z " fill-opacity="0.15"/>
<path d="M 18.328 6.57 L 20.077 8.122 L 20.077 5.355 C 18.656 4.496 16.989 4.0 15.088 4.0 C 9.559 4.0 5.965 8.108 4.8780003 13.572 L 4.861 13.572 C 4.861 13.603999 4.861 13.643 4.859 13.691 C 4.82 13.884 4.7790003 14.074 4.75 14.275 L 4.771 14.275 C 4.727 14.504999 4.692 14.728 4.707 14.849 L 6.919 23.925 L 6.979 24.164 C 8.167 23.479 8.856999 22.231 8.546 20.987 L 7.542 16.967 C 7.505 16.808998 7.367 16.171 7.321 15.981999 C 7.174 15.395999 7.165 14.813999 7.174 14.237 C 7.852 9.796999 10.698 6.4599996 15.089 6.4599996 C 15.322 6.4599996 15.55 6.4739995 15.775 6.4929996 C 16.122 6.222 16.551 6.066 17.0 6.066 C 17.49 6.066 17.961 6.245 18.328 6.57 z M 1.084 18.539 L 2.087 22.551 C 2.445 23.985 3.811 24.815 5.4399996 24.599998 L 3.0159996 15.139998 C 1.508 15.717 0.732 17.126 1.084 18.539 z M 28.951 17.34 C 28.873 17.709 28.699 18.055 28.433 18.328 L 25.124 21.732 L 24.408 24.527 C 26.049002 24.779 27.436 23.968 27.824 22.542 L 28.900002 18.546 C 29.012 18.14 29.02 17.731 28.951 17.34 z M 22.887 24.032 L 22.95 23.791 C 22.866 23.831 22.78 23.863 22.690998 23.893 C 22.756 23.939 22.817 23.989 22.887 24.032 z M 27.717 17.631 C 27.908 17.435 28.009998 17.17 28.0 16.897 C 27.989 16.624 27.867 16.368002 27.664 16.186 L 23.508 12.5 L 27.664 8.814 C 27.867 8.633 27.989 8.377 28.0 8.104 C 28.01 7.831 27.908 7.566 27.717 7.37 L 22.794998 2.304 C 22.509998 2.013 22.076998 1.921 21.700998 2.0749998 C 21.324 2.227 21.077 2.593 21.077 3.0 L 21.077 10.346001 L 17.664 7.3190007 C 17.25 6.9520006 16.616999 6.9910007 16.251999 7.403001 C 15.884999 7.817001 15.923999 8.449001 16.335999 8.815001 L 20.492 12.501 L 16.335999 16.187 C 15.923999 16.553 15.884998 17.185 16.251999 17.599 C 16.449 17.822 16.724998 17.935 16.999998 17.935 C 17.235998 17.935 17.472998 17.852 17.663998 17.683 L 21.076998 14.656 L 21.076998 22.0 C 21.076998 22.407 21.323996 22.773 21.700998 22.927 C 21.822 22.977 21.950998 23.0 22.076998 23.0 C 22.341995 23.0 22.600998 22.895 22.794998 22.697 L 27.717 17.631 z M 23.077 5.465 L 25.553 8.0130005 L 23.077 10.209001 L 23.077 5.465 z M 23.077 14.791 L 25.553 16.987 L 23.077 19.535 L 23.077 14.791 z M 25.041 12.523 C 25.038 12.51 25.034 12.498 25.031 12.485 L 25.015 12.5 L 25.041 12.523 z " fill-opacity="0.3"/>
<path d="M 18.328 7.57 L 20.077 9.122 L 20.077 6.355 C 18.656 5.496 16.989 5.0 15.088 5.0 C 9.559 5.0 5.965 9.108 4.8780003 14.572 L 4.861 14.572 C 4.861 14.603999 4.861 14.643 4.859 14.691 C 4.82 14.884 4.7790003 15.074 4.75 15.275 L 4.771 15.275 C 4.727 15.504999 4.692 15.728 4.707 15.849 L 6.919 24.925 L 6.979 25.164 C 8.167 24.479 8.856999 23.231 8.546 21.987 L 7.542 17.967 C 7.505 17.808998 7.367 17.171 7.321 16.981998 C 7.174 16.395998 7.165 15.813998 7.174 15.236999 C 7.852 10.796999 10.698 7.4599986 15.089 7.4599986 C 15.322 7.4599986 15.55 7.4739985 15.775 7.4929986 C 16.122 7.222 16.551 7.066 17.0 7.066 C 17.49 7.066 17.961 7.245 18.328 7.57 z M 1.084 19.539 L 2.087 23.551 C 2.445 24.985 3.811 25.815 5.4399996 25.599998 L 3.0159996 16.14 C 1.508 16.717 0.732 18.126 1.084 19.539 z M 28.951 18.34 C 28.873 18.709 28.699 19.055 28.433 19.328 L 25.124 22.732 L 24.408 25.527 C 26.049002 25.779 27.436 24.968 27.824 23.542 L 28.900002 19.546 C 29.012 19.14 29.02 18.731 28.951 18.34 z M 22.887 25.032 L 22.95 24.791 C 22.866 24.831 22.78 24.863 22.690998 24.893 C 22.756 24.939 22.817 24.989 22.887 25.032 z M 27.717 18.631 C 27.908 18.435 28.009998 18.17 28.0 17.897 C 27.989 17.624 27.867 17.368002 27.664 17.186 L 23.508 13.5 L 27.664 9.814 C 27.867 9.633 27.989 9.377 28.0 9.104 C 28.01 8.831 27.908 8.566 27.717 8.37 L 22.794998 3.304 C 22.509998 3.013 22.076998 2.921 21.700998 3.0749998 C 21.324 3.227 21.077 3.593 21.077 4.0 L 21.077 11.346001 L 17.664 8.319 C 17.25 7.952 16.616999 7.991 16.251999 8.403 C 15.884999 8.816999 15.923999 9.448999 16.335999 9.815 L 20.492 13.500999 L 16.335999 17.187 C 15.923999 17.553 15.884998 18.185 16.251999 18.599 C 16.449 18.822 16.724998 18.935 16.999998 18.935 C 17.235998 18.935 17.472998 18.852 17.663998 18.683 L 21.076998 15.656 L 21.076998 23.0 C 21.076998 23.407 21.323996 23.773 21.700998 23.927 C 21.822 23.977 21.950998 24.0 22.076998 24.0 C 22.341995 24.0 22.600998 23.895 22.794998 23.697 L 27.717 18.631 z M 23.077 6.465 L 25.553 9.0130005 L 23.077 11.209001 L 23.077 6.465 z M 23.077 15.791 L 25.553 17.987 L 23.077 20.535 L 23.077 15.791 z M 25.041 13.523 C 25.038 13.51 25.034 13.498 25.031 13.485 L 25.015 13.5 L 25.041 13.523 z " fill="#575757"/>
</svg>
