<?xml version="1.0" encoding="UTF-8"?>
<svg xmlns="http://www.w3.org/2000/svg" xmlns:xlink="http://www.w3.org/1999/xlink" baseProfile="tiny" contentScriptType="text/ecmascript" contentStyleType="text/css" height="30px" preserveAspectRatio="xMidYMid meet" version="1.1" viewBox="0 0 30 30" width="30px" x="0px" y="0px" zoomAndPan="magnify">
<rect color="#000000" display="inline" fill="#353535" fill-opacity="0.58823529" fill-rule="nonzero" height="25" ry="4.2799163" stroke="none" visibility="visible" width="25" x="2.5" y="2.5"/>
<rect fill="none" height="30" width="30"/>
<path d="M 20.8197 8.089105 L 18.273582 8.089105 L 18.273582 9.544029 C 18.273582 9.945588 17.947678 10.271491 17.546118 10.271491 L 12.45388 10.271491 C 12.052321 10.271491 11.726419 9.945588 11.726419 9.544029 L 11.726419 8.089105 L 9.180301 8.089105 C 8.77874 8.089105 8.452837 8.415008 8.452837 8.816566 L 8.452837 22.638351 C 8.452837 23.039915 8.77874 23.365816 9.180301 23.365816 L 20.819698 23.365816 C 21.221258 23.365816 21.54716 23.039911 21.54716 22.638351 L 21.54716 8.816565 C 21.54716 8.415006 21.221256 8.089102 20.819698 8.089102 z M 10.998956 12.4538765 L 19.001043 12.4538765 L 19.001043 13.545071 L 10.998956 13.545071 L 10.998956 12.4538765 z M 10.998956 15.363728 L 19.001043 15.363728 L 19.001043 16.454924 L 10.998956 16.454924 L 10.998956 15.3637295 z M 19.001043 18.273582 L 19.001043 19.364777 L 10.998956 19.364777 L 10.998956 18.273582 L 19.001043 18.273582 z M 17.546118 9.544032 L 12.453878 9.544032 L 12.453878 7.725377 C 12.453878 7.122674 12.942369 6.6341825 13.545073 6.6341825 L 16.454922 6.6341825 C 17.057629 6.6341825 17.546118 7.122674 17.546118 7.725377 L 17.546118 9.544032 z " fill="#ffffff" fill-opacity="1"/>
</svg>
