<?xml version="1.0" encoding="UTF-8"?>
<svg xmlns="http://www.w3.org/2000/svg" xmlns:xlink="http://www.w3.org/1999/xlink" baseProfile="tiny" contentScriptType="text/ecmascript" contentStyleType="text/css" height="20px" preserveAspectRatio="xMidYMid meet" version="1.1" viewBox="0 0 306 20" width="306px" x="0px" y="0px" zoomAndPan="magnify">
<g>
<g>
<path d="M 5.758 15.313 C 1.177 15.313 0.55999994 12.625 0.55999994 9.995 C 0.55999994 7.372 1.1769999 4.69 5.758 4.69 L 300.37698 4.69 C 304.95697 4.69 305.57397 7.379 305.57397 10.01 C 305.57397 12.6310005 304.95697 15.313 300.37698 15.313 L 5.758 15.313 z " fill="url(#SVGID_1_)" fill-opacity="0.3" stroke-opacity="0.3"/>
<path d="M 300.377 5.689 C 303.802 5.689 304.574 7.209 304.574 10.009001 C 304.574 12.794001 303.824 14.312 300.377 14.312 L 5.758 14.312 C 2.3319998 14.312 1.56 12.792 1.56 9.994 C 1.56 7.2070007 2.31 5.6890006 5.758 5.6890006 L 300.377 5.6890006 " fill="#fa664b"/>
<defs>
<linearGradient gradientUnits="userSpaceOnUse" id="SVGID_1_" x1="153.0667" x2="153.0667" xlink:actuate="onLoad" xlink:show="other" xlink:type="simple" y1="15.3125" y2="4.6899">
<stop offset="0" stop-color="#ffffff"/>
<stop offset="1" stop-color="#ffffff" stop-opacity="0"/>
</linearGradient>
</defs>
</g>
<rect fill="none" height="20" width="306" x="0.066"/>
<g fill-opacity="0.5" stroke-opacity="0.5">
<path d="M 5.133 5.704 L 5.129 5.709 C 5.1670003 5.7060003 5.209 5.7060003 5.248 5.704 L 5.133 5.704 z " fill="#ffffff"/>
<path d="M 5.248 5.704 C 5.209 5.706 5.167 5.706 5.129 5.709 L 1.583 9.258 C 1.568 9.493 1.559 9.736 1.559 9.994 C 1.559 10.791 1.625 11.479 1.794 12.062 L 8.132 5.7040005 L 5.248 5.7040005 z " fill="#ffffff"/>
<polygon fill="#ffffff" points="15.289,5.704 7.32,13.683 10.336,13.683 18.289,5.704   "/>
<polygon fill="#ffffff" points="25.443,5.704 17.474,13.683 20.49,13.683 28.443,5.704   "/>
<polygon fill="#ffffff" points="35.599,5.704 27.631,13.683 30.646,13.683 38.599,5.704   "/>
<polygon fill="#ffffff" points="45.755,5.704 37.786,13.683 40.802,13.683 48.755,5.704   "/>
<polygon fill="#ffffff" points="55.91,5.704 47.941,13.683 50.957,13.683 58.91,5.704   "/>
<polygon fill="#ffffff" points="66.066,5.703 58.097,13.683 61.113,13.683 69.066,5.703   "/>
<polygon fill="#ffffff" points="76.221,5.703 68.253,13.683 71.268,13.683 79.221,5.703   "/>
<polygon fill="#ffffff" points="86.377,5.703 78.408,13.683 81.424,13.683 89.377,5.703   "/>
<polygon fill="#ffffff" points="96.533,5.703 88.564,13.683 91.58,13.683 99.533,5.703   "/>
<polygon fill="#ffffff" points="106.687,5.704 98.719,13.683 101.734,13.683 109.687,5.704   "/>
<polygon fill="#ffffff" points="116.844,5.704 108.875,13.683 111.89,13.683 119.844,5.704   "/>
<polygon fill="#ffffff" points="126.999,5.704 119.03,13.683 122.046,13.683 129.999,5.704   "/>
<polygon fill="#ffffff" points="137.154,5.703 129.185,13.683 132.201,13.683 140.154,5.703   "/>
<polygon fill="#ffffff" points="147.31,5.704 139.342,13.683 142.357,13.683 150.31,5.704   "/>
<polygon fill="#ffffff" points="157.466,5.704 149.497,13.683 152.512,13.683 160.466,5.704   "/>
<polygon fill="#ffffff" points="167.621,5.703 159.652,13.683 162.668,13.683 170.621,5.703   "/>
<polygon fill="#ffffff" points="177.777,5.703 169.808,13.683 172.824,13.683 180.777,5.703   "/>
<polygon fill="#ffffff" points="187.932,5.704 179.964,13.683 182.979,13.683 190.932,5.704   "/>
<polygon fill="#ffffff" points="198.088,5.703 190.119,13.683 193.135,13.683 201.088,5.703   "/>
<polygon fill="#ffffff" points="208.244,5.704 200.275,13.683 203.291,13.683 211.244,5.704   "/>
<polygon fill="#ffffff" points="218.398,5.703 210.429,13.683 213.445,13.683 221.398,5.703   "/>
<polygon fill="#ffffff" points="228.554,5.703 220.586,13.683 223.601,13.683 231.554,5.703   "/>
<polygon fill="#ffffff" points="238.71,5.703 230.741,13.683 233.757,13.683 241.71,5.703   "/>
<polygon fill="#ffffff" points="248.865,5.703 240.896,13.683 243.912,13.683 251.865,5.703   "/>
<polygon fill="#ffffff" points="259.021,5.703 251.052,13.683 254.068,13.683 262.021,5.703   "/>
<polygon fill="#ffffff" points="269.177,5.703 261.208,13.683 264.223,13.683 272.177,5.703   "/>
<polygon fill="#ffffff" points="279.332,5.703 271.363,13.683 274.379,13.683 282.332,5.703   "/>
<polygon fill="#ffffff" points="289.488,5.704 281.519,13.683 284.535,13.683 292.488,5.704   "/>
<path d="M 291.674 13.683 L 294.69 13.683 L 302.39902 5.95 C 301.975 5.816 301.47302 5.7339997 300.881 5.705 L 299.643 5.705 L 291.674 13.683 z " fill="#ffffff"/>
<path d="M 304.537 10.973 L 301.83 13.683 L 303.224 13.683 C 304.074 13.128 304.429 12.213 304.537 10.973 z " fill="#ffffff"/>
</g>
<g>
<path d="M 5.756 7.379 L 300.20102 7.379 C 303.28503 7.379 304.213 8.619 304.367 10.906 C 304.387 10.648 304.4 10.386 304.4 10.101 C 304.4 7.3 303.628 5.7809997 300.201 5.7809997 L 5.756 5.7809997 C 2.309 5.7809997 1.56 7.299 1.56 10.086 C 1.56 10.365 1.574 10.622999 1.591 10.877 C 1.747 8.609 2.66 7.379 5.756 7.379 z " fill="#191919" fill-opacity="0.1" stroke-opacity="0.1"/>
<path d="M 5.756 6.58 L 300.20102 6.58 C 303.45502 6.58 304.30603 7.967 304.385 10.504 C 304.388 10.369 304.401 10.244 304.401 10.101999 C 304.401 7.300999 303.629 5.781999 300.202 5.781999 L 5.756 5.781999 C 2.309 5.781999 1.56 7.299999 1.56 10.086999 C 1.56 10.227999 1.571 10.348999 1.576 10.482999 C 1.653 7.961 2.485 6.58 5.756 6.58 z " fill="#6f6f6e"/>
</g>
</g>
</svg>
