<?xml version="1.0" encoding="UTF-8"?>
<svg xmlns="http://www.w3.org/2000/svg" xmlns:xlink="http://www.w3.org/1999/xlink" baseProfile="tiny" contentScriptType="text/ecmascript" contentStyleType="text/css" height="30px" preserveAspectRatio="xMidYMid meet" version="1.1" viewBox="0 0 30 30" width="30px" x="0px" y="0px" zoomAndPan="magnify">
<path d="M 13.5 28.0 C 12.9470005 28.0 12.5 27.553 12.5 27.0 L 12.5 16.28 L 4.375 9.781 C 4.138 9.591 4.0 9.304 4.0 9.0 L 4.0 3.0 C 4.0 2.447 4.447 2.0 5.0 2.0 L 25.0 2.0 C 25.553 2.0 26.0 2.447 26.0 3.0 L 26.0 9.0 C 26.0 9.304 25.862 9.591 25.625 9.781 L 17.5 16.28 L 17.5 27.0 C 17.5 27.553 17.053 28.0 16.5 28.0 L 13.5 28.0 z M 17.5 9.878 L 21.0 7.078 L 21.0 7.0 L 17.5 7.0 L 17.5 9.878 z M 12.5 9.878 L 12.5 7.0 L 9.0 7.0 L 9.0 7.078 L 12.5 9.878 z " fill-opacity="0.15" stroke-opacity="0.15"/>
<path d="M 25.0 2.0 L 5.0 2.0 L 5.0 8.0 L 13.5 14.8 L 13.5 26.0 L 16.5 26.0 L 16.5 14.8 L 25.0 8.0 L 25.0 2.0 z M 8.0 6.559 L 8.0 5.0 L 13.5 5.0 L 13.5 10.958 L 8.0 6.559 z M 22.0 6.559 L 16.5 10.958 L 16.5 5.0 L 22.0 5.0 L 22.0 6.559 z " fill-opacity="0.3" stroke-opacity="0.3"/>
<path d="M 25.0 3.0 L 5.0 3.0 L 5.0 9.0 L 13.5 15.8 L 13.5 27.0 L 16.5 27.0 L 16.5 15.8 L 25.0 9.0 L 25.0 3.0 z M 8.0 7.559 L 8.0 6.0 L 13.5 6.0 L 13.5 11.958 L 8.0 7.559 z M 22.0 7.559 L 16.5 11.958 L 16.5 6.0 L 22.0 6.0 L 22.0 7.559 z " fill="#575757"/>
<rect fill="none" height="30" width="30"/>
</svg>
