<?xml version="1.0" encoding="UTF-8"?>
<svg xmlns="http://www.w3.org/2000/svg" xmlns:xlink="http://www.w3.org/1999/xlink" baseProfile="tiny" contentScriptType="text/ecmascript" contentStyleType="text/css" height="70px" preserveAspectRatio="xMidYMid meet" version="1.1" viewBox="0 0 70 70" width="70px" x="0px" y="0px" zoomAndPan="magnify">
<rect color="#000000" display="inline" fill="#353535" fill-opacity="0.58823529" fill-rule="nonzero" height="48" ry="8.2174387" stroke="none" visibility="visible" width="48" x="11" y="11"/>
<path d="M 19.71875 18.21875 L 19.71875 18.28125 C 18.454754 18.520489 17.46875 19.774202 17.46875 21.28125 L 17.46875 47.15625 C 17.46875 48.831676 18.775726 50.21875 20.375 50.21875 L 37.0625 50.21875 C 36.92551 49.61879 36.61651 48.87892 35.90625 48.0625 C 35.81247 47.96859 34.13724 46.28388 33.03125 43.8125 C 32.462753 42.54217 32.050213 41.060085 32.15625 39.46875 C 32.262287 37.877415 32.926987 36.1982 34.375 34.75 C 35.822968 33.30222 37.500805 32.60553 39.09375 32.5 C 39.684017 32.4609 40.256767 32.4818 40.8125 32.5625 L 40.84375 32.5625 C 41.294804 31.84612 41.53124 31.146084 41.53125 30.5 C 41.53124 29.701591 41.258324 29.017208 40.6875 28.46875 C 40.116657 27.920317 39.355297 27.656263 38.4375 27.65625 C 37.467453 27.656263 36.70702 27.949242 36.125 28.53125 C 35.542973 29.113289 35.2575 29.907778 35.25 30.9375 L 33.15625 30.71875 C 33.298023 29.17416 33.855976 27.997126 34.78125 27.1875 C 35.706512 26.37791 36.94047 25.968763 38.5 25.96875 C 40.074436 25.96877 41.300938 26.439482 42.21875 27.3125 C 43.136543 28.185549 43.593742 29.271614 43.59375 30.5625 C 43.593742 31.219154 43.48737 31.834503 43.21875 32.46875 C 43.13084 32.67631 43.00176 32.90625 42.875 33.125 C 45.68221 34.19858 47.630005 36.251915 47.6875 36.3125 L 47.71875 36.28125 C 48.39658 36.88084 48.98035 37.19885 49.46875 37.375 L 49.46875 21.28125 C 49.46875 19.726202 48.43193 18.430569 47.09375 18.25 L 47.09375 18.21875 L 19.71875 18.21875 z M 28.0625 25.96875 L 29.34375 25.96875 L 29.34375 42.46875 L 27.34375 42.46875 L 27.34375 29.625 C 26.858728 30.087646 26.224718 30.537374 25.4375 31.0 C 24.65027 31.462646 23.939293 31.831192 23.3125 32.0625 L 23.3125 30.09375 C 24.439234 29.563974 25.406803 28.941162 26.25 28.1875 C 27.093182 27.433868 27.711786 26.677645 28.0625 25.96875 z M 39.15625 33.625 C 37.810337 33.714165 36.431847 34.25582 35.15625 35.53125 C 30.054523 40.633636 36.75 47.34375 36.75 47.34375 C 38.70235 49.58793 38.21875 51.71875 38.21875 51.71875 L 39.6875 53.15625 L 44.6875 48.15625 C 45.028847 48.969013 45.842377 49.53125 46.78125 49.53125 C 48.029114 49.53125 49.03125 48.529118 49.03125 47.28125 C 49.03125 46.34436 48.469017 45.529503 47.65625 45.1875 L 52.8125 40.0625 L 51.53125 38.78125 L 51.34375 38.59375 C 51.34375 38.59375 49.416943 39.29061 46.96875 37.125 C 46.96875 37.125 43.19399 33.35751 39.15625 33.625 z " fill="#ffffff" fill-opacity="1"/>
<defs>
<linearGradient gradientUnits="userSpaceOnUse" x1="34.7925" x2="34.7925" xlink:actuate="onLoad" xlink:show="other" xlink:type="simple" y1="61.2329" y2="8.3545">
<stop offset="0" stop-color="#d0cbc5"/>
<stop offset="0.5031" stop-color="#fafcef"/>
<stop offset="0.9693" stop-color="#ffffff"/>
<stop offset="1" stop-color="#ffffff"/>
</linearGradient>
</defs>
</svg>
