<?xml version="1.0" encoding="UTF-8"?>
<svg xmlns="http://www.w3.org/2000/svg" xmlns:xlink="http://www.w3.org/1999/xlink" baseProfile="tiny" contentScriptType="text/ecmascript" contentStyleType="text/css" height="30px" preserveAspectRatio="xMidYMid meet" version="1.1" viewBox="0 0 30 30" width="30px" x="0px" y="0px" zoomAndPan="magnify">
<path d="M 15.0 27.0 C 12.795 27.0 11.0 25.206 11.0 23.0 C 11.0 20.794 12.794 19.0 15.0 19.0 C 17.207 19.0 19.0 20.794 19.0 23.0 C 19.0 25.206 17.207 27.0 15.0 27.0 L 15.0 27.0 z M 10.053 20.053 C 9.519 20.053 9.017 19.845 8.639 19.467 C 7.859 18.688 7.859 17.418 8.639 16.639 C 10.34 14.938 12.599 14.0 15.0 14.0 C 17.401001 14.0 19.66 14.938 21.361 16.639 C 22.142 17.418 22.142 18.688 21.361 19.467 C 20.984 19.845 20.482 20.053 19.947 20.053 C 19.414001 20.053 18.912 19.845 18.533 19.467 C 17.587 18.521 16.332 18.0 15.0 18.0 C 13.667999 18.0 12.414 18.521 11.467 19.467 C 11.089 19.845 10.587 20.053 10.053 20.053 L 10.053 20.053 z M 6.519 16.519 C 5.985 16.519 5.483 16.310999 5.105 15.932999 C 4.325 15.153998 4.325 13.883999 5.105 13.104999 C 7.752 10.458 11.266 9.0 15.0 9.0 C 18.734 9.0 22.25 10.458 24.896 13.104 C 25.675 13.883 25.675 15.153 24.896 15.932 C 24.517 16.31 24.015 16.518 23.482 16.518 C 22.947 16.518 22.445 16.31 22.068 15.931999 C 20.175 14.042 17.666 13.0 15.0 13.0 C 12.334 13.0 9.825 14.042 7.933 15.933001 C 7.555 16.311 7.053 16.519 6.519 16.519 L 6.519 16.519 z M 27.015 12.984 C 26.481998 12.984 25.98 12.776 25.601 12.398 C 22.765 9.563 19.0 8.0 15.0 8.0 C 11.0 8.0 7.236 9.563 4.399 12.398 C 4.0210004 12.776 3.519 12.984 2.9850001 12.984 C 2.4510002 12.984 1.9490001 12.776 1.5710001 12.398 C 0.7910001 11.6189995 0.7910001 10.349 1.5710001 9.57 C 5.162 5.979 9.932 4.0 15.0 4.0 C 20.068 4.0 24.838001 5.979 28.43 9.57 C 29.211 10.349 29.211 11.6189995 28.43 12.398 C 28.052 12.776 27.55 12.984 27.015 12.984 L 27.015 12.984 z " fill-opacity="0.15" stroke-opacity="0.15"/>
<path d="M 27.722 9.277 C 24.32 5.874 19.802 4.0 15.0 4.0 C 10.198 4.0 5.681 5.874 2.277 9.277 C 1.8859999 9.668 1.8859999 10.3 2.277 10.691 C 2.668 11.082 3.3 11.082 3.691 10.691 C 6.717 7.666 10.733 6.0 15.0 6.0 C 19.268 6.0 23.283 7.666 26.309 10.691 C 26.504 10.886 26.76 10.984 27.016 10.984 C 27.272001 10.984 27.528 10.886001 27.723001 10.691 C 28.113 10.301 28.113 9.668 27.722 9.277 z M 15.0 9.0 C 11.533 9.0 8.27 10.354 5.8120003 12.812 C 5.4210005 13.203 5.4210005 13.835 5.8120003 14.226 C 6.203 14.617 6.8360004 14.617 7.2260003 14.226 C 9.306 12.146 12.066 11.0 15.0 11.0 C 17.934 11.0 20.695 12.146 22.775 14.226 C 22.97 14.421 23.226 14.519 23.482 14.519 C 23.738 14.519 23.994 14.4210005 24.189001 14.226 C 24.580002 13.835 24.580002 13.203 24.189001 12.812 C 21.73 10.354 18.468 9.0 15.0 9.0 z M 15.0 14.0 C 12.867001 14.0 10.859 14.833 9.346001 16.346 C 8.955001 16.737001 8.955001 17.369001 9.346001 17.76 C 9.737 18.151 10.369 18.151001 10.76 17.76 C 11.894 16.625 13.4 16.0 15.0 16.0 C 16.6 16.0 18.105 16.625 19.24 17.76 C 19.435 17.955 19.691 18.053 19.947 18.053 C 20.203001 18.053 20.459 17.955 20.654001 17.76 C 21.045002 17.369 21.045002 16.737 20.654001 16.346 C 19.142 14.833 17.134 14.0 15.0 14.0 z M 15.0 19.0 C 13.344 19.0 12.0 20.343 12.0 22.0 C 12.0 23.656 13.344 25.0 15.0 25.0 C 16.658 25.0 18.0 23.656 18.0 22.0 C 18.0 20.343 16.658 19.0 15.0 19.0 z " fill-opacity="0.3" stroke-opacity="0.3"/>
<path d="M 27.722 10.277 C 24.32 6.874 19.802 5.0 15.0 5.0 C 10.198999 5.0 5.6809998 6.874 2.2779999 10.277 C 1.8869998 10.668 1.8869998 11.3 2.2779999 11.691 C 2.669 12.082 3.3009999 12.082 3.692 11.691 C 6.717 8.666 10.733 7.0 15.0 7.0 C 19.268 7.0 23.283 8.666 26.309 11.691 C 26.504 11.886 26.76 11.984 27.016 11.984 C 27.272001 11.984 27.528 11.886001 27.723001 11.691 C 28.113 11.301 28.113 10.668 27.722 10.277 z M 15.0 10.0 C 11.533 10.0 8.27 11.354 5.8120003 13.812 C 5.4210005 14.203 5.4210005 14.835 5.8120003 15.226 C 6.203 15.617 6.8360004 15.617 7.2260003 15.226 C 9.306 13.146 12.066 12.0 15.0 12.0 C 17.934 12.0 20.695 13.146 22.775 15.226 C 22.97 15.421 23.226 15.519 23.482 15.519 C 23.738 15.519 23.994 15.4210005 24.189001 15.226 C 24.580002 14.835 24.580002 14.203 24.189001 13.812 C 21.73 11.354 18.468 10.0 15.0 10.0 z M 15.0 15.0 C 12.867001 15.0 10.859 15.833 9.346001 17.346 C 8.955001 17.737001 8.955001 18.369001 9.346001 18.76 C 9.737 19.151 10.369 19.151001 10.76 18.76 C 11.894 17.625 13.4 17.0 15.0 17.0 C 16.6 17.0 18.105 17.625 19.24 18.76 C 19.435 18.955 19.691 19.053 19.947 19.053 C 20.203001 19.053 20.459 18.955 20.654001 18.76 C 21.045002 18.369 21.045002 17.737 20.654001 17.346 C 19.142 15.833 17.134 15.0 15.0 15.0 z M 15.0 20.0 C 13.344 20.0 12.0 21.343 12.0 23.0 C 12.0 24.656 13.344 26.0 15.0 26.0 C 16.658 26.0 18.0 24.656 18.0 23.0 C 18.0 21.343 16.658 20.0 15.0 20.0 z " fill="#575757"/>
<rect fill="none" height="30" width="30"/>
</svg>
