<?xml version="1.0" encoding="UTF-8"?>
<svg xmlns="http://www.w3.org/2000/svg" xmlns:xlink="http://www.w3.org/1999/xlink" baseProfile="tiny" contentScriptType="text/ecmascript" contentStyleType="text/css" height="30px" preserveAspectRatio="xMidYMid meet" version="1.1" viewBox="0 0 30 30" width="30px" x="0px" y="0px" zoomAndPan="magnify">
<rect fill="none" height="30" width="30"/>
<path d="M 14.259 27.0 C 14.13 27.0 14.0 26.975 13.877 26.924 C 13.502 26.769 13.259 26.404 13.259 26.0 L 13.259 19.508999 L 11.143 21.623999 C 10.948 21.818998 10.691999 21.916998 10.436 21.916998 C 10.18 21.916998 9.925 21.818998 9.73 21.624998 L 8.462999 20.360998 C 8.275 20.172998 8.169 19.918999 8.169 19.653997 C 8.169 19.387997 8.273999 19.132998 8.462 18.945997 L 12.416 14.992997 L 8.564 11.121997 C 8.175 10.730997 8.176001 10.098997 8.567 9.708997 L 9.832001 8.446997 C 10.027 8.252996 10.282001 8.154997 10.538001 8.154997 C 10.794002 8.154997 11.050001 8.252996 11.245001 8.447997 L 13.261001 10.462997 L 13.261001 4.0 C 13.261001 3.596 13.504001 3.231 13.877001 3.076 C 14.002 3.025 14.132 3.0 14.261 3.0 C 14.521 3.0 14.776 3.102 14.967 3.292 L 21.537 9.845 C 21.725 10.033 21.831001 10.288 21.831001 10.554 C 21.831001 10.821 21.725 11.075 21.536001 11.263 L 17.776001 14.995999 L 21.536001 18.734999 C 21.724 18.922998 21.831001 19.176998 21.831001 19.442999 C 21.831001 19.71 21.726002 19.963999 21.537 20.151999 L 14.965 26.707998 C 14.773 26.898 14.519 27.0 14.259 27.0 L 14.259 27.0 z " fill-opacity="0.15" stroke-opacity="0.15"/>
<path d="M 14.261 3.0 L 14.261 11.877 L 10.538 8.155 L 9.273 9.417 L 13.827999 13.995 L 9.168999 18.653 L 10.435999 19.917 L 14.258999 16.096 L 14.258999 25.0 L 20.831 18.444 L 16.356998 13.995001 L 20.830997 9.553001 L 14.261 3.0 z M 18.286 9.53 L 16.049 11.7699995 L 16.049 7.299 L 18.286 9.53 z M 16.049 20.819 L 16.049 16.198 L 18.361 18.511 L 16.049 20.819 z " fill-opacity="0.3" stroke-opacity="0.3"/>
<path d="M 14.261 4.0 L 14.261 12.877 L 10.538 9.155 L 9.273 10.417 L 13.827999 14.995 L 9.168999 19.653 L 10.435999 20.917 L 14.258999 17.096 L 14.258999 26.0 L 20.831 19.444 L 16.356998 14.995001 L 20.830997 10.553001 L 14.261 4.0 z M 18.286 10.53 L 16.049 12.7699995 L 16.049 8.299 L 18.286 10.53 z M 16.049 21.819 L 16.049 17.198 L 18.361 19.511 L 16.049 21.819 z " fill="#575757"/>
</svg>
