<?xml version="1.0" encoding="UTF-8"?>
<svg xmlns="http://www.w3.org/2000/svg" xmlns:xlink="http://www.w3.org/1999/xlink" baseProfile="tiny" contentScriptType="text/ecmascript" contentStyleType="text/css" height="27px" preserveAspectRatio="xMidYMid meet" version="1.1" viewBox="0 0 27 27" width="27px" x="0px" y="0px" zoomAndPan="magnify">
<g>
<rect fill="none" height="27" width="27" x="0.294"/>
</g>
<linearGradient gradientTransform="matrix(1 0 0 1 -289.96 -1193.8457)" gradientUnits="userSpaceOnUse" x1="303.46" x2="303.46" xlink:actuate="onLoad" xlink:show="other" xlink:type="simple" y1="1218.5527" y2="1195.5527">
<stop offset="0" stop-color="#d0cbc5"/>
<stop offset="1" stop-color="#fcfcf9"/>
</linearGradient>
<path d="M 23.749 1.733 L 23.749 1.707 L 21.941 1.707 C 21.801 1.726 21.587 1.784 21.442 1.967 C 21.301 2.142 21.327 2.391 21.358 2.542 L 21.579 2.921 L 22.39 4.331 C 22.424002 4.4589996 22.447 4.625 22.378002 4.796 C 22.303 4.988 22.099005 5.089 21.954002 5.14 L 18.658005 5.14 C 18.510002 5.0889997 18.308002 4.989 18.231005 4.796 C 18.150003 4.591 18.191002 4.397 18.242002 4.264 L 19.017002 2.921 L 19.213 2.581 C 19.248 2.4380002 19.29 2.1550002 19.139002 1.967 C 18.991 1.783 18.781002 1.725 18.641005 1.707 L 8.258 1.707 C 8.114 1.726 7.904 1.784 7.756001 1.967 C 7.604 2.156 7.647 2.438 7.681 2.581 L 7.88 2.921 L 8.653 4.264 C 8.704 4.397 8.745 4.592 8.663 4.797 C 8.586 4.99 8.385 5.09 8.239 5.141 L 4.941 5.141 C 4.795 5.09 4.593 4.99 4.519 4.797 C 4.506 4.77 4.509 4.744 4.503 4.715 C 4.514 4.537 4.54 4.354 4.609 4.159 L 4.615 4.14 L 5.3180003 2.921 L 5.5350003 2.542 C 5.569 2.392 5.5930004 2.143 5.4540005 1.967 C 5.3080006 1.783 5.0960007 1.725 4.9540005 1.707 L 3.139 1.707 L 3.139 1.743 C 2.188 1.916 1.453 2.815 1.453 3.897 L 1.453 22.515 C 1.453 23.72 2.439 24.706 3.643 24.706 L 23.355 24.706 C 24.559 24.706 25.546 23.72 25.546 22.515 L 25.546 3.897 C 25.547 2.781 24.758 1.863 23.749 1.733 z M 12.687 20.308 L 5.515 20.308 L 5.515 18.995 L 7.916 18.995 L 7.916 10.991001 L 5.515 11.494001 L 5.515 10.181002 L 9.069 9.096002 L 10.426001 9.096002 L 10.426001 18.994 L 12.686001 18.994 L 12.687 20.308 L 12.687 20.308 z M 21.576 20.325 L 14.373 20.325 L 14.373 19.346 C 14.373 17.102 15.869 15.667001 17.318 14.473001 C 18.3 13.664 18.91 13.084001 18.91 12.136001 C 18.91 11.113001 18.395 10.549001 17.162 10.549001 C 16.29 10.549001 15.509001 10.793001 14.763 11.053 L 14.763 9.542 C 15.76 9.250999 16.772001 9.080999 17.802 9.080999 C 20.078 9.080999 21.483 9.983 21.483 12.046 C 21.483 13.695999 20.548 14.566 19.222 15.667 C 17.818 16.827 16.899 17.636 16.79 18.844 L 21.577002 18.844 L 21.576 20.325 L 21.576 20.325 z " fill="#575757" fill-opacity="1"/>
</svg>
