<?xml version="1.0" encoding="UTF-8"?>
<svg xmlns="http://www.w3.org/2000/svg" xmlns:xlink="http://www.w3.org/1999/xlink" baseProfile="tiny" contentScriptType="text/ecmascript" contentStyleType="text/css" height="96px" preserveAspectRatio="xMidYMid meet" version="1.1" viewBox="0 0 96 96" width="96px" x="0px" y="0px" zoomAndPan="magnify">
<defs>
<linearGradient>
<stop offset="0" stop-color="#3a84ff" stop-opacity="1"/>
<stop offset="1" stop-color="#3a61ff" stop-opacity="0.99607843"/>
</linearGradient>
<linearGradient gradientUnits="userSpaceOnUse" id="linearGradient3873" x1="47.457626" x2="47.457626" y1="10.576271" y2="86.651802">
<stop offset="0" stop-color="#3a84ff" stop-opacity="1"/>
<stop offset="1" stop-color="#3a61ff" stop-opacity="0.99607843"/>
</linearGradient>
</defs>
<path d="M 88.0 49.0 C 88.0 78.633 77.636 89.0 48.0 89.0 C 18.365 89.0 8.0 78.632 8.0 49.0 C 8.0 19.365 18.365 9.0 48.0 9.0 C 77.636 9.0 88.0 19.365 88.0 49.0 z " fill-opacity="0.4" stroke-opacity="0.4"/>
<rect fill="none" height="96" width="96"/>
<linearGradient gradientUnits="userSpaceOnUse" x1="47.9995" x2="47.9995" xlink:actuate="onLoad" xlink:show="other" xlink:type="simple" y1="8.5449" y2="89.2393">
<stop offset="0" stop-color="#00bacc"/>
<stop offset="0.2312" stop-color="#01a1bb"/>
<stop offset="0.747" stop-color="#026d98"/>
<stop offset="1" stop-color="#02598b"/>
</linearGradient>
<path d="M 88.0 48.0 C 88.0 77.632 77.636 88.0 48.0 88.0 C 18.365 88.0 8.0 77.632 8.0 48.0 C 8.0 18.365 18.365 8.0 48.0 8.0 C 77.636 8.0 88.0 18.365 88.0 48.0 z " fill="url(#linearGradient3873)" fill-opacity="1"/>
<linearGradient gradientUnits="userSpaceOnUse" id="SVGID_2_" x1="47.9995" x2="47.9995" xlink:actuate="onLoad" xlink:show="other" xlink:type="simple" y1="8.2534" y2="87.4981">
<stop offset="0" stop-color="#ffffff"/>
<stop offset="1" stop-color="#ffffff" stop-opacity="0"/>
</linearGradient>
<path color="#000000" d="M 49.124996 20.750292 C 43.31253 20.75033 38.082207 22.09653 33.749996 24.875292 C 29.45613 27.629517 26.15053 31.640055 23.906246 36.62529 C 22.064934 40.694607 21.093742 45.03887 21.093746 49.56279 C 21.093742 53.642014 21.921288 57.51071 23.499996 61.06279 C 24.811016 63.97835 26.786228 66.5902 29.312496 68.78154 C 31.883133 71.011375 34.968006 72.654816 38.468746 73.71904 C 41.953213 74.778305 45.683853 75.25028 49.624996 75.25029 C 53.907898 75.25028 57.714725 74.7006 61.031246 73.46904 C 64.1834 72.298485 67.00163 70.70772 69.40625 68.59404 C 71.700874 66.576935 73.462585 64.45217 74.5625 62.18779 C 75.06337 61.17133 75.019936 59.948944 74.40625 58.96904 C 73.79257 57.98914 72.72854 57.430923 71.59375 57.43779 L 68.53125 57.43779 C 71.828964 53.380238 73.656204 48.61889 73.65625 43.46904 C 73.6562 39.59538 72.7382 35.847923 70.84375 32.46904 C 68.655136 28.610281 65.519066 25.59449 61.6875 23.62529 C 57.905064 21.681465 53.681423 20.75033 49.125 20.75029 z M 48.875 31.00029 C 50.90354 31.000309 52.700703 31.376427 54.40625 31.93779 C 53.83727 32.09498 53.344677 32.332676 52.9375 32.75029 C 52.820488 32.66681 52.76572 32.61259 52.625 32.53154 C 51.246277 31.73751 49.721226 31.29142 48.125 31.09404 C 48.3866 31.08424 48.60769 31.00029 48.875 31.00029 z M 62.28125 38.62529 C 62.961903 40.140064 63.37497 41.670086 63.375 43.37529 C 63.37497 45.209465 62.936115 47.045074 62.03125 48.87529 C 61.269955 50.414993 60.384007 51.500965 59.3125 52.40654 C 59.3181 52.38066 59.3069 52.37019 59.3125 52.34404 L 62.28125 38.62529 z M 47.15625 41.28154 C 48.077778 41.28155 48.249557 41.34011 48.84375 42.00029 C 49.267487 42.471127 49.624977 43.315125 49.625 45.06279 C 49.624977 46.356205 49.38756 47.705715 48.90625 49.06279 C 48.41043 50.460667 47.88288 51.385983 47.25 52.12529 C 46.514557 52.984367 45.812164 53.55465 45.21875 53.87529 C 44.581245 54.21974 44.112347 54.281548 43.84375 54.28154 C 43.564857 54.28154 43.475582 54.25598 43.34375 54.18779 C 43.21192 54.1196 42.99638 53.960487 42.65625 53.56279 C 42.18792 53.015213 41.843735 52.20228 41.84375 50.43779 C 41.84374 49.398506 42.021793 48.1264 42.46875 46.68779 C 42.91227 45.260178 43.47777 44.149586 44.09375 43.31279 C 44.757614 42.41093 45.369183 41.8803 45.8125 41.62529 C 46.298862 41.34552 46.56595 41.28155 47.15625 41.28154 z M 49.53125 62.31279 C 50.037956 62.836308 50.492836 63.4225 51.15625 63.75029 C 52.179165 64.25575 53.271378 64.447655 54.40625 64.53154 C 52.94783 64.78858 51.380028 64.96903 49.5625 64.96904 C 47.646408 64.96903 45.849625 64.77274 44.15625 64.43779 C 45.714325 64.24597 47.220966 63.80745 48.59375 63.03154 C 49.05524 62.770695 49.25244 62.570976 49.53125 62.31279 z " display="inline" fill="#000000" fill-opacity="0.07843137" fill-rule="nonzero" stroke="none" visibility="visible"/>
<path d="M 48.0 8.0 C 18.365 8.0 8.0 18.365 8.0 48.0 C 8.0 77.632 18.365 88.0 48.0 88.0 C 77.637 88.0 88.0 77.633 88.0 48.0 C 88.0 18.365 77.637 8.0 48.0 8.0 z M 48.0 87.0 C 18.842 87.0 9.0 77.16 9.0 48.0 C 9.0 18.842 18.842 9.0 48.0 9.0 C 77.158005 9.0 87.0 18.842 87.0 48.0 C 87.0 77.16 77.158 87.0 48.0 87.0 z " fill="url(#SVGID_2_)" fill-opacity="0.25" stroke-opacity="0.25"/>
<path color="#000000" d="M 49.124996 21.906544 C 43.4891 21.906582 38.494892 23.201468 34.374996 25.844044 C 30.282022 28.46941 27.13504 32.28204 24.968746 37.094044 C 23.191113 41.02263 22.249992 45.20484 22.249996 49.562794 C 22.249992 53.48556 23.048586 57.18776 24.562496 60.594044 C 25.802898 63.35256 27.65442 65.817726 30.062496 67.90654 C 32.500504 70.02133 35.448853 71.60274 38.812496 72.62529 C 42.167065 73.64507 45.773438 74.09403 49.624996 74.09404 C 53.807236 74.09403 57.471718 73.54623 60.624996 72.37529 C 63.67003 71.244514 66.37398 69.72518 68.65625 67.71904 C 70.86959 65.77339 72.51967 63.77032 73.53125 61.68779 C 73.859955 61.020714 73.81978 60.23099 73.425064 59.600723 C 73.03035 58.970455 72.3374 58.58954 71.59375 58.59404 L 67.09375 58.59404 C 66.39222 58.60164 65.738716 58.95171 65.34375 59.53154 C 64.139496 61.25576 62.198826 62.84598 59.5 64.18779 C 56.93665 65.462204 53.672592 66.12528 49.5625 66.12529 C 45.749577 66.12528 42.346096 65.473045 39.28125 64.18779 C 36.28791 62.932518 34.123096 61.135784 32.59375 58.59404 C 31.058884 56.043156 30.281244 52.92203 30.28125 49.15654 C 30.281244 45.587837 31.046349 42.341614 32.65625 39.25029 C 34.24561 36.198425 36.445072 33.935463 39.3125 32.31279 C 42.212067 30.671972 45.33393 29.84407 48.875 29.84404 C 51.978634 29.84407 54.71895 30.46725 57.21875 31.75029 C 57.82822 32.063126 58.257195 32.458218 58.78125 32.81279 L 55.21875 32.81279 C 54.259193 32.81379 53.41698 33.451836 53.15625 34.37529 C 52.789803 34.09209 52.46187 33.76157 52.0625 33.53154 C 50.463173 32.61046 48.684948 32.062828 46.84375 32.06279 C 44.443512 32.062828 42.074173 32.942482 39.8125 34.43779 C 37.445007 36.00309 35.51715 38.311043 34.03125 41.21904 C 32.546623 44.124523 31.749989 47.118366 31.75 50.12529 C 31.749989 52.561207 32.268005 54.85343 33.28125 56.93779 C 34.290115 59.01321 35.7033 60.70056 37.5 61.81279 C 39.173397 62.848717 41.02515 63.46904 42.9375 63.46904 C 44.708546 63.46904 46.43912 62.931427 48.03125 62.03154 C 48.585476 61.718277 49.01716 61.19637 49.53125 60.81279 C 50.09401 61.617565 50.82737 62.309494 51.65625 62.71904 C 52.76648 63.26765 54.00153 63.46904 55.375 63.46904 C 59.629845 63.46904 63.57214 61.38481 66.875 57.71904 C 70.57035 53.643234 72.49995 48.780907 72.5 43.46904 C 72.49995 39.774746 71.637695 36.231174 69.84375 33.03154 C 67.76145 29.360222 64.7932 26.525719 61.15625 24.65654 C 57.549507 22.803005 53.52485 21.90658 49.125 21.90654 z M 61.75 35.56279 C 62.050285 35.95244 62.43753 36.29513 62.6875 36.71904 C 63.932297 38.830185 64.53121 40.983368 64.53125 43.37529 C 64.53121 45.39745 64.036545 47.40515 63.0625 49.37529 C 62.086246 51.34974 60.916187 52.80306 59.34375 53.90654 C 59.33333 53.906467 59.32292 53.906467 59.3125 53.90654 C 58.370094 54.574978 57.967876 54.61788 57.625 54.71904 C 57.745525 54.098976 57.945663 53.222527 58.1875 52.09404 L 61.75 35.56279 z M 47.15625 40.12529 C 48.26231 40.125305 48.94213 40.39089 49.6875 41.21904 C 50.35577 41.961594 50.781227 43.144665 50.78125 45.06279 C 50.781227 46.495274 50.521988 47.966015 50.0 49.43779 C 49.470154 50.931602 48.864326 52.01164 48.125 52.87529 C 47.319836 53.81581 46.533394 54.46888 45.78125 54.87529 C 44.996243 55.29944 44.330708 55.437794 43.84375 55.43779 C 43.07854 55.437794 42.566776 55.23127 41.78125 54.31279 C 41.10521 53.522358 40.687485 52.368553 40.6875 50.43779 C 40.687485 49.260777 40.898403 47.87806 41.375 46.34404 C 41.847935 44.82175 42.44581 43.59041 43.15625 42.62529 C 43.898 41.617622 44.632668 40.9804 45.25 40.62529 C 45.874672 40.26597 46.41927 40.125305 47.15625 40.12529 z " display="inline" fill="#000000" fill-opacity="0.07843137" fill-rule="nonzero" stroke="none" visibility="visible"/>
<path d="M 36.146 47.29 L 36.146 46.456 C 36.139 46.613 36.131 46.905 36.146 47.29 z " fill="#f16522"/>
<path d="M 36.145996 44.29029 L 36.145996 43.45629 C 36.138996 43.613293 36.130997 43.905293 36.145996 44.29029 z " fill="#f16522"/>
<path d="M 47.643 76.617 C 43.123 76.617 38.982 76.008 35.334 74.80399 C 29.823 72.98599 25.724998 69.368 23.483 64.342995 C 21.189 59.205 21.0 53.791 21.0 48.234 C 21.0 42.871 21.439 36.669003 24.696 31.336 C 27.426 26.871 32.03 23.802 38.011 22.461 C 41.154 21.755 44.492996 21.397 47.936996 21.397 C 51.125996 21.397 54.27399 21.705002 57.290997 22.312002 C 63.382996 23.538002 68.106995 26.469002 70.954994 30.789 C 74.54 36.229 75.0 42.831 75.0 47.975 L 75.0 48.292 C 75.001 49.484 75.002 50.834 74.909 52.203 C 74.397 59.421997 71.56 64.313995 66.701996 66.359 C 65.48499 66.871 64.148994 67.203 62.782 67.339005 C 62.99 68.091 63.219 68.878006 63.471996 69.58301 C 63.830997 70.57901 63.775997 71.70201 63.317997 72.66101 C 62.854996 73.62401 62.013996 74.37401 61.01 74.72001 C 59.540997 75.226006 57.976 75.61301 56.226 75.90201 C 53.357 76.376 50.47 76.617 47.643 76.617 L 47.643 76.617 z M 61.632 52.738 C 61.631 52.941 61.63 53.195 61.634 53.439 C 61.708 53.232 61.793 52.953 61.877 52.58 C 62.374 50.360996 62.425 47.739 62.039 44.329 C 61.935 43.421997 61.801 42.615997 61.631996 41.892 L 61.631996 52.738 z M 46.902 45.23 C 46.06 45.23 45.264 45.505 45.141 45.742 C 44.805 46.388 44.851 47.929 44.889 49.167 C 44.905 49.667 44.917 50.153 44.917 50.62 C 44.916 52.28 45.467 52.458 45.647 52.516 C 46.153 52.678 46.839 52.77 47.532 52.77 C 48.015 52.77 48.49 52.723 48.907 52.633 L 48.906 45.229 L 46.902 45.229 z " fill-opacity="0.02" stroke-opacity="0.02"/>
<linearGradient gradientUnits="userSpaceOnUse" x1="47.9995" x2="47.9995" xlink:actuate="onLoad" xlink:show="other" xlink:type="simple" y1="27.8447" y2="77.9761">
<stop offset="0" stop-color="#fafcef"/>
<stop offset="0.3232" stop-color="#fafcef"/>
<stop offset="1" stop-color="#d0cbc5"/>
</linearGradient>
<path d="M 57.586994 49.660294 L 57.586994 49.353294 C 57.582993 49.440296 57.582993 49.543293 57.586994 49.660294 z " fill="#ffffff"/>
<path d="M 57.587 52.66 L 57.587 52.353 C 57.584 52.441 57.584 52.542 57.587 52.66 z " fill="#ffffff"/>
<path color="#000000" d="M 49.115498 25.056696 C 53.232178 25.056732 56.912308 25.881731 60.190765 27.566555 C 63.46915 29.251455 66.06699 31.759651 67.9594 35.09614 C 69.569496 37.967903 70.349686 41.08863 70.34974 44.458332 C 70.349686 49.272232 68.67645 53.55162 65.29018 57.286522 C 62.269 60.63965 58.95571 62.30625 55.37023 62.30625 C 54.224827 62.30625 53.286945 62.13694 52.581493 61.788345 C 51.87598 61.43975 51.359734 60.961685 51.027767 60.314297 C 50.811947 59.899307 50.689106 59.17557 50.58954 58.162987 C 49.510536 59.407967 48.300426 60.395638 46.96418 61.15092 C 45.627888 61.9062 44.284977 62.30625 42.94043 62.30625 C 41.46304 62.30625 40.032154 61.854744 38.637814 60.99156 C 37.243427 60.128387 36.083115 58.800415 35.211647 57.00765 C 34.340157 55.214897 33.896946 53.252827 33.896957 51.111465 C 33.896946 48.472137 34.575867 45.831142 35.928753 43.183483 C 37.28161 40.535866 38.979744 38.535614 40.98832 37.20762 C 42.996853 35.879673 44.952286 35.215694 46.844666 35.215668 C 48.288803 35.215694 49.676533 35.615746 50.98793 36.371 C 52.299267 37.12631 53.428047 38.253418 54.374252 39.797157 L 55.210873 35.972603 L 59.672848 35.972603 L 56.087334 52.66518 C 55.589306 54.98914 55.330353 56.280586 55.330387 56.529575 C 55.330353 56.977776 55.507973 57.36122 55.848293 57.68491 C 56.18855 58.008606 56.60188 58.162983 57.083305 58.16298 C 57.963047 58.162983 59.121704 57.661674 60.54931 56.649094 C 62.441628 55.321133 63.907364 53.54331 65.011284 51.310654 C 66.11511 49.078014 66.68449 46.752415 66.684525 44.37865 C 66.68449 41.60654 65.95244 39.016994 64.53322 36.610027 C 63.113907 34.203106 61.012398 32.277554 58.198803 30.83336 C 55.38513 29.389227 52.279343 28.682083 48.876453 28.682053 C 44.99212 28.682083 41.451424 29.613325 38.239414 31.430948 C 35.027374 33.24864 32.517513 35.84482 30.749664 39.23941 C 28.9818 42.63406 28.120275 46.271027 28.120285 50.155323 C 28.120277 54.22224 28.981798 57.73472 30.749664 60.67284 C 32.517513 63.61098 35.093773 65.76395 38.43861 67.16662 C 41.783413 68.569275 45.486786 69.27808 49.55372 69.27809 C 53.90279 69.27808 57.53146 68.5477 60.469627 67.086945 C 63.40772 65.626175 65.622116 63.84006 67.082924 61.748505 L 71.58475 61.748505 C 70.738106 63.49146 69.30059 65.27758 67.24228 67.086945 C 65.183876 68.8963 62.710545 70.33549 59.872047 71.38957 C 57.03348 72.443634 53.63388 72.94328 49.6334 72.9433 C 45.94826 72.94329 42.547 72.4951 39.434593 71.54893 C 36.32215 70.60274 33.657913 69.18679 31.466774 67.28614 C 29.27562 65.38548 27.638897 63.186035 26.526728 60.712692 C 25.132359 57.57537 24.41525 54.189053 24.415258 50.553726 C 24.41525 46.503433 25.265154 42.629086 26.925117 38.960545 C 28.950266 34.46207 31.803738 31.032597 35.53036 28.64222 C 39.25696 26.25191 43.803596 25.056738 49.1155 25.056702 z M 47.16338 38.960537 C 46.10098 38.96056 45.113304 39.217854 44.175446 39.75732 C 43.23754 40.29683 42.306305 41.151707 41.426544 42.346863 C 40.54674 43.542053 39.84624 45.01942 39.31507 46.729164 C 38.783867 48.43894 38.518272 50.002625 38.51829 51.430176 C 38.518276 53.704334 39.0727 55.46721 40.151695 56.728775 C 41.230648 57.99035 42.46234 58.601215 43.856735 58.601215 C 44.786285 58.601215 45.77563 58.32068 46.80483 57.76459 C 47.833977 57.20851 48.815018 56.39015 49.75292 55.294567 C 50.690777 54.199 51.426132 52.83617 52.023746 51.151306 C 52.621304 49.466454 52.940018 47.745075 52.940044 46.051903 C 52.940018 43.794373 52.38725 42.03814 51.266804 40.793144 C 50.14631 39.548203 48.77352 38.960567 47.163383 38.96055 z " display="inline" fill="#000000" fill-opacity="0.07843137" fill-rule="nonzero" stroke="none" visibility="visible"/>
<path d="M 47.0 83.0 C 46.466 83.0 45.964 82.793 45.586 82.414 C 45.016 81.846 44.843 80.994 45.147 80.248 L 49.825 68.709 C 49.925 68.461 50.072 68.236 50.264 68.045 L 72.723 45.587 C 73.101 45.208 73.603 45.0 74.137 45.0 C 74.67 45.0 75.172005 45.208 75.55 45.584 L 82.414 52.448 C 83.194 53.226997 83.194 54.495 82.414 55.275997 L 59.956 77.734 C 59.766003 77.925 59.543003 78.072 59.294003 78.17301 L 47.752003 82.853004 C 47.511 82.951 47.258 83.0 47.0 83.0 L 47.0 83.0 z " fill-opacity="0.05" stroke-opacity="0.05"/>
<path color="#000000" d="M 49.115498 22.056995 C 53.23217 22.057034 56.912304 22.88203 60.190758 24.566856 C 63.469147 26.251755 66.066986 28.759956 67.95939 32.096443 C 69.569496 34.968204 70.34968 38.08893 70.34973 41.458633 C 70.34968 46.272537 68.676445 50.551918 65.29017 54.286823 C 62.268997 57.63995 58.955708 59.30655 55.370228 59.30655 C 54.224823 59.30655 53.28694 59.137234 52.58149 58.788643 C 51.875977 58.44005 51.359726 57.961983 51.027763 57.314594 C 50.811943 56.899605 50.6891 56.175865 50.589535 55.16328 C 49.510532 56.408264 48.30042 57.395935 46.964176 58.151215 C 45.627884 58.906498 44.284973 59.30655 42.940426 59.30655 C 41.463036 59.30655 40.032158 58.855038 38.637806 57.99186 C 37.243423 57.12868 36.08311 55.800713 35.211643 54.00795 C 34.340153 52.215195 33.89694 50.25312 33.896954 48.111763 C 33.89694 45.472435 34.575867 42.83144 35.92875 40.18378 C 37.281605 37.536163 38.979744 35.53591 40.988316 34.207912 C 42.99685 32.87997 44.952286 32.215996 46.84466 32.215958 C 48.2888 32.215992 49.67653 32.61604 50.987926 33.371296 C 52.299267 34.126602 53.428043 35.253716 54.37425 36.797455 L 55.21087 32.9729 L 59.672844 32.9729 L 56.08733 49.66548 C 55.589302 51.989437 55.33035 53.280888 55.330383 53.529873 C 55.33035 53.97807 55.50797 54.36152 55.84829 54.685207 C 56.188545 55.008904 56.601875 55.163277 57.0833 55.163277 C 57.963043 55.163277 59.1217 54.661976 60.549305 53.64939 C 62.441624 52.32143 63.907364 50.54361 65.011284 48.31095 C 66.11511 46.078312 66.68449 43.75271 66.684525 41.37895 C 66.68449 38.606834 65.95244 36.017296 64.53322 33.610325 C 63.113907 31.203405 61.012398 29.27785 58.198803 27.833654 C 55.38513 26.38952 52.279343 25.682377 48.876453 25.682344 C 44.99212 25.68238 41.451424 26.61362 38.239414 28.431242 C 35.027374 30.24893 32.517513 32.845108 30.749664 36.239704 C 28.9818 39.634354 28.120275 43.271324 28.120285 47.155617 C 28.120277 51.222534 28.981798 54.735012 30.749664 57.673138 C 32.517513 60.61127 35.093773 62.764244 38.43861 64.16691 C 41.783413 65.569565 45.486786 66.27837 49.55372 66.27838 C 53.90279 66.27837 57.53146 65.54799 60.469627 64.087234 C 63.407722 62.626465 65.622116 60.84035 67.082924 58.748795 L 71.58475 58.748795 C 70.738106 60.491753 69.30059 62.277874 67.24228 64.087234 C 65.183876 65.89659 62.710545 67.33578 59.872047 68.389854 C 57.03348 69.443924 53.63388 69.94357 49.6334 69.94359 C 45.94826 69.94358 42.547 69.49539 39.434593 68.54922 C 36.32215 67.60303 33.657913 66.18708 31.466774 64.28643 C 29.27562 62.38577 27.638897 60.18632 26.526728 57.712982 C 25.132359 54.57566 24.415253 51.18934 24.415258 47.554012 C 24.41525 43.50372 25.265154 39.62937 26.925117 35.96083 C 28.950266 31.462357 31.803738 28.032883 35.53036 25.642506 C 39.25696 23.252197 43.803596 22.057024 49.1155 22.056988 z M 47.16338 35.960823 C 46.10098 35.960846 45.113304 36.21814 44.175446 36.757607 C 43.237545 37.297115 42.30631 38.151993 41.426548 39.34715 C 40.546745 40.54234 39.846245 42.019707 39.315075 43.72945 C 38.78387 45.439228 38.518276 47.00291 38.518295 48.430466 C 38.51828 50.704617 39.072704 52.4675 40.1517 53.729065 C 41.23065 54.99064 42.462345 55.601505 43.856735 55.6015 C 44.78629 55.601505 45.77563 55.32097 46.80483 54.76488 C 47.833977 54.208797 48.81502 53.390438 49.752922 52.294857 C 50.690777 51.19929 51.426132 49.83646 52.023746 48.151592 C 52.621307 46.46674 52.94002 44.745365 52.94005 43.05219 C 52.94002 40.79466 52.387253 39.03842 51.266808 37.79343 C 50.146305 36.548485 48.773518 35.960854 47.16338 35.96083 z " display="inline" fill="#ffffff" fill-opacity="1" fill-rule="nonzero" stroke="none" visibility="visible"/>
<path d="M 47.0 82.0 C 46.74 82.0 46.484 81.898 46.293 81.707 C 46.009 81.424 45.922 80.996 46.073 80.625 L 50.751 69.084 C 50.801 68.959 50.876 68.848 50.971 68.752 L 73.43 46.293 C 73.625 46.098 73.881 46.0 74.137 46.0 C 74.393005 46.0 74.649 46.098 74.844 46.292 L 81.707 53.155 C 82.098 53.546 82.098 54.178 81.707 54.569 L 59.249 77.027 C 59.154 77.123 59.042 77.197 58.918 77.248 L 47.376 81.928 C 47.254 81.976 47.127 82.0 47.0 82.0 L 47.0 82.0 z " fill-opacity="0.1" stroke-opacity="0.1"/>
<polygon fill-opacity="0.1" points="79.129,51.99 76.009,48.871 74.138,47 74.137,47 74.137,47 51.678,69.458 46.999,81 47,81 47,81   58.542,76.32 81,53.863 " stroke-opacity="0.1"/>
<linearGradient gradientUnits="userSpaceOnUse" id="SVGID_4_" x1="52.293" x2="59.058" xlink:actuate="onLoad" xlink:show="other" xlink:type="simple" y1="66.8257" y2="73.5907">
<stop offset="0" stop-color="#fafcef"/>
<stop offset="0.1818" stop-color="#fafcef"/>
<stop offset="0.6848" stop-color="#d0cbc5"/>
<stop offset="1" stop-color="#e1dfd6"/>
</linearGradient>
<polygon fill="url(#SVGID_4_)" points="58.542,61.843 51.72,67.5 48.814,74.578 51.438,77.201 58.542,74.32 64.155,67.458 "/>
<linearGradient gradientUnits="userSpaceOnUse" x1="50.7344" x2="57.4994" xlink:actuate="onLoad" xlink:show="other" xlink:type="simple" y1="68.3843" y2="75.1493">
<stop offset="0" stop-color="#fafcef"/>
<stop offset="0.1818" stop-color="#fafcef"/>
<stop offset="0.6848" stop-color="#d0cbc5"/>
<stop offset="1" stop-color="#e1dfd6"/>
</linearGradient>
<polygon fill="#f4f4f4" fill-opacity="1" points="51.72,67.5 47,79 58.542,74.32 64.155,67.458 58.542,61.843 "/>
<linearGradient gradientUnits="userSpaceOnUse" id="SVGID_6_" x1="51.6787" x2="76.0088" xlink:actuate="onLoad" xlink:show="other" xlink:type="simple" y1="57.1646" y2="57.1646">
<stop offset="0" stop-color="#e7e6dc"/>
<stop offset="1" stop-color="#fafcef"/>
</linearGradient>
<polygon fill="url(#SVGID_6_)" points="76.009,46.871 53.552,69.33 51.679,67.458 74.138,45 "/>
<rect fill="#f4f4f4" fill-opacity="1" height="2.648" transform="matrix(0.7071 -0.7071 0.7071 0.7071 -21.7221 61.8903)" width="31.76" x="47.964" y="55.841"/>
<linearGradient gradientUnits="userSpaceOnUse" id="SVGID_7_" x1="56.6689" x2="81" xlink:actuate="onLoad" xlink:show="other" xlink:type="simple" y1="62.1548" y2="62.1548">
<stop offset="0" stop-color="#d0cbc5"/>
<stop offset="1" stop-color="#e4e2d9"/>
</linearGradient>
<polygon fill="url(#SVGID_7_)" points="81,51.863 58.542,74.32 56.669,72.449 79.129,49.99 "/>
<rect fill="#f4f4f4" fill-opacity="1" height="2.648" transform="matrix(0.7071 -0.7071 0.7071 0.7071 -23.7897 66.8763)" width="31.76" x="52.955" y="60.832"/>
<linearGradient gradientUnits="userSpaceOnUse" x1="53.5518" x2="79.1289" xlink:actuate="onLoad" xlink:show="other" xlink:type="simple" y1="59.6597" y2="59.6597">
<stop offset="0" stop-color="#dcd9d1"/>
<stop offset="1" stop-color="#efefe4"/>
</linearGradient>
<polygon fill="#ffffff" fill-opacity="1" points="79.129,49.99 56.669,72.449 53.552,69.33 76.009,46.871 "/>
<linearGradient gradientUnits="userSpaceOnUse" x1="47.2202" x2="49.6451" xlink:actuate="onLoad" xlink:show="other" xlink:type="simple" y1="76.1011" y2="78.526">
<stop offset="0" stop-color="#bbbdbf"/>
<stop offset="0.1818" stop-color="#bbbdbf"/>
<stop offset="0.6848" stop-color="#404041"/>
<stop offset="1" stop-color="#6d6e70"/>
</linearGradient>
<polygon fill="#e1e1e1" fill-opacity="1" points="48.814,74.578 47,79 51.438,77.201 " stroke-opacity="0.4"/>
<rect fill="none" height="96" width="96"/>
</svg>
