<?xml version="1.0" encoding="UTF-8"?>
<svg xmlns="http://www.w3.org/2000/svg" xmlns:xlink="http://www.w3.org/1999/xlink" baseProfile="tiny" contentScriptType="text/ecmascript" contentStyleType="text/css" height="30px" preserveAspectRatio="xMidYMid meet" version="1.1" viewBox="0 0 30 30" width="30px" x="0px" y="0px" zoomAndPan="magnify">
<path d="M 18.92 8.373 L 18.92 5.935 L 2.957 5.935 L 2.957 18.817 C 2.957 19.651 3.639 20.333 4.472 20.333 L 9.57 20.333 L 9.57 11.186 C 9.57 9.635 10.83 8.374 12.379999 8.374 L 18.919998 8.374 z M 18.919998 3.0609994 C 18.919998 3.0609994 19.149998 1.5459994 17.399998 1.5459994 L 4.472 1.5459994 C 3.639 1.5459994 2.9570005 2.2289994 2.9570005 3.061999 L 2.9570005 4.677 L 18.92 4.677 L 18.92 3.06 z M 10.866 26.893 C 10.866 26.893 10.650001 28.456 12.38 28.456 L 25.529 28.456 C 26.359 28.456 27.043 27.774 27.043 26.94 L 27.043 14.019 L 10.866 14.019 L 10.866 26.893 z M 25.529 9.669 L 12.38 9.669 C 11.547 9.669 10.866 10.353 10.866 11.184999 L 10.866 12.8 L 27.043 12.8 L 27.043 11.185 C 27.043 10.353001 26.359 9.669001 25.529 9.669001 z " fill="#70afe0"/>
</svg>
