<?xml version="1.0" encoding="UTF-8"?>
<svg xmlns="http://www.w3.org/2000/svg" xmlns:xlink="http://www.w3.org/1999/xlink" baseProfile="tiny" contentScriptType="text/ecmascript" contentStyleType="text/css" height="27px" preserveAspectRatio="xMidYMid meet" version="1.1" viewBox="0 0 27 27" width="27px" x="0px" y="0px" zoomAndPan="magnify">
<rect fill="none" height="27" width="27"/>
<path d="M 15.0 20.2 L 14.272 20.2 C 14.162001 20.2 14.072 20.11 14.072 20.0 L 14.072 19.086 C 14.072 17.625 14.721001 16.527 15.556001 15.623 C 15.573001 15.605 15.589001 15.587 15.607 15.569 C 16.013 15.136001 16.458 14.743 16.897 14.381 C 17.776 13.657001 18.31 13.159 18.31 12.353001 C 18.31 11.465 17.869 11.070001 16.878 11.070001 C 16.09 11.070001 15.371 11.298 14.701 11.530001 C 14.68 11.537001 14.658 11.541 14.636001 11.541 C 14.595 11.541 14.554001 11.528001 14.52 11.504001 C 14.467 11.466001 14.436001 11.406001 14.436001 11.341001 L 14.436001 9.93 C 14.436001 9.841001 14.495001 9.7630005 14.581001 9.738 C 15.599 9.443 16.546 9.3 17.477 9.3 C 19.855 9.3 21.113 10.327 21.113 12.269 C 21.113 13.464 20.633 14.233 19.842 15.0 L 25.0 15.0 L 25.0 4.0 C 25.0 3.45 24.55 3.0 24.0 3.0 L 21.125 3.0 C 20.575 3.0 20.363 3.382 20.655 3.848 L 21.469 5.153 C 21.762 5.618 21.55 6.0 21.0 6.0 L 18.0 6.0 C 17.45 6.0 17.238 5.618 17.53 5.152 L 18.344 3.847 C 18.637 3.382 18.425 3.0 17.875 3.0 L 9.125 3.0 C 8.575 3.0 8.363 3.382 8.655 3.848 L 9.47 5.152 C 9.762 5.618 9.55 6.0 9.0 6.0 L 6.0 6.0 C 5.45 6.0 5.238 5.618 5.53 5.152 L 6.3440003 3.847 C 6.637 3.382 6.425 3.0 5.875 3.0 L 3.0 3.0 C 2.45 3.0 2.0 3.45 2.0 4.0 L 2.0 23.0 C 2.0 23.55 2.45 24.0 3.0 24.0 L 15.0 24.0 L 15.0 20.2 z M 12.899 20.0 C 12.899 20.11 12.809 20.2 12.699 20.2 L 6.0 20.2 C 5.89 20.2 5.8 20.11 5.8 20.0 L 5.8 18.773 C 5.8 18.663 5.8900003 18.573 6.0 18.573 L 8.042 18.573 L 8.042 11.545 L 6.041 11.964 C 6.027 11.967 6.014 11.969 6.0 11.969 C 5.954 11.969 5.91 11.953 5.874 11.924 C 5.827 11.886 5.8 11.829 5.8 11.769 L 5.8 10.543 C 5.8 10.455 5.8580003 10.377 5.9420004 10.352 L 9.261001 9.338 L 10.587001 9.329 C 10.6970005 9.329 10.787001 9.419001 10.787001 9.529 L 10.787001 18.573 L 12.699 18.573 C 12.809 18.573 12.899 18.663 12.899 18.773 L 12.899 20.0 z " fill="#575757" fill-opacity="1"/>
<path d="M 25.0 16.0 L 17.0 16.0 C 16.45 16.0 16.0 16.45 16.0 17.0 L 16.0 25.0 C 16.0 25.55 16.45 26.0 17.0 26.0 L 25.0 26.0 C 25.55 26.0 26.0 25.55 26.0 25.0 L 26.0 17.0 C 26.0 16.45 25.55 16.0 25.0 16.0 z M 21.0 24.0 L 18.0 19.0 L 24.0 19.0 L 21.0 24.0 z " fill="#575757"/>
<defs>
<linearGradient gradientUnits="userSpaceOnUse" x1="13.5005" x2="13.5005" xlink:actuate="onLoad" xlink:show="other" xlink:type="simple" y1="24" y2="3.0005">
<stop offset="0" stop-color="#d0cbc5"/>
<stop offset="1" stop-color="#fcfcf9"/>
</linearGradient>
</defs>
</svg>
