<?xml version="1.0" encoding="UTF-8"?>
<svg xmlns="http://www.w3.org/2000/svg" xmlns:xlink="http://www.w3.org/1999/xlink" baseProfile="tiny" contentScriptType="text/ecmascript" contentStyleType="text/css" height="30px" preserveAspectRatio="xMidYMid meet" version="1.1" viewBox="0 0 30 30" width="30px" x="0px" y="0px" zoomAndPan="magnify">
<defs/>
<path d="M 16.875 5.4375 C 16.820124 5.4505296 16.767473 5.47159 16.71875 5.5 L 1.71875 14.5 C 1.5377237 14.601309 1.4255952 14.792554 1.4255952 15.0 C 1.4255952 15.207446 1.5377237 15.398691 1.71875 15.5 L 16.71875 24.5 C 16.895548 24.594816 17.10906 24.590258 17.28165 24.487982 C 17.45424 24.385706 17.56077 24.200611 17.5625 24.0 L 17.5625 19.0625 L 27.0 19.0625 C 27.308317 19.056913 27.556913 18.808317 27.5625 18.5 L 27.5625 11.5 C 27.556913 11.191683 27.308317 10.943086 27.0 10.9375 L 17.5625 10.9375 L 17.5625 6.0 C 17.562828 5.827765 17.485659 5.6645193 17.352356 5.555454 C 17.219053 5.446388 17.04376 5.403073 16.875 5.4375 z " fill="#ffffff" fill-opacity="0.78431374" stroke="#969696" stroke-opacity="0.78431373999999998"/>
<rect fill="none" height="30" width="30"/>
</svg>
