<?xml version="1.0" encoding="UTF-8"?>
<svg xmlns="http://www.w3.org/2000/svg" xmlns:xlink="http://www.w3.org/1999/xlink" baseProfile="tiny" contentScriptType="text/ecmascript" contentStyleType="text/css" height="30px" preserveAspectRatio="xMidYMid meet" version="1.1" viewBox="0 0 30 30" width="30px" x="0px" y="0px" zoomAndPan="magnify">
<defs/>
<path d="M 27.969 6.934 C 26.421999 0.4419999 19.630001 2.225 19.630001 2.225 C 14.766001 3.135 10.748001 6.893 9.512001 8.162 L 9.504 8.156 L 7.66 10.001 L 7.6689997 10.01 C 6.1099997 11.635 3.0349998 15.297001 2.2229996 19.631 C 2.2229996 19.631 0.44399953 26.424 6.9329996 27.969002 C 7.8429995 28.186 8.368 27.191002 8.368 27.191002 L 9.983 22.876001 C 10.497 21.894001 9.815 21.315 9.815 21.315 L 7.936 19.213001 C 8.12 19.372002 5.899 17.416 11.398 11.744001 L 11.398 11.742002 L 11.672 11.469002 L 11.674 11.470002 C 17.348 5.9690022 19.300999 8.190002 19.143 8.010002 L 21.314 9.812002 C 21.314 9.812002 21.893 10.497003 22.873999 9.982002 L 27.188 8.371002 C 27.188 8.37 28.186 7.842 27.969 6.934 z " fill="#ffffff"/>
<rect fill="none" height="30" width="30"/>
</svg>
