<?xml version="1.0" encoding="UTF-8"?>
<svg xmlns="http://www.w3.org/2000/svg" xmlns:xlink="http://www.w3.org/1999/xlink" baseProfile="tiny" contentScriptType="text/ecmascript" contentStyleType="text/css" height="30px" preserveAspectRatio="xMidYMid meet" version="1.1" viewBox="0 0 30 30" width="30px" x="0px" y="0px" zoomAndPan="magnify">
<rect fill="none" height="30" width="30"/>
<path d="M 25.609 12.454 L 17.545 12.454 L 17.545 4.392 C 17.545 4.119 17.439 3.861 17.242 3.665 C 17.046 3.469 16.788 3.361 16.515 3.361 L 13.483 3.361 C 12.915 3.361 12.452 3.823 12.452 4.392 L 12.452 12.455 L 4.391 12.455 C 3.8229997 12.455 3.3599997 12.917 3.3599997 13.486 L 3.3599997 16.517 C 3.3599997 17.085 3.8219995 17.547 4.391 17.547 L 12.453 17.547 L 12.453 25.61 C 12.453 26.177 12.915 26.639 13.484 26.639 L 16.516 26.639 C 17.083 26.639 17.545 26.177 17.545 25.61 L 17.545 17.547 L 25.609 17.547 C 26.177002 17.547 26.639002 17.085 26.639002 16.517 L 26.639002 13.486 C 26.64 12.917 26.178 12.454 25.609 12.454 z " fill-opacity="0.15" stroke-opacity="0.15"/>
<path d="M 25.609 12.454 L 17.545 12.454 L 17.545 4.392 C 17.545 4.119 17.439 3.861 17.242 3.665 C 17.046 3.469 16.788 3.361 16.515 3.361 L 13.483 3.361 C 12.915 3.361 12.452 3.823 12.452 4.392 L 12.452 12.455 L 4.391 12.455 C 3.8229997 12.455 3.3599997 12.917 3.3599997 13.486 L 3.3599997 16.517 C 3.3599997 17.085 3.8219995 17.547 4.391 17.547 L 12.453 17.547 L 12.453 25.61 C 12.453 26.177 12.915 26.639 13.484 26.639 L 16.516 26.639 C 17.083 26.639 17.545 26.177 17.545 25.61 L 17.545 17.547 L 25.609 17.547 C 26.177002 17.547 26.639002 17.085 26.639002 16.517 L 26.639002 13.486 C 26.64 12.917 26.178 12.454 25.609 12.454 z " fill="#70afe0"/>
</svg>
