<?xml version="1.0" encoding="UTF-8"?>
<svg xmlns="http://www.w3.org/2000/svg" xmlns:xlink="http://www.w3.org/1999/xlink" baseProfile="tiny" contentScriptType="text/ecmascript" contentStyleType="text/css" height="57px" preserveAspectRatio="xMidYMid meet" version="1.1" viewBox="0 0 67 57" width="67px" x="0px" y="0px" zoomAndPan="magnify">
<rect color="#000000" display="inline" fill="#01a0f3" fill-opacity="0.58823528999999997" fill-rule="nonzero" height="48" ry="8.2174387" stroke="none" visibility="visible" width="48" x="9" y="5.5"/>
<rect fill="none" height="57" width="67"/>
<path d="M 33.592545 34.729294 C 31.925835 34.729294 30.57146 36.082973 30.57146 37.74829 C 30.57146 39.415 31.925837 40.770073 33.592545 40.770073 C 35.257168 40.770073 36.61224 39.415 36.61224 37.74829 C 36.61224 36.08297 35.256474 34.729294 33.592545 34.729294 z M 33.496555 28.688515 C 30.815628 28.688515 28.311388 29.761858 26.440865 31.713772 C 26.408865 31.747162 26.128529 32.059494 26.128529 32.54017 C 26.128529 33.217705 26.680853 33.770725 27.359083 33.770725 C 27.727066 33.770725 28.074183 33.59543 28.282175 33.323437 C 29.68455 31.907846 31.5356 31.126661 33.496555 31.122486 C 35.539597 31.126686 37.442123 31.959316 38.822235 33.431255 C 39.060833 33.77281 39.423954 33.96758 39.81767 33.96758 C 40.4966 33.96758 41.04753 33.41873 41.04753 32.740505 C 41.04753 32.376698 40.756763 31.959322 40.641983 31.81116 C 38.764496 29.798725 36.226868 28.688515 33.49655 28.688515 z M 44.685623 27.18597 C 41.680534 24.171144 37.707844 22.510696 33.497246 22.510696 C 29.210125 22.510696 25.188044 24.213581 22.201735 27.27501 C 22.157915 27.31119 21.771147 27.64369 21.771147 28.21201 C 21.771147 28.891632 22.322079 29.443958 22.999615 29.443958 C 23.352991 29.443958 23.689672 29.28466 23.907404 29.02867 C 26.461725 26.404089 29.868881 24.951632 33.497936 24.943981 C 37.174297 24.951582 40.609276 26.435392 43.18795 29.135796 C 43.22343 29.167105 43.53576 29.443258 44.053993 29.443258 C 44.73014 29.443258 45.28177 28.890934 45.28177 28.211313 C 45.281075 27.649948 44.869965 27.327179 44.685623 27.185968 z M 49.216904 22.913456 L 49.218304 22.788244 L 49.095184 22.788244 C 49.086185 22.779243 49.078484 22.772943 49.070835 22.767374 C 44.915848 18.553303 39.384956 16.229925 33.496517 16.229925 C 27.596949 16.229925 22.0598 18.558867 17.919456 22.76738 C 17.649557 23.01224 17.5 23.33501 17.5 23.680733 C 17.5 24.361053 18.050932 24.91268 18.729858 24.91268 C 19.314877 24.91268 19.629297 24.539131 19.63695 24.525219 C 23.33348 20.754253 28.255703 18.674343 33.49652 18.66391 C 38.783245 18.67435 43.736767 20.787643 47.502865 24.667128 C 47.539734 24.691467 47.87641 24.91268 48.270134 24.91268 C 48.949062 24.91268 49.5 24.360355 49.5 23.680735 C 49.4993 23.411526 49.40052 23.1458 49.21688 22.913464 z " fill="#ffffff" fill-opacity="1" stroke-opacity="0.3"/>
<defs>
<linearGradient gradientUnits="userSpaceOnUse" x1="33.5005" x2="33.5005" xlink:actuate="onLoad" xlink:show="other" xlink:type="simple" y1="47.2334" y2="11.9575">
<stop offset="0" stop-color="#d0cbc5"/>
<stop offset="0.5031" stop-color="#fafcef"/>
<stop offset="0.9693" stop-color="#ffffff"/>
<stop offset="1" stop-color="#ffffff"/>
</linearGradient>
</defs>
</svg>
