<?xml version="1.0" encoding="UTF-8"?>
<svg xmlns="http://www.w3.org/2000/svg" xmlns:xlink="http://www.w3.org/1999/xlink" baseProfile="tiny" contentScriptType="text/ecmascript" contentStyleType="text/css" height="57px" preserveAspectRatio="xMidYMid meet" version="1.1" viewBox="0 0 67 57" width="67px" x="0px" y="0px" zoomAndPan="magnify">
<rect color="#000000" display="inline" fill="#00008f" fill-opacity="0.58823528999999997" fill-rule="nonzero" height="48" ry="8.2174387" stroke="none" visibility="visible" width="48" x="9.5" y="5.5"/>
<rect color="#000000" display="inline" fill="#ffffff" fill-opacity="0" fill-rule="nonzero" height="33" ry="0" stroke="none" stroke-width="1" visibility="visible" width="33" x="17" y="13"/>
<g>
<rect fill="none" height="57" width="67"/>
</g>
<path d="M 34.808937 38.475815 C 34.720917 38.415493 34.588577 38.360096 34.363914 38.32624 L 34.25558 38.310852 C 33.004845 38.132355 32.35362 37.49406 32.32038 36.413204 L 32.303143 35.955875 C 32.28961 35.622875 32.276062 35.28988 32.27669 34.957497 C 32.28089 33.198334 33.569897 32.918274 34.188496 32.784092 C 34.43717 32.72993 34.56151 32.702843 34.80217 32.182114 C 34.904964 31.959295 35.029297 31.74386 35.15487 31.530893 C 35.404152 31.107414 35.46078 30.977543 35.429386 30.897524 L 35.353058 30.709787 C 35.13701 30.185364 34.564575 28.794289 36.073837 27.859924 L 36.444378 27.626644 C 36.696125 27.46661 36.94849 27.30657 37.20701 27.157618 C 37.613865 26.92372 37.993645 26.810465 38.36788 26.810465 C 39.217915 26.810465 39.721413 27.366896 40.08888 27.773754 L 40.14982 27.840235 C 40.21814 27.915325 40.27723 27.980577 40.60715 27.980577 C 40.700092 27.980577 40.796734 27.975077 40.895832 27.967648 C 41.08541 27.952877 41.27807 27.949797 41.47134 27.949797 L 41.656612 27.950413 C 42.139797 27.950413 42.253048 27.919643 42.301678 27.859324 C 42.34538 27.803923 42.387848 27.746683 42.430325 27.690054 C 42.715923 27.304737 43.247734 26.588888 44.201176 26.588888 C 44.330437 26.588888 44.459084 26.611668 44.587723 26.639368 L 44.587723 20.133316 C 44.587723 19.66798 44.207333 19.286974 43.74138 19.286974 L 27.721216 19.286974 L 25.515188 16.967691 C 24.897207 16.14104 23.769567 16.121342 23.769567 16.121342 L 18.814625 16.121342 C 17.439552 16.121342 17.488178 17.091404 17.512796 17.356077 C 17.514597 17.382538 17.514597 18.609894 17.514597 20.044672 C 17.510798 20.074223 17.504698 20.103142 17.504698 20.133312 L 17.504698 38.748512 C 17.504698 39.214462 17.885706 39.594852 18.35104 39.594852 L 35.498222 39.594852 C 35.437283 39.495754 35.36896 39.388653 35.286484 39.264935 C 35.130756 39.029804 34.95841 38.770054 34.80884 38.475838 z M 49.487263 35.69612 C 49.47433 35.26526 49.462044 34.834393 49.447865 34.402912 C 49.419544 33.582424 48.864967 33.610737 48.182972 33.506714 C 47.38525 33.38484 47.100883 32.70838 46.719257 32.0904 C 46.24469 31.321613 45.90246 30.784267 46.183754 29.896685 C 46.389954 29.246695 46.441658 28.959244 45.811977 28.591782 C 45.40574 28.354803 44.98103 28.143682 44.565548 27.923325 C 43.914944 27.578016 43.628113 28.171377 43.263107 28.627481 C 42.68452 29.351334 41.806786 29.130363 40.993065 29.194992 C 40.303066 29.249151 39.720165 29.197493 39.239452 28.668722 C 38.750114 28.130144 38.521137 27.823612 37.821903 28.225548 C 37.4489 28.440365 37.08943 28.68042 36.723198 28.906315 C 36.023968 29.339025 36.326187 29.806826 36.57732 30.44881 C 36.92078 31.326544 36.26525 31.951914 35.921173 32.697926 C 35.587563 33.420547 35.215786 33.820637 34.45131 33.98621 C 33.78347 34.130856 33.510178 34.23119 33.50833 34.95996 C 33.50703 35.43145 33.537262 35.903557 33.55141 36.375046 C 33.571102 37.01826 34.026592 37.02996 34.54794 37.10875 C 35.029274 37.18139 35.47122 37.35311 35.820835 37.735966 C 36.194458 38.616776 37.0488 39.28954 36.930622 40.30269 C 36.887543 40.67262 36.643787 41.029003 36.60932 41.406933 C 36.56008 41.936283 38.13397 42.705067 38.586376 42.816483 C 39.13604 43.108234 39.457336 42.29513 39.75894 41.99476 C 40.338146 41.4174 40.925354 41.50419 41.691067 41.479565 C 42.417995 41.456173 43.082138 41.303528 43.65088 41.872883 C 43.968487 42.151714 44.345806 42.946964 44.872078 42.61828 C 45.31833 42.478554 46.84113 41.615593 46.758034 41.08748 C 46.698944 40.709553 46.431194 40.36978 46.364105 39.996777 C 46.282246 39.535755 46.345634 39.124584 46.60785 38.739265 C 46.920532 38.28009 47.05841 37.6104 47.44311 37.22693 C 48.098637 36.57386 49.618362 36.832993 49.487255 35.69613 z M 41.47747 39.819515 C 39.046158 39.819515 37.014328 37.789524 37.014328 35.357605 C 37.014328 32.92506 39.04493 30.893845 41.47747 30.893845 C 43.910007 30.893845 45.940613 32.92506 45.940613 35.357605 C 45.940613 37.788914 43.90878 39.819515 41.47747 39.819515 z " fill="#ffffff" fill-opacity="1"/>
<defs>
<linearGradient gradientUnits="userSpaceOnUse" x1="36.9863" x2="36.9863" xlink:actuate="onLoad" xlink:show="other" xlink:type="simple" y1="53.4639" y2="9.9946">
<stop offset="0" stop-color="#d0cbc5"/>
<stop offset="0.5031" stop-color="#fafcef"/>
<stop offset="0.9693" stop-color="#ffffff"/>
<stop offset="1" stop-color="#ffffff"/>
</linearGradient>
</defs>
</svg>
