<?xml version="1.0" encoding="UTF-8"?>
<svg xmlns="http://www.w3.org/2000/svg" xmlns:xlink="http://www.w3.org/1999/xlink" baseProfile="tiny" contentScriptType="text/ecmascript" contentStyleType="text/css" height="57px" preserveAspectRatio="xMidYMid meet" version="1.1" viewBox="0 0 67 57" width="67px" x="0px" y="0px" zoomAndPan="magnify">
<rect color="#000000" display="inline" fill="#01a0f3" fill-opacity="0.58823528999999997" fill-rule="nonzero" height="48" ry="8.2174387" stroke="none" visibility="visible" width="48" x="9.5" y="4.5"/>
<path d="M 47.802998 20.25705 L 41.015667 20.25705 L 41.015667 27.045076 L 42.954407 27.045076 L 42.954407 29.026253 C 42.954407 30.223442 41.933212 30.637348 41.677216 30.725693 L 36.40777 32.683216 C 35.958385 32.855736 35.55839 33.05121 35.19666 33.2592 L 35.19666 20.257051 L 38.00077 20.257051 L 33.68852 12.5 L 29.379044 20.25705 L 32.286804 20.25705 L 32.286804 33.236942 C 31.922987 33.024773 31.518824 32.82652 31.065264 32.652603 L 25.75547 30.682564 C 25.550953 30.609524 24.529758 30.197704 24.529758 28.99912 L 24.529758 27.727497 C 25.950943 27.152205 26.954054 25.763016 26.954054 24.136618 C 26.954054 21.99475 25.218437 20.257744 23.075878 20.257744 C 20.934708 20.257744 19.197004 21.994747 19.197004 24.136618 C 19.197004 25.763016 20.200808 27.150814 21.620604 27.726799 L 21.620604 28.999817 C 21.620604 31.715586 23.742992 33.09921 24.794798 33.427547 L 30.037117 35.37603 C 32.117767 36.17253 32.27707 37.39477 32.286114 37.55407 L 32.286114 38.05145 C 31.143179 38.596134 30.348763 39.753674 30.348763 41.1046 C 30.348763 42.980736 31.869423 44.5 33.74139 44.5 C 35.61613 44.5 37.13679 42.980724 37.13679 41.1046 C 37.13679 39.75297 36.340286 38.596825 35.195965 38.051445 L 35.195965 37.542934 C 35.195965 37.530415 35.294746 36.22609 37.433132 35.405937 L 42.617714 33.47833 C 43.741173 33.126335 45.86217 31.743408 45.86217 29.027647 L 45.86217 27.046469 L 47.802303 27.046469 L 47.802303 20.257053 z " fill="#c2c2c2" fill-opacity="1" stroke-opacity="0.3"/>
<defs>
<linearGradient gradientUnits="userSpaceOnUse" x1="33.0005" x2="33.0005" xlink:actuate="onLoad" xlink:show="other" xlink:type="simple" y1="51.4995" y2="5.5005">
<stop offset="0" stop-color="#d0cbc5"/>
<stop offset="0.5031" stop-color="#fafcef"/>
<stop offset="0.9693" stop-color="#ffffff"/>
<stop offset="1" stop-color="#ffffff"/>
</linearGradient>
</defs>
</svg>
