<?xml version="1.0" encoding="UTF-8"?>
<svg xmlns="http://www.w3.org/2000/svg" xmlns:xlink="http://www.w3.org/1999/xlink" baseProfile="tiny" contentScriptType="text/ecmascript" contentStyleType="text/css" height="30px" preserveAspectRatio="xMidYMid meet" version="1.1" viewBox="0 0 30 30" width="30px" x="0px" y="0px" zoomAndPan="magnify">
<rect fill="none" height="30" width="30"/>
<path d="M 16.669 9.33 L 16.669 9.66 C 16.669 9.66 15.099001 9.117 14.252001 9.117 C 10.592001 9.117 9.679001 11.521999 9.679001 15.412 C 9.679001 20.082 11.439001 21.332 13.950001 21.332 C 15.263 21.332 16.835 20.672 17.725 20.225 C 17.972 20.577 18.272 20.825 18.627 21.0 L 19.0 21.0 L 19.0 19.0 C 19.0 18.646 19.188 18.317 19.493 18.138 C 19.5 18.134 19.508 18.133 19.514 18.129 C 19.302 17.478 19.226 16.272 19.226 14.044 L 19.226 9.33 L 16.669 9.33 z M 14.137 18.809 C 13.058001 18.809 12.26 18.173 12.26 15.436 C 12.26 12.559 12.681 11.545 14.794001 11.545 C 15.472 11.545 16.669 11.899 16.669 11.899 L 16.669 15.105 C 16.669 16.380001 16.719 17.394 16.858 18.195 C 16.154 18.455 15.076 18.809 14.137 18.809 z M 6.581 14.965 C 6.581 9.211 9.325 6.498 14.768999 6.498 C 20.141998 6.498 22.395 8.574 22.395 13.906 L 22.395 14.328 C 22.395 17.198 22.089 18.291 21.481 18.68 L 23.822 19.981 C 24.588 18.927 25.0 17.163 25.0 14.328 L 25.0 13.929 C 25.0 7.42 21.738 4.0 14.77 4.0 C 8.176 4.0 4.0 7.348 4.0 14.965 C 4.0 23.477 7.824 26.0 14.77 26.0 C 14.838 26.0 14.923 25.997 15.0 25.995 L 15.0 23.472 C 14.922 23.474 14.835 23.477 14.77 23.477 C 8.88 23.477 6.581 21.215 6.581 14.965 z M 29.0 24.0 L 20.0 19.0 L 20.0 22.0 L 16.0 22.0 L 16.0 26.0 L 20.0 26.0 L 20.0 29.0 L 29.0 24.0 z " fill="#70afe0"/>
</svg>
