<?xml version="1.0" encoding="UTF-8"?>
<svg xmlns="http://www.w3.org/2000/svg" xmlns:xlink="http://www.w3.org/1999/xlink" baseProfile="tiny" contentScriptType="text/ecmascript" contentStyleType="text/css" height="30px" preserveAspectRatio="xMidYMid meet" version="1.1" viewBox="0 0 30 30" width="30px" x="0px" y="0px" zoomAndPan="magnify">
<rect fill="none" height="30" width="30"/>
<path d="M 29.415 0.586 C 29.037 0.208 28.535 0.0 28.001 0.0 C 27.467 0.0 26.965 0.208 26.587 0.586 L 18.53 8.643 L 16.26 8.643 L 18.442 1.9519997 C 18.539999 1.6489997 18.489 1.3149996 18.3 1.0559996 C 18.112 0.7949996 17.81 0.64299965 17.49 0.64299965 L 12.898 0.64299965 C 12.465 0.64299965 12.082 0.91999966 11.947 1.3319997 L 8.348999 12.332 C 8.249999 12.637 8.300999 12.969999 8.489999 13.229 C 8.678999 13.489 8.979999 13.642 9.300999 13.642 L 13.529999 13.642 L 0.587 26.586 C 0.209 26.964 0.0 27.467 0.0 28.0 C 0.0 28.535 0.209 29.037 0.586 29.414 C 0.963 29.792 1.466 30.0 2.001 30.0 C 2.5359998 30.0 3.0379999 29.792 3.415 29.414 L 11.668 21.161999 L 13.99 28.126999 C 14.167 28.445 14.500999 28.643 14.863 28.643 C 15.226 28.643 15.562 28.446 15.738 28.126999 L 22.737999 19.126999 C 22.91 18.817999 22.905998 18.439999 22.724998 18.136 C 22.545998 17.83 22.217 17.643 21.862999 17.643 L 20.440998 17.643 L 23.239998 9.986 C 23.292997 9.84 23.306997 9.687 23.291998 9.538 L 29.414997 3.415 C 30.194 2.635 30.194 1.366 29.415 0.586 z " fill-opacity="0.15" stroke-opacity="0.15"/>
<path d="M 17.53 8.643 L 14.8810005 8.644 L 17.488 0.64299965 L 12.898001 0.64299965 L 9.300001 11.643 L 14.529001 11.643 L 17.53 8.643 z M 19.011 17.643 L 21.789999 10.039 L 12.442999 19.386 L 14.862999 26.643 L 21.862999 17.643 L 19.011 17.643 z " fill-opacity="0.3"/>
<path d="M 17.53 9.643 L 14.8810005 9.644 L 17.488 1.6429996 L 12.898001 1.6429996 L 9.300001 12.643 L 14.529001 12.643 L 17.53 9.643 z M 19.011 18.643 L 21.789999 11.039 L 12.442999 20.386 L 14.862999 27.643 L 21.862999 18.643 L 19.011 18.643 z " fill="#ffffff"/>
<path d="M 2.001 29.0 C 1.7449999 29.0 1.4879999 28.902 1.2939999 28.707 C 0.90199995 28.316 0.90199995 27.684 1.2939999 27.293001 L 27.294 1.2930012 C 27.685001 0.90200114 28.317001 0.90200114 28.708 1.2930012 C 29.098999 1.6840012 29.099 2.3160012 28.708 2.7070012 L 2.7080002 28.707 C 2.513 28.902 2.257 29.0 2.001 29.0 L 2.001 29.0 z " fill="#fa664b"/>
</svg>
