<?xml version="1.0" encoding="UTF-8"?>
<svg xmlns="http://www.w3.org/2000/svg" xmlns:xlink="http://www.w3.org/1999/xlink" baseProfile="tiny" contentScriptType="text/ecmascript" contentStyleType="text/css" height="30px" preserveAspectRatio="xMidYMid meet" version="1.1" viewBox="0 0 30 30" width="30px" x="0px" y="0px" zoomAndPan="magnify">
<path d="M 18.655 15.0 L 26.697 6.958 C 27.101 6.5550003 27.101 5.899 26.697 5.4960003 L 24.504 3.303 C 24.1 2.899 23.445 2.899 23.042 3.303 L 15.0 11.344 L 6.958 3.303 C 6.555 2.899 5.9 2.899 5.496 3.303 L 3.303 5.496 C 2.899 5.8989997 2.899 6.555 3.303 6.958 L 11.345 15.0 L 3.303 23.041 C 2.899 23.445 2.899 24.1 3.303 24.504 L 5.4960003 26.697 C 5.9 27.101 6.5550003 27.101 6.958 26.697 L 15.0 18.655 L 23.042 26.697 C 23.445 27.101 24.1 27.101 24.504 26.697 L 26.697 24.504 C 27.101 24.1 27.101 23.445 26.697 23.041 L 18.655 15.0 z " fill="#70afe0"/>
</svg>
