<?xml version="1.0" encoding="UTF-8"?>
<svg xmlns="http://www.w3.org/2000/svg" xmlns:xlink="http://www.w3.org/1999/xlink" baseProfile="tiny" contentScriptType="text/ecmascript" contentStyleType="text/css" height="57px" preserveAspectRatio="xMidYMid meet" version="1.1" viewBox="0 0 67 57" width="67px" x="0px" y="0px" zoomAndPan="magnify">
<rect color="#000000" display="inline" fill="#30f0ff" fill-opacity="0.58823528999999997" fill-rule="nonzero" height="48" ry="8.2174387" stroke="none" visibility="visible" width="48" x="9.5" y="4.5"/>
<path d="M 33.5 12.5 C 24.663132 12.5 17.5 19.663128 17.5 28.49722 C 17.5 37.336872 24.663128 44.5 33.5 44.5 C 42.33895 44.5 49.5 37.336872 49.5 28.49722 C 49.5 19.663128 42.33895 12.500695 33.5 12.5 z M 32.683304 20.552868 C 32.709045 20.879826 32.571304 21.039131 32.29513 21.064869 C 29.497913 21.371653 27.221739 23.19913 26.34661 25.834957 C 25.493046 28.408175 26.208176 31.168518 28.213741 33.04261 L 28.712523 33.508694 L 30.001566 32.254433 L 31.654434 38.623825 L 25.10348 37.02313 L 26.416176 35.747303 L 25.874958 35.23252 C 23.857567 33.311127 22.745218 30.742085 22.743826 27.999134 C 22.746626 22.72261 26.811308 18.395655 32.20539 17.918434 C 32.20679 17.918434 32.684 17.826614 32.684 18.266956 L 32.684 20.552868 z M 34.835648 38.89234 C 34.834953 38.89234 34.357735 38.98347 34.357735 38.54312 L 34.357735 36.257904 C 34.331295 35.93025 34.469036 35.77164 34.745213 35.745907 C 37.54243 35.43912 39.818604 33.611645 40.69304 30.97582 C 41.547302 28.402605 40.833557 25.642254 38.82591 23.76817 L 38.32712 23.301386 L 37.038082 24.555645 L 35.386604 18.186949 L 41.936867 19.786951 L 40.623474 21.06347 L 41.163998 21.578253 C 43.18348 23.499641 44.295128 26.06799 44.29652 28.811646 C 44.29372 34.088165 40.229736 38.413036 34.83565 38.89234 z " fill="#ffffff" fill-opacity="1" stroke-opacity="0.3"/>
<defs>
<linearGradient gradientUnits="userSpaceOnUse" x1="33.5005" x2="33.5005" xlink:actuate="onLoad" xlink:show="other" xlink:type="simple" y1="51.4995" y2="5.5005">
<stop offset="0" stop-color="#d0cbc5"/>
<stop offset="0.5031" stop-color="#fafcef"/>
<stop offset="0.9693" stop-color="#ffffff"/>
<stop offset="1" stop-color="#ffffff"/>
</linearGradient>
</defs>
</svg>
