<?xml version="1.0" encoding="UTF-8"?>
<svg xmlns="http://www.w3.org/2000/svg" xmlns:xlink="http://www.w3.org/1999/xlink" baseProfile="tiny" contentScriptType="text/ecmascript" contentStyleType="text/css" height="30px" preserveAspectRatio="xMidYMid meet" version="1.1" viewBox="0 0 30 30" width="30px" x="0px" y="0px" zoomAndPan="magnify">
<rect fill="none" height="30" width="30"/>
<path d="M 15.0 24.0 C 15.0 23.808 15.059 23.625 15.158 23.468 C 15.013 23.473 14.88 23.477 14.769 23.477 C 8.879 23.477 6.5810003 21.215 6.5810003 14.965001 C 6.5810003 9.211 9.325001 6.498001 14.769 6.498001 C 20.142 6.498001 22.395 8.574001 22.395 13.906001 L 22.395 14.328001 C 22.395 18.314 21.808 18.879002 20.635 18.879002 C 19.533 18.879002 19.226 18.526 19.226 14.044002 L 19.226 9.33 L 16.668 9.33 L 16.668 9.66 C 16.668 9.66 15.098 9.117 14.250999 9.117 C 10.591 9.117 9.678 11.521999 9.678 15.412 C 9.678 20.082 11.438 21.332 13.948999 21.332 C 15.261999 21.332 16.834 20.672 17.724 20.225 C 18.061998 20.706 18.495998 20.996 19.047 21.163 L 24.514 18.126 C 24.552 18.105 24.594 18.094 24.634 18.078 C 24.872 17.107 25.0 15.883 25.0 14.328 L 25.0 13.929 C 25.0 7.42 21.738 4.0 14.77 4.0 C 8.176 4.0 4.0 7.348 4.0 14.965 C 4.0 23.477 7.824 26.0 14.77 26.0 C 15.434 26.0 16.503 25.92 17.277 25.854 L 15.515 24.875 C 15.197 24.698 15.0 24.363 15.0 24.0 z M 14.137 18.809 C 13.058001 18.809 12.26 18.173 12.26 15.436 C 12.26 12.559 12.681 11.545 14.794001 11.545 C 15.472 11.545 16.669 11.899 16.669 11.899 L 16.669 15.105 C 16.669 16.380001 16.719 17.394 16.858 18.195 C 16.154 18.455 15.076 18.809 14.137 18.809 z M 25.0 22.0 L 25.0 19.0 L 16.0 24.0 L 25.0 29.0 L 25.0 26.0 L 29.0 26.0 L 29.0 22.0 L 25.0 22.0 z " fill="#70afe0"/>
</svg>
