<?xml version="1.0" encoding="UTF-8"?>
<svg xmlns="http://www.w3.org/2000/svg" xmlns:xlink="http://www.w3.org/1999/xlink" baseProfile="tiny" contentScriptType="text/ecmascript" contentStyleType="text/css" height="30px" preserveAspectRatio="xMidYMid meet" version="1.1" viewBox="0 0 30 30" width="30px" x="0px" y="0px" zoomAndPan="magnify">
<rect fill="none" height="30" width="30"/>
<path d="M 16.76 17.434 L 19.259 16.046 C 19.237 15.490999 19.227 14.834999 19.227 14.044 L 19.227 9.33 L 16.669 9.33 L 16.669 9.66 C 16.669 9.66 15.099001 9.117 14.252001 9.117 C 10.592001 9.117 9.679001 11.521999 9.679001 15.412 C 9.679001 20.082 11.439001 21.332 13.950001 21.332 C 14.904001 21.332 15.992001 20.982 16.859 20.621 L 15.515001 19.874 C 15.197 19.698 15.0 19.363 15.0 19.0 C 15.0 18.9 15.018 18.804 15.046 18.711 C 14.738999 18.767 14.431999 18.809 14.136999 18.809 C 13.057999 18.809 12.259999 18.173 12.259999 15.436 C 12.259999 12.559 12.681 11.545 14.793999 11.545 C 15.471998 11.545 16.668999 11.899 16.668999 11.899 L 16.668999 15.105 C 16.669 16.01 16.696 16.775 16.76 17.434 z M 15.0 24.0 C 15.0 23.808 15.059 23.625 15.158 23.468 C 15.013 23.473 14.88 23.477 14.769 23.477 C 8.879 23.477 6.5810003 21.215 6.5810003 14.965001 C 6.5810003 9.211 9.325001 6.498001 14.769 6.498001 C 20.142 6.498001 22.395 8.574001 22.395 13.906001 L 22.395 14.302001 L 24.514 13.125001 C 24.656 13.0460005 24.812 13.008001 24.969 13.003001 C 24.666 7.101 21.398 4.0 14.77 4.0 C 8.176 4.0 4.0 7.348 4.0 14.965 C 4.0 23.477 7.824 26.0 14.77 26.0 C 15.434 26.0 16.503 25.92 17.277 25.854 L 15.515 24.875 C 15.197 24.698 15.0 24.363 15.0 24.0 z M 25.0 17.0 L 25.0 14.0 L 16.0 19.0 L 19.471 20.928 L 24.515 18.126 C 24.665 18.042 24.833 18.0 25.0 18.0 C 25.176 18.0 25.351 18.046 25.507 18.138 C 25.813 18.317 26.0 18.646 26.0 19.0 L 26.0 21.0 L 29.0 21.0 L 29.0 17.0 L 25.0 17.0 z M 25.0 19.0 L 16.0 24.0 L 25.0 29.0 L 25.0 26.0 L 29.0 26.0 L 29.0 22.0 L 25.0 22.0 L 25.0 19.0 z " fill="#70afe0"/>
</svg>
