<?xml version="1.0" encoding="UTF-8"?>
<svg xmlns="http://www.w3.org/2000/svg" xmlns:xlink="http://www.w3.org/1999/xlink" baseProfile="tiny" contentScriptType="text/ecmascript" contentStyleType="text/css" height="30px" preserveAspectRatio="xMidYMid meet" version="1.1" viewBox="0 0 30 30" width="30px" x="0px" y="0px" zoomAndPan="magnify">
<path d="M 28.756 15.598 C 28.735 14.855 28.713 14.114 28.689 13.37 C 28.639 11.958 27.685 12.006 26.509 11.827 C 25.135 11.616 24.645 10.452 23.988 9.388 C 23.171 8.063 22.583 7.137 23.065 5.609 C 23.42 4.489 23.51 3.995 22.424 3.36 C 21.726 2.952 20.993 2.589 20.278 2.209 C 19.157 1.614 18.665 2.638 18.035 3.424 C 17.038 4.67 15.525 4.288 14.125 4.401 C 12.936 4.495 11.932 4.406 11.104 3.495 C 10.26 2.565 9.866 2.037 8.661 2.728 C 8.018 3.099 7.399 3.513 6.769 3.902 C 5.564 4.647 6.084 5.454 6.516 6.56 C 7.108 8.071 5.9789996 9.148 5.3859997 10.434 C 4.811 11.678 4.1709995 12.368 2.8539996 12.652 C 1.7049996 12.902 1.2339996 13.074 1.2309996 14.329 C 1.2289996 15.142 1.2799996 15.955001 1.3049996 16.766 C 1.3389996 17.875 2.1229997 17.895 3.0209994 18.032 C 3.8499992 18.157 4.6109996 18.452002 5.2139997 19.112 C 5.857 20.63 7.329 21.79 7.126 23.532 C 7.052 24.173002 6.6319995 24.784002 6.5729995 25.436 C 6.487999 26.346 9.198999 27.672 9.978 27.862 C 10.924999 28.366 11.478 26.966002 11.997999 26.45 C 12.996999 25.454 14.007999 25.604 15.327 25.561 C 16.579 25.52 17.723 25.258 18.704 26.239 C 19.25 26.718 19.9 28.089 20.807 27.522 C 21.576 27.282 24.2 25.795 24.055 24.884998 C 23.953 24.235 23.492 23.648998 23.378 23.006 C 23.236 22.213 23.345 21.503998 23.798 20.839998 C 24.336 20.048998 24.572 18.895 25.236 18.235 C 26.364 17.109 28.981 17.554998 28.756 15.597999 M 14.958 22.700998 C 10.77 22.700998 7.27 19.203 7.27 15.013998 C 7.27 10.824998 10.768 7.324998 14.958 7.324998 C 19.148 7.324998 22.647 10.824998 22.647 15.013998 C 22.646 19.203 19.146 22.700998 14.957999 22.700998 " fill="#70afe0"/>
</svg>
