<?xml version="1.0" encoding="UTF-8"?>
<svg xmlns="http://www.w3.org/2000/svg" xmlns:xlink="http://www.w3.org/1999/xlink" baseProfile="tiny" contentScriptType="text/ecmascript" contentStyleType="text/css" height="57px" preserveAspectRatio="xMidYMid meet" version="1.1" viewBox="0 0 67 57" width="67px" x="0px" y="0px" zoomAndPan="magnify">
<defs/>
<rect color="#000000" display="inline" fill="#01a0f3" fill-opacity="0.58823528999999997" fill-rule="nonzero" height="48" ry="8.2174387" stroke="none" visibility="visible" width="48" x="9.5" y="5.5"/>
<path d="M 33.500664 13.499669 C 21.646 13.499669 17.5 17.646332 17.5 29.500332 C 17.5 41.353 21.645998 45.50033 33.500664 45.50033 C 45.354664 45.50033 49.5 41.352993 49.5 29.500332 C 49.5 17.646332 45.354668 13.499666 33.500668 13.499666 z M 29.598671 35.39366 L 27.273336 35.39366 L 27.273336 29.97833 C 27.273336 29.376997 27.146004 28.966333 26.891335 28.745663 C 26.637335 28.526329 26.324003 28.415663 25.95467 28.415663 C 25.573336 28.415663 25.26067 28.490993 25.017336 28.64233 C 24.77467 28.79233 24.58667 29.00033 24.453335 29.267666 C 24.320667 29.532999 24.22667 29.842999 24.176003 30.196331 C 24.122673 30.548996 24.098003 30.922998 24.098003 31.31633 L 24.098003 35.394997 L 21.772007 35.394997 L 21.772007 26.645664 L 23.889341 26.645664 L 23.976011 27.808998 C 24.056671 27.657667 24.169344 27.501665 24.314674 27.340334 C 24.459337 27.179 24.63601 27.027668 24.844673 26.888334 C 25.052675 26.750334 25.295343 26.637 25.572672 26.550333 C 25.85134 26.462994 26.164005 26.420334 26.510004 26.420334 C 27.62067 26.420334 28.41267 26.724333 28.887339 27.331667 C 29.36134 27.939001 29.599339 28.775002 29.599339 29.83967 L 29.598673 35.393665 L 29.598673 35.393665 z M 37.63401 24.198338 C 37.508007 24.176338 37.34468 24.155668 37.14801 24.137667 C 36.951344 24.120996 36.71468 24.111668 36.436012 24.111668 C 35.881344 24.111668 35.47068 24.253666 35.204014 24.536999 C 34.938015 24.821003 34.803345 25.327671 34.803345 26.055668 L 34.803345 26.645666 L 37.11268 26.645666 L 37.11268 28.606998 L 34.803345 28.606998 L 34.803345 35.39366 L 32.46068 35.39366 L 32.46068 28.606995 L 30.933346 28.606995 L 30.933346 26.645662 L 32.46068 26.645662 L 32.46068 25.986328 C 32.46068 25.488998 32.512676 25.008331 32.61668 24.54633 C 32.72068 24.082996 32.899345 23.674995 33.15468 23.32233 C 33.409348 22.969664 33.752678 22.688995 34.187344 22.480995 C 34.621346 22.27233 35.173344 22.167665 35.844013 22.167665 C 36.36401 22.167665 36.793343 22.193665 37.12801 22.246336 C 37.46401 22.298336 37.700676 22.341665 37.84001 22.37567 L 37.63401 24.19834 z M 41.027344 32.99767 C 41.416008 33.414337 41.973343 33.623005 42.703342 33.623005 C 43.189346 33.623005 43.581345 33.559666 43.88401 33.433002 C 44.184017 33.307007 44.417347 33.191006 44.579346 33.08567 L 45.462677 34.665005 C 45.36001 34.734333 45.221344 34.823006 45.046013 34.93234 C 44.872677 35.043003 44.662678 35.14967 44.414013 35.253002 C 44.165344 35.357002 43.878014 35.447002 43.554676 35.521667 C 43.23134 35.59567 42.873344 35.634335 42.479347 35.634335 C 41.032013 35.634335 39.941345 35.22167 39.20801 34.39367 C 38.47268 33.56767 38.105343 32.44167 38.105343 31.018335 C 38.105343 30.336334 38.208008 29.711002 38.41001 29.143002 C 38.612675 28.576334 38.902008 28.090336 39.278015 27.685001 C 39.653347 27.280334 40.11135 26.968336 40.650013 26.748333 C 41.190014 26.528334 41.793346 26.418333 42.465347 26.418333 C 42.893345 26.418333 43.284683 26.467663 43.645348 26.566332 C 44.006016 26.665 44.31735 26.777 44.58335 26.904995 C 44.84802 27.031666 45.062683 27.156332 45.22535 27.277662 C 45.386684 27.399662 45.490013 27.483664 45.53735 27.529663 L 44.496017 29.126999 C 44.436687 29.09167 44.350685 29.034328 44.234684 28.953 C 44.118015 28.87167 43.980015 28.794333 43.81802 28.718332 C 43.656685 28.643673 43.473347 28.577 43.27335 28.519001 C 43.06935 28.461 42.858017 28.431671 42.63935 28.431671 C 41.979347 28.431671 41.450684 28.645666 41.048687 29.074331 C 40.65002 29.503002 40.451355 30.151001 40.451355 31.019001 C 40.446754 31.922335 40.640022 32.581005 41.027355 32.99767 z " fill="#ffffff" fill-opacity="1"/>
<linearGradient gradientTransform="matrix(1 0 0 1 -498.9609 -785.0391)" gradientUnits="userSpaceOnUse" x1="532.46" x2="532.46" xlink:actuate="onLoad" xlink:show="other" xlink:type="simple" y1="837.7334" y2="789.647">
<stop offset="0" stop-color="#d0cbc5"/>
<stop offset="0.5031" stop-color="#fafcef"/>
<stop offset="0.9693" stop-color="#ffffff"/>
<stop offset="1" stop-color="#ffffff"/>
</linearGradient>
</svg>
