<?xml version="1.0" encoding="UTF-8"?>
<svg xmlns="http://www.w3.org/2000/svg" xmlns:xlink="http://www.w3.org/1999/xlink" baseProfile="tiny" contentScriptType="text/ecmascript" contentStyleType="text/css" height="30px" preserveAspectRatio="xMidYMid meet" version="1.1" viewBox="0 0 30 30" width="30px" x="0px" y="0px" zoomAndPan="magnify">
<path d="M 5.998 27.0 C 5.738 27.0 5.4820004 26.898 5.2910004 26.707 L 1.2910004 22.707 C 0.90000033 22.316 0.90000033 21.684 1.2910004 21.293 L 5.2910004 17.293 C 5.482 17.102 5.738 17.0 5.998 17.0 C 6.1270003 17.0 6.257 17.024 6.381 17.076 C 6.755 17.23 6.998 17.596 6.998 18.0 L 6.998 19.0 L 21.998 19.0 C 22.529 19.0 22.998 18.532 22.998 18.0 L 22.998 16.111 C 22.998 15.85 23.1 15.6 23.281002 15.414 L 27.281002 11.303 C 27.473 11.105 27.733 11.0 27.999 11.0 C 28.126 11.0 28.253 11.024 28.376 11.073 C 28.751 11.226 28.999 11.593 28.999 12.0 L 28.999 18.0 C 28.999 21.859 25.858 25.0 21.999 25.0 L 6.999001 25.0 L 6.999001 26.0 C 6.999001 26.404 6.756001 26.77 6.3820004 26.924 C 6.257 26.976 6.127 27.0 5.998 27.0 L 5.998 27.0 z M 1.998 19.0 C 1.871 19.0 1.743 18.976 1.623 18.927 C 1.245 18.773 0.998 18.407 0.998 18.0 L 0.998 12.0 C 0.998 8.141 4.139 5.0 7.998 5.0 L 22.998 5.0 L 22.998 4.0 C 22.998 3.596 23.240002 3.23 23.615002 3.076 C 23.739 3.024 23.87 3.0 23.999 3.0 C 24.259 3.0 24.515 3.102 24.706 3.293 L 28.706 7.293 C 29.097002 7.684 29.097002 8.316 28.706 8.707001 L 24.706 12.707001 C 24.514 12.898 24.258 13.0 23.999 13.0 C 23.87 13.0 23.739 12.976 23.616 12.924 C 23.241 12.77 22.999 12.403999 22.999 12.0 L 22.999 11.0 L 7.999001 11.0 C 7.467001 11.0 6.999001 11.468 6.999001 12.0 L 6.999001 13.889 C 6.999001 14.15 6.897 14.4 6.716001 14.586 L 2.7160006 18.697 C 2.522 18.895 2.263 19.0 1.998 19.0 L 1.998 19.0 z " fill-opacity="0.15" stroke-opacity="0.15"/>
<path d="M 5.998 11.0 C 5.998 9.916 6.914 9.0 7.998 9.0 L 23.998 9.0 L 23.998 11.0 L 27.998 7.0 L 23.998 3.0 L 23.998 5.0 L 7.998001 5.0 C 4.698001 5.0 1.9980012 7.7 1.9980012 11.0 L 1.9980012 17.0 L 5.998001 12.889 L 5.998001 11.0 z M 23.999 17.0 C 23.999 18.084 23.083 19.0 21.999 19.0 L 5.9990005 19.0 L 5.9990005 17.0 L 1.9990004 21.0 L 5.9990005 25.0 L 5.9990005 23.0 L 21.999 23.0 C 25.298 23.0 27.999 20.3 27.999 17.0 L 27.999 11.0 L 23.999 15.111 L 23.999 17.0 z " fill-opacity="0.3" stroke-opacity="0.3"/>
<path d="M 5.998 12.0 C 5.998 10.916 6.914 10.0 7.998 10.0 L 23.998 10.0 L 23.998 12.0 L 27.998 8.0 L 23.998 4.0 L 23.998 6.0 L 7.998001 6.0 C 4.698001 6.0 1.9980012 8.7 1.9980012 12.0 L 1.9980012 18.0 L 5.998001 13.889 L 5.998001 12.0 z M 23.999 18.0 C 23.999 19.084 23.083 20.0 21.999 20.0 L 5.9990005 20.0 L 5.9990005 18.0 L 1.9990004 22.0 L 5.9990005 26.0 L 5.9990005 24.0 L 21.999 24.0 C 25.298 24.0 27.999 21.3 27.999 18.0 L 27.999 12.0 L 23.999 16.111 L 23.999 18.0 z " fill="#fa664b" fill-opacity="1"/>
<rect fill="none" height="30" width="30"/>
</svg>
