<?xml version="1.0" encoding="UTF-8"?>
<svg xmlns="http://www.w3.org/2000/svg" xmlns:xlink="http://www.w3.org/1999/xlink" baseProfile="tiny" contentScriptType="text/ecmascript" contentStyleType="text/css" height="62px" preserveAspectRatio="xMidYMid meet" version="1.1" viewBox="0 0 54 62" width="54px" x="0px" y="0px" zoomAndPan="magnify">
<linearGradient gradientUnits="userSpaceOnUse" x1="27.0005" x2="27.0005" xlink:actuate="onLoad" xlink:show="other" xlink:type="simple" y1="65.5" y2="50.9227">
<stop offset="0" stop-color="#53cfff"/>
<stop offset="1" stop-color="#3f72b1"/>
</linearGradient>
<linearGradient gradientUnits="userSpaceOnUse" x1="26.9995" x2="26.9995" xlink:actuate="onLoad" xlink:show="other" xlink:type="simple" y1="15.5" y2="49.0152">
<stop offset="0" stop-color="#192d81"/>
<stop offset="0.2109" stop-color="#193185"/>
<stop offset="0.4237" stop-color="#183d91"/>
<stop offset="0.6373" stop-color="#1651a5"/>
<stop offset="0.8503" stop-color="#146dc1"/>
<stop offset="1" stop-color="#1286d9"/>
</linearGradient>
<linearGradient gradientUnits="userSpaceOnUse" x1="26.9995" x2="26.9995" xlink:actuate="onLoad" xlink:show="other" xlink:type="simple" y1="-0.25" y2="49.4326">
<stop offset="0" stop-color="#0f0f0f"/>
<stop offset="1" stop-color="#141416"/>
</linearGradient>
<linearGradient gradientUnits="userSpaceOnUse" x1="26.9995" x2="26.9995" xlink:actuate="onLoad" xlink:show="other" xlink:type="simple" y1="-0.25" y2="50.0229">
<stop offset="0" stop-color="#ffffff"/>
<stop offset="1" stop-color="#3f94ff"/>
</linearGradient>
<linearGradient gradientTransform="translate(-0.18548091,6.1145396)" gradientUnits="userSpaceOnUse" x1="26.9995" x2="26.9995" xlink:actuate="onLoad" xlink:show="other" xlink:type="simple" y1="11.2651" y2="35.2797">
<stop offset="0" stop-color="#234c9d"/>
<stop offset="0.2452" stop-color="#2763ae"/>
<stop offset="0.758" stop-color="#329fdb"/>
<stop offset="1" stop-color="#38bdf2"/>
</linearGradient>
<path d="M 52.0 31.0 C 52.0 44.80712 40.80712 56.0 27.0 56.0 C 13.19288 56.0 2.0000007 44.80712 2.0000007 31.0 C 2.0000007 17.19288 13.19288 5.9999995 27.0 5.9999995 C 40.807117 5.9999995 52.0 17.19288 52.0 31.0 z " fill="none" stroke="#ffffff" stroke-dasharray="none" stroke-miterlimit="4" stroke-opacity="1" stroke-width="2.017"/>
<path color="#000000" d="M 26.976875 19.0 C 26.202496 19.0 25.466536 19.06699 24.71098 19.138727 C 24.328844 19.175306 23.93527 19.222588 23.554909 19.277456 C 22.41383 19.442068 21.291498 19.688116 20.179188 20.01734 C 20.075752 20.04797 19.958303 20.07785 19.855488 20.109829 C 19.590254 20.1923 19.332151 20.295391 19.06936 20.387283 C 18.703209 20.515316 18.320375 20.610905 17.959534 20.757229 C 17.598707 20.903547 17.25074 21.055042 16.89595 21.219654 C 16.64729 21.335032 16.40147 21.46524 16.156065 21.589596 C 16.051298 21.642675 15.936482 21.673616 15.832366 21.728325 C 15.739136 21.777365 15.64738 21.863068 15.554909 21.913296 C 15.299753 22.051653 15.066068 22.18118 14.815024 22.32948 C 14.474441 22.530674 14.130098 22.757397 13.797684 22.97688 C 13.465254 23.196363 13.150122 23.432749 12.826585 23.670525 C 12.503034 23.908297 12.169435 24.154345 11.855487 24.410408 C 11.675932 24.556786 11.521992 24.721413 11.346817 24.872835 C 11.212898 24.988626 11.062597 25.077295 10.930632 25.196535 C 10.914652 25.210886 10.900222 25.228315 10.884392 25.242777 C 10.597228 25.50361 10.329286 25.75165 10.052022 26.028902 L 12.965317 28.98844 L 13.011557 28.98844 C 16.59526 25.416288 21.514204 23.208092 26.976871 23.208092 C 32.43953 23.208092 37.40473 25.416288 40.988434 28.988438 L 43.94797 26.0289 C 43.670723 25.751648 43.402752 25.503609 43.1156 25.242771 C 43.09962 25.228271 43.08519 25.210953 43.06936 25.196531 C 42.80176 24.95475 42.512627 24.730469 42.236988 24.502892 C 42.199997 24.472351 42.18179 24.440722 42.144497 24.410412 C 41.881058 24.195543 41.582363 23.965002 41.312126 23.763012 C 41.259445 23.723593 41.226387 23.709522 41.173397 23.670525 C 40.920593 23.48473 40.645535 23.290234 40.38727 23.11561 C 40.31491 23.06669 40.22904 23.02503 40.15606 22.976885 C 39.823627 22.7574 39.525547 22.530676 39.18496 22.329485 C 39.09543 22.276592 38.997578 22.242373 38.9075 22.190754 C 38.521267 21.96901 38.150806 21.743826 37.75143 21.543356 C 37.635563 21.485289 37.498123 21.414469 37.38149 21.358383 C 37.23884 21.289644 37.10952 21.239388 36.965305 21.173412 C 36.65547 21.032036 36.3086 20.884718 35.994205 20.757229 C 35.633377 20.610909 35.29679 20.515318 34.930622 20.387283 C 34.56447 20.259256 34.191566 20.127085 33.820793 20.017344 C 32.708466 19.688118 31.586151 19.442072 30.445072 19.27746 C 30.064713 19.22259 29.67114 19.175312 29.289 19.138733 C 28.92921 19.1043 28.58617 19.064482 28.225418 19.046251 C 28.202778 19.045052 28.155567 19.047352 28.132938 19.046251 C 27.749722 19.027962 27.360426 19.000011 26.976868 19.000011 z M 26.976868 27.369951 C 22.661535 27.369951 18.795864 29.123203 15.971087 31.947989 L 18.884382 34.907524 C 20.954773 32.837135 23.813862 31.531803 26.976868 31.531803 C 30.13388 31.531803 32.994244 32.844025 35.069355 34.907524 C 35.073753 34.911324 35.111755 34.903725 35.115597 34.907524 L 38.028893 31.947989 C 35.199383 29.130096 31.286222 27.369951 26.976868 27.369951 z M 26.976868 35.69365 C 24.968008 35.69365 23.16038 36.50435 21.843922 37.820816 L 26.976875 43.0 L 32.109825 37.82081 C 30.793364 36.50434 28.98574 35.69364 26.976875 35.69364 z " display="inline" fill="#ffffff" fill-opacity="1" fill-rule="nonzero" stroke="none" stroke-width="9.08600044" visibility="visible"/>
</svg>
