<?xml version="1.0" encoding="UTF-8"?>
<svg xmlns="http://www.w3.org/2000/svg" xmlns:xlink="http://www.w3.org/1999/xlink" baseProfile="tiny" contentScriptType="text/ecmascript" contentStyleType="text/css" height="96px" preserveAspectRatio="xMidYMid meet" version="1.1" viewBox="0 0 96 96" width="96px" x="0px" y="0px" zoomAndPan="magnify">
<defs>
<linearGradient gradientTransform="matrix(1,0,0,-1,-300.9004,-120.5996)" gradientUnits="userSpaceOnUse" x1="357.7412" x2="357.7412" y1="-177.9673" y2="-129.7422">
<stop offset="0" stop-color="#003f9a"/>
<stop offset="1" stop-color="#0077cd"/>
</linearGradient>
<linearGradient gradientTransform="matrix(1,0,0,-1,-300.9004,-120.5996)" gradientUnits="userSpaceOnUse" x1="340.0703" x2="340.0703" y1="-178.8877" y2="-130.3559">
<stop offset="0" stop-color="#195b19"/>
<stop offset="1" stop-color="#9bd22d"/>
</linearGradient>
</defs>
<rect fill="none" height="96" width="96" x="0"/>
<path d="M 88.0 49.0 C 88.0 78.635 77.639 89.0 48.0 89.0 C 18.367 89.0 8.0 78.635 8.0 49.0 C 8.0 19.367 18.367 9.0 48.0 9.0 C 77.637 9.0 88.0 19.367 88.0 49.0 z " fill-opacity="0.4"/>
<linearGradient gradientTransform="matrix(1 0 0 -1 -300.9004 -120.5996)" gradientUnits="userSpaceOnUse" x1="348.9004" x2="348.9004" y1="-208.5996" y2="-129.5985">
<stop offset="0" stop-color="#cccac6"/>
<stop offset="1" stop-color="#ffffff"/>
</linearGradient>
<path d="M 88.0 48.0 C 88.0 77.635 77.639 88.0 48.0 88.0 C 18.367 88.0 8.0 77.635 8.0 48.0 C 8.0 18.367 18.367 8.0 48.0 8.0 C 77.637 8.0 88.0 18.367 88.0 48.0 z " fill="#f6f6f6" fill-opacity="1"/>
<path d="M 87.326 60.082 L 87.050995 62.082 L 8.98 62.082 L 8.669 60.082 L 87.326 60.082 z " fill-opacity="0.2"/>
<linearGradient gradientTransform="matrix(1 0 0 -1 -106.9746 -936.4414)" gradientUnits="userSpaceOnUse" id="SVGID_2_" x1="154.9746" x2="154.9746" y1="-944.6938" y2="-1023.9385">
<stop offset="0" stop-color="#ffffff"/>
<stop offset="1" stop-color="#ffffff" stop-opacity="0"/>
</linearGradient>
<path d="M 48.0 8.0 C 18.367 8.0 8.0 18.367 8.0 48.0 C 8.0 77.635 18.367 88.0 48.0 88.0 C 77.639 88.0 88.0 77.635 88.0 48.0 C 88.0 18.367 77.637 8.0 48.0 8.0 z M 48.0 87.0 C 18.841 87.0 9.0 77.158 9.0 48.0 C 9.0 18.842005 18.841 9.0 48.0 9.0 C 77.160995 9.0 87.0 18.842 87.0 48.0 C 87.0 77.158005 77.16 87.0 48.0 87.0 z " fill="url(#SVGID_2_)" fill-opacity="0.3"/>
<path d="M 39.74 42.17 L 36.688007 43.886 C 35.23401 41.726997 34.38101 39.12 34.38101 36.323 C 34.38101 28.808998 40.49601 22.691998 48.01101 22.691998 C 49.08801 22.691998 50.12601 22.830996 51.12401 23.066998 L 51.12401 15.92 C 50.112007 15.766 49.069008 15.687 48.01101 15.687 C 36.63101 15.687 27.370008 24.944 27.370008 36.323997 C 27.370008 40.368996 28.552008 44.143997 30.569008 47.327995 L 27.783 48.9 C 27.037 49.318 27.023 50.028 27.757002 50.463 L 39.708 57.677 C 40.441 58.117 41.044 57.781 41.048 56.924004 L 41.093 42.969 C 41.094 42.113 40.485 41.753 39.74 42.17 z M 68.216 24.012 C 68.96501 23.595 68.978004 22.886 68.242004 22.443 L 56.292004 15.235999 C 55.558 14.790999 54.955 15.129999 54.951004 15.988999 L 54.905003 29.943 C 54.901 30.798 55.511 31.156 56.262 30.737 L 59.45 28.944 C 60.828 31.071 61.641 33.602997 61.641 36.323 C 61.641 43.843 55.528 49.952 48.01 49.952 C 46.936993 49.952 45.898 49.814 44.893997 49.582 L 44.893997 56.731 C 45.910995 56.884 46.952995 56.962997 48.01 56.962997 C 59.392 56.962997 68.647 47.709 68.647 36.322 C 68.647 32.357 67.523994 28.648996 65.572 25.502 L 68.216 24.012 z " fill="#ffffff" fill-opacity="0.6"/>
<path d="M 68.648 35.158 C 68.648 46.54 59.395004 55.796 48.011 55.796 C 46.954 55.796 45.911003 55.716 44.895 55.565 L 44.895 48.413 C 45.899 48.654003 46.938 48.785004 48.011 48.785004 C 55.530006 48.785004 61.64201 42.676003 61.64201 35.158005 C 61.64201 32.436005 60.83001 29.906006 59.451008 27.779003 L 56.264008 29.570004 C 55.51301 29.993006 54.903008 29.633003 54.90701 28.776005 L 54.951008 14.823005 C 54.95501 13.967005 55.557007 13.6290045 56.292007 14.069005 L 68.242004 21.277004 C 68.977005 21.721004 68.96501 22.427004 68.216 22.845003 L 65.574005 24.334003 C 67.525 27.484 68.648 31.189 68.648 35.158 z " fill="#007ae4" fill-opacity="1"/>
<path d="M 41.048 55.756 C 41.044 56.612 40.442 56.95 39.708 56.516 L 27.757 49.3 C 27.024 48.862 27.036 48.15 27.782 47.733 L 30.569 46.164 C 28.549 42.977997 27.371 39.203 27.371 35.157 C 27.371 23.775995 36.632 14.518997 48.012 14.518997 C 49.069 14.518997 50.112 14.598997 51.125 14.751997 L 51.125 21.898996 C 50.127 21.662996 49.089 21.528996 48.012 21.528996 C 40.496 21.528996 34.382 27.640997 34.382 35.15599 C 34.382 37.955994 35.235 40.557995 36.689 42.723995 L 39.740997 41.005997 C 40.485996 40.582996 41.094997 40.943996 41.092 41.798996 L 41.048 55.756 z " fill="#76b529" fill-opacity="1"/>
<linearGradient gradientUnits="userSpaceOnUse" x1="47.998" x2="47.998" y1="88.1113" y2="61.082">
<stop offset="0" stop-color="#2a7a10"/>
<stop offset="1" stop-color="#509e10"/>
</linearGradient>
<path d="M 87.135 61.111 C 84.108 80.851 72.805 88.111 48.000004 88.111 C 23.186005 88.111 11.882004 80.843 8.861004 61.082 C 13.375 61.082 79.0 61.111 87.135 61.111 z " fill="#469c12" fill-opacity="1"/>
<path d="M 87.328 60.111 L 87.053 62.111 L 8.982 62.111 L 8.6710005 60.111 L 87.328 60.111 z " fill="#ffffff" fill-opacity="0.2"/>
<path d="M 53.063 80.215 C 52.511 82.783 48.828 82.688995 48.268 80.215 L 45.195 69.58299 L 48.778 69.58299 L 50.957 78.78499 L 53.281 69.58299 L 56.313004 69.58299 L 53.063 80.215 z " fill="#ffffff"/>
<path d="M 61.111 80.479 C 61.111 81.538994 60.548 82.058 59.39 82.058 C 58.174 82.058 57.693 81.446 57.693 80.479 L 57.693 71.548 C 57.697 71.55 56.498 71.84 56.498 70.569 C 56.498 69.293 57.728 69.583 57.728 69.583 L 61.104 69.583 L 61.104 80.47901 L 61.111 80.47901 z " fill="#ffffff"/>
<path d="M 40.346 69.407 C 36.64 69.407 34.685 71.942 34.685 75.543 C 34.685 79.186 36.117 82.059 40.301003 82.059 C 44.164 82.059 45.94 79.464 45.94 75.626 C 45.94 71.962 44.182 69.407 40.346 69.407 z M 40.301 80.083 C 38.324997 80.083 38.251 77.303 38.251 75.47901 C 38.251 73.70101 38.401 71.382 40.301 71.382 C 42.125 71.382 42.385 73.823006 42.385 75.47901 C 42.385 77.603 42.275 80.083 40.301 80.083 z " fill="#ffffff"/>
<path d="M 57.544 66.704 C 57.544 64.560005 61.315 64.586 61.315 66.704 C 61.314 68.807 57.544 68.807 57.544 66.704 z " fill="#ffffff"/>
</svg>
