<?xml version="1.0" encoding="UTF-8"?>
<svg xmlns="http://www.w3.org/2000/svg" xmlns:xlink="http://www.w3.org/1999/xlink" baseProfile="tiny" contentScriptType="text/ecmascript" contentStyleType="text/css" height="30px" preserveAspectRatio="xMidYMid meet" version="1.1" viewBox="0 0 30 30" width="30px" x="0px" y="0px" zoomAndPan="magnify">
<rect color="#000000" display="inline" fill="#353535" fill-opacity="0.58823529" fill-rule="nonzero" height="25" ry="4.2799163" stroke="none" visibility="visible" width="25" x="2.5" y="2.5"/>
<path d="M 8.326742 19.09793 L 8.326742 9.636537 L 21.33616 9.636537 L 21.33616 14.641024 C 21.77552 14.843854 22.175264 15.11764 22.518831 15.449382 L 22.518831 9.045199 C 22.518831 8.719966 22.252731 8.453863 21.927498 8.453863 L 7.735405 8.453863 C 7.410169 8.453863 7.144068 8.719966 7.144068 9.045199 L 7.144068 19.689266 C 7.144068 20.014502 7.41017 20.280603 7.735405 20.280603 L 15.696576 20.280603 C 15.526862 19.91161 15.409186 19.514822 15.350052 19.097933 L 8.32674 19.097933 z M 16.98746 12.211223 L 13.944443 15.254243 L 12.084096 13.393897 C 11.9693775 13.279178 11.78074 13.279178 11.666022 13.393897 L 9.213746 15.84558 L 9.213746 18.21093 L 15.319304 18.21093 C 15.470095 16.038357 17.253569 14.312244 19.449202 14.254884 L 17.405542 12.211223 C 17.290825 12.095912 17.102776 12.095912 16.987469 12.211223 z M 19.562153 14.958573 C 17.603048 14.958573 16.01413 16.547495 16.01413 18.506596 C 16.01413 20.465696 17.603048 22.05462 19.562153 22.05462 C 21.521254 22.05462 23.110174 20.465696 23.110174 18.506596 C 23.110174 16.547495 21.521254 14.958573 19.562153 14.958573 z M 21.435509 18.834784 L 18.87147 20.544344 C 18.60123 20.724108 18.379478 20.605831 18.379478 20.280603 L 18.379478 16.732582 C 18.379478 16.407347 18.60123 16.28908 18.87147 16.469437 L 21.435509 18.178991 C 21.70575 18.35876 21.70575 18.654428 21.435509 18.834784 z " fill="#ffffff"/>
</svg>
