<?xml version="1.0" encoding="UTF-8"?>
<svg xmlns="http://www.w3.org/2000/svg" xmlns:xlink="http://www.w3.org/1999/xlink" baseProfile="tiny" contentScriptType="text/ecmascript" contentStyleType="text/css" height="30px" preserveAspectRatio="xMidYMid meet" version="1.1" viewBox="0 0 30 30" width="30px" x="0px" y="0px" zoomAndPan="magnify">
<path d="M 29.414 3.414 C 29.792 3.036 30.0 2.534 30.0 2.0 C 30.0 1.4660001 29.792 0.964 29.414 0.58599997 C 29.036 0.20799994 28.534 0.0 28.0 0.0 C 27.466 0.0 26.964 0.208 26.586 0.586 L 21.801 5.371 C 21.064 2.295 18.299 0.0 15.0 0.0 C 11.141 0.0 8.0 3.141 8.0 7.0 L 8.0 14.0 C 8.0 12.896 7.104 12.0 6.0 12.0 C 4.896 12.0 4.0 12.896 4.0 14.0 C 4.0 16.536 4.883 18.908 6.373 20.799 L 0.58599997 26.586 C 0.208 26.964 0.0 27.466 0.0 28.0 C 0.0 28.534 0.208 29.036 0.586 29.414 C 0.9640001 29.792 1.466 30.0 2.0 30.0 C 2.534 30.0 3.036 29.792 3.414 29.414 L 9.382 23.446 C 10.192 23.929998 11.066999 24.318 12.0 24.584 L 12.0 25.0 L 11.0 25.0 C 9.896 25.0 9.0 25.896 9.0 27.0 C 9.0 28.104 9.896 29.0 11.0 29.0 L 19.0 29.0 C 20.104 29.0 21.0 28.104 21.0 27.0 C 21.0 25.896 20.104 25.0 19.0 25.0 L 18.0 25.0 L 18.0 24.584 C 22.682 23.256 26.0 18.93 26.0 14.0 C 26.0 12.896 25.104 12.0 24.0 12.0 C 22.896 12.0 22.0 12.896 22.0 14.0 L 22.0 10.828 L 29.414 3.414 z " fill-opacity="0.15"/>
<path d="M 15.0 19.0 C 18.146 19.0 20.721 16.58 20.975 13.5 L 21.0 13.5 L 21.0 9.414 L 28.707 1.7069998 C 29.098 1.3159997 29.098 0.6839998 28.707 0.29299974 C 28.316 -0.09800029 27.684 -0.09800026 27.293 0.29299974 L 21.0 6.586 L 21.0 6.0 C 21.0 2.687 18.314 0.0 15.0 0.0 C 11.686001 0.0 9.0 2.687 9.0 6.0 L 9.0 13.5 L 9.025 13.5 C 9.136 14.854 9.714 16.063 10.573999 17.012 L 9.148 18.438002 C 7.82 17.008 7.0 15.101 7.0 13.0 C 7.0 12.4470005 6.553 12.0 6.0 12.0 C 5.447 12.0 5.0 12.447 5.0 13.0 C 5.0 15.652 6.042 18.063 7.732001 19.854 L 1.2930002 26.293 C 0.9020002 26.684 0.9020002 27.316 1.2930002 27.707 C 1.488 27.902 1.744 28.0 2.0 28.0 C 2.256 28.0 2.512 27.902 2.707 27.707 L 9.246 21.168 C 10.354 21.951 11.625 22.518002 13.0 22.799002 L 13.0 25.0 L 11.0 25.0 C 10.4470005 25.0 10.0 25.448 10.0 26.0 C 10.0 26.553 10.447 27.0 11.0 27.0 L 19.0 27.0 C 19.553 27.0 20.0 26.553 20.0 26.0 C 20.0 25.448 19.553 25.0 19.0 25.0 L 17.0 25.0 L 17.0 22.799 C 21.559 21.869 25.0 17.829 25.0 13.0 C 25.0 12.4470005 24.553 12.0 24.0 12.0 C 23.447 12.0 23.0 12.447 23.0 13.0 C 23.0 17.411 19.411 21.0 15.0 21.0 C 13.411 21.0 11.934 20.529 10.687 19.727 L 12.156 18.258 C 13.006 18.718 13.966 19.0 15.0 19.0 z " fill-opacity="0.3"/>
<path d="M 20.975 14.5 L 21.0 14.5 L 21.0 12.535 L 13.691 19.844 C 14.114 19.938 14.549 20.0 15.0 20.0 C 18.146 20.0 20.721 17.58 20.975 14.5 z " fill="#ffffff"/>
<path d="M 9.693 16.771 L 20.836 5.629 C 20.215 2.977 17.842 1.0 15.0 1.0 C 11.686 1.0 9.0 3.687 9.0 7.0 L 9.0 14.5 L 9.025 14.5 C 9.093 15.316 9.332 16.08 9.693 16.771 z " fill="#ffffff"/>
<path d="M 8.227 18.238 C 7.454 17.008 7.0 15.557 7.0 14.0 C 7.0 13.447 6.553 13.0 6.0 13.0 C 5.447 13.0 5.0 13.447 5.0 14.0 C 5.0 16.111 5.658 18.07 6.778 19.687 L 8.227 18.238 z " fill="#ffffff"/>
<path d="M 24.0 13.0 C 23.447 13.0 23.0 13.447 23.0 14.0 C 23.0 18.411 19.411 22.0 15.0 22.0 C 13.973 22.0 12.994 21.799 12.091 21.444 L 10.570999 22.964 C 11.331999 23.341002 12.145999 23.624 12.999999 23.799 L 12.999999 26.0 L 10.999999 26.0 C 10.446999 26.0 9.999999 26.448 9.999999 27.0 C 9.999999 27.553 10.446999 28.0 10.999999 28.0 L 19.0 28.0 C 19.553 28.0 20.0 27.553 20.0 27.0 C 20.0 26.448 19.553 26.0 19.0 26.0 L 17.0 26.0 L 17.0 23.799 C 21.559 22.869 25.0 18.829 25.0 14.0 C 25.0 13.447 24.553 13.0 24.0 13.0 z " fill="#ffffff"/>
<path d="M 2.0 29.0 C 1.744 29.0 1.4879999 28.902 1.293 28.707 C 0.902 28.316 0.902 27.684 1.293 27.293 L 27.293 1.2930012 C 27.684 0.90200114 28.316 0.90200114 28.707 1.2930012 C 29.097998 1.6840012 29.098 2.3160012 28.707 2.7070012 L 2.7069988 28.707 C 2.512 28.902 2.256 29.0 2.0 29.0 L 2.0 29.0 z " fill="#50b4fb"/>
<rect fill="none" height="30" width="30"/>
</svg>
