<?xml version="1.0" encoding="UTF-8"?>
<svg xmlns="http://www.w3.org/2000/svg" xmlns:xlink="http://www.w3.org/1999/xlink" baseProfile="tiny" contentScriptType="text/ecmascript" contentStyleType="text/css" height="30px" preserveAspectRatio="xMidYMid meet" version="1.1" viewBox="0 0 30 30" width="30px" x="0px" y="0px" zoomAndPan="magnify">
<rect color="#000000" display="inline" fill="#353535" fill-opacity="0.58823529" fill-rule="nonzero" height="25" ry="4.2799163" stroke="none" visibility="visible" width="25" x="2.5" y="2.5"/>
<rect fill="none" height="30" width="30"/>
<path d="M 8.474576 12.172532 L 21.525433 12.172532 L 21.525433 9.127114 L 8.474577 9.127114 L 8.474577 12.172532 z M 9.344417 10.4322 L 11.993742 10.4322 L 11.993742 11.308565 L 9.344418 11.308565 L 9.344418 10.4322 z M 8.474576 16.522385 L 21.525433 16.522385 L 21.525433 13.476968 L 8.474576 13.476968 L 8.474576 16.522385 z M 9.344417 14.782704 L 11.993739 14.782704 L 11.987239 15.652545 L 9.337915 15.652545 L 9.344456 14.782704 z M 8.474693 20.872889 L 21.525549 20.872889 L 21.525549 17.827469 L 8.474694 17.827469 L 8.474694 20.872889 z M 9.344536 19.132557 L 11.99386 19.132557 L 11.99386 20.002394 L 9.344534 20.002394 L 9.344534 19.132557 z " fill="#ffffff" fill-opacity="1" fill-rule="evenodd" stroke="none"/>
</svg>
