<?xml version="1.0" encoding="UTF-8"?>
<svg xmlns="http://www.w3.org/2000/svg" xmlns:xlink="http://www.w3.org/1999/xlink" baseProfile="tiny" contentScriptType="text/ecmascript" contentStyleType="text/css" height="27px" preserveAspectRatio="xMidYMid meet" version="1.1" viewBox="1.5 1.5 27 27" width="27px" x="0px" y="0px" zoomAndPan="magnify">
<defs/>
<linearGradient gradientTransform="matrix(1 0 0 1 0.0801 -812.6914)" gradientUnits="userSpaceOnUse" x1="14.9204" x2="14.9204" xlink:actuate="onLoad" xlink:show="other" xlink:type="simple" y1="839.166" y2="816.2168">
<stop offset="0" stop-color="#d0cbc5"/>
<stop offset="1" stop-color="#fcfcf9"/>
</linearGradient>
<path d="M 13.34375 3.5 C 12.654842 3.5 12.09375 4.099099 12.09375 4.84375 L 12.09375 5.75 L 7.5 5.75 C 7.0398026 5.75 6.65625 6.157144 6.65625 6.65625 L 6.65625 7.5625 L 23.34375 7.5625 L 23.34375 6.65625 C 23.34375 6.157144 22.958347 5.75 22.5 5.75 L 17.9375 5.75 L 17.9375 4.84375 C 17.9375 4.099099 17.377335 3.5 16.6875 3.5 L 13.34375 3.5 z M 13.34375 4.84375 L 16.6875 4.84375 L 16.6875 5.75 L 13.34375 5.75 L 13.34375 4.84375 z M 7.5 9.34375 L 9.40625 26.5 L 20.59375 26.5 L 22.5 9.34375 L 7.5 9.34375 z " fill="#575757" fill-opacity="1"/>
<rect fill="none" height="27" width="27" x="1.5" y="1.5"/>
</svg>
