<?xml version="1.0" encoding="UTF-8"?>
<svg xmlns="http://www.w3.org/2000/svg" xmlns:xlink="http://www.w3.org/1999/xlink" baseProfile="tiny" contentScriptType="text/ecmascript" contentStyleType="text/css" height="57px" preserveAspectRatio="xMidYMid meet" version="1.1" viewBox="0 0 67 57" width="67px" x="0px" y="0px" zoomAndPan="magnify">
<rect color="#000000" display="inline" fill="#353535" fill-opacity="0.58823529" fill-rule="nonzero" height="48" ry="8.2174387" stroke="none" visibility="visible" width="48" x="9.5" y="4.5"/>
<defs>
<linearGradient gradientUnits="userSpaceOnUse" x1="39.7256" x2="39.7256" xlink:actuate="onLoad" xlink:show="other" xlink:type="simple" y1="54" y2="6.0005">
<stop offset="0" stop-color="#d0cbc5"/>
<stop offset="0.5031" stop-color="#fafcef"/>
<stop offset="0.9693" stop-color="#ffffff"/>
<stop offset="1" stop-color="#ffffff"/>
</linearGradient>
</defs>
<path d="M 24.658705 10.75 C 24.061592 10.75 22.14202 11.073914 21.064955 11.84375 L 20.783705 12.03125 C 19.656506 12.810522 17.783705 14.056218 17.783705 16.84375 C 17.783705 20.431618 20.569122 26.136038 26.439955 34.03125 C 29.554533 38.219486 32.97171 41.267067 35.971207 43.28125 C 38.970703 45.295433 41.594505 46.25 42.908707 46.25 C 44.104366 46.25 45.410347 45.4659 46.502457 44.4375 C 47.594566 43.4091 48.47182 42.150127 48.877457 41.375 C 49.24757 40.668934 49.26727 40.1087 49.158707 39.65625 C 49.05444 39.221684 48.81412 38.892532 48.658707 38.75 C 48.656406 38.7479 48.629726 38.752 48.627457 38.75 C 48.627155 38.73959 48.627155 38.72916 48.627457 38.71875 C 48.617046 38.71905 48.606617 38.71905 48.596207 38.71875 C 48.596207 38.71875 44.658836 36.0571 42.908707 34.875 C 42.305435 34.46696 41.736313 34.28125 41.189957 34.28125 C 40.505608 34.28125 40.104225 34.5729 40.033707 34.625 C 40.026207 34.6305 39.969925 34.65732 39.971207 34.65625 C 39.971508 34.66666 39.971508 34.67709 39.971207 34.6875 C 39.967808 34.6916 39.590622 35.091255 38.846207 35.71875 C 37.916607 36.501617 36.528362 36.337696 35.564957 35.4375 C 35.245274 35.13924 34.722282 34.506073 34.002457 33.65625 C 33.28263 32.806427 32.404163 31.734398 31.502457 30.625 C 29.69904 28.406202 27.794575 26.016785 26.877457 24.78125 C 26.466358 24.22646 26.24659 23.63183 26.346207 23.03125 C 26.448086 22.411806 26.829628 21.94597 27.221207 21.5625 C 27.612785 21.17903 28.03371 20.882286 28.314957 20.6875 L 28.502457 20.5625 C 29.399979 19.91994 29.478449 18.793385 29.189957 18.03125 C 29.109306 17.819016 28.428995 16.33449 27.783707 14.9375 C 27.138418 13.54051 26.4971 12.144674 26.377457 11.90625 C 26.227882 11.607407 26.037685 11.2985115 25.783707 11.09375 C 25.529726 10.888989 25.20152 10.75 24.658705 10.75 z " fill="#ffffff" fill-opacity="1" fill-rule="nonzero" stroke="none"/>
</svg>
