<?xml version="1.0" encoding="UTF-8"?>
<svg xmlns="http://www.w3.org/2000/svg" xmlns:xlink="http://www.w3.org/1999/xlink" baseProfile="tiny" contentScriptType="text/ecmascript" contentStyleType="text/css" height="30px" preserveAspectRatio="xMidYMid meet" version="1.1" viewBox="0 0 30 30" width="30px" x="0px" y="0px" zoomAndPan="magnify">
<rect color="#000000" display="inline" fill="#353535" fill-opacity="0.58823529" fill-rule="nonzero" height="25" ry="4.2799163" stroke="none" visibility="visible" width="25" x="2.5" y="2.5"/>
<path d="M 20.790745 15.194312 L 18.56388 12.890883 C 18.396591 12.717161 18.106417 12.698503 17.91789 12.854214 L 14.637757 15.568785 L 12.7744255 13.639823 C 12.605849 13.464814 12.328539 13.464814 12.159963 13.639823 L 9.209258 16.693474 L 9.209258 19.182207 L 20.790745 19.182207 L 20.790745 15.194318 z M 22.720991 8.244139 L 7.2790136 8.244139 C 6.9232025 8.244139 6.6355953 8.531746 6.6355953 8.887555 L 6.6355953 21.112455 C 6.6355953 21.468267 6.9232025 21.755877 7.279011 21.755877 L 22.720991 21.755877 C 23.0768 21.755877 23.364408 21.468266 23.364408 21.112455 L 23.364408 8.887555 C 23.364408 8.531746 23.0768 8.244139 22.720991 8.244139 z M 22.077576 20.469044 L 7.922428 20.469044 L 7.922428 9.5309725 L 22.077576 9.5309725 L 22.077576 20.469044 z " fill="#ffffff"/>
<rect fill="none" height="30" width="30"/>
</svg>
