<?xml version="1.0" encoding="UTF-8"?>
<svg xmlns="http://www.w3.org/2000/svg" xmlns:xlink="http://www.w3.org/1999/xlink" baseProfile="tiny" contentScriptType="text/ecmascript" contentStyleType="text/css" height="30px" preserveAspectRatio="xMidYMid meet" version="1.1" viewBox="0 0 30 30" width="30px" x="0px" y="0px" zoomAndPan="magnify">
<defs/>
<path d="M 6.34375 8.6875 C 5.832051 9.194591 2.1875 18.375 2.1875 18.375 L 2.15625 18.40625 C 2.145106 18.42671 2.134681 18.44756 2.125 18.46875 L 2.125 18.5 C 2.087271 18.55897 2.055789 18.621935 2.03125 18.6875 C 1.970675 18.92633 1.970695 19.104963 2.03125 19.34375 C 2.0310864 19.35417 2.0310864 19.36458 2.03125 19.375 C 2.1382163 19.761038 2.3709767 19.962955 2.65625 20.125 L 2.65625 20.15625 C 2.66219 20.15955 2.681496 20.15305 2.6875 20.15625 C 2.9731674 20.30802 3.1132076 20.307056 3.15625 20.3125 L 13.78125 21.5 L 13.78125 21.46875 C 13.937039 21.49398 14.038841 21.50238 14.21875 21.46875 C 14.24998 21.47025 14.28127 21.47025 14.3125 21.46875 C 14.760616 21.344599 14.960681 20.970688 15.03125 20.84375 L 15.0625 20.84375 C 15.0638 20.84125 15.0613 20.81472 15.0625 20.8125 C 15.0676 20.8046 15.0718 20.8198 15.09375 20.78125 C 15.13027 20.717 15.214001 20.627739 15.25 20.34375 C 15.15159 19.417019 14.618245 18.860392 14.09375 17.96875 C 17.57223 17.34718 19.96792 17.474194 21.5 17.90625 C 23.136587 18.36778 23.880644 19.043432 24.28125 19.65625 C 24.473068 19.949684 24.633442 20.326967 24.71875 20.59375 C 24.80955 20.877687 24.824883 21.037863 24.875 21.21875 C 24.638895 20.36877 24.8768 21.466412 25.15625 21.78125 C 25.19147 21.82094 25.2024 21.82784 25.21875 21.84375 C 25.22695 21.85175 25.24286 21.86832 25.25 21.875 C 25.2536 21.8783 25.27572 21.90122 25.28125 21.90625 C 25.28675 21.91125 25.34365 21.96868 25.34375 21.96875 C 25.34375 21.96875 25.62493 22.093727 25.625 22.09375 C 25.62507 22.093773 25.64999 22.12318 25.65625 22.125 C 25.66877 22.1286 25.6836 22.124 25.6875 22.125 C 25.6946 22.1268 25.71198 22.1233 25.71875 22.125 C 25.73228 22.1284 25.73409 22.1211 25.75 22.125 C 25.75 22.125 26.019012 22.18704 26.03125 22.1875 C 27.078444 22.337906 27.050272 22.307306 27.28125 21.46875 C 27.3643 21.296295 27.44774 21.066854 27.46875 20.96875 C 27.53214 20.672792 27.611769 20.253408 27.78125 19.5625 C 28.207722 17.823942 27.957079 16.082973 27.09375 14.625 C 26.23688 13.177936 24.833235 12.000839 23.09375 11.1875 C 19.769745 9.633282 15.140261 9.313663 9.84375 10.5625 L 8.65625 8.46875 C 8.507822 8.21049 8.414472 8.117163 8.15625 7.96875 C 7.366966 7.677871 6.8554497 8.180409 6.34375 8.6875 z " fill="#000000" fill-opacity="0.11764706"/>
<path d="M 7.412477 7.819892 C 7.3992043 7.831036 7.386926 7.8433127 7.375783 7.856586 C 7.324593 7.892746 7.28608 7.944096 7.2657003 8.003363 L 3.0458603 17.910814 C 3.0325873 17.921965 3.0203092 17.934225 3.0091662 17.947504 C 2.9969513 17.995665 2.9969513 18.046114 3.0091662 18.09428 C 3.0309591 18.17293 3.0839972 18.239225 3.1559434 18.277752 C 3.1898844 18.297071 3.2272854 18.309542 3.266026 18.314442 L 13.907362 19.488657 C 13.943732 19.495457 13.981072 19.495457 14.017445 19.488657 C 14.096094 19.466867 14.162391 19.413828 14.200916 19.34188 C 14.220226 19.30793 14.232697 19.27053 14.237606 19.231796 C 14.245406 19.168285 14.232406 19.103971 14.200916 19.048325 L 12.623062 16.406338 C 12.844768 16.273903 13.05536 16.127392 13.320253 16.07609 C 17.30071 15.278433 19.972288 15.414837 21.796627 15.929313 C 23.620964 16.44379 24.602486 17.315134 25.135805 18.130968 C 25.402462 18.538887 25.549402 18.955387 25.649525 19.268492 C 25.749651 19.581596 25.791296 19.778486 25.832996 19.92899 C 25.843447 19.96661 25.809317 20.003078 25.906385 20.112461 C 25.918516 20.126131 25.942276 20.148571 25.943075 20.14915 C 25.943874 20.149738 26.052357 20.185572 26.053158 20.18584 C 26.053963 20.18611 26.16243 20.185896 26.16324 20.18584 C 26.164051 20.185783 26.272501 20.186222 26.273323 20.18584 C 26.274143 20.18546 26.329094 20.12755 26.346712 20.112452 C 26.364342 20.097351 26.373343 20.088192 26.383402 20.075762 C 26.403522 20.050901 26.411922 20.054972 26.420092 20.039072 C 26.485462 19.91186 26.466461 19.87169 26.49348 19.74552 C 26.547531 19.493172 26.647549 19.032658 26.823729 18.314442 C 27.195755 16.797834 26.969032 15.368181 26.23662 14.131296 C 25.504208 12.894413 24.27099 11.8308525 22.677277 11.085672 C 19.489847 9.595315 14.810171 9.23674 9.393951 10.645343 C 9.361482 10.653743 9.383851 10.671383 9.357262 10.682033 L 7.77942 7.9666696 C 7.753107 7.9208856 7.715121 7.8829007 7.669337 7.8565865 C 7.6243734 7.831956 7.573825 7.8193192 7.52256 7.819893 C 7.486183 7.8130627 7.448855 7.8130627 7.4124775 7.819893 z " fill="#000000" fill-opacity="0.11764706"/>
<rect fill="none" height="30" width="30"/>
<path d="M 7.412477 8.819507 C 7.3992043 8.83065 7.386926 8.842928 7.375783 8.8562 C 7.324593 8.892361 7.28608 8.94371 7.2657003 9.002977 L 3.0458603 18.910429 C 3.0325873 18.92158 3.0203092 18.93384 3.0091662 18.947119 C 2.9969513 18.99528 2.9969513 19.045729 3.0091662 19.093895 C 3.0309591 19.172544 3.0839972 19.23884 3.1559434 19.277367 C 3.1898844 19.296686 3.2272854 19.309156 3.266026 19.314056 L 13.907362 20.488272 C 13.943732 20.495071 13.981072 20.495071 14.017445 20.488272 C 14.096094 20.466482 14.162391 20.413443 14.200916 20.341496 C 14.220226 20.307545 14.232697 20.270145 14.237606 20.231411 C 14.245406 20.1679 14.232406 20.103586 14.200916 20.04794 L 12.623062 17.405952 C 12.844768 17.273518 13.05536 17.127007 13.320253 17.075705 C 17.30071 16.278048 19.972288 16.414452 21.796627 16.928928 C 23.620964 17.443405 24.602486 18.314749 25.135805 19.130583 C 25.402462 19.538502 25.549402 19.955002 25.649525 20.268106 C 25.749651 20.581211 25.791296 20.778101 25.832996 20.928604 C 25.843447 20.966225 25.809317 21.002693 25.906385 21.112076 C 25.918516 21.125746 25.942276 21.148186 25.943075 21.148766 C 25.943874 21.149353 26.052357 21.185186 26.053158 21.185455 C 26.053963 21.185724 26.16243 21.18551 26.16324 21.185455 C 26.164051 21.185398 26.272501 21.185837 26.273323 21.185455 C 26.274143 21.185074 26.329094 21.127165 26.346712 21.112066 C 26.364342 21.096966 26.373343 21.087807 26.383402 21.075377 C 26.403522 21.050516 26.411922 21.054586 26.420092 21.038687 C 26.485462 20.911474 26.466461 20.871305 26.49348 20.745134 C 26.547531 20.492786 26.647549 20.032272 26.823729 19.314056 C 27.195755 17.79745 26.969032 16.367796 26.23662 15.130911 C 25.504208 13.894028 24.27099 12.830467 22.677277 12.085287 C 19.489847 10.594929 14.810171 10.236355 9.393951 11.644958 C 9.361482 11.6533575 9.383851 11.670998 9.357262 11.681647 L 7.77942 8.966284 C 7.753107 8.9205 7.715121 8.882515 7.669337 8.856201 C 7.6243734 8.831571 7.573825 8.818934 7.52256 8.819508 C 7.486183 8.812677 7.448855 8.812677 7.4124775 8.819508 z " fill="#ffffff" fill-opacity="1"/>
</svg>
