<?xml version="1.0" encoding="UTF-8"?>
<svg xmlns="http://www.w3.org/2000/svg" xmlns:xlink="http://www.w3.org/1999/xlink" baseProfile="tiny" contentScriptType="text/ecmascript" contentStyleType="text/css" height="57px" preserveAspectRatio="xMidYMid meet" version="1.1" viewBox="0 0 67 57" width="67px" x="0px" y="0px" zoomAndPan="magnify">
<rect fill="#f6da42" fill-opacity="0.58823532" fill-rule="nonzero" height="48" ry="8.2174387" stroke="none" width="48" x="9.5" y="4.5"/>
<g>
<rect fill="none" height="57" width="67"/>
</g>
<g>
<rect fill="none" height="46" width="46" x="10.5" y="5.5"/>
</g>
<defs>
<linearGradient gradientUnits="userSpaceOnUse" x1="34" x2="34" xlink:actuate="onLoad" xlink:show="other" xlink:type="simple" y1="51.0127" y2="7.0005">
<stop offset="0" stop-color="#d0cbc5"/>
<stop offset="0.5031" stop-color="#fafcef"/>
<stop offset="0.9693" stop-color="#ffffff"/>
<stop offset="1" stop-color="#ffffff"/>
</linearGradient>
</defs>
<g transform="matrix(2.0032643,0,0,2.0032643,3.5762395,-0.26344191)">
<path color="#000000" d="M 11.0625 10.53125 C 10.922895 10.54521 10.80083 10.645241 10.75 10.78125 C 10.73689 10.78855 10.72607 10.79939 10.71875 10.8125 C 10.70975 10.86221 10.70975 10.88779 10.71875 10.9375 L 10.71875 13.0625 L 10.71875 13.625 L 10.71875 14.375 C 10.71875 16.556622 12.433445 18.329422 14.5625 18.53125 L 14.5625 21.5625 L 12.09375 21.5625 C 11.965754 21.53744 11.861632 21.60859 11.78125 21.6875 C 11.642818 21.821354 11.629146 22.065922 11.75 22.21875 C 11.7718 22.24691 11.78434 22.25945 11.8125 22.28125 C 11.83648 22.2992 11.88428 22.30703 11.90625 22.3125 C 11.92822 22.318 11.92137 22.34016 11.9375 22.34375 C 11.94782 22.34575 11.95843 22.34575 11.96875 22.34375 L 12.09375 22.34375 L 14.9375 22.34375 L 17.78125 22.34375 L 17.90625 22.34375 C 17.91657 22.34575 17.92718 22.34575 17.9375 22.34375 C 17.95361 22.34015 17.9468 22.31796 17.96875 22.3125 C 17.99071 22.307 18.03851 22.29921 18.0625 22.28125 C 18.09066 22.25945 18.1032 22.24691 18.125 22.21875 C 18.245844 22.065922 18.23217 21.821356 18.09375 21.6875 C 18.01337 21.60857 17.90925 21.53743 17.78125 21.5625 L 15.3125 21.5625 L 15.3125 18.53125 C 17.441555 18.329424 19.15625 16.556622 19.15625 14.375 L 19.15625 13.625 L 19.15625 13.0625 L 19.15625 10.9375 C 19.16525 10.88779 19.16525 10.86221 19.15625 10.8125 C 19.14895 10.79939 19.13811 10.78857 19.125 10.78125 C 19.07417 10.645246 18.952108 10.54521 18.8125 10.53125 C 18.662212 10.51622 18.542315 10.631881 18.46875 10.75 C 18.43234 10.80232 18.3779 10.855844 18.375 10.9375 L 18.375 13.0625 L 18.375 13.625 L 18.375 14.375 C 18.375 16.282564 16.845926 17.78125 14.9375 17.78125 C 13.029069 17.78125 11.5 16.282564 11.5 14.375 L 11.5 13.625 L 11.5 13.0625 L 11.5 10.9375 C 11.4971 10.85579 11.44265 10.802302 11.40625 10.75 C 11.33269 10.631881 11.212786 10.516221 11.0625 10.53125 z " display="inline" fill="#ffffff" fill-opacity="1" fill-rule="nonzero" stroke="none" visibility="visible"/>
<rect color="#000000" display="inline" fill="#ffffff" fill-opacity="1" fill-rule="nonzero" height="10.69326" ry="2.9919884" stroke="none" visibility="visible" width="5.6835289" x="12.10097" y="6.3713222"/>
</g>
</svg>
