<?xml version="1.0" encoding="UTF-8"?>
<svg xmlns="http://www.w3.org/2000/svg" xmlns:xlink="http://www.w3.org/1999/xlink" baseProfile="tiny" contentScriptType="text/ecmascript" contentStyleType="text/css" height="30px" preserveAspectRatio="xMidYMid meet" version="1.1" viewBox="0 0 30 30" width="30px" x="0px" y="0px" zoomAndPan="magnify">
<defs/>
<path d="M 11.011711 2.125 C 11.510609 2.125 12.0796585 2.3314729 12.480461 2.78125 L 22.042961 13.5625 C 22.77632 14.385476 22.776318 15.614523 22.042961 16.4375 L 12.480461 27.21875 C 11.721796 28.070126 10.301626 28.070126 9.542961 27.21875 L 7.980461 25.4375 C 7.231491 24.597008 7.231495 23.371744 7.980461 22.53125 L 13.261711 16.59375 C 13.272131 16.593586 13.282541 16.593586 13.292961 16.59375 C 13.800346 16.03735 14.147437 15.611151 14.324211 15.34375 C 14.500985 15.076349 14.480947 15.008569 14.480461 15.0 C 14.479976 14.9914 14.460681 14.90469 14.261711 14.625 C 14.065772 14.349575 13.708473 13.938434 13.261711 13.40625 C 13.254811 13.39805 13.268711 13.3833 13.261711 13.375 L 7.9804606 7.46875 C 7.2314887 6.6282573 7.2314887 5.4029922 7.9804606 4.5625 L 9.542961 2.78125 C 9.943768 2.3314664 10.512813 2.125 11.011711 2.125 z " fill="#e2e2e2" fill-opacity="1"/>
<rect fill="none" height="30" width="30"/>
<rect color="#000000" display="inline" fill="#bfbfbf" fill-opacity="0" fill-rule="nonzero" height="25" ry="5.5297503" stroke="none" stroke-width="1" visibility="visible" width="25" x="2.5" y="2.5"/>
<path d="M 14.011709 12.755597 L 8.718708 6.815786 C 8.329706 6.37925 8.329706 5.6655283 8.718708 5.2289925 L 10.304707 3.4491825 C 10.6937065 3.012646 11.329706 3.012646 11.718712 3.4491825 L 21.304712 14.206602 C 21.693712 14.643138 21.693712 15.356858 21.304712 15.793396 L 11.718712 26.550816 C 11.329712 26.987352 10.693712 26.987352 10.304712 26.550816 L 8.718711 24.771004 C 8.329711 24.334469 8.329711 23.620749 8.718711 23.184212 L 14.011711 17.2444 C 16.07713 14.979459 15.817769 14.9080105 14.011711 12.755596 z " fill="#575757"/>
<rect fill="none" height="33.177967" width="30" x="-32.923729" y="-4.0042377"/>
</svg>
