<?xml version="1.0" encoding="UTF-8"?>
<svg xmlns="http://www.w3.org/2000/svg" xmlns:xlink="http://www.w3.org/1999/xlink" baseProfile="tiny" contentScriptType="text/ecmascript" contentStyleType="text/css" height="57px" preserveAspectRatio="xMidYMid meet" version="1.1" viewBox="0 0 67 57" width="67px" x="0px" y="0px" zoomAndPan="magnify">
<defs>
<defs>
<linearGradient gradientTransform="matrix(1,0,0,-1,-249.4805,-316.0195)" gradientUnits="userSpaceOnUse" x1="282.97949" x2="282.97949" xlink:actuate="onLoad" xlink:show="other" xlink:type="simple" y1="-368.2988" y2="-320.7388">
<stop offset="0" stop-color="#d0cbc5"/>
<stop offset="0.5031" stop-color="#fafcef"/>
<stop offset="0.9693" stop-color="#ffffff"/>
<stop offset="1" stop-color="#ffffff"/>
</linearGradient>
</defs>
</defs>
<rect color="#000000" display="inline" fill="#ff8d15" fill-opacity="0.58823528999999997" fill-rule="nonzero" height="48" ry="8.2174387" stroke="none" visibility="visible" width="48" x="9.5" y="5.5"/>
<path d="M 23.797983 28.238548 C 23.797983 23.769451 27.41892 20.14788 31.887392 20.14788 C 36.3546 20.14788 39.976173 23.769447 39.976173 28.238548 C 39.976173 29.067795 39.850674 29.867405 39.61862 30.622234 L 44.671024 30.622234 L 45.54379 30.432425 C 46.04638 30.419184 46.443035 29.99352 46.427265 29.49345 L 46.406494 28.851494 L 46.338432 26.6078 L 46.316383 25.968365 C 46.301895 25.463251 45.881893 25.071012 45.376778 25.086777 L 43.96423 24.871742 C 43.96783 24.871742 43.97333 24.867342 43.97333 24.867342 C 43.97333 24.867342 42.894363 24.633387 42.131954 23.734144 C 41.70693 22.757338 41.14254 21.837915 40.44572 21.007408 C 39.98601 19.929703 40.25212 18.868393 40.25212 18.868393 C 40.25212 18.868393 40.24852 18.871593 40.24852 18.875294 L 40.681755 17.512552 C 40.919495 17.069868 40.752995 16.515566 40.309063 16.279718 L 39.744072 15.974479 L 37.767757 14.913801 L 37.20147 14.613002 C 36.758125 14.374685 36.20571 14.54179 35.96797 14.98574 L 35.076294 16.101913 L 35.076294 16.093113 C 35.076294 16.093113 34.353622 16.887676 33.221684 17.11091 C 32.11308 16.979115 31.001322 17.016321 29.919832 17.20676 C 28.784113 17.049738 28.02171 16.314451 28.02171 16.314451 C 28.02171 16.314451 28.02301 16.321352 28.02301 16.323952 L 27.062145 15.265794 C 26.79729 14.835092 26.234161 14.705186 25.807241 14.9687805 L 25.263027 15.310569 L 23.356707 16.492323 L 22.809341 16.830957 C 22.382421 17.09266 22.249363 17.658316 22.515478 18.085865 L 23.035097 19.415178 C 23.033796 19.411978 23.030098 19.410778 23.030098 19.410778 C 23.030098 19.410778 23.345402 20.40398 22.995419 21.482315 C 22.657413 21.932568 22.340221 22.399845 22.067797 22.910637 C 21.797266 23.4126 21.581598 23.93285 21.395569 24.458773 C 20.694336 25.343515 19.693563 25.63044 19.693563 25.63044 C 19.693563 25.63044 19.697964 25.63364 19.701164 25.63364 L 18.304964 25.935635 C 17.801111 25.953295 17.40509 26.372015 17.420225 26.875866 L 17.442305 27.517822 L 17.510405 29.761517 L 17.530584 30.403473 C 17.547615 30.906694 17.967594 31.302084 18.470188 31.283796 L 19.882744 31.4982 C 19.880144 31.501999 19.875143 31.5051 19.875143 31.5051 C 19.875143 31.5051 20.87781 31.724548 21.633904 32.551273 C 22.077219 33.59493 22.684492 34.570473 23.435543 35.446384 C 23.846699 36.495083 23.595083 37.50342 23.595083 37.50342 C 23.595083 37.50342 23.600683 37.49782 23.601383 37.49782 L 23.167526 38.85741 C 22.929789 39.301353 23.095636 39.854397 23.538952 40.09213 L 24.103977 40.394188 L 26.082184 41.45613 L 26.647205 41.76008 C 27.09052 41.994667 27.643562 41.83008 27.881933 41.38613 L 28.77298 40.26933 L 28.77298 40.27753 C 28.77298 40.27753 29.486824 39.49495 30.608673 39.266037 C 31.721062 39.396572 32.83534 39.359997 33.915565 39.158836 C 34.797153 39.27739 35.452354 39.74404 35.706486 39.952137 L 35.706486 35.369526 C 34.56824 35.981213 33.269196 36.32867 31.886908 36.32867 C 27.419065 36.32607 23.79813 32.703957 23.79813 28.23864 z M 48.319202 31.883549 L 38.229515 31.883549 C 37.533325 31.883549 36.968307 32.44857 36.968307 33.144756 L 36.968307 43.234447 C 36.968307 43.930634 37.533325 44.49566 38.229515 44.49566 L 48.3192 44.49566 C 49.01539 44.49566 49.580418 43.930634 49.580418 43.234447 L 49.580418 33.144756 C 49.580418 32.447937 49.016018 31.883549 48.3192 31.883549 z " fill="#ffffff" fill-opacity="1" stroke-opacity="0.3"/>
<rect fill="none" height="57" width="67" x="0" y="0"/>
<rect color="#000000" display="inline" fill="#ffffff" fill-opacity="0" fill-rule="nonzero" height="33" ry="0" stroke="none" stroke-width="1" visibility="visible" width="33" x="17" y="13"/>
</svg>
