<?xml version="1.0" encoding="UTF-8"?>
<svg xmlns="http://www.w3.org/2000/svg" xmlns:xlink="http://www.w3.org/1999/xlink" baseProfile="tiny" contentScriptType="text/ecmascript" contentStyleType="text/css" height="27px" preserveAspectRatio="xMidYMid meet" version="1.1" viewBox="0 0 27 27" width="27px" x="0px" y="0px" zoomAndPan="magnify">
<rect fill="none" height="27" width="27"/>
<path d="M 24.808 14.201 C 23.217 12.598001 20.627 12.6 19.037 14.201 L 12.853001 20.425 C 12.303 20.979 12.0 21.716 12.0 22.499 C 12.0 23.282 12.303 24.019 12.854 24.573 C 13.405 25.127 14.135 25.432 14.916 25.432 C 15.694 25.432 16.425001 25.126 16.979 24.573 L 23.161 18.349 C 23.843 17.662 23.843 16.546 23.161 15.859999 C 22.48 15.173999 21.37 15.173999 20.688 15.859999 L 20.688 15.859999 L 20.688 15.859999 L 14.917 21.669 C 14.689 21.898 14.689 22.269 14.917 22.499 C 15.031 22.613 15.181 22.671 15.33 22.671 C 15.477 22.671 15.627 22.613 15.741 22.499 L 21.512 16.689999 L 21.512 16.689999 C 21.741 16.460999 22.109 16.460999 22.337002 16.689999 C 22.565002 16.919 22.565002 17.291998 22.337002 17.52 L 16.153002 23.742998 C 15.494001 24.408998 14.340002 24.408998 13.681002 23.742998 C 13.350001 23.410995 13.168001 22.969995 13.168001 22.499 C 13.168001 22.028 13.350001 21.586998 13.681002 21.255 L 19.863005 15.030999 C 21.000002 13.886999 22.848003 13.884999 23.985004 15.030999 C 25.121002 16.175 25.121002 18.036 23.985004 19.179 L 18.214005 24.987 C 17.985004 25.216 17.985004 25.589 18.214005 25.817 C 18.327003 25.931 18.477003 25.99 18.626003 25.99 C 18.775003 25.99 18.925003 25.931 19.038004 25.817 L 24.809004 20.008 C 26.398 18.408 26.398 15.802 24.808 14.201 z " fill="#575757"/>
<path d="M 24.0 3.0 L 21.125 3.0 C 20.575 3.0 20.363 3.382 20.655 3.848 L 21.469 5.153 C 21.762 5.618 21.55 6.0 21.0 6.0 L 18.0 6.0 C 17.45 6.0 17.238 5.618 17.53 5.152 L 18.344 3.847 C 18.637 3.382 18.425 3.0 17.875 3.0 L 9.125 3.0 C 8.575 3.0 8.363 3.382 8.655 3.848 L 9.47 5.152 C 9.762 5.618 9.55 6.0 9.0 6.0 L 6.0 6.0 C 5.45 6.0 5.238 5.618 5.53 5.152 L 6.3440003 3.847 C 6.637 3.382 6.425 3.0 5.875 3.0 L 3.0 3.0 C 2.45 3.0 2.0 3.45 2.0 4.0 L 2.0 23.0 C 2.0 23.55 2.45 24.0 3.0 24.0 L 11.086 24.0 C 10.902 23.527 10.799001 23.021 10.799001 22.499 C 10.799001 21.662 11.068001 20.877 11.528001 20.2 L 6.0 20.2 C 5.89 20.2 5.8 20.11 5.8 20.0 L 5.8 18.773 C 5.8 18.663 5.8900003 18.573 6.0 18.573 L 8.042 18.573 L 8.042 11.545 L 6.041 11.964 C 6.027 11.967 6.014 11.969 6.0 11.969 C 5.955 11.969 5.91 11.953 5.874 11.924 C 5.827 11.886 5.8 11.829 5.8 11.769 L 5.8 10.543 C 5.8 10.455 5.8580003 10.377 5.9420004 10.352 L 9.261001 9.338 L 10.587001 9.329 C 10.6970005 9.329 10.787001 9.419001 10.787001 9.529 L 10.787001 18.573 L 12.699 18.573 C 12.782001 18.573 12.841001 18.632 12.870001 18.704 L 14.582001 16.981 C 15.127001 15.916 16.028 15.095001 16.896 14.381 C 17.776 13.657001 18.309 13.159 18.309 12.353001 C 18.309 11.465 17.868 11.070001 16.877 11.070001 C 16.089 11.070001 15.369 11.298 14.701 11.530001 C 14.68 11.538001 14.656 11.542001 14.635 11.542001 C 14.594 11.542001 14.553 11.529001 14.52 11.505001 C 14.467 11.468001 14.435 11.406001 14.435 11.342001 L 14.435 9.93 C 14.435 9.841001 14.495001 9.7630005 14.580001 9.738 C 15.6 9.443 16.546 9.3 17.477 9.3 C 19.688 9.3 20.915998 10.1970005 21.08 11.883 C 21.358 11.838 21.638 11.8 21.924 11.8 C 23.048 11.8 24.11 12.162001 25.001 12.81 L 25.001 4.0 C 25.0 3.45 24.55 3.0 24.0 3.0 z M 24.0 24.0 C 24.55 24.0 25.0 23.55 25.0 23.0 L 25.0 21.518 L 22.533 24.0 L 24.0 24.0 z " fill="#575757" fill-opacity="1"/>
<defs>
<linearGradient gradientUnits="userSpaceOnUse" x1="13.5" x2="13.5" xlink:actuate="onLoad" xlink:show="other" xlink:type="simple" y1="24" y2="3.0005">
<stop offset="0" stop-color="#d0cbc5"/>
<stop offset="1" stop-color="#fcfcf9"/>
</linearGradient>
</defs>
</svg>
