<?xml version="1.0" encoding="UTF-8"?>
<svg xmlns="http://www.w3.org/2000/svg" xmlns:xlink="http://www.w3.org/1999/xlink" baseProfile="tiny" contentScriptType="text/ecmascript" contentStyleType="text/css" height="57px" preserveAspectRatio="xMidYMid meet" version="1.1" viewBox="0 0 67 57" width="67px" x="0px" y="0px" zoomAndPan="magnify">
<rect color="#000000" display="inline" fill="#00008f" fill-opacity="0.58823529" fill-rule="nonzero" height="48" ry="8.2174387" stroke="none" visibility="visible" width="48" x="9.5" y="5.5"/>
<rect color="#000000" display="inline" fill="#ffffff" fill-opacity="0" fill-rule="nonzero" height="33" ry="0" stroke="none" stroke-width="1" visibility="visible" width="33" x="17" y="13"/>
<g>
<rect fill="none" height="57" width="67"/>
</g>
<path d="M 47.6276 30.113523 C 47.604733 29.351269 47.58298 28.588997 47.557903 27.825638 C 47.507805 26.374063 46.526665 26.424156 45.32011 26.240124 C 43.90882 26.02451 43.40573 24.827744 42.73057 23.734444 C 41.890987 22.374336 41.28553 21.423689 41.783176 19.853418 C 42.147984 18.703484 42.23945 18.19494 41.12545 17.544842 C 40.406754 17.12559 39.655376 16.75208 38.92032 16.362236 C 37.769302 15.751331 37.261852 16.801077 36.6161 17.607998 C 35.59249 18.888609 34.03964 18.497677 32.60004 18.612017 C 31.379316 18.707836 30.34808 18.616417 29.497623 17.680962 C 28.6319 16.728134 28.22681 16.18583 26.989756 16.896915 C 26.329857 17.276962 25.693895 17.701658 25.04598 18.101303 C 23.80893 18.866833 24.3436 19.694448 24.787895 20.830215 C 25.395529 22.383066 24.235794 23.489445 23.627068 24.809256 C 23.03686 26.087685 22.37912 26.795507 21.02665 27.088432 C 19.845137 27.344334 19.36164 27.52184 19.35837 28.811148 C 19.35607 29.645288 19.40955 30.480518 19.43459 31.314665 C 19.469427 32.452602 20.27526 32.4733 21.197609 32.612694 C 22.049154 32.741207 22.831034 33.045006 23.449556 33.722343 C 24.110548 35.28063 25.62202 36.47085 25.412945 38.263275 C 25.336723 38.91774 24.905487 39.548237 24.84451 40.216854 C 24.7574 41.15336 27.541857 42.513454 28.342232 42.710567 C 29.314672 43.226715 29.883097 41.78821 30.41668 41.256813 C 31.44138 40.23537 32.480244 40.38892 33.83492 40.345352 C 35.120968 40.30397 36.295933 40.033916 37.302135 41.041195 C 37.864033 41.534485 38.531567 42.941418 39.46263 42.35992 C 40.252117 42.112724 42.94619 40.58601 42.79918 39.651695 C 42.69464 38.98308 42.22094 38.381973 42.102257 37.722073 C 41.957436 36.906452 42.06957 36.179028 42.53348 35.497337 C 43.086662 34.684982 43.330593 33.5002 44.01119 32.821777 C 45.17092 31.666395 47.859547 32.12484 47.627617 30.113537 z M 33.45704 37.408463 C 29.15567 37.408463 25.561045 33.817093 25.561045 29.514648 C 25.561045 25.211094 29.153496 21.617558 33.45704 21.617558 C 37.76058 21.617558 41.35304 25.211094 41.35304 29.514648 C 41.35304 33.816013 37.758408 37.408463 33.45704 37.408463 z " fill="#ffffff" fill-opacity="1"/>
<defs>
<linearGradient gradientUnits="userSpaceOnUse" x1="36.9863" x2="36.9863" xlink:actuate="onLoad" xlink:show="other" xlink:type="simple" y1="53.4639" y2="9.9946">
<stop offset="0" stop-color="#d0cbc5"/>
<stop offset="0.5031" stop-color="#fafcef"/>
<stop offset="0.9693" stop-color="#ffffff"/>
<stop offset="1" stop-color="#ffffff"/>
</linearGradient>
</defs>
</svg>
