<?xml version="1.0" encoding="UTF-8"?>
<!DOCTYPE svg PUBLIC "-//W3C//DTD SVG 1.1 Tiny//EN" "http://www.w3.org/Graphics/SVG/1.1/DTD/svg11-tiny.dtd">
<svg baseProfile="tiny" height="30px" version="1.1" viewBox="0 0 30 30" width="30px" x="0px" xmlns="http://www.w3.org/2000/svg" xmlns:xlink="http://www.w3.org/1999/xlink" y="0px">
<path d="M15,24c-6.624,0-12.074-6.02-13.586-7.865c-0.557-0.678-0.557-1.59,0-2.27C2.927,12.021,8.377,6,15,6  c6.625,0,12.072,6.021,13.586,7.867c0.557,0.678,0.557,1.59,0,2.268C27.073,17.98,21.625,24,15,24L15,24z M17.334,10.578  C18.918,11.418,20,13.085,20,15c0,1.916-1.082,3.584-2.67,4.424c2.742-0.857,5.197-2.988,6.619-4.424  C22.528,13.566,20.073,11.436,17.334,10.578L17.334,10.578z M6.05,15c1.422,1.436,3.877,3.564,6.619,4.422  C11.082,18.582,10,16.916,10,15s1.084-3.583,2.668-4.422C9.927,11.435,7.472,13.564,6.05,15L6.05,15z M15,14c-0.553,0-1,0.449-1,1  c0,0.553,0.447,1,1,1c0.551,0,1-0.447,1-1C16,14.449,15.551,14,15,14L15,14z" fill-opacity="0.15" stroke-opacity="0.15"/>
<path d="M27.813,13.5C26.393,11.768,21.204,6,15,6C8.799,6,3.607,11.768,2.188,13.5c-0.25,0.305-0.25,0.695,0,1  C3.607,16.232,8.799,22,15,22c6.203,0,11.393-5.768,12.813-7.5C28.063,14.195,28.063,13.804,27.813,13.5z M15,19.8  c-4.454,0-8.551-3.859-10.333-5.801C6.448,12.059,10.547,8.2,15,8.2c4.453,0,8.551,3.858,10.332,5.799  C23.551,15.941,19.454,19.8,15,19.8z M15,10c-2.207,0-4,1.794-4,4c0,2.207,1.793,4,4,4c2.205,0,4-1.793,4-4  C19,11.794,17.206,10,15,10z M15,16c-1.104,0-2-0.896-2-2c0-1.102,0.896-2,2-2c1.102,0,2,0.898,2,2C17,15.103,16.102,16,15,16z" fill-opacity="0.3" stroke-opacity="0.3"/>
<path d="M27.813,14.5C26.393,12.767,21.204,7,15,7C8.799,7,3.607,12.767,2.188,14.5c-0.25,0.305-0.25,0.695,0,1  C3.607,17.232,8.799,23,15,23c6.203,0,11.393-5.768,12.813-7.5C28.063,15.195,28.063,14.804,27.813,14.5z M15,20.8  c-4.454,0-8.551-3.859-10.333-5.801C6.448,13.058,10.547,9.2,15,9.2c4.453,0,8.551,3.858,10.332,5.799  C23.551,16.941,19.454,20.8,15,20.8z M15,11c-2.207,0-4,1.794-4,4c0,2.207,1.793,4,4,4c2.205,0,4-1.793,4-4  C19,12.794,17.206,11,15,11z M15,17c-1.104,0-2-0.896-2-2c0-1.102,0.896-2,2-2c1.102,0,2,0.898,2,2C17,16.103,16.102,17,15,17z" fill="#FFFFFF"/>
<rect fill="none" height="30" width="30"/>
</svg>
