<?xml version="1.0" encoding="UTF-8"?>
<svg xmlns="http://www.w3.org/2000/svg" xmlns:xlink="http://www.w3.org/1999/xlink" baseProfile="tiny" contentScriptType="text/ecmascript" contentStyleType="text/css" height="70px" preserveAspectRatio="xMidYMid meet" version="1.1" viewBox="0 0 70 70" width="70px" x="0px" y="0px" zoomAndPan="magnify">
<rect color="#000000" display="inline" fill="#353535" fill-opacity="0.58823528999999997" fill-rule="nonzero" height="48" ry="8.2174387" stroke="none" visibility="visible" width="48" x="11" y="11"/>
<defs>
<linearGradient gradientUnits="userSpaceOnUse" x1="35.0015" x2="35.0015" xlink:actuate="onLoad" xlink:show="other" xlink:type="simple" y1="54" y2="16.0005">
<stop offset="0" stop-color="#d0cbc5"/>
<stop offset="0.5031" stop-color="#fafcef"/>
<stop offset="0.9693" stop-color="#ffffff"/>
<stop offset="1" stop-color="#ffffff"/>
</linearGradient>
</defs>
<path d="M 51.598835 25.085918 L 49.29669 25.085918 L 50.447464 23.092297 C 50.641266 22.755396 50.52655 22.324911 50.18845 22.129898 C 49.851547 21.935488 49.421062 22.051409 49.225445 22.38831 L 48.076485 24.381931 L 46.92572 22.38831 C 46.7301 22.0502 46.299618 21.935488 45.96332 22.129898 C 45.625813 22.32431 45.510494 22.755398 45.704903 23.092297 L 46.855675 25.085917 L 44.553528 25.085917 C 44.163494 25.085917 43.84954 25.40108 43.84954 25.790508 C 43.84954 26.179935 44.1641 26.4951 44.553528 26.4951 L 46.855675 26.4951 L 45.704903 28.488724 C 45.510494 28.82562 45.625805 29.256104 45.96332 29.451118 C 46.07441 29.51451 46.19516 29.54531 46.31471 29.54531 C 46.557423 29.54531 46.794697 29.418516 46.925716 29.192707 L 48.076485 27.199083 L 49.227253 29.192707 C 49.358273 29.41912 49.59374 29.54531 49.838264 29.54531 C 49.957203 29.54531 50.07856 29.51452 50.189655 29.451118 C 50.527157 29.256706 50.64248 28.82562 50.448067 28.488724 L 49.2973 26.4951 L 51.59944 26.4951 C 51.989468 26.4951 52.30343 26.179935 52.30343 25.790508 C 52.30343 25.40108 51.988262 25.085917 51.59884 25.085917 z " fill="#50b4fb"/>
<path color="#000000" d="M 42.8125 25.71875 C 40.524555 24.560312 37.94667 23.71875 35.0 23.71875 C 26.998837 23.71875 20.5 28.705288 20.5 34.84375 C 20.5 38.07182 22.291744 40.96942 25.15625 43.0 L 24.125 46.28125 L 28.8125 45.21875 L 29.40625 45.09375 C 31.126324 45.64614 33.018635 45.9375 35.0 45.9375 C 43.001163 45.9375 49.5 40.98221 49.5 34.84375 C 49.5 33.012207 48.77322 31.335136 47.75 29.8125 C 47.586517 30.050074 47.385403 30.250893 47.15625 30.375 C 46.88996 30.51922 46.605625 30.59375 46.3125 30.59375 C 46.013412 30.59375 45.69113 30.48848 45.4375 30.34375 C 45.03972 30.11391 44.768017 29.741028 44.65625 29.3125 C 44.52383 28.653624 44.76892 28.135824 45.0 27.5625 L 44.5625 27.5625 C 44.06886 27.5625 43.634403 27.353151 43.3125 27.03125 C 42.990597 26.709349 42.78125 26.274893 42.78125 25.78125 C 42.78125 25.75593 42.81139 25.74377 42.8125 25.71875 z " display="inline" fill="#ffffff" fill-opacity="1" fill-rule="nonzero" stroke="none" visibility="visible"/>
</svg>
