<?xml version="1.0" encoding="UTF-8"?>
<svg xmlns="http://www.w3.org/2000/svg" xmlns:xlink="http://www.w3.org/1999/xlink" baseProfile="tiny" contentScriptType="text/ecmascript" contentStyleType="text/css" height="96px" preserveAspectRatio="xMidYMid meet" version="1.1" viewBox="0 0 96 96" width="96px" x="0px" y="0px" zoomAndPan="magnify">
<defs>
<linearGradient>
<stop offset="0" stop-color="#1178cb" stop-opacity="1"/>
<stop offset="1" stop-color="#116ccb" stop-opacity="1"/>
</linearGradient>
<linearGradient>
<stop offset="0" stop-color="#ffffff" stop-opacity="1"/>
<stop offset="1" stop-color="#ffffff" stop-opacity="0.78431374"/>
</linearGradient>
<linearGradient gradientTransform="matrix(1,0,0,-1,-665.875,-1566.041)" gradientUnits="userSpaceOnUse" x1="713.874" x2="713.874" y1="-1573.7036" y2="-1653.7036">
<stop offset="0" stop-color="#0077cd"/>
<stop offset="1" stop-color="#003f9a"/>
</linearGradient>
<linearGradient gradientTransform="matrix(1,0,0,-1,-665.875,-1566.041)" gradientUnits="userSpaceOnUse" x1="713.874" x2="713.874" y1="-1574.2935" y2="-1653.5381">
<stop offset="0" stop-color="#ffffff"/>
<stop offset="1" stop-color="#ffffff" stop-opacity="0"/>
</linearGradient>
<linearGradient gradientTransform="matrix(1,0,0,-1,-665.875,-1566.041)" gradientUnits="userSpaceOnUse" id="linearGradient3033" x1="713.874" x2="713.874" y1="-1574.2935" y2="-1653.5381">
<stop offset="0" stop-color="#ffffff"/>
<stop offset="1" stop-color="#ffffff" stop-opacity="0"/>
</linearGradient>
<linearGradient gradientUnits="userSpaceOnUse" x1="41.59322" x2="41.59322" y1="25.915255" y2="71.948463">
<stop offset="0" stop-color="#ffffff" stop-opacity="1"/>
<stop offset="1" stop-color="#ffffff" stop-opacity="0.78431374"/>
</linearGradient>
<linearGradient gradientTransform="matrix(0,1,-1,0,96,0)" gradientUnits="userSpaceOnUse" id="linearGradient3811" x1="8" x2="88" y1="48" y2="48">
<stop offset="0" stop-color="#041b2c" stop-opacity="1"/>
<stop offset="1" stop-color="#03111c" stop-opacity="1"/>
</linearGradient>
<linearGradient gradientUnits="userSpaceOnUse" x1="41.59322" x2="41.59322" y1="25.915255" y2="71.948463">
<stop offset="0" stop-color="#1178cb" stop-opacity="1"/>
<stop offset="1" stop-color="#116ccb" stop-opacity="1"/>
</linearGradient>
</defs>
<path d="M 88.0 49.0 C 88.0 78.635 77.639 89.0 48.0 89.0 C 18.367 89.0 8.0 78.635 8.0 49.0 C 8.0 19.367 18.367 9.0 48.0 9.0 C 77.637 9.0 88.0 19.367 88.0 49.0 z " fill-opacity="0.4"/>
<path d="M 48.0 88.0 C 18.365 88.0 8.0 77.639 8.0 48.0 C 8.0 18.367 18.365 8.0 48.0 8.0 C 77.633 8.0 88.0 18.367 88.0 48.0 C 88.0 77.637 77.633 88.0 48.0 88.0 z " fill="url(#linearGradient3811)" fill-opacity="1"/>
<path d="M 48.0 8.0 C 18.367 8.0 8.0 18.367 8.0 48.0 C 8.0 77.635 18.367 88.0 48.0 88.0 C 77.639 88.0 88.0 77.635 88.0 48.0 C 88.0 18.367 77.637 8.0 48.0 8.0 z M 48.0 87.0 C 18.842 87.0 9.0 77.158 9.0 48.0 C 9.0 18.842005 18.842 9.0 48.0 9.0 C 77.16 9.0 87.0 18.842 87.0 48.0 C 87.0 77.158005 77.16 87.0 48.0 87.0 z " fill="url(#linearGradient3033)" fill-opacity="0.15"/>
<rect fill="none" height="96" width="96"/>
<linearGradient gradientUnits="userSpaceOnUse" x1="48.0005" x2="48.0005" y1="71.9814" y2="26.019">
<stop offset="0" stop-color="#d0cbc5"/>
<stop offset="0.5031" stop-color="#fafcef"/>
<stop offset="0.9693" stop-color="#ffffff"/>
<stop offset="1" stop-color="#ffffff"/>
</linearGradient>
<g transform="translate(19.2025,3.4525)">
<path d="M 8.487 39.072 L 8.487 44.535 L 6.762001 46.262 L 6.1870008 45.685 L 6.1870008 38.210003 L 8.487 39.072 z M 16.248001 56.898003 L 7.625001 56.898003 C 6.858 56.709 6.378 56.228 6.187 55.46 L 8.486 54.598 L 15.384 54.598 L 16.248 56.898 z M 16.248 38.497 L 8.515999 38.497 L 6.215998 37.634003 C 6.4079986 36.868004 6.886998 36.389004 7.6539984 36.196003 L 17.110998 36.196003 L 16.247997 38.497 z M 15.959997 45.397003 L 17.109997 46.548004 L 15.959997 47.695004 L 8.486998 47.695004 L 7.3369975 46.548004 L 8.486998 45.397003 L 15.959997 45.397003 z M 17.684998 46.835003 L 18.259998 47.409004 L 18.259998 55.461006 C 18.068998 56.229008 17.589 56.709007 16.822998 56.89901 L 15.959998 54.598007 L 15.959998 48.563007 L 17.684998 46.835007 z " fill="#2cf5ff"/>
<path d="M 22.622 43.097 L 20.323 43.097 L 20.323 40.797 L 22.622 40.797 L 22.622 43.097 z M 22.622 56.898 L 20.323 56.898 L 20.323 54.597 L 22.622 54.597 L 22.622 56.898 z " fill="#2cf5ff"/>
<path d="M 35.024 56.898 L 26.400995 56.898 C 25.633995 56.709 25.154997 56.228 24.962996 55.46 L 27.262997 54.598 L 34.160995 54.598 L 35.02399 56.898 z M 34.161995 38.497 L 27.292995 38.497 L 24.992996 37.634003 C 25.183996 36.868004 25.663996 36.389004 26.430996 36.196003 L 35.024994 36.196003 L 34.161995 38.497 z M 34.736996 45.397003 L 35.886997 46.548004 L 34.736996 47.695004 L 27.263996 47.695004 L 26.113997 46.548004 L 27.263996 45.397003 L 34.736996 45.397003 z M 34.736996 44.535004 L 34.736996 38.497 L 35.598995 36.197 C 36.365993 36.389004 36.844994 36.868004 37.036995 37.635 L 37.036995 45.685 L 36.46199 46.262 L 34.736996 44.535 z M 36.460995 46.835 L 37.035995 47.409 L 37.035995 55.461 C 36.84399 56.229 36.36499 56.709 35.597996 56.899 L 34.735996 54.598 L 34.735996 48.563 L 36.460995 46.835 z " fill="#2cf5ff"/>
<path d="M 41.635 39.072 L 41.635 44.535 L 39.911 46.262 L 39.335 45.685 L 39.335 38.210003 L 41.635 39.072 z M 39.336 54.887 L 39.336 47.409 L 39.912 46.835 L 41.636 48.563 L 41.636 54.024 L 39.336 54.886997 z M 49.396 56.898 L 40.771 56.898 C 40.004 56.709 39.525 56.228 39.334 55.46 L 41.633 54.598 L 48.532 54.598 L 49.395996 56.898 z M 48.533997 38.497 L 41.664 38.497 L 39.365 37.634003 C 39.556 36.868004 40.034996 36.389004 40.802 36.196003 L 49.397 36.196003 L 48.534 38.497 z M 49.109 44.535004 L 49.109 38.497 L 49.97 36.197 C 50.736 36.389004 51.214 36.868004 51.408 37.635 L 51.408 45.685 L 50.833 46.262 L 49.109 44.535 z M 50.833 46.835 L 51.408 47.409 L 51.408 55.461 C 51.217 56.229 50.736 56.709 49.97 56.899 L 49.109 54.598 L 49.109 48.563 L 50.833 46.835 z " fill="#2cf5ff"/>
</g>
<g transform="translate(-16.179034,2.598415)">
<path d="M 76.609 26.189 L 76.609 28.314 L 75.93701 28.984 L 75.713005 28.759 L 75.713005 25.852 L 76.60901 26.189 z M 76.60901 29.877998 L 76.60901 32.226997 L 76.27301 33.122997 C 75.97401 33.047997 75.79001 32.860996 75.71301 32.561996 L 75.71301 29.431995 L 75.93701 29.207994 L 76.60901 29.877996 z M 79.29301 25.964994 L 76.62101 25.964994 L 75.72601 25.629995 C 75.79801 25.332994 75.988014 25.144997 76.28601 25.070995 L 79.62801 25.070995 L 79.293015 25.964994 z M 79.516014 28.648994 L 79.96301 29.094994 L 79.516014 29.541994 L 76.610016 29.541994 L 76.165016 29.094994 L 76.610016 28.648994 L 79.516014 28.648994 z M 79.516014 28.313995 L 79.516014 25.964996 L 79.85201 25.069996 C 80.15102 25.143995 80.33601 25.331997 80.41301 25.628996 L 80.41301 28.758995 L 80.18801 28.983995 L 79.516014 28.313995 z M 80.18801 29.207994 L 80.41301 29.431995 L 80.41301 32.561996 C 80.33901 32.860996 80.15101 33.047997 79.85201 33.122997 L 79.516014 32.226997 L 79.516014 29.877998 L 80.18801 29.207998 z " fill="#2cf5ff"/>
<path d="M 82.198 26.189 L 82.198 28.314 L 81.527 28.984 L 81.301 28.759 L 81.301 25.852 L 82.198006 26.189 z M 82.198006 29.877998 L 82.198006 32.226997 L 81.86101 33.122997 C 81.56401 33.047997 81.378006 32.860996 81.30101 32.561996 L 81.30101 29.431995 L 81.52701 29.207994 L 82.198006 29.877996 z M 84.881004 25.964994 L 82.21001 25.964994 L 81.314 25.629995 C 81.388 25.332994 81.57601 25.144997 81.874 25.070995 L 85.217 25.070995 L 84.881004 25.964994 z M 84.100006 28.759996 L 83.65301 29.207994 L 83.20701 28.759996 L 83.20701 26.188995 L 84.100006 26.188995 L 84.100006 28.759996 L 84.100006 28.759996 z M 85.10401 28.313995 L 85.10401 25.964996 L 85.44 25.069996 C 85.739006 25.143995 85.92301 25.331997 86.001 25.628996 L 86.001 28.758995 L 85.776 28.983995 L 85.10401 28.313995 z M 85.775 29.207994 L 85.999 29.431995 L 85.999 32.561996 C 85.924 32.860996 85.738 33.047997 85.439 33.122997 L 85.103004 32.226997 L 85.103004 29.877998 L 85.775 29.207998 z " fill="#2cf5ff"/>
</g>
</svg>
