<?xml version="1.0" encoding="UTF-8"?>
<svg xmlns="http://www.w3.org/2000/svg" xmlns:xlink="http://www.w3.org/1999/xlink" baseProfile="tiny" contentScriptType="text/ecmascript" contentStyleType="text/css" height="96px" preserveAspectRatio="xMidYMid meet" version="1.1" viewBox="0 0 96 96" width="96px" x="0px" y="0px" zoomAndPan="magnify">
<defs>
<linearGradient>
<stop offset="0" stop-color="#ffffff" stop-opacity="1"/>
<stop offset="1" stop-color="#ffffff" stop-opacity="0.78431374"/>
</linearGradient>
<linearGradient>
<stop offset="0" stop-color="#ffffff" stop-opacity="1"/>
<stop offset="1" stop-color="#ffffff" stop-opacity="0.78431374"/>
</linearGradient>
<linearGradient>
<stop offset="0" stop-color="#000000" stop-opacity="1"/>
<stop offset="1" stop-color="#000000" stop-opacity="0"/>
</linearGradient>
<linearGradient xlink:actuate="onLoad" xlink:show="other" xlink:type="simple">
<stop offset="0" stop-color="#ffffff" stop-opacity="1"/>
<stop offset="1" stop-color="#ffffff" stop-opacity="0.78431374"/>
</linearGradient>
<linearGradient xlink:actuate="onLoad" xlink:show="other" xlink:type="simple">
<stop offset="0" stop-color="#1ac7ea" stop-opacity="1"/>
<stop offset="1" stop-color="#1ab7ea" stop-opacity="1"/>
</linearGradient>
<linearGradient xlink:actuate="onLoad" xlink:show="other" xlink:type="simple">
<stop offset="0" stop-color="#ffffff" stop-opacity="1"/>
<stop offset="1" stop-color="#ffffff" stop-opacity="0.78431374"/>
</linearGradient>
<linearGradient xlink:actuate="onLoad" xlink:show="other" xlink:type="simple">
<stop offset="0" stop-color="#289bf7" stop-opacity="1"/>
<stop offset="1" stop-color="#2888f7" stop-opacity="1"/>
</linearGradient>
<linearGradient xlink:actuate="onLoad" xlink:show="other" xlink:type="simple">
<stop offset="0" stop-color="#d5f6ff" stop-opacity="1"/>
<stop offset="1" stop-color="#0088aa" stop-opacity="1"/>
</linearGradient>
<linearGradient gradientTransform="matrix(1.0515857,0,0,1.01708,-253.45339,-715.60427)" gradientUnits="userSpaceOnUse" x1="254.83009" x2="358.8096" xlink:actuate="onLoad" xlink:show="other" xlink:type="simple" y1="763.97272" y2="763.97272">
<stop offset="0" stop-color="#f7f8f9"/>
<stop offset="1" stop-color="#d0d1d2"/>
</linearGradient>
<linearGradient gradientTransform="matrix(0.7261569,0,0,0.74770351,-174.61605,-527.27145)" gradientUnits="userSpaceOnUse" x1="254.83009" x2="358.8096" xlink:actuate="onLoad" xlink:show="other" xlink:type="simple" y1="763.97272" y2="763.97272">
<stop offset="0" stop-color="#f7f8f9"/>
<stop offset="1" stop-color="#d0d1d2"/>
</linearGradient>
<linearGradient gradientTransform="matrix(1,0,0,-1,-1.3115644,98.868328)" gradientUnits="userSpaceOnUse" x1="61.075901" x2="34.694302" xlink:actuate="onLoad" xlink:show="other" xlink:type="simple" y1="57.299801" y2="41.540901">
<stop offset="0" stop-color="#ffffff"/>
<stop offset="1" stop-color="#ffffff" stop-opacity="0.2"/>
</linearGradient>
<linearGradient gradientTransform="matrix(1,0,0,-1,1.0534719,96.841079)" gradientUnits="userSpaceOnUse" x1="61.075901" x2="34.694302" xlink:actuate="onLoad" xlink:show="other" xlink:type="simple" y1="57.299801" y2="41.540901">
<stop offset="0" stop-color="#ffffff"/>
<stop offset="1" stop-color="#ffffff" stop-opacity="0.2"/>
</linearGradient>
<linearGradient gradientTransform="matrix(1,0,0,-1,-2.4150126,95.9258)" gradientUnits="userSpaceOnUse" x1="34.720501" x2="60.039902" xlink:actuate="onLoad" xlink:show="other" xlink:type="simple" y1="56.8027" y2="41.976002">
<stop offset="0" stop-color="#ffffff"/>
<stop offset="1" stop-color="#ffffff" stop-opacity="0.2"/>
</linearGradient>
<linearGradient gradientTransform="matrix(1,0,0,-1,-2.5350845,97.20939)" gradientUnits="userSpaceOnUse" x1="34.720501" x2="60.039902" xlink:actuate="onLoad" xlink:show="other" xlink:type="simple" y1="56.8027" y2="41.976002">
<stop offset="0" stop-color="#ffffff"/>
<stop offset="1" stop-color="#ffffff" stop-opacity="0.2"/>
</linearGradient>
<linearGradient gradientTransform="matrix(1,0,0,-1,0.1597,95.9258)" gradientUnits="userSpaceOnUse" x1="63.148201" x2="61.403599" xlink:actuate="onLoad" xlink:show="other" xlink:type="simple" y1="26.3545" y2="22.778099">
<stop offset="0" stop-color="#ffffff"/>
<stop offset="1" stop-color="#a3a3a3"/>
</linearGradient>
<linearGradient gradientTransform="matrix(1,0,0,-1,0.1597,95.9258)" gradientUnits="userSpaceOnUse" x1="63.148201" x2="61.403599" xlink:actuate="onLoad" xlink:show="other" xlink:type="simple" y1="26.3545" y2="22.778099">
<stop offset="0" stop-color="#ffffff"/>
<stop offset="1" stop-color="#a3a3a3"/>
</linearGradient>
<linearGradient gradientTransform="matrix(1,0,0,-1,0.1597,95.9258)" gradientUnits="userSpaceOnUse" x1="62.543701" x2="64.113503" xlink:actuate="onLoad" xlink:show="other" xlink:type="simple" y1="40.8223" y2="37.072102">
<stop offset="0" stop-color="#ffffff"/>
<stop offset="1" stop-color="#a3a3a3"/>
</linearGradient>
<linearGradient gradientTransform="matrix(1,0,0,-1,0.1597,95.9258)" gradientUnits="userSpaceOnUse" x1="62.543701" x2="64.113503" xlink:actuate="onLoad" xlink:show="other" xlink:type="simple" y1="40.8223" y2="37.072102">
<stop offset="0" stop-color="#ffffff"/>
<stop offset="1" stop-color="#a3a3a3"/>
</linearGradient>
<linearGradient gradientTransform="matrix(1,0,0,-1,0.1597,95.9258)" gradientUnits="userSpaceOnUse" x1="45.003201" x2="45.003201" xlink:actuate="onLoad" xlink:show="other" xlink:type="simple" y1="40.209" y2="23.3596">
<stop offset="0" stop-color="#c2de91"/>
<stop offset="1" stop-color="#7b9e56"/>
</linearGradient>
<linearGradient gradientTransform="matrix(1,0,0,-1,0.1597,95.9258)" gradientUnits="userSpaceOnUse" x1="45.003201" x2="45.003201" xlink:actuate="onLoad" xlink:show="other" xlink:type="simple" y1="40.209" y2="23.3596">
<stop offset="0" stop-color="#c2de91"/>
<stop offset="1" stop-color="#7b9e56"/>
</linearGradient>
<linearGradient gradientTransform="matrix(1,0,0,-1,0.1597,95.9258)" gradientUnits="userSpaceOnUse" x1="45.003201" x2="45.003201" xlink:actuate="onLoad" xlink:show="other" xlink:type="simple" y1="40.209" y2="23.3596">
<stop offset="0" stop-color="#c2de91"/>
<stop offset="1" stop-color="#7b9e56"/>
</linearGradient>
<linearGradient gradientTransform="matrix(1,0,0,-1,0.1597,95.9258)" gradientUnits="userSpaceOnUse" x1="45.003201" x2="45.003201" xlink:actuate="onLoad" xlink:show="other" xlink:type="simple" y1="40.209" y2="23.3596">
<stop offset="0" stop-color="#c2de91"/>
<stop offset="1" stop-color="#7b9e56"/>
</linearGradient>
<linearGradient gradientTransform="matrix(1,0,0,-1,0.1597,95.9258)" gradientUnits="userSpaceOnUse" x1="45.003201" x2="45.003201" xlink:actuate="onLoad" xlink:show="other" xlink:type="simple" y1="40.209" y2="23.3596">
<stop offset="0" stop-color="#c2de91"/>
<stop offset="1" stop-color="#7b9e56"/>
</linearGradient>
<linearGradient gradientTransform="matrix(1,0,0,-1,0.1597,95.9258)" gradientUnits="userSpaceOnUse" x1="45.003201" x2="45.003201" xlink:actuate="onLoad" xlink:show="other" xlink:type="simple" y1="40.209" y2="23.3596">
<stop offset="0" stop-color="#c2de91"/>
<stop offset="1" stop-color="#7b9e56"/>
</linearGradient>
<linearGradient gradientTransform="matrix(1,0,0,-1,8.6194701,63.557984)" gradientUnits="userSpaceOnUse" x1="82.677498" x2="82.677498" xlink:actuate="onLoad" xlink:show="other" xlink:type="simple" y1="37.415001" y2="54.1577">
<stop offset="0" stop-color="#ffffff" stop-opacity="0.3"/>
<stop offset="1" stop-color="#ffffff"/>
</linearGradient>
<linearGradient gradientTransform="matrix(1,0,0,-1,-53.620329,92.86676)" gradientUnits="userSpaceOnUse" x1="82.677498" x2="82.677498" xlink:actuate="onLoad" xlink:show="other" xlink:type="simple" y1="37.415001" y2="54.1577">
<stop offset="0" stop-color="#ffffff" stop-opacity="0.3"/>
<stop offset="1" stop-color="#ffffff"/>
</linearGradient>
<linearGradient gradientTransform="matrix(1,0,0,-1,8.6194701,63.557984)" gradientUnits="userSpaceOnUse" x1="82.677498" x2="82.677498" xlink:actuate="onLoad" xlink:show="other" xlink:type="simple" y1="37.415001" y2="54.1577">
<stop offset="0" stop-color="#ffffff" stop-opacity="0.3"/>
<stop offset="1" stop-color="#ffffff"/>
</linearGradient>
<linearGradient gradientTransform="matrix(1,0,0,-1,-15.367455,78.154116)" gradientUnits="userSpaceOnUse" x1="82.677498" x2="82.677498" xlink:actuate="onLoad" xlink:show="other" xlink:type="simple" y1="37.415001" y2="54.1577">
<stop offset="0" stop-color="#ffffff" stop-opacity="0.3"/>
<stop offset="1" stop-color="#ffffff"/>
</linearGradient>
<linearGradient gradientTransform="matrix(1,0,0,-1,8.6194701,63.557984)" gradientUnits="userSpaceOnUse" x1="82.677498" x2="82.677498" xlink:actuate="onLoad" xlink:show="other" xlink:type="simple" y1="37.415001" y2="54.1577">
<stop offset="0" stop-color="#ffffff" stop-opacity="0.3"/>
<stop offset="1" stop-color="#ffffff"/>
</linearGradient>
<linearGradient gradientTransform="matrix(1,0,0,-1,-18.309984,107.94722)" gradientUnits="userSpaceOnUse" x1="82.677498" x2="82.677498" xlink:actuate="onLoad" xlink:show="other" xlink:type="simple" y1="37.415001" y2="54.1577">
<stop offset="0" stop-color="#ffffff" stop-opacity="0.3"/>
<stop offset="1" stop-color="#ffffff"/>
</linearGradient>
<linearGradient gradientTransform="matrix(1,0,0,1.0147106,0,-1.118872)" gradientUnits="userSpaceOnUse" x1="25.749846" x2="83.267105" xlink:actuate="onLoad" xlink:show="other" xlink:type="simple" y1="23.186441" y2="82.169495">
<stop offset="0" stop-color="#d5f6ff" stop-opacity="1"/>
<stop offset="1" stop-color="#0088aa" stop-opacity="1"/>
</linearGradient>
<linearGradient gradientTransform="matrix(1,0,0,-1,-111.07647,38.974359)" gradientUnits="userSpaceOnUse" x1="167.8877" x2="206.12601" xlink:actuate="onLoad" xlink:show="other" xlink:type="simple" y1="-45.7896" y2="-7.5511999">
<stop offset="0" stop-color="#ffffff"/>
<stop offset="1" stop-color="#e6e6e6"/>
</linearGradient>
<linearGradient gradientTransform="matrix(0.7653472,0,0,-0.76412837,-94.891385,27.599019)" gradientUnits="userSpaceOnUse" x1="167.8877" x2="206.12601" xlink:actuate="onLoad" xlink:show="other" xlink:type="simple" y1="-45.7896" y2="-7.5511999">
<stop offset="0" stop-color="#ffffff"/>
<stop offset="1" stop-color="#e6e6e6"/>
</linearGradient>
<linearGradient gradientTransform="matrix(0.625,0,0,0.625,-548.0625,-704.9375)" gradientUnits="userSpaceOnUse" x1="910.82812" x2="910.82812" xlink:actuate="onLoad" xlink:show="other" xlink:type="simple" y1="1138.2363" y2="1186.5941">
<stop offset="0" stop-color="#ffffff"/>
<stop offset="1" stop-color="#bbbbbb"/>
</linearGradient>
<linearGradient gradientTransform="matrix(0.625,0,0,0.625,-548.0625,-704.9375)" gradientUnits="userSpaceOnUse" x1="910.82812" x2="910.82812" xlink:actuate="onLoad" xlink:show="other" xlink:type="simple" y1="1138.2363" y2="1186.5941">
<stop offset="0" stop-color="#ffffff"/>
<stop offset="1" stop-color="#bbbbbb"/>
</linearGradient>
<linearGradient gradientTransform="matrix(0,1,-1,0,96,0)" gradientUnits="userSpaceOnUse" x1="8" x2="88" xlink:actuate="onLoad" xlink:show="other" xlink:type="simple" y1="48" y2="48">
<stop offset="0" stop-color="#289bf7" stop-opacity="1"/>
<stop offset="1" stop-color="#2888f7" stop-opacity="1"/>
</linearGradient>
<linearGradient gradientUnits="userSpaceOnUse" x1="49.441372" x2="49.441372" xlink:actuate="onLoad" xlink:show="other" xlink:type="simple" y1="27.141659" y2="69.860657">
<stop offset="0" stop-color="#ffffff" stop-opacity="1"/>
<stop offset="1" stop-color="#ffffff" stop-opacity="0.78431374"/>
</linearGradient>
<linearGradient gradientTransform="matrix(0,1,-1,0,96,0)" gradientUnits="userSpaceOnUse" id="linearGradient4025" x1="8" x2="88" xlink:actuate="onLoad" xlink:show="other" xlink:type="simple" y1="48" y2="48">
<stop offset="0" stop-color="#4d6dfa" stop-opacity="1"/>
<stop offset="1" stop-color="#153ff8" stop-opacity="1"/>
</linearGradient>
<linearGradient gradientUnits="userSpaceOnUse" x1="-15.544" x2="0.007512426" xlink:actuate="onLoad" xlink:show="other" xlink:type="simple" y1="-3.6151117" y2="-3.6151117">
<stop offset="0" stop-color="#ffffff" stop-opacity="1"/>
<stop offset="1" stop-color="#ffffff" stop-opacity="0.78431374"/>
</linearGradient>
<linearGradient gradientUnits="userSpaceOnUse" x1="-15.544" x2="0.007512426" xlink:actuate="onLoad" xlink:show="other" xlink:type="simple" y1="-3.6151117" y2="-3.6151117">
<stop offset="0" stop-color="#ffffff" stop-opacity="1"/>
<stop offset="1" stop-color="#ffffff" stop-opacity="0.78431374"/>
</linearGradient>
<linearGradient gradientTransform="matrix(3.2151214,0,0,-3.2151214,72.975847,37.376978)" gradientUnits="userSpaceOnUse" x1="-11.018427" x2="-11.018427" xlink:actuate="onLoad" xlink:show="other" xlink:type="simple" y1="2.8903997" y2="-10.325421">
<stop offset="0" stop-color="#ffffff" stop-opacity="1"/>
<stop offset="1" stop-color="#ffffff" stop-opacity="0.78431374"/>
</linearGradient>
<linearGradient gradientUnits="userSpaceOnUse" x1="37.524536" x2="37.524536" y1="32.596294" y2="66.091621">
<stop offset="0" stop-color="#ffffff" stop-opacity="1"/>
<stop offset="1" stop-color="#ffffff" stop-opacity="0.78431374"/>
</linearGradient>
<linearGradient gradientTransform="matrix(0,1,-1,0,97.625,0.8125)" gradientUnits="userSpaceOnUse" x1="16.40625" x2="80.40625" y1="49.21875" y2="49.21875">
<stop offset="0" stop-color="#ffffff" stop-opacity="1"/>
<stop offset="1" stop-color="#ffffff" stop-opacity="0.78431374"/>
</linearGradient>
<linearGradient gradientTransform="matrix(0.78113488,0,0,1,-21.786308,6.2033898)" gradientUnits="userSpaceOnUse" x1="95.677963" x2="95.677963" y1="23.59322" y2="71.698364">
<stop offset="0" stop-color="#ffffff" stop-opacity="1"/>
<stop offset="1" stop-color="#ffffff" stop-opacity="0.78431374"/>
</linearGradient>
<linearGradient gradientTransform="matrix(0.78113488,0,0,1,-27.141504,-4.5932199)" gradientUnits="userSpaceOnUse" x1="95.677963" x2="95.677963" y1="23.59322" y2="71.698364">
<stop offset="0" stop-color="#ffffff" stop-opacity="1"/>
<stop offset="1" stop-color="#ffffff" stop-opacity="0.78431374"/>
</linearGradient>
<linearGradient gradientTransform="matrix(0.78113488,0,0,1,-21.786308,6.2033898)" gradientUnits="userSpaceOnUse" x1="95.677963" x2="95.677963" y1="23.59322" y2="71.698364">
<stop offset="0" stop-color="#ffffff" stop-opacity="1"/>
<stop offset="1" stop-color="#ffffff" stop-opacity="0.78431374"/>
</linearGradient>
<linearGradient gradientTransform="matrix(0.78113488,0,0,1,-27.141504,-4.5932199)" gradientUnits="userSpaceOnUse" x1="95.677963" x2="95.677963" y1="23.59322" y2="71.698364">
<stop offset="0" stop-color="#ffffff" stop-opacity="1"/>
<stop offset="1" stop-color="#ffffff" stop-opacity="0.78431374"/>
</linearGradient>
<linearGradient gradientTransform="matrix(0,1.4717241,-1.4717241,0,120.36827,-65.206177)" gradientUnits="userSpaceOnUse" x1="64.420784" x2="89.420792" y1="49.17244" y2="49.17244">
<stop offset="0" stop-color="#ffffff" stop-opacity="1"/>
<stop offset="1" stop-color="#ffffff" stop-opacity="0.78431374"/>
</linearGradient>
<linearGradient gradientTransform="matrix(0.85567269,0,0,0.85567269,6.7539016,5.5372445)" gradientUnits="userSpaceOnUse" id="linearGradient4119" x1="48.014832" x2="48.014832" y1="20.03178" y2="78.954483">
<stop offset="0" stop-color="#ffffff" stop-opacity="1"/>
<stop offset="1" stop-color="#ffffff" stop-opacity="0.78431374"/>
</linearGradient>
</defs>
<path d="M 88.0 49.0 C 88.0 78.633 77.637 89.0 48.0 89.0 C 18.365 89.0 8.0 78.633 8.0 49.0 C 8.0 19.365 18.365 9.0 48.0 9.0 C 77.637 9.0 88.0 19.365 88.0 49.0 z " fill-opacity="0.4"/>
<linearGradient gradientUnits="userSpaceOnUse" x1="47.9995" x2="47.9995" xlink:actuate="onLoad" xlink:show="other" xlink:type="simple" y1="8" y2="88.0005">
<stop offset="0" stop-color="#00aad4" stop-opacity="1"/>
<stop offset="1" stop-color="#2ad4ff" stop-opacity="1"/>
</linearGradient>
<path d="M 8.0 48.0 C 8.0 18.367 18.363 8.0 48.0 8.0 C 77.635 8.0 88.0 18.367 88.0 48.0 C 88.0 77.635 77.635 88.0 48.0 88.0 C 18.363 88.0 8.0 77.635 8.0 48.0 z " fill="url(#linearGradient4025)" fill-opacity="1"/>
<rect fill="none" height="96" width="96"/>
<linearGradient gradientUnits="userSpaceOnUse" id="SVGID_2_" x1="47.9995" x2="47.9995" xlink:actuate="onLoad" xlink:show="other" xlink:type="simple" y1="8.2534" y2="87.4985">
<stop offset="0" stop-color="#ffffff"/>
<stop offset="1" stop-color="#ffffff" stop-opacity="0"/>
</linearGradient>
<path d="M 48.0 8.0 C 18.365 8.0 8.0 18.365 8.0 48.0 C 8.0 77.633 18.365 88.0 48.0 88.0 C 77.637 88.0 88.0 77.633 88.0 48.0 C 88.0 18.365 77.637 8.0 48.0 8.0 z M 48.0 87.0 C 18.842 87.0 9.0 77.158 9.0 48.0 C 9.0 18.842005 18.842 9.0 48.0 9.0 C 77.158005 9.0 87.0 18.842 87.0 48.0 C 87.0 77.158005 77.158 87.0 48.0 87.0 z " fill="url(#SVGID_2_)" fill-opacity="0.25" stroke-opacity="0.25"/>
<linearGradient gradientTransform="matrix(0.7071 -0.7071 0.7071 0.7071 -208.9813 3059.7412)" gradientUnits="userSpaceOnUse" x1="2309.3584" x2="2344.3584" xlink:actuate="onLoad" xlink:show="other" xlink:type="simple" y1="-1947.9287" y2="-1947.9287">
<stop offset="0" stop-color="#58595b"/>
<stop offset="1" stop-color="#000000"/>
</linearGradient>
<linearGradient gradientTransform="matrix(0.7071 -0.7071 0.7071 0.7071 -208.9813 3059.7412)" gradientUnits="userSpaceOnUse" x1="2309.3584" x2="2313.3604" xlink:actuate="onLoad" xlink:show="other" xlink:type="simple" y1="-1957.9277" y2="-1957.9277">
<stop offset="0" stop-color="#58595b"/>
<stop offset="1" stop-color="#000000"/>
</linearGradient>
<linearGradient gradientUnits="userSpaceOnUse" x1="54.292" x2="59.292" xlink:actuate="onLoad" xlink:show="other" xlink:type="simple" y1="10.3501" y2="38.934">
<stop offset="0" stop-color="#58595b"/>
<stop offset="1" stop-color="#000000"/>
</linearGradient>
<linearGradient gradientUnits="userSpaceOnUse" x1="32.5508" x2="42.1758" xlink:actuate="onLoad" xlink:show="other" xlink:type="simple" y1="12.6343" y2="45.1342">
<stop offset="0" stop-color="#58595b"/>
<stop offset="1" stop-color="#000000"/>
</linearGradient>
<linearGradient gradientUnits="userSpaceOnUse" x1="57.1484" x2="60.063" xlink:actuate="onLoad" xlink:show="other" xlink:type="simple" y1="35.2275" y2="38.1421">
<stop offset="0" stop-color="#ffffff"/>
<stop offset="0.7362" stop-color="#ffffff" stop-opacity="0"/>
<stop offset="1" stop-color="#ffffff" stop-opacity="0"/>
</linearGradient>
<linearGradient gradientUnits="userSpaceOnUse" x1="44.6177" x2="38.0733" xlink:actuate="onLoad" xlink:show="other" xlink:type="simple" y1="37.2412" y2="43.7856">
<stop offset="0" stop-color="#ffffff"/>
<stop offset="0.7362" stop-color="#ffffff" stop-opacity="0"/>
<stop offset="1" stop-color="#ffffff" stop-opacity="0"/>
</linearGradient>
<linearGradient gradientUnits="userSpaceOnUse" x1="47.9995" x2="47.9995" xlink:actuate="onLoad" xlink:show="other" xlink:type="simple" y1="45.5" y2="53.8766">
<stop offset="0" stop-color="#ffffff"/>
<stop offset="1" stop-color="#6d6e70"/>
</linearGradient>
<path d="M 48.01337 22.67744 C 34.028355 22.67744 22.690807 34.01499 22.690807 48.0 C 22.690807 61.985016 34.028355 73.32256 48.01337 73.32256 C 61.998383 73.32256 73.3092 61.98501 73.3092 47.999996 C 73.3092 34.01498 61.998383 22.677431 48.013374 22.677431 z M 47.933155 25.485107 C 48.65568 25.485554 49.243855 26.072922 49.243404 26.79536 L 49.243404 29.522816 C 49.24295 30.244398 48.65569 30.833529 47.933155 30.833063 C 47.210644 30.832617 46.622456 30.245258 46.622906 29.522816 L 46.622906 26.795357 C 46.62338 26.07379 47.210625 25.484644 47.933155 25.485106 z M 36.996586 28.37301 C 37.501717 28.31093 37.99096 28.588787 38.25335 29.014769 L 38.28009 29.014769 C 38.28339 29.020267 38.27679 29.035946 38.28009 29.041506 L 39.643818 31.367868 C 39.644012 31.376766 39.644012 31.385696 39.643818 31.394606 C 39.994003 32.00201 39.7837 32.801304 39.162502 33.15943 C 38.55429 33.51007 37.755753 33.29924 37.39768 32.678116 L 36.03395 30.298271 C 35.683792 29.690866 35.894066 28.891563 36.515263 28.533443 C 36.707527 28.422611 36.86196 28.38956 36.996586 28.37301 z M 58.6558 28.39975 C 58.916405 28.38691 59.16892 28.43943 59.37777 28.560188 C 59.98945 28.913872 60.16478 29.72009 59.832348 30.325014 L 59.832348 30.351751 L 58.46862 32.704853 C 58.46881 32.713753 58.46881 32.722683 58.46862 32.731594 C 58.109695 33.352306 57.284737 33.537533 56.677055 33.18617 C 56.065426 32.832527 55.889626 32.026997 56.22248 31.421345 L 56.22248 31.394604 L 57.58621 29.041504 C 57.586018 29.032604 57.586018 29.023674 57.58621 29.014765 C 57.774147 28.68971 58.070618 28.511278 58.388405 28.426489 C 58.473034 28.403908 58.56893 28.404026 58.6558 28.399748 z M 29.16183 36.26124 C 29.414604 36.250847 29.677711 36.307747 29.883804 36.421677 C 29.891304 36.425777 29.903185 36.417377 29.910543 36.421677 L 32.263645 37.785404 C 32.272545 37.785213 32.281475 37.785213 32.290386 37.785404 C 32.91033 38.14385 33.09638 38.969185 32.74496 39.57697 C 32.39332 40.18515 31.582848 40.42222 30.953394 40.058285 L 28.573557 38.667816 C 27.95363 38.30936 27.76756 37.484024 28.11898 36.87625 C 28.306795 36.551403 28.602655 36.37295 28.921171 36.287975 C 29.00372 36.265957 29.077572 36.264694 29.161827 36.261227 z M 66.43707 36.287968 C 66.95487 36.223877 67.46357 36.510647 67.72058 36.956463 C 68.070724 37.563835 67.860504 38.36316 67.239265 38.721287 L 64.85943 40.08502 C 64.22946 40.44817 63.445435 40.18552 63.09461 39.57696 C 62.745937 38.972137 63.01165 38.21471 63.575924 37.865612 L 63.575924 37.83887 L 63.602665 37.83887 L 65.92903 36.4484 C 65.937935 36.448208 65.94686 36.448208 65.95577 36.4484 C 66.14824 36.337437 66.30361 36.304485 66.43709 36.287964 z M 26.35418 47.03735 L 29.081636 47.03735 C 29.774208 47.037796 30.392336 47.59835 30.391884 48.320854 C 30.391424 49.04336 29.804075 49.631554 29.081636 49.631107 L 26.35418 49.631107 C 25.631666 49.630657 25.043476 49.04331 25.04393 48.320854 C 25.044382 47.598396 25.659874 47.036926 26.35418 47.03735 z M 66.73123 47.06409 L 69.48543 47.06409 C 70.20712 47.064545 70.76937 47.681763 70.768936 48.37434 C 70.7685 49.06692 70.17897 49.65829 69.48543 49.65785 L 66.73123 49.65785 C 66.03772 49.6574 65.447266 49.06772 65.44772 48.37434 C 65.44815 47.681896 66.007805 47.06363 66.73123 47.06409 z M 31.434734 56.449745 C 31.9524 56.385765 32.46114 56.67228 32.718243 57.11824 C 33.068874 57.726448 32.858036 58.524982 32.236927 58.883064 L 29.857086 60.24679 C 29.227108 60.60998 28.443089 60.347275 28.09226 59.738735 C 27.735992 59.12077 27.989374 58.361588 28.573576 58.00065 L 28.573576 57.973907 L 28.600315 57.973907 L 30.926676 56.61018 C 30.935575 56.60999 30.944506 56.60999 30.953417 56.61018 C 31.14594 56.499184 31.30075 56.46631 31.43473 56.44974 z M 64.00377 56.47648 C 64.129745 56.45639 64.2472 56.46015 64.37813 56.47648 C 64.634705 56.508472 64.77082 56.625195 64.832695 56.663666 C 64.83579 56.66566 64.8567 56.662163 64.859436 56.663666 L 67.21255 58.02739 C 67.22145 58.027203 67.23038 58.027203 67.23929 58.02739 C 67.859215 58.385845 68.045265 59.21117 67.693855 59.81895 C 67.33494 60.43971 66.509964 60.624905 65.9023 60.27353 L 63.549183 58.90982 C 62.941853 58.558712 62.703445 57.748535 63.067867 57.11825 C 63.27332 56.762943 63.625813 56.536777 64.00377 56.4765 z " fill="url(#linearGradient4119)" fill-opacity="1"/>
<path color="#000000" d="M 47.837193 32.78987 C 47.666252 32.8342 47.531376 32.94099 47.4754 33.076355 L 47.005062 34.1077 L 46.968887 34.1077 C 46.918587 34.16446 46.90954 34.23967 46.896526 34.30824 C 46.895844 34.32094 46.895844 34.3242 46.896526 34.336887 L 44.87048 38.691452 C 44.78353 38.8771 44.85133 39.08832 45.051376 39.207123 C 45.251423 39.325928 45.538055 39.325233 45.738785 39.207123 C 46.05628 39.02213 46.711216 38.886566 46.824165 38.863342 L 46.824165 52.815136 C 46.830666 53.123955 47.07823 53.353348 47.40303 53.359455 L 48.560776 53.359455 C 48.885586 53.353355 49.13322 53.12395 49.13965 52.815136 L 49.13965 38.863342 C 49.254635 38.8865 49.93485 39.02165 50.261208 39.207123 C 50.461937 39.325207 50.74857 39.325897 50.948616 39.207123 C 51.148663 39.08832 51.21646 38.8771 51.129513 38.691452 L 49.06729 34.222298 L 48.5246 33.076355 C 48.4275 32.84756 48.129116 32.72041 47.837193 32.78987 z " display="inline" fill="#f2294a" fill-opacity="1" fill-rule="nonzero" stroke="none" visibility="visible"/>
<path color="#000000" d="M 49.909126 48.0 C 49.909126 49.05438 49.054382 49.90912 48.0 49.90912 C 46.945618 49.90912 46.090874 49.054375 46.090874 48.0 C 46.090874 46.94562 46.945618 46.090874 48.0 46.090874 C 49.054382 46.090874 49.909126 46.94562 49.909126 48.0 z " display="inline" fill="#ffffff" fill-opacity="1" fill-rule="nonzero" stroke="#f2294a" stroke-dasharray="none" stroke-dashoffset="0" stroke-linecap="round" stroke-linejoin="round" stroke-miterlimit="4" stroke-opacity="1" stroke-width="1.20729887" visibility="visible"/>
</svg>
