<?xml version="1.0" encoding="UTF-8"?>
<svg xmlns="http://www.w3.org/2000/svg" xmlns:xlink="http://www.w3.org/1999/xlink" baseProfile="tiny" contentScriptType="text/ecmascript" contentStyleType="text/css" height="96px" preserveAspectRatio="xMidYMid meet" version="1.1" viewBox="0 0 96 96" width="96px" x="0px" y="0px" zoomAndPan="magnify">
<defs>
<linearGradient>
<stop offset="0" stop-color="#ffffff" stop-opacity="1"/>
<stop offset="1" stop-color="#ffffff" stop-opacity="0.78431374"/>
</linearGradient>
<linearGradient>
<stop offset="0" stop-color="#ffffff" stop-opacity="1"/>
<stop offset="1" stop-color="#ffffff" stop-opacity="0.78431374"/>
</linearGradient>
<linearGradient>
<stop offset="0" stop-color="#000000" stop-opacity="1"/>
<stop offset="1" stop-color="#000000" stop-opacity="0"/>
</linearGradient>
<linearGradient xlink:actuate="onLoad" xlink:show="other" xlink:type="simple">
<stop offset="0" stop-color="#ffffff" stop-opacity="1"/>
<stop offset="1" stop-color="#ffffff" stop-opacity="0.78431374"/>
</linearGradient>
<linearGradient xlink:actuate="onLoad" xlink:show="other" xlink:type="simple">
<stop offset="0" stop-color="#1ac7ea" stop-opacity="1"/>
<stop offset="1" stop-color="#1ab7ea" stop-opacity="1"/>
</linearGradient>
<linearGradient xlink:actuate="onLoad" xlink:show="other" xlink:type="simple">
<stop offset="0" stop-color="#ffffff" stop-opacity="1"/>
<stop offset="1" stop-color="#ffffff" stop-opacity="0.78431374"/>
</linearGradient>
<linearGradient xlink:actuate="onLoad" xlink:show="other" xlink:type="simple">
<stop offset="0" stop-color="#289bf7" stop-opacity="1"/>
<stop offset="1" stop-color="#2888f7" stop-opacity="1"/>
</linearGradient>
<linearGradient xlink:actuate="onLoad" xlink:show="other" xlink:type="simple">
<stop offset="0" stop-color="#d5f6ff" stop-opacity="1"/>
<stop offset="1" stop-color="#0088aa" stop-opacity="1"/>
</linearGradient>
<linearGradient gradientTransform="matrix(1.0515857,0,0,1.01708,-253.45339,-715.60427)" gradientUnits="userSpaceOnUse" x1="254.83009" x2="358.8096" xlink:actuate="onLoad" xlink:show="other" xlink:type="simple" y1="763.97272" y2="763.97272">
<stop offset="0" stop-color="#f7f8f9"/>
<stop offset="1" stop-color="#d0d1d2"/>
</linearGradient>
<linearGradient gradientTransform="matrix(0.7261569,0,0,0.74770351,-174.61605,-527.27145)" gradientUnits="userSpaceOnUse" x1="254.83009" x2="358.8096" xlink:actuate="onLoad" xlink:show="other" xlink:type="simple" y1="763.97272" y2="763.97272">
<stop offset="0" stop-color="#f7f8f9"/>
<stop offset="1" stop-color="#d0d1d2"/>
</linearGradient>
<linearGradient gradientTransform="matrix(1,0,0,-1,-1.3115644,98.868328)" gradientUnits="userSpaceOnUse" x1="61.075901" x2="34.694302" xlink:actuate="onLoad" xlink:show="other" xlink:type="simple" y1="57.299801" y2="41.540901">
<stop offset="0" stop-color="#ffffff"/>
<stop offset="1" stop-color="#ffffff" stop-opacity="0.2"/>
</linearGradient>
<linearGradient gradientTransform="matrix(1,0,0,-1,1.0534719,96.841079)" gradientUnits="userSpaceOnUse" x1="61.075901" x2="34.694302" xlink:actuate="onLoad" xlink:show="other" xlink:type="simple" y1="57.299801" y2="41.540901">
<stop offset="0" stop-color="#ffffff"/>
<stop offset="1" stop-color="#ffffff" stop-opacity="0.2"/>
</linearGradient>
<linearGradient gradientTransform="matrix(1,0,0,-1,-2.4150126,95.9258)" gradientUnits="userSpaceOnUse" x1="34.720501" x2="60.039902" xlink:actuate="onLoad" xlink:show="other" xlink:type="simple" y1="56.8027" y2="41.976002">
<stop offset="0" stop-color="#ffffff"/>
<stop offset="1" stop-color="#ffffff" stop-opacity="0.2"/>
</linearGradient>
<linearGradient gradientTransform="matrix(1,0,0,-1,-2.5350845,97.20939)" gradientUnits="userSpaceOnUse" x1="34.720501" x2="60.039902" xlink:actuate="onLoad" xlink:show="other" xlink:type="simple" y1="56.8027" y2="41.976002">
<stop offset="0" stop-color="#ffffff"/>
<stop offset="1" stop-color="#ffffff" stop-opacity="0.2"/>
</linearGradient>
<linearGradient gradientTransform="matrix(1,0,0,-1,0.1597,95.9258)" gradientUnits="userSpaceOnUse" x1="63.148201" x2="61.403599" xlink:actuate="onLoad" xlink:show="other" xlink:type="simple" y1="26.3545" y2="22.778099">
<stop offset="0" stop-color="#ffffff"/>
<stop offset="1" stop-color="#a3a3a3"/>
</linearGradient>
<linearGradient gradientTransform="matrix(1,0,0,-1,0.1597,95.9258)" gradientUnits="userSpaceOnUse" x1="63.148201" x2="61.403599" xlink:actuate="onLoad" xlink:show="other" xlink:type="simple" y1="26.3545" y2="22.778099">
<stop offset="0" stop-color="#ffffff"/>
<stop offset="1" stop-color="#a3a3a3"/>
</linearGradient>
<linearGradient gradientTransform="matrix(1,0,0,-1,0.1597,95.9258)" gradientUnits="userSpaceOnUse" x1="62.543701" x2="64.113503" xlink:actuate="onLoad" xlink:show="other" xlink:type="simple" y1="40.8223" y2="37.072102">
<stop offset="0" stop-color="#ffffff"/>
<stop offset="1" stop-color="#a3a3a3"/>
</linearGradient>
<linearGradient gradientTransform="matrix(1,0,0,-1,0.1597,95.9258)" gradientUnits="userSpaceOnUse" x1="62.543701" x2="64.113503" xlink:actuate="onLoad" xlink:show="other" xlink:type="simple" y1="40.8223" y2="37.072102">
<stop offset="0" stop-color="#ffffff"/>
<stop offset="1" stop-color="#a3a3a3"/>
</linearGradient>
<linearGradient gradientTransform="matrix(1,0,0,-1,0.1597,95.9258)" gradientUnits="userSpaceOnUse" x1="45.003201" x2="45.003201" xlink:actuate="onLoad" xlink:show="other" xlink:type="simple" y1="40.209" y2="23.3596">
<stop offset="0" stop-color="#c2de91"/>
<stop offset="1" stop-color="#7b9e56"/>
</linearGradient>
<linearGradient gradientTransform="matrix(1,0,0,-1,0.1597,95.9258)" gradientUnits="userSpaceOnUse" x1="45.003201" x2="45.003201" xlink:actuate="onLoad" xlink:show="other" xlink:type="simple" y1="40.209" y2="23.3596">
<stop offset="0" stop-color="#c2de91"/>
<stop offset="1" stop-color="#7b9e56"/>
</linearGradient>
<linearGradient gradientTransform="matrix(1,0,0,-1,0.1597,95.9258)" gradientUnits="userSpaceOnUse" x1="45.003201" x2="45.003201" xlink:actuate="onLoad" xlink:show="other" xlink:type="simple" y1="40.209" y2="23.3596">
<stop offset="0" stop-color="#c2de91"/>
<stop offset="1" stop-color="#7b9e56"/>
</linearGradient>
<linearGradient gradientTransform="matrix(1,0,0,-1,0.1597,95.9258)" gradientUnits="userSpaceOnUse" x1="45.003201" x2="45.003201" xlink:actuate="onLoad" xlink:show="other" xlink:type="simple" y1="40.209" y2="23.3596">
<stop offset="0" stop-color="#c2de91"/>
<stop offset="1" stop-color="#7b9e56"/>
</linearGradient>
<linearGradient gradientTransform="matrix(1,0,0,-1,0.1597,95.9258)" gradientUnits="userSpaceOnUse" x1="45.003201" x2="45.003201" xlink:actuate="onLoad" xlink:show="other" xlink:type="simple" y1="40.209" y2="23.3596">
<stop offset="0" stop-color="#c2de91"/>
<stop offset="1" stop-color="#7b9e56"/>
</linearGradient>
<linearGradient gradientTransform="matrix(1,0,0,-1,0.1597,95.9258)" gradientUnits="userSpaceOnUse" x1="45.003201" x2="45.003201" xlink:actuate="onLoad" xlink:show="other" xlink:type="simple" y1="40.209" y2="23.3596">
<stop offset="0" stop-color="#c2de91"/>
<stop offset="1" stop-color="#7b9e56"/>
</linearGradient>
<linearGradient gradientTransform="matrix(1,0,0,-1,8.6194701,63.557984)" gradientUnits="userSpaceOnUse" x1="82.677498" x2="82.677498" xlink:actuate="onLoad" xlink:show="other" xlink:type="simple" y1="37.415001" y2="54.1577">
<stop offset="0" stop-color="#ffffff" stop-opacity="0.3"/>
<stop offset="1" stop-color="#ffffff"/>
</linearGradient>
<linearGradient gradientTransform="matrix(1,0,0,-1,-53.620329,92.86676)" gradientUnits="userSpaceOnUse" x1="82.677498" x2="82.677498" xlink:actuate="onLoad" xlink:show="other" xlink:type="simple" y1="37.415001" y2="54.1577">
<stop offset="0" stop-color="#ffffff" stop-opacity="0.3"/>
<stop offset="1" stop-color="#ffffff"/>
</linearGradient>
<linearGradient gradientTransform="matrix(1,0,0,-1,8.6194701,63.557984)" gradientUnits="userSpaceOnUse" x1="82.677498" x2="82.677498" xlink:actuate="onLoad" xlink:show="other" xlink:type="simple" y1="37.415001" y2="54.1577">
<stop offset="0" stop-color="#ffffff" stop-opacity="0.3"/>
<stop offset="1" stop-color="#ffffff"/>
</linearGradient>
<linearGradient gradientTransform="matrix(1,0,0,-1,-15.367455,78.154116)" gradientUnits="userSpaceOnUse" x1="82.677498" x2="82.677498" xlink:actuate="onLoad" xlink:show="other" xlink:type="simple" y1="37.415001" y2="54.1577">
<stop offset="0" stop-color="#ffffff" stop-opacity="0.3"/>
<stop offset="1" stop-color="#ffffff"/>
</linearGradient>
<linearGradient gradientTransform="matrix(1,0,0,-1,8.6194701,63.557984)" gradientUnits="userSpaceOnUse" x1="82.677498" x2="82.677498" xlink:actuate="onLoad" xlink:show="other" xlink:type="simple" y1="37.415001" y2="54.1577">
<stop offset="0" stop-color="#ffffff" stop-opacity="0.3"/>
<stop offset="1" stop-color="#ffffff"/>
</linearGradient>
<linearGradient gradientTransform="matrix(1,0,0,-1,-18.309984,107.94722)" gradientUnits="userSpaceOnUse" x1="82.677498" x2="82.677498" xlink:actuate="onLoad" xlink:show="other" xlink:type="simple" y1="37.415001" y2="54.1577">
<stop offset="0" stop-color="#ffffff" stop-opacity="0.3"/>
<stop offset="1" stop-color="#ffffff"/>
</linearGradient>
<linearGradient gradientTransform="matrix(1,0,0,1.0147106,0,-1.118872)" gradientUnits="userSpaceOnUse" x1="25.749846" x2="83.267105" xlink:actuate="onLoad" xlink:show="other" xlink:type="simple" y1="23.186441" y2="82.169495">
<stop offset="0" stop-color="#d5f6ff" stop-opacity="1"/>
<stop offset="1" stop-color="#0088aa" stop-opacity="1"/>
</linearGradient>
<linearGradient gradientTransform="matrix(1,0,0,-1,-111.07647,38.974359)" gradientUnits="userSpaceOnUse" x1="167.8877" x2="206.12601" xlink:actuate="onLoad" xlink:show="other" xlink:type="simple" y1="-45.7896" y2="-7.5511999">
<stop offset="0" stop-color="#ffffff"/>
<stop offset="1" stop-color="#e6e6e6"/>
</linearGradient>
<linearGradient gradientTransform="matrix(0.7653472,0,0,-0.76412837,-94.891385,27.599019)" gradientUnits="userSpaceOnUse" x1="167.8877" x2="206.12601" xlink:actuate="onLoad" xlink:show="other" xlink:type="simple" y1="-45.7896" y2="-7.5511999">
<stop offset="0" stop-color="#ffffff"/>
<stop offset="1" stop-color="#e6e6e6"/>
</linearGradient>
<linearGradient gradientTransform="matrix(0.625,0,0,0.625,-548.0625,-704.9375)" gradientUnits="userSpaceOnUse" x1="910.82812" x2="910.82812" xlink:actuate="onLoad" xlink:show="other" xlink:type="simple" y1="1138.2363" y2="1186.5941">
<stop offset="0" stop-color="#ffffff"/>
<stop offset="1" stop-color="#bbbbbb"/>
</linearGradient>
<linearGradient gradientTransform="matrix(0.625,0,0,0.625,-548.0625,-704.9375)" gradientUnits="userSpaceOnUse" x1="910.82812" x2="910.82812" xlink:actuate="onLoad" xlink:show="other" xlink:type="simple" y1="1138.2363" y2="1186.5941">
<stop offset="0" stop-color="#ffffff"/>
<stop offset="1" stop-color="#bbbbbb"/>
</linearGradient>
<linearGradient gradientTransform="matrix(0,1,-1,0,96,0)" gradientUnits="userSpaceOnUse" x1="8" x2="88" xlink:actuate="onLoad" xlink:show="other" xlink:type="simple" y1="48" y2="48">
<stop offset="0" stop-color="#289bf7" stop-opacity="1"/>
<stop offset="1" stop-color="#2888f7" stop-opacity="1"/>
</linearGradient>
<linearGradient gradientUnits="userSpaceOnUse" x1="49.441372" x2="49.441372" xlink:actuate="onLoad" xlink:show="other" xlink:type="simple" y1="27.141659" y2="69.860657">
<stop offset="0" stop-color="#ffffff" stop-opacity="1"/>
<stop offset="1" stop-color="#ffffff" stop-opacity="0.78431374"/>
</linearGradient>
<linearGradient gradientTransform="matrix(0,1,-1,0,96,0)" gradientUnits="userSpaceOnUse" x1="8" x2="88" xlink:actuate="onLoad" xlink:show="other" xlink:type="simple" y1="48" y2="48">
<stop offset="0" stop-color="#52c5f5" stop-opacity="1"/>
<stop offset="1" stop-color="#2cb4f3" stop-opacity="1"/>
</linearGradient>
<linearGradient gradientUnits="userSpaceOnUse" x1="-15.544" x2="0.007512426" xlink:actuate="onLoad" xlink:show="other" xlink:type="simple" y1="-3.6151117" y2="-3.6151117">
<stop offset="0" stop-color="#ffffff" stop-opacity="1"/>
<stop offset="1" stop-color="#ffffff" stop-opacity="0.78431374"/>
</linearGradient>
<linearGradient gradientUnits="userSpaceOnUse" x1="-15.544" x2="0.007512426" xlink:actuate="onLoad" xlink:show="other" xlink:type="simple" y1="-3.6151117" y2="-3.6151117">
<stop offset="0" stop-color="#ffffff" stop-opacity="1"/>
<stop offset="1" stop-color="#ffffff" stop-opacity="0.78431374"/>
</linearGradient>
<linearGradient gradientTransform="matrix(3.2151214,0,0,-3.2151214,72.975847,37.376978)" gradientUnits="userSpaceOnUse" x1="-11.018427" x2="-11.018427" xlink:actuate="onLoad" xlink:show="other" xlink:type="simple" y1="2.8903997" y2="-10.325421">
<stop offset="0" stop-color="#ffffff" stop-opacity="1"/>
<stop offset="1" stop-color="#ffffff" stop-opacity="0.78431374"/>
</linearGradient>
<linearGradient gradientUnits="userSpaceOnUse" x1="37.524536" x2="37.524536" y1="32.596294" y2="66.091621">
<stop offset="0" stop-color="#ffffff" stop-opacity="1"/>
<stop offset="1" stop-color="#ffffff" stop-opacity="0.78431374"/>
</linearGradient>
<linearGradient gradientTransform="matrix(0,1,-1,0,97.625,0.8125)" gradientUnits="userSpaceOnUse" x1="16.40625" x2="80.40625" y1="49.21875" y2="49.21875">
<stop offset="0" stop-color="#ffffff" stop-opacity="1"/>
<stop offset="1" stop-color="#ffffff" stop-opacity="0.78431374"/>
</linearGradient>
<linearGradient gradientTransform="matrix(0.78113488,0,0,1,-21.786308,6.2033898)" gradientUnits="userSpaceOnUse" x1="95.677963" x2="95.677963" y1="23.59322" y2="71.698364">
<stop offset="0" stop-color="#ffffff" stop-opacity="1"/>
<stop offset="1" stop-color="#ffffff" stop-opacity="0.78431374"/>
</linearGradient>
<linearGradient gradientTransform="matrix(0.78113488,0,0,1,-27.141504,-4.5932199)" gradientUnits="userSpaceOnUse" x1="95.677963" x2="95.677963" y1="23.59322" y2="71.698364">
<stop offset="0" stop-color="#ffffff" stop-opacity="1"/>
<stop offset="1" stop-color="#ffffff" stop-opacity="0.78431374"/>
</linearGradient>
<linearGradient gradientTransform="matrix(0.78113488,0,0,1,-21.786308,6.2033898)" gradientUnits="userSpaceOnUse" x1="95.677963" x2="95.677963" y1="23.59322" y2="71.698364">
<stop offset="0" stop-color="#ffffff" stop-opacity="1"/>
<stop offset="1" stop-color="#ffffff" stop-opacity="0.78431374"/>
</linearGradient>
<linearGradient gradientTransform="matrix(0.78113488,0,0,1,-27.141504,-4.5932199)" gradientUnits="userSpaceOnUse" x1="95.677963" x2="95.677963" y1="23.59322" y2="71.698364">
<stop offset="0" stop-color="#ffffff" stop-opacity="1"/>
<stop offset="1" stop-color="#ffffff" stop-opacity="0.78431374"/>
</linearGradient>
<linearGradient gradientTransform="matrix(0,1.4717241,-1.4717241,0,120.36827,-65.206177)" gradientUnits="userSpaceOnUse" x1="64.420784" x2="89.420792" y1="49.17244" y2="49.17244">
<stop offset="0" stop-color="#ffffff" stop-opacity="1"/>
<stop offset="1" stop-color="#ffffff" stop-opacity="0.78431374"/>
</linearGradient>
<linearGradient gradientTransform="matrix(0,1,-1,0,96,0)" gradientUnits="userSpaceOnUse" x1="8" x2="88" y1="48" y2="48">
<stop offset="0" stop-color="#505050" stop-opacity="1"/>
<stop offset="1" stop-color="#464646" stop-opacity="1"/>
</linearGradient>
<linearGradient>
<stop offset="0" stop-color="#505050" stop-opacity="1"/>
<stop offset="1" stop-color="#464646" stop-opacity="1"/>
</linearGradient>
<linearGradient gradientTransform="matrix(0,1,-1,0,133.01695,11.79661)" gradientUnits="userSpaceOnUse" x1="8" x2="88" y1="48" y2="48">
<stop offset="0" stop-color="#505050" stop-opacity="1"/>
<stop offset="1" stop-color="#464646" stop-opacity="1"/>
</linearGradient>
<linearGradient gradientTransform="matrix(0,1,-1,0,96,0)" gradientUnits="userSpaceOnUse" id="linearGradient4140" x1="8" x2="88" y1="48" y2="48">
<stop offset="0" stop-color="#505050" stop-opacity="1"/>
<stop offset="1" stop-color="#464646" stop-opacity="1"/>
</linearGradient>
<linearGradient gradientTransform="matrix(0,1,-1,0,128.84745,-85.389832)" gradientUnits="userSpaceOnUse" x1="49.389832" x2="129.38983" y1="77.084747" y2="77.084747">
<stop offset="0" stop-color="#808080" stop-opacity="1"/>
<stop offset="1" stop-color="#464646" stop-opacity="1"/>
</linearGradient>
<linearGradient>
<stop offset="0" stop-color="#808080" stop-opacity="1"/>
<stop offset="1" stop-color="#464646" stop-opacity="1"/>
</linearGradient>
<linearGradient gradientTransform="matrix(0,1,-1,0,128.84745,-41.389828)" gradientUnits="userSpaceOnUse" id="linearGradient3948" x1="49.389832" x2="129.38983" y1="77.084747" y2="77.084747">
<stop offset="0" stop-color="#808080" stop-opacity="1"/>
<stop offset="1" stop-color="#676767" stop-opacity="1"/>
</linearGradient>
</defs>
<path d="M 88.0 49.0 C 88.0 78.633 77.637 89.0 48.0 89.0 C 18.365 89.0 8.0 78.633 8.0 49.0 C 8.0 19.365 18.365 9.0 48.0 9.0 C 77.637 9.0 88.0 19.365 88.0 49.0 z " fill-opacity="0.4"/>
<linearGradient gradientUnits="userSpaceOnUse" x1="47.9995" x2="47.9995" xlink:actuate="onLoad" xlink:show="other" xlink:type="simple" y1="8" y2="88.0005">
<stop offset="0" stop-color="#00aad4" stop-opacity="1"/>
<stop offset="1" stop-color="#2ad4ff" stop-opacity="1"/>
</linearGradient>
<path d="M 48.0 8.0 C 77.633 8.0 88.0 18.363 88.0 48.0 C 88.0 77.635 77.633 88.0 48.0 88.0 C 18.365 88.0 8.0 77.635 8.0 48.0 C 8.0 18.363 18.365 8.0 48.0 8.0 z " fill="url(#linearGradient4140)" fill-opacity="1"/>
<path color="#000000" d="M 48.0 8.0 C 45.777374 8.0 43.66585 8.067117 41.65625 8.1875 L 54.34375 8.1875 C 52.33426 8.067117 50.22247 8.0 48.0 8.0 z M 28.625 10.28125 C 26.89214 10.796153 25.2703 11.386585 23.78125 12.09375 L 72.21875 12.09375 C 70.72969 11.386585 69.10783 10.796153 67.375 10.28125 L 28.625 10.28125 z M 20.09375 14.21875 C 19.28626 14.778075 18.53081 15.387992 17.8125 16.03125 L 78.1875 16.03125 C 77.46918 15.387992 76.71376 14.778075 75.90625 14.21875 L 20.09375 14.21875 z M 15.75 18.125 C 15.2536 18.700178 14.7882595 19.30705 14.34375 19.9375 L 81.65625 19.9375 C 81.21172 19.30705 80.74641 18.700178 80.25 18.125 L 15.75 18.125 z M 13.0 22.0625 C 12.671486 22.645132 12.35614 23.251207 12.0625 23.875 L 83.9375 23.875 C 83.64385 23.251207 83.32854 22.645132 83.0 22.0625 L 13.0 22.0625 z M 11.1875 25.96875 C 10.95777 26.566536 10.73445 27.180525 10.53125 27.8125 L 85.46875 27.8125 C 85.26553 27.180525 85.04225 26.566536 84.8125 25.96875 L 11.1875 25.96875 z M 9.9375 29.90625 C 9.782433 30.498098 9.635242 31.09925 9.5 31.71875 L 86.5 31.71875 C 86.36475 31.09925 86.21758 30.498098 86.0625 29.90625 L 9.9375 29.90625 z M 9.0625 33.84375 C 8.958786 34.4372 8.837917 35.0391 8.75 35.65625 L 87.25 35.65625 C 87.1621 35.0391 87.04121 34.4372 86.9375 33.84375 L 9.0625 33.84375 z M 8.5 37.75 C 8.43353 38.354984 8.39683 38.967274 8.34375 39.59375 L 87.65625 39.59375 C 87.60315 38.967274 87.56645 38.354984 87.5 37.75 L 8.5 37.75 z M 8.1875 41.5 C 8.14714 42.15441 8.12098 42.82317 8.09375 43.5 L 87.90625 43.5 C 87.87905 42.82317 87.85285 42.15441 87.81255 41.5 L 8.187553 41.5 z M 8.03125 45.4375 C 8.01837 46.03141 8.00374 46.63951 8.0 47.25 L 88.0 47.25 C 87.996 46.63951 87.9815 46.03141 87.9688 45.4375 L 8.031311 45.4375 z M 8.0 49.34375 C 8.0069 49.96513 8.0459 50.583553 8.0625 51.1875 L 87.9375 51.1875 C 87.9541 50.58359 87.9931 49.96509 88.0 49.34375 L 8.0 49.34375 z M 8.125 53.28125 C 8.15474 53.898872 8.20898 54.495205 8.25 55.09375 L 87.75 55.09375 C 87.791 54.495235 87.8452 53.89884 87.875 53.28125 L 8.125 53.28125 z M 8.40625 57.21875 C 8.465241 57.836376 8.521233 58.435047 8.59375 59.03125 L 87.40625 59.03125 C 87.47875 58.435074 87.53475 57.83635 87.59375 57.21875 L 8.40625 57.21875 z M 8.875 61.125 C 8.97075 61.739098 9.106697 62.34753 9.21875 62.9375 L 86.78125 62.9375 C 86.89331 62.34755 87.02924 61.739075 87.125 61.125 L 8.875 61.125 z M 9.65625 65.0625 C 9.802647 65.68266 9.957794 66.28345 10.125 66.875 L 85.875 66.875 C 86.04222 66.283455 86.19733 65.68265 86.34375 65.0625 L 9.65625 65.0625 z M 10.78125 68.96875 C 11.001007 69.60269 11.252037 70.214325 11.5 70.8125 L 84.5 70.8125 C 84.74799 70.214325 84.99896 69.60269 85.21875 68.96875 L 10.78125 68.96875 z M 12.4375 72.90625 C 12.75418 73.52908 13.08364 74.139 13.4375 74.71875 L 82.5625 74.71875 C 82.91638 74.138985 83.24579 73.52908 83.5625 72.90625 L 12.4375 72.90625 z M 14.90625 76.84375 C 15.38853 77.47178 15.89903 78.08676 16.4375 78.65625 L 79.5625 78.65625 C 80.10098 78.08674 80.61143 77.471794 81.09375 76.84375 L 14.90625 76.84375 z M 18.75 80.75 C 19.571465 81.41091 20.41526 82.030594 21.34375 82.59375 L 74.65625 82.59375 C 75.58475 82.03056 76.42851 81.41095 77.25 80.75 L 18.75 80.75 z M 25.59375 84.6875 C 27.44514 85.42425 29.46425 86.01872 31.65625 86.5 L 64.34375 86.5 C 66.53569 86.01866 68.55487 85.42432 70.40625 84.6875 L 25.59375 84.6875 z " display="inline" fill="#505050" fill-opacity="1" fill-rule="nonzero" stroke="none" visibility="visible"/>
<path color="#000000" d="M 48.0 10.4375 C 34.42945 10.4375 24.94895 12.800571 18.875 18.875 C 12.801056 24.94943 10.4375 34.4313 10.4375 48.0 C 10.4375 61.567833 12.800865 71.050385 18.875 77.125 C 24.949137 83.199615 34.43032 85.5625 48.0 85.5625 C 61.56789 85.5625 71.05044 83.19956 77.125 77.125 C 83.19955 71.05044 85.5625 61.567898 85.5625 48.0 C 85.5625 34.43121 83.19958 24.949348 77.125 18.875 C 71.05041 12.800654 61.56786 10.4375 48.0 10.4375 z M 48.0 13.15625 C 61.2513 13.15625 69.866 15.491212 75.1875 20.8125 C 80.509 26.133787 82.84375 34.747814 82.84375 48.0 C 82.84375 61.25127 80.50903 69.865974 75.1875 75.1875 C 69.86597 80.509026 61.25127 82.84375 48.0 82.84375 C 34.7469 82.84375 26.13355 80.50897 20.8125 75.1875 C 15.491455 69.86603 13.15625 61.25133 13.15625 48.0 C 13.15625 34.747723 15.491715 26.133703 20.8125 20.8125 C 26.133286 15.491295 34.74596 13.15625 48.0 13.15625 z " display="inline" fill="#464646" fill-opacity="1" fill-rule="nonzero" stroke="none" visibility="visible"/>
<rect fill="none" height="96" width="96"/>
<linearGradient gradientUnits="userSpaceOnUse" id="SVGID_2_" x1="47.9995" x2="47.9995" xlink:actuate="onLoad" xlink:show="other" xlink:type="simple" y1="8.2534" y2="87.4985">
<stop offset="0" stop-color="#ffffff"/>
<stop offset="1" stop-color="#ffffff" stop-opacity="0"/>
</linearGradient>
<path color="#000000" d="M 48.0 8.000003 C 33.547607 8.000003 23.468643 10.530845 17.0 17.000004 C 10.531356 23.469162 8.0 33.549583 8.0 48.000004 C 8.0 62.449505 10.5311575 72.530655 17.0 79.0 C 23.468842 85.46936 33.54853 88.0 48.0 88.0 C 62.44957 88.0 72.53071 85.46931 79.0 79.0 C 85.4693 72.53071 88.0 62.44957 88.0 48.000004 C 88.0 33.549488 85.46933 23.469074 79.0 17.000004 C 72.53068 10.530935 62.44953 8.000004 48.0 8.000004 z M 48.0 10.906254 C 62.112396 10.906254 71.30145 13.36418 76.96875 19.031254 C 82.63605 24.69833 85.09375 33.886665 85.09375 48.000004 C 85.09375 62.11237 82.63608 71.30142 76.96875 76.96875 C 71.30142 82.63608 62.11237 85.09375 48.0 85.09375 C 33.885685 85.09375 24.69807 82.63602 19.03125 76.96875 C 13.364429 71.30148 10.90625 62.11243 10.90625 48.0 C 10.90625 33.886566 13.364714 24.698236 19.03125 19.03125 C 24.697786 13.364264 33.88468 10.90625 48.0 10.90625 z " display="inline" fill="url(#linearGradient3948)" fill-opacity="1" fill-rule="nonzero" stroke="none" stroke-width="1" visibility="visible"/>
<path d="M 48.0 8.0 C 18.365 8.0 8.0 18.365 8.0 48.0 C 8.0 77.633 18.365 88.0 48.0 88.0 C 77.637 88.0 88.0 77.633 88.0 48.0 C 88.0 18.365 77.637 8.0 48.0 8.0 z M 48.0 87.0 C 18.842 87.0 9.0 77.158 9.0 48.0 C 9.0 18.842005 18.842 9.0 48.0 9.0 C 77.158005 9.0 87.0 18.842 87.0 48.0 C 87.0 77.158005 77.158 87.0 48.0 87.0 z " fill="url(#SVGID_2_)" fill-opacity="0.25" stroke-opacity="0.25"/>
<linearGradient gradientTransform="matrix(0.7071 -0.7071 0.7071 0.7071 -208.9813 3059.7412)" gradientUnits="userSpaceOnUse" x1="2309.3584" x2="2344.3584" xlink:actuate="onLoad" xlink:show="other" xlink:type="simple" y1="-1947.9287" y2="-1947.9287">
<stop offset="0" stop-color="#58595b"/>
<stop offset="1" stop-color="#000000"/>
</linearGradient>
<linearGradient gradientTransform="matrix(0.7071 -0.7071 0.7071 0.7071 -208.9813 3059.7412)" gradientUnits="userSpaceOnUse" x1="2309.3584" x2="2313.3604" xlink:actuate="onLoad" xlink:show="other" xlink:type="simple" y1="-1957.9277" y2="-1957.9277">
<stop offset="0" stop-color="#58595b"/>
<stop offset="1" stop-color="#000000"/>
</linearGradient>
<linearGradient gradientUnits="userSpaceOnUse" x1="54.292" x2="59.292" xlink:actuate="onLoad" xlink:show="other" xlink:type="simple" y1="10.3501" y2="38.934">
<stop offset="0" stop-color="#58595b"/>
<stop offset="1" stop-color="#000000"/>
</linearGradient>
<linearGradient gradientUnits="userSpaceOnUse" x1="32.5508" x2="42.1758" xlink:actuate="onLoad" xlink:show="other" xlink:type="simple" y1="12.6343" y2="45.1342">
<stop offset="0" stop-color="#58595b"/>
<stop offset="1" stop-color="#000000"/>
</linearGradient>
<linearGradient gradientUnits="userSpaceOnUse" x1="57.1484" x2="60.063" xlink:actuate="onLoad" xlink:show="other" xlink:type="simple" y1="35.2275" y2="38.1421">
<stop offset="0" stop-color="#ffffff"/>
<stop offset="0.7362" stop-color="#ffffff" stop-opacity="0"/>
<stop offset="1" stop-color="#ffffff" stop-opacity="0"/>
</linearGradient>
<linearGradient gradientUnits="userSpaceOnUse" x1="44.6177" x2="38.0733" xlink:actuate="onLoad" xlink:show="other" xlink:type="simple" y1="37.2412" y2="43.7856">
<stop offset="0" stop-color="#ffffff"/>
<stop offset="0.7362" stop-color="#ffffff" stop-opacity="0"/>
<stop offset="1" stop-color="#ffffff" stop-opacity="0"/>
</linearGradient>
<linearGradient gradientUnits="userSpaceOnUse" x1="47.9995" x2="47.9995" xlink:actuate="onLoad" xlink:show="other" xlink:type="simple" y1="45.5" y2="53.8766">
<stop offset="0" stop-color="#ffffff"/>
<stop offset="1" stop-color="#6d6e70"/>
</linearGradient>
<g transform="translate(-26.269381,3.48784)">
<path color="#000000" d="M 46.613 47.449154 C 45.899727 47.44917 45.295853 47.70376 44.8005 48.199154 C 44.307102 48.669098 44.07072 49.22349 44.08175 49.917904 C 44.09287 50.61235 44.345547 51.21617 44.83175 51.699154 L 49.01925 55.699154 L 45.1755 59.667904 C 44.491676 60.214306 44.144245 60.82017 44.14425 61.511658 C 44.144245 62.206413 44.38039 62.81122 44.863 63.292904 C 45.345596 63.77459 45.95961 64.01166 46.6755 64.01166 C 47.38876 64.01166 47.977085 63.77198 48.45675 63.292904 L 54.238 57.449154 C 54.747738 56.940025 54.987984 56.39498 54.988 55.761658 C 54.9618 55.38651 54.90781 55.026817 54.8005 54.730404 C 54.69317 54.434017 54.532627 54.194664 54.33175 54.011658 L 48.488 48.480408 C 47.937668 47.781742 47.322987 47.449173 46.613 47.44916 z " display="inline" fill="#ffffff" fill-opacity="1" fill-rule="nonzero" stroke="#b3b3b3" stroke-dasharray="none" stroke-miterlimit="4" stroke-opacity="1" stroke-width="1" visibility="visible"/>
<path color="#000000" d="M 60.675503 62.011658 C 60.045994 62.01166 59.51298 62.237213 59.081753 62.667908 C 58.65052 63.098618 58.4255 63.623234 58.425503 64.230415 C 58.4255 64.84086 58.652157 65.36352 59.081753 65.792915 C 59.511345 66.22231 60.04272 66.449165 60.675503 66.449165 L 78.95675 66.449165 C 79.58558 66.449165 80.11892 66.22395 80.5505 65.792915 C 80.982025 65.361885 81.206726 64.83759 81.20675 64.230415 C 81.206726 63.626507 80.98368 63.100258 80.5505 62.66791 C 80.11728 62.235573 79.582306 62.011665 78.95675 62.01166 L 60.6755 62.01166 z " display="inline" fill="#ffffff" fill-opacity="1" fill-rule="nonzero" stroke="#b3b3b3" stroke-dasharray="none" stroke-miterlimit="4" stroke-opacity="1" stroke-width="1" visibility="visible"/>
</g>
<path d="M 70.576 81.14377 C 70.576 79.96339 70.988686 79.550545 72.16922 79.550545 C 73.349525 79.550545 73.76244 79.96339 73.76244 81.14377 C 73.76244 82.324066 73.34952 82.737 72.16922 82.737 C 70.98876 82.737 70.576 82.32408 70.576 81.14377 z " fill="#81de7f" fill-opacity="1"/>
</svg>
