<?xml version="1.0" encoding="UTF-8"?>
<svg xmlns="http://www.w3.org/2000/svg" xmlns:xlink="http://www.w3.org/1999/xlink" baseProfile="tiny" contentScriptType="text/ecmascript" contentStyleType="text/css" height="96" preserveAspectRatio="xMidYMid meet" version="1.1" viewBox="-8 -8 96 96" width="96" x="0" y="0" zoomAndPan="magnify">
<defs>
<linearGradient>
<stop offset="0" stop-color="#53b260" stop-opacity="1"/>
<stop offset="1" stop-color="#50a35b" stop-opacity="1"/>
</linearGradient>
<linearGradient>
<stop offset="0" stop-color="#ffffff" stop-opacity="1"/>
<stop offset="1" stop-color="#ffffff" stop-opacity="0.78431374"/>
</linearGradient>
<linearGradient gradientTransform="matrix(0.75764659,0,0,0.75764659,3.6329633,3.6571987)" gradientUnits="userSpaceOnUse" id="linearGradient3951" x1="47.230022" x2="47.230022" y1="23.500816" y2="72.616615">
<stop offset="0" stop-color="#ffffff" stop-opacity="1"/>
<stop offset="1" stop-color="#ffffff" stop-opacity="0.78431374"/>
</linearGradient>
<linearGradient gradientTransform="matrix(0,1,-1,0,80,0)" gradientUnits="userSpaceOnUse" id="linearGradient3959" x1="0" x2="80" y1="40" y2="40">
<stop offset="0" stop-color="#53b260" stop-opacity="1"/>
<stop offset="1" stop-color="#50a35b" stop-opacity="1"/>
</linearGradient>
<linearGradient gradientTransform="matrix(0.75764659,0,0,0.75764659,3.6329633,3.6571987)" gradientUnits="userSpaceOnUse" id="linearGradient3963" x1="47.230022" x2="47.230022" y1="23.500816" y2="72.616615">
<stop offset="0" stop-color="#53b260" stop-opacity="1"/>
<stop offset="1" stop-color="#50a35b" stop-opacity="1"/>
</linearGradient>
</defs>
<path d="M 80.0 41.0 C 80.0 70.6 69.6 81.0 40.0 81.0 C 10.4 81.0 0.0 70.6 0.0 41.0 C 0.0 11.4 10.4 1.0 40.0 1.0 C 69.7 1.0 80.0 11.4 80.0 41.0 z " fill-opacity="0.4" stroke-opacity="0.4"/>
<linearGradient gradientUnits="userSpaceOnUse" x1="39.9995" x2="39.9995" y1="0.0112" y2="79.9902">
<stop offset="0" stop-color="#70b83b"/>
<stop offset="0.2066" stop-color="#6aae37"/>
<stop offset="0.4945" stop-color="#5b942b"/>
<stop offset="0.8626" stop-color="#426917"/>
<stop offset="1" stop-color="#38570f"/>
</linearGradient>
<path d="M 40.0 0.0 C 10.4 0.0 0.0 10.4 0.0 40.0 C 0.0 69.6 10.4 80.0 40.0 80.0 C 69.0 80.0 79.5 70.1 80.0 41.9 L 80.0 38.1 C 79.5 9.9 69.0 0.0 40.0 0.0 z " fill="url(#linearGradient3959)" fill-opacity="1" fill-rule="evenodd"/>
<linearGradient gradientUnits="userSpaceOnUse" id="HIGHLIGHT_GR3_2_" x1="39.9995" x2="39.9995" y1="0.0005" y2="80.001">
<stop offset="0" stop-color="#ffffff"/>
<stop offset="0.1222" stop-color="#f7f8f5"/>
<stop offset="0.2675" stop-color="#e1e5db"/>
<stop offset="0.4545" stop-color="#bdc7af"/>
<stop offset="0.6759" stop-color="#8b9d73"/>
<stop offset="0.9238" stop-color="#4d6828"/>
<stop offset="1" stop-color="#38570f"/>
</linearGradient>
<path d="M 40.0 0.0 C 10.4 0.0 0.0 10.4 0.0 40.0 C 0.0 69.6 10.4 80.0 40.0 80.0 C 69.6 80.0 80.0 69.6 80.0 40.0 C 80.0 10.4 69.6 0.0 40.0 0.0 z M 40.0 79.0 C 10.8 79.0 1.0 69.2 1.0 40.0 C 1.0 10.8 10.8 1.0 40.0 1.0 C 69.2 1.0 79.0 10.8 79.0 40.0 C 79.0 69.2 69.2 79.0 40.0 79.0 z " fill="url(#HIGHLIGHT_GR3_2_)" fill-opacity="0.25" stroke-opacity="0.25"/>
<linearGradient gradientUnits="userSpaceOnUse" id="PINK_2_4_" x1="39.9995" x2="39.9995" y1="0.0112" y2="79.9902">
<stop offset="0" stop-color="#ff61c7"/>
<stop offset="0.1942" stop-color="#f759c1"/>
<stop offset="0.4381" stop-color="#e145b1"/>
<stop offset="0.7357" stop-color="#be2396"/>
<stop offset="1" stop-color="#99007a"/>
</linearGradient>
<path d="M 0.0 40.0 C 0.0 69.6 10.4 80.0 40.0 80.0 C 69.6 80.0 80.0 69.6 80.0 40.0 C 80.0 11.0 70.1 0.5 41.9 0.0 L 38.1 0.0 C 9.9 0.5 0.0 11.0 0.0 40.0 z " display="none" fill="url(#PINK_2_4_)"/>
<linearGradient gradientUnits="userSpaceOnUse" id="HIGHLIGHT_PI2_4_" x1="39.9995" x2="39.9995" y1="0.2559" y2="79.5048">
<stop offset="0" stop-color="#ffffff"/>
<stop offset="0.119" stop-color="#fcf7fb"/>
<stop offset="0.2468" stop-color="#f3e1f0"/>
<stop offset="0.4038" stop-color="#e5bedd"/>
<stop offset="0.5839" stop-color="#d18cc3"/>
<stop offset="0.7837" stop-color="#b84da2"/>
<stop offset="0.9971" stop-color="#99017b"/>
<stop offset="1" stop-color="#99007a"/>
</linearGradient>
<path d="M 40.0 0.0 C 10.4 0.0 0.0 10.4 0.0 40.0 C 0.0 69.6 10.4 80.0 40.0 80.0 C 69.6 80.0 80.0 69.6 80.0 40.0 C 80.0 10.4 69.6 0.0 40.0 0.0 z M 40.0 79.0 C 10.8 79.0 1.0 69.2 1.0 40.0 C 1.0 10.8 10.8 1.0 40.0 1.0 C 69.2 1.0 79.0 10.8 79.0 40.0 C 79.0 69.2 69.2 79.0 40.0 79.0 z " display="none" fill="url(#HIGHLIGHT_PI2_4_)"/>
<linearGradient gradientUnits="userSpaceOnUse" id="PINK_1_4_" x1="39.9995" x2="39.9995" y1="0.0112" y2="79.9902">
<stop offset="0" stop-color="#e64dd4"/>
<stop offset="0.2159" stop-color="#de46ce"/>
<stop offset="0.4932" stop-color="#c832bc"/>
<stop offset="0.8319" stop-color="#a5129f"/>
<stop offset="1" stop-color="#91008f"/>
</linearGradient>
<path d="M 0.0 40.0 C 0.0 69.6 10.4 80.0 40.0 80.0 C 69.6 80.0 80.0 69.6 80.0 40.0 C 80.0 11.0 70.1 0.5 41.9 0.0 L 38.1 0.0 C 9.9 0.5 0.0 11.0 0.0 40.0 z " display="none" fill="url(#PINK_1_4_)"/>
<linearGradient gradientUnits="userSpaceOnUse" id="HIGHLIGHT_PI2_5_" x1="39.9995" x2="39.9995" y1="0.2559" y2="79.5048">
<stop offset="0" stop-color="#ffffff"/>
<stop offset="0.119" stop-color="#fcf7fc"/>
<stop offset="0.2468" stop-color="#f2e1f2"/>
<stop offset="0.4038" stop-color="#e3bee2"/>
<stop offset="0.5839" stop-color="#ce8ccd"/>
<stop offset="0.7837" stop-color="#b24db1"/>
<stop offset="0.9971" stop-color="#91018f"/>
<stop offset="1" stop-color="#91008f"/>
</linearGradient>
<path d="M 40.0 0.0 C 10.4 0.0 0.0 10.4 0.0 40.0 C 0.0 69.6 10.4 80.0 40.0 80.0 C 69.6 80.0 80.0 69.6 80.0 40.0 C 80.0 10.4 69.6 0.0 40.0 0.0 z M 40.0 79.0 C 10.8 79.0 1.0 69.2 1.0 40.0 C 1.0 10.8 10.8 1.0 40.0 1.0 C 69.2 1.0 79.0 10.8 79.0 40.0 C 79.0 69.2 69.2 79.0 40.0 79.0 z " display="none" fill="url(#HIGHLIGHT_PI2_5_)"/>
<linearGradient gradientUnits="userSpaceOnUse" id="VIOLET_2_4_" x1="39.9995" x2="39.9995" y1="0.0112" y2="82.7575">
<stop offset="0" stop-color="#ba66e0"/>
<stop offset="0.2174" stop-color="#b260d8"/>
<stop offset="0.497" stop-color="#9d51c2"/>
<stop offset="0.8385" stop-color="#7c379f"/>
<stop offset="1" stop-color="#69298c"/>
</linearGradient>
<path d="M 0.0 40.0 C 0.0 69.6 10.4 80.0 40.0 80.0 C 69.6 80.0 80.0 69.6 80.0 40.0 C 80.0 11.0 70.1 0.5 41.9 0.0 L 38.1 0.0 C 9.9 0.5 0.0 11.0 0.0 40.0 z " display="none" fill="url(#VIOLET_2_4_)"/>
<linearGradient gradientUnits="userSpaceOnUse" id="HIGHLIGHT_VIO2_2_" x1="39.9995" x2="39.9995" y1="0.2559" y2="79.5048">
<stop offset="0" stop-color="#ffffff"/>
<stop offset="0.1299" stop-color="#f9f7fb"/>
<stop offset="0.2745" stop-color="#eae1ef"/>
<stop offset="0.452" stop-color="#d1bedc"/>
<stop offset="0.6558" stop-color="#af8cc1"/>
<stop offset="0.8786" stop-color="#834ea0"/>
<stop offset="1" stop-color="#69298c"/>
</linearGradient>
<path d="M 40.0 0.0 C 10.4 0.0 0.0 10.4 0.0 40.0 C 0.0 69.6 10.4 80.0 40.0 80.0 C 69.6 80.0 80.0 69.6 80.0 40.0 C 80.0 10.4 69.6 0.0 40.0 0.0 z M 40.0 79.0 C 10.8 79.0 1.0 69.2 1.0 40.0 C 1.0 10.8 10.8 1.0 40.0 1.0 C 69.2 1.0 79.0 10.8 79.0 40.0 C 79.0 69.2 69.2 79.0 40.0 79.0 z " display="none" fill="url(#HIGHLIGHT_VIO2_2_)"/>
<linearGradient gradientUnits="userSpaceOnUse" id="VIOLET_1_4_" x1="39.9995" x2="39.9995" y1="1.7627" y2="81.7417">
<stop offset="0" stop-color="#a14ddb"/>
<stop offset="0.2205" stop-color="#9949d3"/>
<stop offset="0.505" stop-color="#833cbe"/>
<stop offset="0.8523" stop-color="#60299d"/>
<stop offset="1" stop-color="#4f1f8c"/>
</linearGradient>
<path d="M 0.0 40.0 C 0.0 69.6 10.4 80.0 40.0 80.0 C 69.6 80.0 80.0 69.6 80.0 40.0 C 80.0 11.0 70.1 0.5 41.9 0.0 L 38.1 0.0 C 9.9 0.5 0.0 11.0 0.0 40.0 z " display="none" fill="url(#VIOLET_1_4_)"/>
<linearGradient gradientUnits="userSpaceOnUse" id="HIGHLIGHT_VIO1_2_" x1="39.9995" x2="39.9995" y1="0.2559" y2="79.5048">
<stop offset="0" stop-color="#ffffff"/>
<stop offset="1" stop-color="#4a1f8c"/>
</linearGradient>
<path d="M 40.0 0.0 C 10.4 0.0 0.0 10.4 0.0 40.0 C 0.0 69.6 10.4 80.0 40.0 80.0 C 69.6 80.0 80.0 69.6 80.0 40.0 C 80.0 10.4 69.6 0.0 40.0 0.0 z M 40.0 79.0 C 10.8 79.0 1.0 69.2 1.0 40.0 C 1.0 10.8 10.8 1.0 40.0 1.0 C 69.2 1.0 79.0 10.8 79.0 40.0 C 79.0 69.2 69.2 79.0 40.0 79.0 z " display="none" fill="url(#HIGHLIGHT_VIO1_2_)"/>
<path d="M 21.664951 40.857643 C 21.589191 40.857643 21.513422 40.857643 21.437656 40.857643 C 20.907305 40.706116 20.52848 40.25153 20.52848 39.721172 C 20.52848 35.705647 24.695536 25.250122 43.78823 24.8713 L 43.78823 21.461891 C 43.78823 21.007303 44.01553 20.62848 44.39435 20.47695 C 44.54588 20.40119 44.77317 20.32542 44.9247 20.32542 C 45.151997 20.32542 45.379288 20.40118 45.53082 20.47695 L 59.168457 29.56871 C 59.471516 29.796003 59.698807 30.099064 59.698807 30.477884 C 59.698807 30.856709 59.54728 31.23553 59.168457 31.38706 L 45.53082 40.47882 C 45.379288 40.63035 45.151997 40.706112 44.9247 40.706112 C 44.77317 40.706112 44.54588 40.630352 44.39435 40.554585 C 44.01553 40.32729 43.78823 39.948467 43.78823 39.569645 L 43.78823 36.008705 C 43.485172 35.932945 43.106342 35.932945 42.65176 35.857178 C 40.606113 35.55412 37.423996 35.02377 34.166115 35.02377 C 28.256472 35.02377 24.392475 36.76635 22.649887 40.17576 C 22.498358 40.630352 22.119534 40.857647 21.664946 40.857647 L 21.664946 40.857647 z " fill="#231f20" fill-opacity="0.05" stroke-opacity="0.05"/>
<path d="M 21.664951 40.478825 C 21.589191 40.478825 21.513422 40.478825 21.513422 40.478825 C 21.1346 40.403065 20.907305 40.1 20.907305 39.721176 C 20.907305 35.781418 25.07436 25.47742 44.167053 25.250126 L 44.167053 21.461891 C 44.167053 21.158834 44.31858 20.93154 44.545876 20.78001 C 44.621635 20.70425 44.77317 20.70425 44.924698 20.70425 C 45.076225 20.70425 45.227757 20.78001 45.379288 20.85578 L 59.01693 29.947538 C 59.24422 30.099068 59.319984 30.326365 59.319984 30.553656 C 59.319984 30.78095 59.168457 31.008244 59.01693 31.159773 L 45.37929 40.25153 C 45.227764 40.32729 45.076233 40.403053 44.924706 40.403053 C 44.773174 40.403053 44.69741 40.403053 44.545883 40.327293 C 44.31859 40.17576 44.167057 39.948463 44.167057 39.645405 L 44.167057 35.781406 C 43.788235 35.705647 43.25788 35.62988 42.727528 35.554115 C 40.606117 35.175293 37.499767 34.720703 34.241886 34.720703 C 28.180714 34.720703 24.165188 36.539055 22.4226 40.1 C 22.195305 40.32729 21.968012 40.47882 21.664951 40.47882 L 21.664951 40.47882 z " fill="#231f20" fill-opacity="0.05" stroke-opacity="0.05"/>
<path d="M 21.664951 40.1 C 21.664951 40.1 21.589191 40.1 21.589191 40.1 C 21.437662 40.02424 21.286133 39.872704 21.286133 39.721172 C 21.286133 35.857178 25.45319 25.704708 44.545883 25.628944 L 44.545883 21.461887 C 44.545883 21.310358 44.621643 21.158829 44.77318 21.158829 C 44.848934 21.158829 44.924706 21.083069 44.924706 21.083069 C 45.000465 21.083069 45.076237 21.083069 45.152 21.158829 L 58.78964 30.250587 C 58.8654 30.326347 58.941177 30.402117 58.941177 30.553646 C 58.941177 30.705175 58.865417 30.78094 58.78964 30.856705 L 45.152 39.948463 C 45.07624 40.024223 45.00047 40.024223 44.924706 40.024223 C 44.848946 40.024223 44.773174 40.024223 44.773174 39.948463 C 44.621647 39.872704 44.545883 39.721172 44.545883 39.645405 L 44.545883 35.47835 C 44.091293 35.40259 43.48518 35.32682 42.72753 35.175293 C 40.60612 34.79647 37.49977 34.34188 34.166126 34.34188 C 27.953426 34.34188 23.86221 36.235996 21.968018 39.872704 C 21.968018 40.024235 21.816488 40.1 21.66496 40.1 L 21.66496 40.1 z " fill="#231f20" fill-opacity="0.05" stroke-opacity="0.05"/>
<linearGradient gradientTransform="translate(8,8)" gradientUnits="userSpaceOnUse" x1="40.1406" x2="40.1406" y1="39.5962" y2="15.5005">
<stop offset="0" stop-color="#cccccc"/>
<stop offset="0.5001" stop-color="#dbdbdb"/>
<stop offset="1" stop-color="#eeeeee"/>
</linearGradient>
<path d="M 35.302593 59.874577 C 35.0753 59.874577 34.848003 59.798817 34.696476 59.64729 L 20.83154 50.47976 C 20.52848 50.25247 20.301188 49.87364 20.301188 49.49482 C 20.301188 49.115997 20.528482 48.73717 20.83154 48.585644 L 34.696472 39.342354 C 34.848 39.190823 35.075294 39.11506 35.30259 39.11506 C 35.454117 39.11506 35.68141 39.19082 35.832943 39.266582 C 36.211765 39.49388 36.43906 39.872704 36.43906 40.25153 L 36.43906 43.812466 C 36.74212 43.888226 37.19671 43.963997 37.57553 44.03976 C 39.621178 44.418583 42.727528 44.873173 45.98541 44.873173 C 51.819286 44.873173 55.60752 43.13059 57.350105 39.721176 C 57.5774 39.342354 57.956223 39.11506 58.335045 39.11506 C 58.410736 39.11506 58.486572 39.11506 58.562263 39.11506 C 59.09262 39.266582 59.47144 39.721176 59.47144 40.25153 C 59.47144 41.91835 58.638103 45.63082 55.380142 48.812935 C 51.288933 52.90423 44.924698 55.025635 36.363297 55.17717 L 36.363297 58.662346 C 36.363297 59.116932 36.136 59.49575 35.75718 59.64728 C 35.605648 59.79881 35.45412 59.87457 35.30259 59.87457 L 35.30259 59.87457 z " fill="#231f20" fill-opacity="0.05" stroke-opacity="0.05"/>
<path d="M 35.302593 59.49575 C 35.151066 59.49575 34.999535 59.41999 34.848003 59.34422 L 21.058836 50.100937 C 20.83154 49.94941 20.755775 49.722115 20.755775 49.49482 C 20.755775 49.26753 20.907309 49.04023 21.058836 48.888702 L 34.923767 39.72118 C 35.075294 39.64542 35.226826 39.569653 35.378357 39.569653 C 35.52989 39.569653 35.60565 39.569653 35.75718 39.645412 C 35.98447 39.79694 36.136 40.024235 36.136 40.327293 L 36.136 44.267056 C 36.514824 44.342815 37.045177 44.418587 37.651295 44.49435 C 39.69694 44.873173 42.87906 45.327763 46.136936 45.327763 C 52.122345 45.327763 56.062107 43.50941 57.804695 40.024235 C 57.956223 39.796944 58.183517 39.56965 58.486576 39.56965 C 58.562336 39.56965 58.638107 39.56965 58.638107 39.56965 C 59.01693 39.64541 59.244225 39.94847 59.244225 40.327293 C 59.244225 41.91835 58.410812 45.47929 55.304462 48.661404 C 51.288937 52.676933 44.848934 54.798344 36.21177 54.94987 L 36.21177 58.81387 C 36.21177 59.116932 36.06024 59.34422 35.832947 59.49575 C 35.52989 59.49575 35.378357 59.49575 35.302593 59.49575 L 35.302593 59.49575 z " fill="#231f20" fill-opacity="0.05" stroke-opacity="0.05"/>
<path d="M 35.302593 59.11693 C 35.226833 59.11693 35.151066 59.11693 35.0753 59.04117 L 21.210363 49.79787 C 21.134604 49.72211 21.058836 49.646343 21.058836 49.494812 C 21.058836 49.34328 21.134596 49.26752 21.210363 49.191753 L 35.0753 40.02423 C 35.15106 39.94847 35.22683 39.94847 35.302593 39.94847 C 35.378353 39.94847 35.454124 39.94847 35.454124 40.02423 C 35.60565 40.09999 35.68142 40.25153 35.68142 40.32729 L 35.68142 44.57011 C 36.13601 44.64587 36.742126 44.72164 37.49977 44.87317 C 39.621105 45.25199 42.72753 45.782345 45.985413 45.782345 C 52.122353 45.782345 56.1378 43.888226 58.031994 40.25152 C 58.107685 40.099995 58.259212 40.024227 58.334976 40.024227 C 58.334976 40.024227 58.410736 40.024227 58.410736 40.024227 C 58.562263 40.099987 58.713795 40.25152 58.713795 40.40305 C 58.713795 41.918343 57.880383 45.40352 54.849796 48.434105 C 50.834267 52.44963 44.31851 54.57104 35.60557 54.57104 L 35.60557 58.81386 C 35.60557 58.965393 35.52981 59.11692 35.378353 59.11692 C 35.378353 59.11692 35.302593 59.11692 35.302593 59.11692 L 35.302593 59.11692 z " fill="#231f20" fill-opacity="0.05" stroke-opacity="0.05"/>
<linearGradient gradientUnits="userSpaceOnUse" x1="39.8599" x2="39.8599" y1="64.7085" y2="40.3643">
<stop offset="0" stop-color="#cccccc"/>
<stop offset="0.5001" stop-color="#dbdbdb"/>
<stop offset="1" stop-color="#eeeeee"/>
</linearGradient>
<path d="M 44.9247 21.461891 L 44.9247 26.007772 C 24.165186 26.007772 21.67442 37.4435 21.67442 39.71644 C 26.296066 30.47315 42.651764 35.09953 44.9247 35.09953 L 44.9247 39.64541 L 58.56234 30.55365 L 44.9247 21.461891 z M 35.31206 40.261 L 21.437656 49.49482 L 35.217354 58.72864 L 35.217354 54.11173 C 55.976868 54.11173 58.325573 42.60497 58.325573 40.33203 C 53.703938 49.575317 37.585 44.95367 35.31206 44.87791 L 35.31206 40.261 z " fill="url(#linearGradient3963)" fill-opacity="1"/>
<path d="M 44.9247 21.461891 L 44.9247 26.007772 C 24.165186 26.007772 21.67442 37.4435 21.67442 39.71644 C 26.296066 30.47315 42.651764 35.09953 44.9247 35.09953 L 44.9247 39.64541 L 58.56234 30.55365 L 44.9247 21.461891 z M 35.31206 40.261 L 21.437656 49.49482 L 35.217354 58.72864 L 35.217354 54.11173 C 55.976868 54.11173 58.325573 42.60497 58.325573 40.33203 C 53.703938 49.575317 37.585 44.95367 35.31206 44.87791 L 35.31206 40.261 z " fill="url(#linearGradient3951)" fill-opacity="1"/>
</svg>
