<?xml version="1.0" encoding="UTF-8"?>
<svg xmlns="http://www.w3.org/2000/svg" xmlns:xlink="http://www.w3.org/1999/xlink" baseProfile="tiny" contentScriptType="text/ecmascript" contentStyleType="text/css" height="96px" preserveAspectRatio="xMidYMid meet" version="1.1" viewBox="0 0 96 96" width="96px" x="0px" y="0px" zoomAndPan="magnify">
<defs>
<linearGradient>
<stop offset="0" stop-color="#e1f1ff" stop-opacity="1"/>
<stop offset="1" stop-color="#b8ddff" stop-opacity="1"/>
</linearGradient>
<linearGradient gradientTransform="matrix(1.0515857,0,0,1.01708,-253.45339,-715.60427)" gradientUnits="userSpaceOnUse" x1="254.83009" x2="358.8096" y1="763.97272" y2="763.97272">
<stop offset="0" stop-color="#f7f8f9"/>
<stop offset="1" stop-color="#d0d1d2"/>
</linearGradient>
<linearGradient gradientTransform="matrix(0.7261569,0,0,0.74770351,-174.61605,-527.27145)" gradientUnits="userSpaceOnUse" x1="254.83009" x2="358.8096" y1="763.97272" y2="763.97272">
<stop offset="0" stop-color="#f7f8f9"/>
<stop offset="1" stop-color="#d0d1d2"/>
</linearGradient>
<linearGradient gradientTransform="matrix(1,0,0,-1,-1.3115644,98.868328)" gradientUnits="userSpaceOnUse" x1="61.075901" x2="34.694302" y1="57.299801" y2="41.540901">
<stop offset="0" stop-color="#ffffff"/>
<stop offset="1" stop-color="#ffffff" stop-opacity="0.2"/>
</linearGradient>
<linearGradient gradientTransform="matrix(1,0,0,-1,1.0534719,96.841079)" gradientUnits="userSpaceOnUse" x1="61.075901" x2="34.694302" y1="57.299801" y2="41.540901">
<stop offset="0" stop-color="#ffffff"/>
<stop offset="1" stop-color="#ffffff" stop-opacity="0.2"/>
</linearGradient>
<linearGradient gradientTransform="matrix(1,0,0,-1,-2.4150126,95.9258)" gradientUnits="userSpaceOnUse" x1="34.720501" x2="60.039902" y1="56.8027" y2="41.976002">
<stop offset="0" stop-color="#ffffff"/>
<stop offset="1" stop-color="#ffffff" stop-opacity="0.2"/>
</linearGradient>
<linearGradient gradientTransform="matrix(1,0,0,-1,-2.5350845,97.20939)" gradientUnits="userSpaceOnUse" x1="34.720501" x2="60.039902" y1="56.8027" y2="41.976002">
<stop offset="0" stop-color="#ffffff"/>
<stop offset="1" stop-color="#ffffff" stop-opacity="0.2"/>
</linearGradient>
<linearGradient gradientTransform="matrix(1,0,0,-1,0.1597,95.9258)" gradientUnits="userSpaceOnUse" x1="63.148201" x2="61.403599" y1="26.3545" y2="22.778099">
<stop offset="0" stop-color="#ffffff"/>
<stop offset="1" stop-color="#a3a3a3"/>
</linearGradient>
<linearGradient gradientTransform="matrix(1,0,0,-1,0.1597,95.9258)" gradientUnits="userSpaceOnUse" x1="63.148201" x2="61.403599" y1="26.3545" y2="22.778099">
<stop offset="0" stop-color="#ffffff"/>
<stop offset="1" stop-color="#a3a3a3"/>
</linearGradient>
<linearGradient gradientTransform="matrix(1,0,0,-1,0.1597,95.9258)" gradientUnits="userSpaceOnUse" x1="62.543701" x2="64.113503" y1="40.8223" y2="37.072102">
<stop offset="0" stop-color="#ffffff"/>
<stop offset="1" stop-color="#a3a3a3"/>
</linearGradient>
<linearGradient gradientTransform="matrix(1,0,0,-1,0.1597,95.9258)" gradientUnits="userSpaceOnUse" x1="62.543701" x2="64.113503" y1="40.8223" y2="37.072102">
<stop offset="0" stop-color="#ffffff"/>
<stop offset="1" stop-color="#a3a3a3"/>
</linearGradient>
<linearGradient gradientTransform="matrix(1,0,0,-1,0.1597,95.9258)" gradientUnits="userSpaceOnUse" x1="45.003201" x2="45.003201" y1="40.209" y2="23.3596">
<stop offset="0" stop-color="#c2de91"/>
<stop offset="1" stop-color="#7b9e56"/>
</linearGradient>
<linearGradient gradientTransform="matrix(1,0,0,-1,0.1597,95.9258)" gradientUnits="userSpaceOnUse" x1="45.003201" x2="45.003201" y1="40.209" y2="23.3596">
<stop offset="0" stop-color="#c2de91"/>
<stop offset="1" stop-color="#7b9e56"/>
</linearGradient>
<linearGradient gradientTransform="matrix(1,0,0,-1,0.1597,95.9258)" gradientUnits="userSpaceOnUse" x1="45.003201" x2="45.003201" y1="40.209" y2="23.3596">
<stop offset="0" stop-color="#c2de91"/>
<stop offset="1" stop-color="#7b9e56"/>
</linearGradient>
<linearGradient gradientTransform="matrix(1,0,0,-1,0.1597,95.9258)" gradientUnits="userSpaceOnUse" x1="45.003201" x2="45.003201" y1="40.209" y2="23.3596">
<stop offset="0" stop-color="#c2de91"/>
<stop offset="1" stop-color="#7b9e56"/>
</linearGradient>
<linearGradient gradientTransform="matrix(1,0,0,-1,0.1597,95.9258)" gradientUnits="userSpaceOnUse" x1="45.003201" x2="45.003201" y1="40.209" y2="23.3596">
<stop offset="0" stop-color="#c2de91"/>
<stop offset="1" stop-color="#7b9e56"/>
</linearGradient>
<linearGradient gradientTransform="matrix(1,0,0,-1,0.1597,95.9258)" gradientUnits="userSpaceOnUse" x1="45.003201" x2="45.003201" y1="40.209" y2="23.3596">
<stop offset="0" stop-color="#c2de91"/>
<stop offset="1" stop-color="#7b9e56"/>
</linearGradient>
<linearGradient gradientTransform="matrix(1,0,0,-1,8.6194701,63.557984)" gradientUnits="userSpaceOnUse" x1="82.677498" x2="82.677498" y1="37.415001" y2="54.1577">
<stop offset="0" stop-color="#ffffff" stop-opacity="0.3"/>
<stop offset="1" stop-color="#ffffff"/>
</linearGradient>
<linearGradient gradientTransform="matrix(1,0,0,-1,-53.620329,92.86676)" gradientUnits="userSpaceOnUse" x1="82.677498" x2="82.677498" y1="37.415001" y2="54.1577">
<stop offset="0" stop-color="#ffffff" stop-opacity="0.3"/>
<stop offset="1" stop-color="#ffffff"/>
</linearGradient>
<linearGradient gradientTransform="matrix(1,0,0,-1,8.6194701,63.557984)" gradientUnits="userSpaceOnUse" x1="82.677498" x2="82.677498" y1="37.415001" y2="54.1577">
<stop offset="0" stop-color="#ffffff" stop-opacity="0.3"/>
<stop offset="1" stop-color="#ffffff"/>
</linearGradient>
<linearGradient gradientTransform="matrix(1,0,0,-1,-15.367455,78.154116)" gradientUnits="userSpaceOnUse" x1="82.677498" x2="82.677498" y1="37.415001" y2="54.1577">
<stop offset="0" stop-color="#ffffff" stop-opacity="0.3"/>
<stop offset="1" stop-color="#ffffff"/>
</linearGradient>
<linearGradient gradientTransform="matrix(1,0,0,-1,8.6194701,63.557984)" gradientUnits="userSpaceOnUse" x1="82.677498" x2="82.677498" y1="37.415001" y2="54.1577">
<stop offset="0" stop-color="#ffffff" stop-opacity="0.3"/>
<stop offset="1" stop-color="#ffffff"/>
</linearGradient>
<linearGradient gradientTransform="matrix(1,0,0,-1,-18.309984,107.94722)" gradientUnits="userSpaceOnUse" x1="82.677498" x2="82.677498" y1="37.415001" y2="54.1577">
<stop offset="0" stop-color="#ffffff" stop-opacity="0.3"/>
<stop offset="1" stop-color="#ffffff"/>
</linearGradient>
<linearGradient gradientTransform="matrix(0,1,-1,0,96,0)" gradientUnits="userSpaceOnUse" id="linearGradient3960" x1="8" x2="88" y1="48" y2="48">
<stop offset="0" stop-color="#3bb553" stop-opacity="1"/>
<stop offset="1" stop-color="#3ba746" stop-opacity="1"/>
</linearGradient>
<radialGradient cx="43.398998" cy="40.0453" fx="43.398998" fy="40.0453" gradientTransform="matrix(0.99557975,0.26676479,-0.22288198,0.83180688,57.696249,-12.308776)" gradientUnits="userSpaceOnUse" r="35.1525"/>
</defs>
<path d="M 88.0 49.0 C 88.0 78.633 77.637 89.0 48.0 89.0 C 18.365 89.0 8.0 78.633 8.0 49.0 C 8.0 19.365 18.365 9.0 48.0 9.0 C 77.637 9.0 88.0 19.365 88.0 49.0 z " fill-opacity="0.4"/>
<linearGradient gradientUnits="userSpaceOnUse" x1="47.9995" x2="47.9995" y1="8" y2="88.0005">
<stop offset="0" stop-color="#4d4d4d" stop-opacity="1"/>
<stop offset="1" stop-color="#1a1a1a" stop-opacity="1"/>
</linearGradient>
<path d="M 48.0 88.0 C 18.367 88.0 8.0 77.637 8.0 48.0 C 8.0 18.365 18.367 8.0 48.0 8.0 C 77.635 8.0 88.0 18.365 88.0 48.0 C 88.0 77.637 77.635 88.0 48.0 88.0 z " fill="url(#linearGradient3960)" fill-opacity="1"/>
<rect fill="none" height="96" width="96"/>
<linearGradient gradientUnits="userSpaceOnUse" id="SVGID_2_" x1="47.9995" x2="47.9995" y1="8.2534" y2="87.4985">
<stop offset="0" stop-color="#ffffff"/>
<stop offset="1" stop-color="#ffffff" stop-opacity="0"/>
</linearGradient>
<path d="M 48.0 8.0 C 18.365 8.0 8.0 18.365 8.0 48.0 C 8.0 77.633 18.365 88.0 48.0 88.0 C 77.637 88.0 88.0 77.633 88.0 48.0 C 88.0 18.365 77.637 8.0 48.0 8.0 z M 48.0 87.0 C 18.842 87.0 9.0 77.158 9.0 48.0 C 9.0 18.842005 18.842 9.0 48.0 9.0 C 77.158005 9.0 87.0 18.842 87.0 48.0 C 87.0 77.158005 77.158 87.0 48.0 87.0 z " fill="url(#SVGID_2_)" fill-opacity="0.25" stroke-opacity="0.25"/>
<linearGradient gradientTransform="matrix(0.7071 -0.7071 0.7071 0.7071 -208.9813 3059.7412)" gradientUnits="userSpaceOnUse" x1="2309.3584" x2="2344.3584" y1="-1947.9287" y2="-1947.9287">
<stop offset="0" stop-color="#58595b"/>
<stop offset="1" stop-color="#000000"/>
</linearGradient>
<linearGradient gradientTransform="matrix(0.7071 -0.7071 0.7071 0.7071 -208.9813 3059.7412)" gradientUnits="userSpaceOnUse" x1="2309.3584" x2="2313.3604" y1="-1957.9277" y2="-1957.9277">
<stop offset="0" stop-color="#58595b"/>
<stop offset="1" stop-color="#000000"/>
</linearGradient>
<linearGradient gradientUnits="userSpaceOnUse" x1="54.292" x2="59.292" y1="10.3501" y2="38.934">
<stop offset="0" stop-color="#58595b"/>
<stop offset="1" stop-color="#000000"/>
</linearGradient>
<linearGradient gradientUnits="userSpaceOnUse" x1="32.5508" x2="42.1758" y1="12.6343" y2="45.1342">
<stop offset="0" stop-color="#58595b"/>
<stop offset="1" stop-color="#000000"/>
</linearGradient>
<linearGradient gradientUnits="userSpaceOnUse" x1="57.1484" x2="60.063" y1="35.2275" y2="38.1421">
<stop offset="0" stop-color="#ffffff"/>
<stop offset="0.7362" stop-color="#ffffff" stop-opacity="0"/>
<stop offset="1" stop-color="#ffffff" stop-opacity="0"/>
</linearGradient>
<linearGradient gradientUnits="userSpaceOnUse" x1="44.6177" x2="38.0733" y1="37.2412" y2="43.7856">
<stop offset="0" stop-color="#ffffff"/>
<stop offset="0.7362" stop-color="#ffffff" stop-opacity="0"/>
<stop offset="1" stop-color="#ffffff" stop-opacity="0"/>
</linearGradient>
<linearGradient gradientUnits="userSpaceOnUse" x1="47.9995" x2="47.9995" y1="45.5" y2="53.8766">
<stop offset="0" stop-color="#ffffff"/>
<stop offset="1" stop-color="#6d6e70"/>
</linearGradient>
<path d="M 87.90625 43.71875 L 19.84375 81.59375 C 26.166424 86.09632 35.307583 88.0 48.0 88.0 C 77.635 88.0 88.0 77.637 88.0 48.0 C 88.0 46.522575 87.95888 45.101486 87.90625 43.71875 z " fill="#3c3c3c" fill-opacity="1" stroke="none"/>
<path d="M 64.25176 67.87132 C 64.18106 67.71463 62.603966 63.764492 60.7471 59.093224 L 57.370975 50.600025 L 56.62461 50.161415 C 55.277596 49.36983 53.69087 49.003124 52.536278 49.216564 C 50.797714 49.537956 49.31592 50.802536 46.7211 54.179302 C 44.82584 56.64569 43.792526 57.664303 42.57651 58.2649 C 41.648483 58.72326 41.618374 58.729176 40.235397 58.725006 C 38.690033 58.720306 38.101856 58.558125 36.84738 57.790577 L 36.20017 57.394585 L 32.634212 48.416054 C 30.672935 43.477863 29.068022 39.364067 29.067732 39.27428 C 29.067406 39.16228 29.267168 39.22321 29.704205 39.46839 C 31.22496 40.32155 32.789444 40.690662 33.90629 40.4598 C 35.63996 40.101433 37.003155 38.946857 39.521873 35.703606 C 41.212776 33.52629 42.257145 32.392376 43.103733 31.814627 C 44.855347 30.619247 46.987297 30.552082 49.113777 31.625288 C 49.91375 32.029026 49.93623 32.03389 49.93623 31.803286 C 49.93623 31.660297 50.444523 31.447977 50.821762 31.433397 C 50.906334 31.430197 65.34532 67.56607 65.34532 67.781 C 65.34532 67.8263 65.2139 67.89643 65.05327 67.936745 C 64.89264 67.97704 64.67551 68.04294 64.57076 68.08312 C 64.4453 68.131226 64.33646 68.05902 64.25177 67.871315 z M 41.924026 58.317375 C 42.256744 58.19095 42.884018 57.834156 43.317966 57.524494 L 44.106964 56.96148 L 43.903866 56.450043 C 43.792164 56.16875 43.4769 55.38005 43.20328 54.697365 L 42.705788 53.456127 L 41.983406 53.999855 C 41.267757 54.538513 40.19891 55.02862 39.73983 55.02862 C 39.608868 55.02862 39.501717 55.09183 39.501717 55.169075 C 39.501717 55.246326 39.784027 56.038013 40.129074 56.928383 C 40.836506 58.753857 40.81635 58.738262 41.924026 58.317375 z M 39.380383 55.088142 C 39.380383 55.05416 39.080086 54.278057 38.713062 53.36349 C 38.34603 52.44892 38.04574 51.66162 38.04574 51.613934 C 38.04574 51.566242 38.359684 51.436626 38.743393 51.325893 C 39.482285 51.11265 40.010735 50.83342 40.73249 50.274857 C 40.97566 50.086674 41.20179 49.9327 41.235 49.9327 C 41.26822 49.9327 41.58252 50.65614 41.93345 51.540344 C 42.284374 52.424545 42.62277 53.202583 42.68543 53.269318 C 42.813713 53.40594 43.457413 52.73058 44.62246 51.237015 C 45.025875 50.71984 45.36751 50.296696 45.381653 50.296696 C 45.395782 50.296696 45.698174 51.033783 46.05362 51.934673 C 46.40906 52.83556 46.742374 53.572647 46.794315 53.572647 C 46.846256 53.572647 47.149017 53.231407 47.46711 52.814327 C 47.785206 52.39725 48.363976 51.72139 48.753265 51.312416 L 49.461067 50.568825 L 48.86811 49.067783 C 48.54199 48.242207 48.237476 47.46171 48.19143 47.333344 C 48.116367 47.124123 48.050358 47.155544 47.55415 47.636673 C 47.249695 47.93187 46.646496 48.62384 46.213707 49.17438 C 45.780914 49.724922 45.40823 50.175365 45.38551 50.175365 C 45.36281 50.175365 45.0335 49.380806 44.65375 48.409676 C 44.274002 47.43855 43.949028 46.660507 43.931583 46.680702 C 43.91416 46.7009 43.46372 47.263405 42.930645 47.93073 C 42.397568 48.598053 41.799862 49.29513 41.602398 49.479797 L 41.243378 49.815548 L 40.600826 48.14515 C 40.24742 47.22643 39.914143 46.426876 39.860203 46.36836 C 39.806053 46.30962 39.524975 46.4563 39.232628 46.695847 C 38.644623 47.177677 37.588837 47.706352 36.984085 47.821796 C 36.767204 47.863197 36.58976 47.93388 36.58976 47.97888 C 36.58976 48.02388 36.890057 48.808975 37.257084 49.723545 C 37.62411 50.63811 37.924404 51.414204 37.924404 51.448196 C 37.924404 51.57828 36.73126 51.501976 36.06933 51.329567 C 35.68832 51.230328 34.994358 50.956646 34.527195 50.721382 C 34.060028 50.486126 33.677803 50.31053 33.677803 50.33118 C 33.677803 50.35182 33.992596 51.157856 34.377335 52.122345 L 35.076862 53.875965 L 35.984974 54.329712 C 36.48444 54.579277 37.193386 54.862328 37.560413 54.958717 C 38.209503 55.129185 39.380383 55.21245 39.380383 55.088135 z M 56.361084 48.400738 C 56.018562 47.541637 55.67841 46.766235 55.605186 46.677612 C 55.40092 46.430397 54.455692 45.984406 53.533054 45.699905 C 52.593502 45.41019 51.327602 45.347187 51.42712 45.59509 C 51.46062 45.67851 51.77616 46.470192 52.128345 47.354397 L 52.768692 48.962036 L 53.523643 48.962036 C 54.338497 48.962036 55.48542 49.27689 56.36679 49.74254 C 56.667084 49.90119 56.928772 50.015636 56.948315 49.996864 C 56.967846 49.978096 56.7036 49.25983 56.36108 48.40073 z M 36.413116 47.8392 C 36.445225 47.75549 36.175762 46.950157 35.81428 46.04956 C 35.4528 45.148968 35.18233 44.371166 35.213238 44.321117 C 35.244156 44.27107 35.34606 44.230118 35.43972 44.230118 C 35.838028 44.230118 37.00129 43.69015 37.681103 43.189697 C 38.40548 42.656445 38.415886 42.653152 38.520264 42.92427 C 38.9681 44.087543 39.79322 46.122066 39.837173 46.171417 C 39.906273 46.24901 40.77025 45.283825 41.70934 44.079945 C 42.112125 43.56359 42.48116 43.16552 42.52941 43.195347 C 42.57766 43.22516 42.905792 43.991154 43.25859 44.897537 C 43.61138 45.80392 43.93963 46.529583 43.988026 46.510128 C 44.036415 46.490677 44.51504 45.928757 45.05162 45.261433 C 45.588203 44.594112 46.167988 43.917324 46.34003 43.75746 L 46.65284 43.466805 L 46.765793 43.75746 C 46.82791 43.917324 47.132217 44.70109 47.442013 45.499176 C 47.751812 46.297256 48.024887 46.96983 48.048843 46.993782 C 48.072784 47.017754 48.35711 46.834244 48.68065 46.58602 C 49.30064 46.110348 50.406166 45.566036 50.758663 45.5629 C 51.342957 45.5577 51.331867 45.41191 50.609764 43.605484 C 50.226917 42.647747 49.90256 41.85251 49.888973 41.838284 C 49.875404 41.824074 49.59381 41.883984 49.263256 41.971443 C 48.518803 42.16842 47.83541 42.514 47.21991 43.00473 C 46.960487 43.211563 46.714794 43.380352 46.673916 43.379818 C 46.633045 43.37942 46.30464 42.62854 45.944138 41.71151 C 45.583637 40.79448 45.268547 40.020287 45.24394 39.99108 C 45.16274 39.894703 44.10271 40.998676 43.358074 41.95515 C 42.955437 42.472324 42.58714 42.89547 42.53964 42.89547 C 42.492138 42.89547 42.161255 42.15536 41.80436 41.250782 C 41.44746 40.346203 41.12289 39.58597 41.0831 39.56138 C 41.0433 39.53677 40.620205 40.017548 40.142876 40.62974 C 39.27662 41.74075 38.4515 42.622284 38.37061 42.523186 C 38.34711 42.494366 38.0371 41.733723 37.681736 40.832836 C 37.326366 39.93195 37.02137 39.17629 37.00396 39.153587 C 36.98657 39.130886 36.681488 39.328876 36.32604 39.593563 C 35.493084 40.213825 35.220463 40.353085 34.387444 40.583847 L 33.701782 40.773792 L 34.357113 42.406578 C 34.717545 43.304607 35.012447 44.115944 35.012447 44.209538 C 35.012447 44.34705 34.858532 44.363235 34.210617 44.293846 C 33.31288 44.197704 32.463863 43.93301 31.521439 43.455452 C 31.172596 43.278675 30.887175 43.180485 30.887175 43.237244 C 30.887175 43.582016 32.152954 46.51544 32.394848 46.73126 C 33.191826 47.44232 36.242615 48.283504 36.41311 47.839195 z M 53.487637 41.184254 L 52.78751 39.437527 L 52.0356 39.039875 C 50.796715 38.384686 48.601574 37.92425 48.601574 38.319588 C 48.601574 38.405407 48.896446 39.21075 49.256844 40.109226 L 49.912113 41.742825 L 50.705517 41.823093 C 51.6913 41.922825 52.587948 42.190563 53.454834 42.644047 C 53.82186 42.836044 54.136917 42.97915 54.15496 42.962055 C 54.17298 42.944946 53.872707 42.14495 53.487637 41.18425 z M 46.76955 38.779762 C 47.009743 38.659103 47.424656 38.494244 47.691586 38.413414 C 47.958515 38.332584 48.241684 38.24634 48.320854 38.221767 C 48.416313 38.192158 48.239174 37.61285 47.794975 36.502014 C 47.426575 35.58072 47.076904 34.776814 47.01793 34.71555 C 46.76913 34.457115 45.27011 35.098633 44.136368 35.948734 L 43.772976 36.221207 L 43.107574 34.558167 C 42.741604 33.643497 42.384117 32.87578 42.313152 32.852127 C 42.192265 32.81183 40.256058 35.05437 39.872967 35.678375 C 39.71193 35.940693 39.749355 36.09258 40.35041 37.615986 C 40.70911 38.525124 41.034008 39.28838 41.072407 39.312115 C 41.110786 39.335854 41.54907 38.840923 42.04633 38.212288 C 42.962463 37.05411 43.709187 36.25638 43.787777 36.351875 C 43.823418 36.395195 44.709846 38.59351 45.093616 39.59035 C 45.199066 39.864246 45.19969 39.864098 45.766 39.431828 C 46.077763 39.19386 46.529354 38.90043 46.769547 38.77977 z M 51.270863 35.678246 C 51.270863 35.645977 50.995296 34.922535 50.658493 34.070606 C 49.96432 32.314713 49.828304 32.158436 48.517853 31.611078 C 47.695538 31.26761 45.889507 30.885994 45.749397 31.026104 C 45.714108 31.061434 45.998207 31.890095 46.380768 32.867622 L 47.07634 34.644943 L 47.80862 34.64654 C 48.573498 34.64814 50.23229 35.141605 50.792587 35.534054 C 51.078632 35.734406 51.270863 35.79235 51.270863 35.678223 z " fill="#000000"/>
<path d="M 50.189087 32.400425 C 51.364063 34.631756 55.168186 46.423935 55.60752 46.600105 C 55.60752 46.600105 52.756283 38.54584 49.9375 31.8125 C 49.9375 32.043102 49.92497 32.028736 49.125 31.625 C 48.06176 31.088398 51.206837 32.368362 50.18909 32.400425 z M 45.875 31.0 C 46.32579 30.98388 47.81172 31.324465 48.53125 31.625 C 49.8417 32.17236 49.96208 32.306606 50.65625 34.0625 C 50.993053 34.91443 51.28125 35.65523 51.28125 35.6875 C 51.28125 35.80163 51.067295 35.7316 50.78125 35.53125 C 50.22095 35.1388 48.577377 34.65785 47.8125 34.65625 L 47.0625 34.65625 L 46.375 32.875 C 45.99244 31.897472 45.71471 31.06658 45.75 31.03125 C 45.76751 31.01374 45.8106 31.0023 45.875 31.0 z M 42.3125 32.84375 C 42.38346 32.8674 42.72778 33.64783 43.09375 34.5625 L 43.78125 36.21875 L 44.125 35.9375 C 45.258743 35.0874 46.78245 34.460316 47.03125 34.71875 C 47.09022 34.78001 47.41285 35.578705 47.78125 36.5 C 48.22545 37.61084 48.40796 38.18914 48.3125 38.21875 C 48.23333 38.24332 47.95443 38.32542 47.6875 38.40625 C 47.42057 38.48708 47.021442 38.66059 46.78125 38.78125 C 46.541058 38.901913 46.093014 39.19953 45.78125 39.4375 C 45.214943 39.869774 45.1992 39.867645 45.09375 39.59375 C 44.709976 38.59691 43.81689 36.38707 43.78125 36.34375 C 43.70266 36.24825 42.947384 37.060574 42.03125 38.21875 C 41.53399 38.847385 41.10088 39.33624 41.0625 39.3125 C 41.0241 39.28877 40.70245 38.534138 40.34375 37.625 C 39.742695 36.101597 39.713963 35.949818 39.875 35.6875 C 40.25809 35.063496 42.191612 32.80345 42.3125 32.84375 z M 48.96875 38.1875 C 49.644207 38.1809 51.10209 38.539856 52.03125 39.03125 L 52.78125 39.4375 L 53.5 41.1875 C 53.88507 42.1482 54.17427 42.95164 54.15625 42.96875 C 54.13821 42.98584 53.835777 42.848248 53.46875 42.65625 C 52.601868 42.202766 51.704533 41.91223 50.71875 41.8125 L 49.90625 41.75 L 49.25 40.09375 C 48.889603 39.195274 48.59375 38.39832 48.59375 38.3125 C 48.59375 38.21367 48.7436 38.18969 48.96875 38.1875 z M 37.0 39.15625 C 37.01741 39.17895 37.33213 39.942863 37.6875 40.84375 C 38.04287 41.744637 38.3515 42.50243 38.375 42.53125 C 38.45589 42.63035 39.289993 41.736008 40.15625 40.625 C 40.63358 40.012802 41.05395 39.53789 41.09375 39.5625 C 41.13354 39.58709 41.4556 40.34542 41.8125 41.25 C 42.169395 42.15458 42.48375 42.90625 42.53125 42.90625 C 42.57875 42.90625 42.941113 42.485924 43.34375 41.96875 C 44.088387 41.012276 45.1688 39.90362 45.25 40.0 C 45.27461 40.02921 45.577 40.80172 45.9375 41.71875 C 46.298004 42.63578 46.64663 43.374603 46.6875 43.375 C 46.72837 43.375538 46.959328 43.206833 47.21875 43.0 C 47.83425 42.50927 48.505547 42.165726 49.25 41.96875 C 49.580555 41.88129 49.86143 41.82954 49.875 41.84375 C 49.88859 41.85798 50.242153 42.636013 50.625 43.59375 C 51.347107 45.400173 51.334293 45.5573 50.75 45.5625 C 50.397507 45.5656 49.30749 46.118076 48.6875 46.59375 C 48.36396 46.841972 48.08644 47.02397 48.0625 47.0 C 48.03855 46.97604 47.7473 46.29808 47.4375 45.5 C 47.127705 44.701916 46.84337 43.909863 46.78125 43.75 L 46.65625 43.46875 L 46.34375 43.75 C 46.171707 43.909863 45.599083 44.58268 45.0625 45.25 C 44.52592 45.917324 44.04839 46.48055 44.0 46.5 C 43.9516 46.51946 43.60279 45.812634 43.25 44.90625 C 42.897205 43.999866 42.5795 43.217308 42.53125 43.1875 C 42.483 43.15767 42.121536 43.577396 41.71875 44.09375 C 40.77966 45.29763 39.91285 46.23384 39.84375 46.15625 C 39.79979 46.1069 38.979088 44.100773 38.53125 42.9375 C 38.42687 42.666378 38.411877 42.654247 37.6875 43.1875 C 37.007687 43.68795 35.835808 44.21875 35.4375 44.21875 C 35.34384 44.21875 35.24967 44.26245 35.21875 44.3125 C 35.18784 44.36255 35.45102 45.161907 35.8125 46.0625 C 36.17398 46.963097 36.43836 47.76004 36.40625 47.84375 C 36.235752 48.28806 33.203228 47.429813 32.40625 46.71875 C 32.164356 46.502937 30.875 43.594772 30.875 43.25 C 30.875 43.19324 31.182407 43.29198 31.53125 43.46875 C 32.473675 43.94631 33.321014 44.18511 34.21875 44.28125 C 34.866665 44.35064 35.0 44.35626 35.0 44.21875 C 35.0 44.12515 34.70418 43.30428 34.34375 42.40625 L 33.6875 40.78125 L 34.375 40.59375 C 35.20802 40.362988 35.479546 40.214012 36.3125 39.59375 C 36.667953 39.329063 36.98261 39.13355 37.0 39.15625 z M 52.09375 45.4375 C 52.51523 45.45848 53.061474 45.54264 53.53125 45.6875 C 54.453884 45.972 55.36406 46.38944 55.568325 46.636654 C 55.641556 46.725273 56.18502 47.572575 56.527542 48.431675 C 57.02515 49.88899 56.61407 48.70816 56.908897 50.00424 C 56.027527 49.53859 54.346104 48.96875 53.53125 48.96875 C 52.253494 49.46092 52.421627 48.420464 52.125 47.34375 C 51.772816 46.459545 51.471 45.67717 51.4375 45.59375 C 51.38774 45.4698 51.67227 45.416523 52.09375 45.4375 z M 39.78125 46.375 C 39.81978 46.3658 39.86146 46.36031 39.875 46.375 C 39.92894 46.43351 40.240345 47.23753 40.59375 48.15625 L 41.25 49.8125 L 41.59375 49.46875 C 41.791214 49.284084 42.404423 48.604824 42.9375 47.9375 C 43.470573 47.27018 43.92008 46.7077 43.9375 46.6875 C 43.95495 46.6673 44.2765 47.435123 44.65625 48.40625 C 45.036 49.37738 45.3523 50.1875 45.375 50.1875 C 45.39772 50.1875 45.785957 49.73804 46.21875 49.1875 C 46.65154 48.63696 47.258045 47.920197 47.5625 47.625 C 48.05871 47.14387 48.11244 47.13453 48.1875 47.34375 C 48.23355 47.472115 48.548878 48.236923 48.875 49.0625 L 49.46875 50.5625 L 48.75 51.3125 C 48.36071 51.721474 47.786846 52.395424 47.46875 52.8125 C 47.150658 53.22958 46.83319 53.5625 46.78125 53.5625 C 46.72931 53.5625 46.417942 52.838387 46.0625 51.9375 C 45.707054 51.036613 45.38913 50.28125 45.375 50.28125 C 45.36086 50.28125 45.028416 50.732826 44.625 51.25 C 43.459953 52.743565 42.815784 53.417873 42.6875 53.28125 C 42.62484 53.21452 42.288425 52.41545 41.9375 51.53125 C 41.58657 50.647045 41.28322 49.9375 41.25 49.9375 C 41.21679 49.9375 40.961918 50.093067 40.71875 50.28125 C 39.996994 50.839813 39.48889 51.09926 38.75 51.3125 C 38.36629 51.423237 38.03125 51.57731 38.03125 51.625 C 38.03125 51.67269 38.35172 52.46043 38.71875 53.375 C 39.085777 54.289566 39.375 55.05977 39.375 55.09375 C 39.375 55.218063 38.21159 55.13922 37.5625 54.96875 C 37.195473 54.87236 36.499462 54.59331 36.0 54.34375 L 35.0625 53.875 L 34.375 52.125 C 33.990257 51.160507 33.6875 50.36439 33.6875 50.34375 C 33.6875 50.3231 34.064083 50.483494 34.53125 50.71875 C 34.998413 50.954014 35.68149 51.24451 36.0625 51.34375 C 36.72443 51.51616 37.9375 51.567585 37.9375 51.4375 C 37.9375 51.40351 37.617027 50.633316 37.25 49.71875 C 36.88297 48.80418 36.59375 48.01375 36.59375 47.96875 C 36.59375 47.92375 36.75187 47.8539 36.96875 47.8125 C 37.573498 47.69706 38.630745 47.16933 39.21875 46.6875 C 39.438007 46.50784 39.66565 46.402702 39.78125 46.375 z M 42.71875 53.46875 L 43.21875 54.6875 C 43.49237 55.370186 43.794548 56.15621 43.90625 56.4375 L 44.09375 56.96875 L 43.3125 57.53125 C 42.87855 57.84091 42.270218 58.186073 41.9375 58.3125 C 40.829823 58.733383 40.83243 58.762974 40.125 56.9375 C 39.779953 56.04713 39.5 55.2335 39.5 55.15625 C 39.5 55.07901 39.619038 55.03125 39.75 55.03125 C 40.209076 55.03125 41.2531 54.53866 41.96875 54.0 z " fill="#ebebeb" fill-opacity="1" stroke="none"/>
</svg>
