<?xml version="1.0" encoding="UTF-8"?>
<svg xmlns="http://www.w3.org/2000/svg" xmlns:xlink="http://www.w3.org/1999/xlink" baseProfile="tiny" contentScriptType="text/ecmascript" contentStyleType="text/css" height="96px" preserveAspectRatio="xMidYMid meet" version="1.1" viewBox="0 0 96 96" width="96px" x="0px" y="0px" zoomAndPan="magnify">
<defs>
<linearGradient id="linearGradient3977">
<stop offset="0" stop-color="#ffffff" stop-opacity="1"/>
<stop offset="1" stop-color="#ffffff" stop-opacity="0.78431374"/>
</linearGradient>
<linearGradient id="linearGradient3960">
<stop offset="0" stop-color="#000000" stop-opacity="1"/>
<stop offset="1" stop-color="#000000" stop-opacity="0"/>
</linearGradient>
<linearGradient>
<stop offset="0" stop-color="#ffffff" stop-opacity="1"/>
<stop offset="1" stop-color="#ffffff" stop-opacity="0.78431374"/>
</linearGradient>
<linearGradient>
<stop offset="0" stop-color="#4fd7ff" stop-opacity="1"/>
<stop offset="1" stop-color="#4fc6ff" stop-opacity="1"/>
</linearGradient>
<linearGradient gradientTransform="matrix(0,1,-1,0,96.176001,-0.038001)" gradientUnits="userSpaceOnUse" id="linearGradient3788" x1="8.107002" x2="88.107" y1="48.069" y2="48.069">
<stop offset="0" stop-color="#6f5eff" stop-opacity="1"/>
<stop offset="1" stop-color="#5d52ff" stop-opacity="1"/>
</linearGradient>
<linearGradient gradientTransform="matrix(0.81500208,0,0,0.81500208,8.7097013,8.8451829)" gradientUnits="userSpaceOnUse" x1="56.381321" x2="56.381321" y1="25.788567" y2="68.314171">
<stop offset="0" stop-color="#ffffff" stop-opacity="1"/>
<stop offset="1" stop-color="#ffffff" stop-opacity="0.78431374"/>
</linearGradient>
<linearGradient gradientTransform="matrix(0,0.81500208,-0.81500208,0,87.093342,8.814212)" gradientUnits="userSpaceOnUse" x1="56.381321" x2="56.381321" y1="25.788567" y2="68.314171">
<stop offset="0" stop-color="#4fd7ff" stop-opacity="1"/>
<stop offset="1" stop-color="#4fc6ff" stop-opacity="1"/>
</linearGradient>
<linearGradient gradientTransform="matrix(0.8083,0,0,-0.8083,-1917.4594,-2062.6724)" gradientUnits="userSpaceOnUse" x1="2391.1309" x2="2391.502" y1="-2576.4683" y2="-2594.8333">
<stop offset="0" stop-color="#0090cc"/>
<stop offset="0.3673" stop-color="#006ca3"/>
<stop offset="0.5989" stop-color="#005387"/>
<stop offset="0.7363" stop-color="#005183"/>
<stop offset="0.8641" stop-color="#004b78"/>
<stop offset="0.9878" stop-color="#004065"/>
<stop offset="1" stop-color="#003f63"/>
</linearGradient>
<radialGradient cx="2396.7373" cy="-2585.2866" gradientTransform="matrix(0.5564,0,0,-0.5629,-1318.2888,-1427.8903)" gradientUnits="userSpaceOnUse" r="36.852798">
<stop offset="0" stop-color="#fcca76"/>
<stop offset="1" stop-color="#faa61a"/>
</radialGradient>
<radialGradient cx="2396.7305" cy="-2585.2847" gradientTransform="matrix(0.5564,0,0,-0.5629,-1318.2888,-1427.8903)" gradientUnits="userSpaceOnUse" r="36.8689">
<stop offset="0" stop-color="#fcca76"/>
<stop offset="1" stop-color="#faa61a"/>
</radialGradient>
<radialGradient cx="2411.9824" cy="-2549.9307" gradientTransform="matrix(0.5564,0,0,-0.5629,-1318.2888,-1427.8903)" gradientUnits="userSpaceOnUse" r="36.906502">
<stop offset="0" stop-color="#fcca76"/>
<stop offset="1" stop-color="#faa61a"/>
</radialGradient>
<radialGradient cx="1856.9502" cy="1997.3145" fx="1859.0387" fy="1993.2506" gradientTransform="matrix(0.5564,0,0,0.5629,-1017.8494,-1099.1527)" gradientUnits="userSpaceOnUse" id="SVGID_5_" r="4.5692">
<stop offset="0" stop-color="#fcca76"/>
<stop offset="1" stop-color="#faa61a"/>
</radialGradient>
<radialGradient cx="1856.9502" cy="1997.3145" fx="1859.0387" fy="1993.2506" gradientTransform="matrix(0.5564,0,0,0.5629,-1017.8494,-1099.1527)" gradientUnits="userSpaceOnUse" id="SVGID_5_" r="4.5692">
<stop offset="0" stop-color="#fcca76"/>
<stop offset="1" stop-color="#faa61a"/>
</radialGradient>
<linearGradient gradientTransform="matrix(0.8083,0,0,-0.8083,-1917.4594,-2062.6724)" gradientUnits="userSpaceOnUse" x1="2391.1309" x2="2391.502" y1="-2576.4683" y2="-2594.8333">
<stop offset="0" stop-color="#0090cc"/>
<stop offset="0.3673" stop-color="#006ca3"/>
<stop offset="0.5989" stop-color="#005387"/>
<stop offset="0.7363" stop-color="#005183"/>
<stop offset="0.8641" stop-color="#004b78"/>
<stop offset="0.9878" stop-color="#004065"/>
<stop offset="1" stop-color="#003f63"/>
</linearGradient>
<radialGradient cx="2396.7373" cy="-2585.2866" gradientTransform="matrix(0.5564,0,0,-0.5629,-1318.2888,-1427.8903)" gradientUnits="userSpaceOnUse" r="36.852798">
<stop offset="0" stop-color="#fcca76"/>
<stop offset="1" stop-color="#faa61a"/>
</radialGradient>
<radialGradient cx="2396.7305" cy="-2585.2847" gradientTransform="matrix(0.5564,0,0,-0.5629,-1318.2888,-1427.8903)" gradientUnits="userSpaceOnUse" r="36.8689">
<stop offset="0" stop-color="#fcca76"/>
<stop offset="1" stop-color="#faa61a"/>
</radialGradient>
<radialGradient cx="2411.9824" cy="-2549.9307" gradientTransform="matrix(0.5564,0,0,-0.5629,-1318.2888,-1427.8903)" gradientUnits="userSpaceOnUse" r="36.906502">
<stop offset="0" stop-color="#fcca76"/>
<stop offset="1" stop-color="#faa61a"/>
</radialGradient>
<radialGradient cx="1856.9502" cy="1997.3145" fx="1859.0387" fy="1993.2506" gradientTransform="matrix(0.5564,0,0,0.5629,-1017.8494,-1099.1527)" gradientUnits="userSpaceOnUse" r="4.5692">
<stop offset="0" stop-color="#fcca76"/>
<stop offset="1" stop-color="#faa61a"/>
</radialGradient>
<linearGradient gradientUnits="userSpaceOnUse" id="linearGradient3960" x1="49.411733" x2="69.94673" y1="40.612677" y2="40.612677">
<stop offset="0" stop-color="#000000" stop-opacity="1"/>
<stop offset="1" stop-color="#000000" stop-opacity="0"/>
</linearGradient>
<linearGradient gradientUnits="userSpaceOnUse" id="linearGradient3960" x1="47.162725" x2="61.548878" y1="45.172368" y2="45.172368">
<stop offset="0" stop-color="#000000" stop-opacity="1"/>
<stop offset="1" stop-color="#000000" stop-opacity="0"/>
</linearGradient>
<linearGradient gradientUnits="userSpaceOnUse" id="linearGradient3960" x1="45.550056" x2="54.707165" y1="48.473669" y2="48.473669">
<stop offset="0" stop-color="#000000" stop-opacity="1"/>
<stop offset="1" stop-color="#000000" stop-opacity="0"/>
</linearGradient>
<linearGradient gradientUnits="userSpaceOnUse" id="linearGradient3960" x1="34.634476" x2="40.378095" y1="57.140244" y2="57.140244">
<stop offset="0" stop-color="#000000" stop-opacity="1"/>
<stop offset="1" stop-color="#000000" stop-opacity="0"/>
</linearGradient>
<linearGradient gradientUnits="userSpaceOnUse" id="linearGradient3960" x1="26.41921" x2="48.596371" y1="57.142499" y2="57.142499">
<stop offset="0" stop-color="#000000" stop-opacity="1"/>
<stop offset="1" stop-color="#000000" stop-opacity="0"/>
</linearGradient>
<linearGradient gradientTransform="translate(-0.0683776,1.3741303)" gradientUnits="userSpaceOnUse" id="linearGradient3983" x1="48.270657" x2="48.270657" y1="68.112556" y2="27.307596">
<stop offset="0" stop-color="#ffffff" stop-opacity="1"/>
<stop offset="1" stop-color="#ffffff" stop-opacity="0.78431374"/>
</linearGradient>
</defs>
<path d="M 88.107 49.046 C 88.107 78.681 77.744 89.046005 48.107 89.046005 C 18.472002 89.046005 8.107002 78.68101 8.107002 49.046005 C 8.107002 19.413006 18.472002 9.046005 48.107 9.046005 C 77.744 9.046 88.107 19.412 88.107 49.046 z " fill-opacity="0.4"/>
<rect fill="none" height="96" width="96" x="0.107" y="0.069"/>
<linearGradient gradientTransform="matrix(1 0 0 -1 -1433.1973 -2438.3027)" gradientUnits="userSpaceOnUse" x1="1481.3047" x2="1481.3047" y1="-2454.2925" y2="-2522.6479">
<stop offset="0" stop-color="#5ae6ff"/>
<stop offset="0.0038" stop-color="#5ae6ff"/>
<stop offset="1" stop-color="#23b7ff"/>
</linearGradient>
<path d="M 48.107 88.069 C 18.474005 88.069 8.106998 77.706 8.106998 48.069 C 8.106998 18.434 18.474 8.069 48.107 8.069 C 77.741 8.069 88.106995 18.434 88.106995 48.069 C 88.106995 77.70599 77.74 88.069 48.106995 88.069 z " fill="url(#linearGradient3788)" fill-opacity="1"/>
<linearGradient gradientTransform="matrix(1 0 0 -1 -1433.1973 -2438.3027)" gradientUnits="userSpaceOnUse" id="SVGID_2_" x1="1481.2578" x2="1481.2578" y1="-2446.6206" y2="-2525.8662">
<stop offset="0" stop-color="#ffffff"/>
<stop offset="1" stop-color="#ffffff" stop-opacity="0"/>
</linearGradient>
<path d="M 48.06 8.069 C 18.425 8.069 8.061001 18.435 8.061001 48.069 C 8.061001 77.702 18.425 88.069 48.06 88.069 C 77.697 88.069 88.06 77.702 88.06 48.069 C 88.061 18.436 77.697 8.069 48.06 8.069 z M 48.06 87.069 C 18.902 87.069 9.061001 77.227 9.061001 48.069 C 9.061001 18.911003 18.902 9.069 48.06 9.069 C 77.219 9.069 87.06 18.911 87.06 48.069 C 87.06 77.227005 77.219 87.069 48.06 87.069 z " fill="url(#SVGID_2_)" fill-opacity="0.25"/>
<path d="M 50.58787 28.49913 L 49.33787 32.71788 C 53.64634 34.25232 57.85309 38.04178 60.02537 40.84288 C 62.621883 44.17803 65.960815 50.39671 65.462875 55.46788 L 69.837875 55.46788 C 70.23201 49.674618 67.54419 42.732227 63.462875 37.68663 C 60.505318 34.020523 55.6771 30.156927 50.587875 28.49913 z M 47.994125 37.40538 L 47.087875 40.34288 C 50.200382 41.289116 53.139324 43.98029 54.712875 45.99913 C 56.429344 48.21354 58.647568 52.274757 58.494125 55.68663 L 61.462875 55.65538 C 61.652424 51.724506 59.84084 47.217484 57.087875 43.81163 C 55.00435 41.230164 51.59404 38.49754 47.994125 37.40538 z M 46.025375 43.84288 L 45.494125 45.71788 C 47.499428 46.325638 49.25994 48.04312 50.275375 49.34288 C 51.42019 50.82166 52.923485 53.601395 52.712875 55.84288 L 54.619125 55.81163 C 54.814693 53.224144 53.632908 50.225914 51.806625 47.96788 C 50.481293 46.323624 48.313496 44.563465 46.025375 43.84288 z M 37.431625 47.43663 C 31.230686 47.43663 26.337875 52.35686 26.337875 58.49913 C 26.337875 64.64291 31.229181 69.59288 37.431625 69.59288 C 43.63257 69.59288 48.525375 64.64441 48.525375 58.49913 C 48.525375 52.356857 43.635574 47.43663 37.431625 47.43663 z M 37.431625 51.15538 C 41.658855 51.15538 44.306625 54.222256 44.306625 58.49913 C 44.306625 62.771492 41.655846 65.87413 37.431625 65.87413 C 33.207405 65.87413 30.589375 62.771492 30.587875 58.49913 C 30.587875 54.225266 33.208908 51.15538 37.431625 51.15538 z M 37.431625 55.59288 C 35.8671 55.59288 34.556625 56.946297 34.556625 58.53038 C 34.556625 60.111458 35.865593 61.43663 37.431625 61.43663 C 39.00217 61.43663 40.306625 60.10995 40.306625 58.53038 C 40.306625 56.943287 39.00217 55.59288 37.431625 55.59288 z " fill="url(#linearGradient3983)" fill-opacity="1"/>
</svg>
