<?xml version="1.0" encoding="UTF-8"?>
<svg xmlns="http://www.w3.org/2000/svg" xmlns:xlink="http://www.w3.org/1999/xlink" baseProfile="tiny" contentScriptType="text/ecmascript" contentStyleType="text/css" height="96px" preserveAspectRatio="xMidYMid meet" version="1.1" viewBox="0 0 96 96" width="96px" x="0px" y="0px" zoomAndPan="magnify">
<defs>
<linearGradient>
<stop offset="0" stop-color="#ffffff" stop-opacity="1"/>
<stop offset="1" stop-color="#ffffff" stop-opacity="0.78431374"/>
</linearGradient>
<linearGradient>
<stop offset="0" stop-color="#ffffff" stop-opacity="1"/>
<stop offset="1" stop-color="#ffffff" stop-opacity="0.78431374"/>
</linearGradient>
<linearGradient>
<stop offset="0" stop-color="#000000" stop-opacity="1"/>
<stop offset="1" stop-color="#000000" stop-opacity="0"/>
</linearGradient>
<linearGradient xlink:actuate="onLoad" xlink:show="other" xlink:type="simple">
<stop offset="0" stop-color="#ffffff" stop-opacity="1"/>
<stop offset="1" stop-color="#ffffff" stop-opacity="0.78431374"/>
</linearGradient>
<linearGradient xlink:actuate="onLoad" xlink:show="other" xlink:type="simple">
<stop offset="0" stop-color="#1ac7ea" stop-opacity="1"/>
<stop offset="1" stop-color="#1ab7ea" stop-opacity="1"/>
</linearGradient>
<linearGradient xlink:actuate="onLoad" xlink:show="other" xlink:type="simple">
<stop offset="0" stop-color="#ffffff" stop-opacity="1"/>
<stop offset="1" stop-color="#ffffff" stop-opacity="0.78431374"/>
</linearGradient>
<linearGradient xlink:actuate="onLoad" xlink:show="other" xlink:type="simple">
<stop offset="0" stop-color="#289bf7" stop-opacity="1"/>
<stop offset="1" stop-color="#2888f7" stop-opacity="1"/>
</linearGradient>
<linearGradient xlink:actuate="onLoad" xlink:show="other" xlink:type="simple">
<stop offset="0" stop-color="#d5f6ff" stop-opacity="1"/>
<stop offset="1" stop-color="#0088aa" stop-opacity="1"/>
</linearGradient>
<linearGradient gradientTransform="matrix(1.0515857,0,0,1.01708,-253.45339,-715.60427)" gradientUnits="userSpaceOnUse" x1="254.83009" x2="358.8096" xlink:actuate="onLoad" xlink:show="other" xlink:type="simple" y1="763.97272" y2="763.97272">
<stop offset="0" stop-color="#f7f8f9"/>
<stop offset="1" stop-color="#d0d1d2"/>
</linearGradient>
<linearGradient gradientTransform="matrix(0.7261569,0,0,0.74770351,-174.61605,-527.27145)" gradientUnits="userSpaceOnUse" x1="254.83009" x2="358.8096" xlink:actuate="onLoad" xlink:show="other" xlink:type="simple" y1="763.97272" y2="763.97272">
<stop offset="0" stop-color="#f7f8f9"/>
<stop offset="1" stop-color="#d0d1d2"/>
</linearGradient>
<linearGradient gradientTransform="matrix(1,0,0,-1,-1.3115644,98.868328)" gradientUnits="userSpaceOnUse" x1="61.075901" x2="34.694302" xlink:actuate="onLoad" xlink:show="other" xlink:type="simple" y1="57.299801" y2="41.540901">
<stop offset="0" stop-color="#ffffff"/>
<stop offset="1" stop-color="#ffffff" stop-opacity="0.2"/>
</linearGradient>
<linearGradient gradientTransform="matrix(1,0,0,-1,1.0534719,96.841079)" gradientUnits="userSpaceOnUse" x1="61.075901" x2="34.694302" xlink:actuate="onLoad" xlink:show="other" xlink:type="simple" y1="57.299801" y2="41.540901">
<stop offset="0" stop-color="#ffffff"/>
<stop offset="1" stop-color="#ffffff" stop-opacity="0.2"/>
</linearGradient>
<linearGradient gradientTransform="matrix(1,0,0,-1,-2.4150126,95.9258)" gradientUnits="userSpaceOnUse" x1="34.720501" x2="60.039902" xlink:actuate="onLoad" xlink:show="other" xlink:type="simple" y1="56.8027" y2="41.976002">
<stop offset="0" stop-color="#ffffff"/>
<stop offset="1" stop-color="#ffffff" stop-opacity="0.2"/>
</linearGradient>
<linearGradient gradientTransform="matrix(1,0,0,-1,-2.5350845,97.20939)" gradientUnits="userSpaceOnUse" x1="34.720501" x2="60.039902" xlink:actuate="onLoad" xlink:show="other" xlink:type="simple" y1="56.8027" y2="41.976002">
<stop offset="0" stop-color="#ffffff"/>
<stop offset="1" stop-color="#ffffff" stop-opacity="0.2"/>
</linearGradient>
<linearGradient gradientTransform="matrix(1,0,0,-1,0.1597,95.9258)" gradientUnits="userSpaceOnUse" x1="63.148201" x2="61.403599" xlink:actuate="onLoad" xlink:show="other" xlink:type="simple" y1="26.3545" y2="22.778099">
<stop offset="0" stop-color="#ffffff"/>
<stop offset="1" stop-color="#a3a3a3"/>
</linearGradient>
<linearGradient gradientTransform="matrix(1,0,0,-1,0.1597,95.9258)" gradientUnits="userSpaceOnUse" x1="63.148201" x2="61.403599" xlink:actuate="onLoad" xlink:show="other" xlink:type="simple" y1="26.3545" y2="22.778099">
<stop offset="0" stop-color="#ffffff"/>
<stop offset="1" stop-color="#a3a3a3"/>
</linearGradient>
<linearGradient gradientTransform="matrix(1,0,0,-1,0.1597,95.9258)" gradientUnits="userSpaceOnUse" x1="62.543701" x2="64.113503" xlink:actuate="onLoad" xlink:show="other" xlink:type="simple" y1="40.8223" y2="37.072102">
<stop offset="0" stop-color="#ffffff"/>
<stop offset="1" stop-color="#a3a3a3"/>
</linearGradient>
<linearGradient gradientTransform="matrix(1,0,0,-1,0.1597,95.9258)" gradientUnits="userSpaceOnUse" x1="62.543701" x2="64.113503" xlink:actuate="onLoad" xlink:show="other" xlink:type="simple" y1="40.8223" y2="37.072102">
<stop offset="0" stop-color="#ffffff"/>
<stop offset="1" stop-color="#a3a3a3"/>
</linearGradient>
<linearGradient gradientTransform="matrix(1,0,0,-1,0.1597,95.9258)" gradientUnits="userSpaceOnUse" x1="45.003201" x2="45.003201" xlink:actuate="onLoad" xlink:show="other" xlink:type="simple" y1="40.209" y2="23.3596">
<stop offset="0" stop-color="#c2de91"/>
<stop offset="1" stop-color="#7b9e56"/>
</linearGradient>
<linearGradient gradientTransform="matrix(1,0,0,-1,0.1597,95.9258)" gradientUnits="userSpaceOnUse" x1="45.003201" x2="45.003201" xlink:actuate="onLoad" xlink:show="other" xlink:type="simple" y1="40.209" y2="23.3596">
<stop offset="0" stop-color="#c2de91"/>
<stop offset="1" stop-color="#7b9e56"/>
</linearGradient>
<linearGradient gradientTransform="matrix(1,0,0,-1,0.1597,95.9258)" gradientUnits="userSpaceOnUse" x1="45.003201" x2="45.003201" xlink:actuate="onLoad" xlink:show="other" xlink:type="simple" y1="40.209" y2="23.3596">
<stop offset="0" stop-color="#c2de91"/>
<stop offset="1" stop-color="#7b9e56"/>
</linearGradient>
<linearGradient gradientTransform="matrix(1,0,0,-1,0.1597,95.9258)" gradientUnits="userSpaceOnUse" x1="45.003201" x2="45.003201" xlink:actuate="onLoad" xlink:show="other" xlink:type="simple" y1="40.209" y2="23.3596">
<stop offset="0" stop-color="#c2de91"/>
<stop offset="1" stop-color="#7b9e56"/>
</linearGradient>
<linearGradient gradientTransform="matrix(1,0,0,-1,0.1597,95.9258)" gradientUnits="userSpaceOnUse" x1="45.003201" x2="45.003201" xlink:actuate="onLoad" xlink:show="other" xlink:type="simple" y1="40.209" y2="23.3596">
<stop offset="0" stop-color="#c2de91"/>
<stop offset="1" stop-color="#7b9e56"/>
</linearGradient>
<linearGradient gradientTransform="matrix(1,0,0,-1,0.1597,95.9258)" gradientUnits="userSpaceOnUse" x1="45.003201" x2="45.003201" xlink:actuate="onLoad" xlink:show="other" xlink:type="simple" y1="40.209" y2="23.3596">
<stop offset="0" stop-color="#c2de91"/>
<stop offset="1" stop-color="#7b9e56"/>
</linearGradient>
<linearGradient gradientTransform="matrix(1,0,0,-1,8.6194701,63.557984)" gradientUnits="userSpaceOnUse" x1="82.677498" x2="82.677498" xlink:actuate="onLoad" xlink:show="other" xlink:type="simple" y1="37.415001" y2="54.1577">
<stop offset="0" stop-color="#ffffff" stop-opacity="0.3"/>
<stop offset="1" stop-color="#ffffff"/>
</linearGradient>
<linearGradient gradientTransform="matrix(1,0,0,-1,-53.620329,92.86676)" gradientUnits="userSpaceOnUse" x1="82.677498" x2="82.677498" xlink:actuate="onLoad" xlink:show="other" xlink:type="simple" y1="37.415001" y2="54.1577">
<stop offset="0" stop-color="#ffffff" stop-opacity="0.3"/>
<stop offset="1" stop-color="#ffffff"/>
</linearGradient>
<linearGradient gradientTransform="matrix(1,0,0,-1,8.6194701,63.557984)" gradientUnits="userSpaceOnUse" x1="82.677498" x2="82.677498" xlink:actuate="onLoad" xlink:show="other" xlink:type="simple" y1="37.415001" y2="54.1577">
<stop offset="0" stop-color="#ffffff" stop-opacity="0.3"/>
<stop offset="1" stop-color="#ffffff"/>
</linearGradient>
<linearGradient gradientTransform="matrix(1,0,0,-1,-15.367455,78.154116)" gradientUnits="userSpaceOnUse" x1="82.677498" x2="82.677498" xlink:actuate="onLoad" xlink:show="other" xlink:type="simple" y1="37.415001" y2="54.1577">
<stop offset="0" stop-color="#ffffff" stop-opacity="0.3"/>
<stop offset="1" stop-color="#ffffff"/>
</linearGradient>
<linearGradient gradientTransform="matrix(1,0,0,-1,8.6194701,63.557984)" gradientUnits="userSpaceOnUse" x1="82.677498" x2="82.677498" xlink:actuate="onLoad" xlink:show="other" xlink:type="simple" y1="37.415001" y2="54.1577">
<stop offset="0" stop-color="#ffffff" stop-opacity="0.3"/>
<stop offset="1" stop-color="#ffffff"/>
</linearGradient>
<linearGradient gradientTransform="matrix(1,0,0,-1,-18.309984,107.94722)" gradientUnits="userSpaceOnUse" x1="82.677498" x2="82.677498" xlink:actuate="onLoad" xlink:show="other" xlink:type="simple" y1="37.415001" y2="54.1577">
<stop offset="0" stop-color="#ffffff" stop-opacity="0.3"/>
<stop offset="1" stop-color="#ffffff"/>
</linearGradient>
<linearGradient gradientTransform="matrix(1,0,0,1.0147106,0,-1.118872)" gradientUnits="userSpaceOnUse" x1="25.749846" x2="83.267105" xlink:actuate="onLoad" xlink:show="other" xlink:type="simple" y1="23.186441" y2="82.169495">
<stop offset="0" stop-color="#d5f6ff" stop-opacity="1"/>
<stop offset="1" stop-color="#0088aa" stop-opacity="1"/>
</linearGradient>
<linearGradient gradientTransform="matrix(1,0,0,-1,-111.07647,38.974359)" gradientUnits="userSpaceOnUse" x1="167.8877" x2="206.12601" xlink:actuate="onLoad" xlink:show="other" xlink:type="simple" y1="-45.7896" y2="-7.5511999">
<stop offset="0" stop-color="#ffffff"/>
<stop offset="1" stop-color="#e6e6e6"/>
</linearGradient>
<linearGradient gradientTransform="matrix(0.7653472,0,0,-0.76412837,-94.891385,27.599019)" gradientUnits="userSpaceOnUse" x1="167.8877" x2="206.12601" xlink:actuate="onLoad" xlink:show="other" xlink:type="simple" y1="-45.7896" y2="-7.5511999">
<stop offset="0" stop-color="#ffffff"/>
<stop offset="1" stop-color="#e6e6e6"/>
</linearGradient>
<linearGradient gradientTransform="matrix(0.625,0,0,0.625,-548.0625,-704.9375)" gradientUnits="userSpaceOnUse" x1="910.82812" x2="910.82812" xlink:actuate="onLoad" xlink:show="other" xlink:type="simple" y1="1138.2363" y2="1186.5941">
<stop offset="0" stop-color="#ffffff"/>
<stop offset="1" stop-color="#bbbbbb"/>
</linearGradient>
<linearGradient gradientTransform="matrix(0.625,0,0,0.625,-548.0625,-704.9375)" gradientUnits="userSpaceOnUse" x1="910.82812" x2="910.82812" xlink:actuate="onLoad" xlink:show="other" xlink:type="simple" y1="1138.2363" y2="1186.5941">
<stop offset="0" stop-color="#ffffff"/>
<stop offset="1" stop-color="#bbbbbb"/>
</linearGradient>
<linearGradient gradientTransform="matrix(0,1,-1,0,96,0)" gradientUnits="userSpaceOnUse" x1="8" x2="88" xlink:actuate="onLoad" xlink:show="other" xlink:type="simple" y1="48" y2="48">
<stop offset="0" stop-color="#289bf7" stop-opacity="1"/>
<stop offset="1" stop-color="#2888f7" stop-opacity="1"/>
</linearGradient>
<linearGradient gradientUnits="userSpaceOnUse" x1="49.441372" x2="49.441372" xlink:actuate="onLoad" xlink:show="other" xlink:type="simple" y1="27.141659" y2="69.860657">
<stop offset="0" stop-color="#ffffff" stop-opacity="1"/>
<stop offset="1" stop-color="#ffffff" stop-opacity="0.78431374"/>
</linearGradient>
<linearGradient gradientTransform="matrix(0,1,-1,0,96,0)" gradientUnits="userSpaceOnUse" id="linearGradient4025" x1="8" x2="88" xlink:actuate="onLoad" xlink:show="other" xlink:type="simple" y1="48" y2="48">
<stop offset="0" stop-color="#f5e152" stop-opacity="1"/>
<stop offset="1" stop-color="#f5c352" stop-opacity="1"/>
</linearGradient>
<linearGradient gradientUnits="userSpaceOnUse" x1="-15.544" x2="0.007512426" xlink:actuate="onLoad" xlink:show="other" xlink:type="simple" y1="-3.6151117" y2="-3.6151117">
<stop offset="0" stop-color="#ffffff" stop-opacity="1"/>
<stop offset="1" stop-color="#ffffff" stop-opacity="0.78431374"/>
</linearGradient>
<linearGradient gradientUnits="userSpaceOnUse" x1="-15.544" x2="0.007512426" xlink:actuate="onLoad" xlink:show="other" xlink:type="simple" y1="-3.6151117" y2="-3.6151117">
<stop offset="0" stop-color="#ffffff" stop-opacity="1"/>
<stop offset="1" stop-color="#ffffff" stop-opacity="0.78431374"/>
</linearGradient>
<linearGradient gradientTransform="matrix(3.2151214,0,0,-3.2151214,72.975847,37.376978)" gradientUnits="userSpaceOnUse" x1="-11.018427" x2="-11.018427" xlink:actuate="onLoad" xlink:show="other" xlink:type="simple" y1="2.8903997" y2="-10.325421">
<stop offset="0" stop-color="#ffffff" stop-opacity="1"/>
<stop offset="1" stop-color="#ffffff" stop-opacity="0.78431374"/>
</linearGradient>
<linearGradient gradientUnits="userSpaceOnUse" x1="37.524536" x2="37.524536" y1="32.596294" y2="66.091621">
<stop offset="0" stop-color="#ffffff" stop-opacity="1"/>
<stop offset="1" stop-color="#ffffff" stop-opacity="0.78431374"/>
</linearGradient>
<linearGradient gradientTransform="matrix(0,1,-1,0,97.625,0.8125)" gradientUnits="userSpaceOnUse" x1="16.40625" x2="80.40625" y1="49.21875" y2="49.21875">
<stop offset="0" stop-color="#ffffff" stop-opacity="1"/>
<stop offset="1" stop-color="#ffffff" stop-opacity="0.78431374"/>
</linearGradient>
<linearGradient gradientTransform="matrix(0.78113488,0,0,1,-21.786308,6.2033898)" gradientUnits="userSpaceOnUse" x1="95.677963" x2="95.677963" y1="23.59322" y2="71.698364">
<stop offset="0" stop-color="#ffffff" stop-opacity="1"/>
<stop offset="1" stop-color="#ffffff" stop-opacity="0.78431374"/>
</linearGradient>
<linearGradient gradientTransform="matrix(0.78113488,0,0,1,-27.141504,-4.5932199)" gradientUnits="userSpaceOnUse" x1="95.677963" x2="95.677963" y1="23.59322" y2="71.698364">
<stop offset="0" stop-color="#ffffff" stop-opacity="1"/>
<stop offset="1" stop-color="#ffffff" stop-opacity="0.78431374"/>
</linearGradient>
<linearGradient gradientTransform="matrix(0.78113488,0,0,1,-21.786308,6.2033898)" gradientUnits="userSpaceOnUse" x1="95.677963" x2="95.677963" y1="23.59322" y2="71.698364">
<stop offset="0" stop-color="#ffffff" stop-opacity="1"/>
<stop offset="1" stop-color="#ffffff" stop-opacity="0.78431374"/>
</linearGradient>
<linearGradient gradientTransform="matrix(0.78113488,0,0,1,-27.141504,-4.5932199)" gradientUnits="userSpaceOnUse" x1="95.677963" x2="95.677963" y1="23.59322" y2="71.698364">
<stop offset="0" stop-color="#ffffff" stop-opacity="1"/>
<stop offset="1" stop-color="#ffffff" stop-opacity="0.78431374"/>
</linearGradient>
<linearGradient gradientTransform="matrix(0,1.4717241,-1.4717241,0,120.36827,-65.206177)" gradientUnits="userSpaceOnUse" x1="64.420784" x2="89.420792" y1="49.17244" y2="49.17244">
<stop offset="0" stop-color="#ffffff" stop-opacity="1"/>
<stop offset="1" stop-color="#ffffff" stop-opacity="0.78431374"/>
</linearGradient>
<linearGradient gradientUnits="userSpaceOnUse" x1="48.898232" x2="48.898232" y1="8.9180031" y2="81.834465">
<stop offset="0" stop-color="#a6e1f4" stop-opacity="1"/>
<stop offset="1" stop-color="#a7e1f4" stop-opacity="1"/>
</linearGradient>
<linearGradient gradientUnits="userSpaceOnUse" x1="47.457626" x2="47.457626" y1="8.8591671" y2="62.151615">
<stop offset="0" stop-color="#62d5fa" stop-opacity="1"/>
<stop offset="1" stop-color="#1dc2f8" stop-opacity="1"/>
</linearGradient>
<linearGradient gradientUnits="userSpaceOnUse" x1="47.457626" x2="47.457626" y1="8.8591671" y2="62.151615">
<stop offset="0" stop-color="#62d5fa" stop-opacity="1"/>
<stop offset="1" stop-color="#1dc2f8" stop-opacity="1"/>
</linearGradient>
<linearGradient gradientTransform="matrix(0.55440577,0,0,0.53747539,20.929404,21.092637)" gradientUnits="userSpaceOnUse" id="linearGradient4149" x1="47.457626" x2="47.457626" y1="8.8591671" y2="62.151615">
<stop offset="0" stop-color="#62d5fa" stop-opacity="1"/>
<stop offset="1" stop-color="#1dc2f8" stop-opacity="1"/>
</linearGradient>
<linearGradient gradientTransform="matrix(0.55440577,0,0,0.53747539,20.929404,21.092637)" gradientUnits="userSpaceOnUse" id="linearGradient4158" x1="48.898232" x2="48.898232" y1="8.9180031" y2="81.834465">
<stop offset="0" stop-color="#a6e1f4" stop-opacity="1"/>
<stop offset="1" stop-color="#a7e1f4" stop-opacity="1"/>
</linearGradient>
</defs>
<path d="M 88.0 49.0 C 88.0 78.633 77.637 89.0 48.0 89.0 C 18.365 89.0 8.0 78.633 8.0 49.0 C 8.0 19.365 18.365 9.0 48.0 9.0 C 77.637 9.0 88.0 19.365 88.0 49.0 z " fill-opacity="0.4"/>
<linearGradient gradientUnits="userSpaceOnUse" x1="47.9995" x2="47.9995" xlink:actuate="onLoad" xlink:show="other" xlink:type="simple" y1="8" y2="88.0005">
<stop offset="0" stop-color="#00aad4" stop-opacity="1"/>
<stop offset="1" stop-color="#2ad4ff" stop-opacity="1"/>
</linearGradient>
<path d="M 8.0 48.0 C 8.0 18.367 18.363 8.0 48.0 8.0 C 77.635 8.0 88.0 18.367 88.0 48.0 C 88.0 77.635 77.635 88.0 48.0 88.0 C 18.363 88.0 8.0 77.635 8.0 48.0 z " fill="url(#linearGradient4025)" fill-opacity="1"/>
<rect fill="none" height="96" width="96"/>
<linearGradient gradientUnits="userSpaceOnUse" id="SVGID_2_" x1="47.9995" x2="47.9995" xlink:actuate="onLoad" xlink:show="other" xlink:type="simple" y1="8.2534" y2="87.4985">
<stop offset="0" stop-color="#ffffff"/>
<stop offset="1" stop-color="#ffffff" stop-opacity="0"/>
</linearGradient>
<path d="M 48.0 8.0 C 18.365 8.0 8.0 18.365 8.0 48.0 C 8.0 77.633 18.365 88.0 48.0 88.0 C 77.637 88.0 88.0 77.633 88.0 48.0 C 88.0 18.365 77.637 8.0 48.0 8.0 z M 48.0 87.0 C 18.842 87.0 9.0 77.158 9.0 48.0 C 9.0 18.842005 18.842 9.0 48.0 9.0 C 77.158005 9.0 87.0 18.842 87.0 48.0 C 87.0 77.158005 77.158 87.0 48.0 87.0 z " fill="url(#SVGID_2_)" fill-opacity="0.25" stroke-opacity="0.25"/>
<linearGradient gradientTransform="matrix(0.7071 -0.7071 0.7071 0.7071 -208.9813 3059.7412)" gradientUnits="userSpaceOnUse" x1="2309.3584" x2="2344.3584" xlink:actuate="onLoad" xlink:show="other" xlink:type="simple" y1="-1947.9287" y2="-1947.9287">
<stop offset="0" stop-color="#58595b"/>
<stop offset="1" stop-color="#000000"/>
</linearGradient>
<linearGradient gradientTransform="matrix(0.7071 -0.7071 0.7071 0.7071 -208.9813 3059.7412)" gradientUnits="userSpaceOnUse" x1="2309.3584" x2="2313.3604" xlink:actuate="onLoad" xlink:show="other" xlink:type="simple" y1="-1957.9277" y2="-1957.9277">
<stop offset="0" stop-color="#58595b"/>
<stop offset="1" stop-color="#000000"/>
</linearGradient>
<linearGradient gradientUnits="userSpaceOnUse" x1="54.292" x2="59.292" xlink:actuate="onLoad" xlink:show="other" xlink:type="simple" y1="10.3501" y2="38.934">
<stop offset="0" stop-color="#58595b"/>
<stop offset="1" stop-color="#000000"/>
</linearGradient>
<linearGradient gradientUnits="userSpaceOnUse" x1="32.5508" x2="42.1758" xlink:actuate="onLoad" xlink:show="other" xlink:type="simple" y1="12.6343" y2="45.1342">
<stop offset="0" stop-color="#58595b"/>
<stop offset="1" stop-color="#000000"/>
</linearGradient>
<linearGradient gradientUnits="userSpaceOnUse" x1="57.1484" x2="60.063" xlink:actuate="onLoad" xlink:show="other" xlink:type="simple" y1="35.2275" y2="38.1421">
<stop offset="0" stop-color="#ffffff"/>
<stop offset="0.7362" stop-color="#ffffff" stop-opacity="0"/>
<stop offset="1" stop-color="#ffffff" stop-opacity="0"/>
</linearGradient>
<linearGradient gradientUnits="userSpaceOnUse" x1="44.6177" x2="38.0733" xlink:actuate="onLoad" xlink:show="other" xlink:type="simple" y1="37.2412" y2="43.7856">
<stop offset="0" stop-color="#ffffff"/>
<stop offset="0.7362" stop-color="#ffffff" stop-opacity="0"/>
<stop offset="1" stop-color="#ffffff" stop-opacity="0"/>
</linearGradient>
<linearGradient gradientUnits="userSpaceOnUse" x1="47.9995" x2="47.9995" xlink:actuate="onLoad" xlink:show="other" xlink:type="simple" y1="45.5" y2="53.8766">
<stop offset="0" stop-color="#ffffff"/>
<stop offset="1" stop-color="#6d6e70"/>
</linearGradient>
<path color="#000000" d="M 19.98322 29.322931 C 19.98322 42.13885 19.98322 54.95477 19.98322 67.77069 C 38.66107 67.77069 57.33893 67.77069 76.01678 67.77069 C 76.01678 54.59023 76.01678 41.409775 76.01678 28.229317 C 57.33893 28.229317 38.66107 28.229317 19.98323 28.229317 L 19.98323 28.77613 L 19.98323 29.322945 z " display="inline" fill="#ffffff" fill-opacity="1" fill-rule="nonzero" stroke="#dadada" stroke-opacity="0.26595746" stroke-width="0.54587495" visibility="visible"/>
<path color="#000000" d="M 21.567274 29.634836 L 74.430725 29.634836 L 74.430725 66.35177 L 21.567272 66.35177 z " display="inline" fill="url(#linearGradient4158)" fill-opacity="1" fill-rule="nonzero" stroke="none" visibility="visible"/>
<path d="M 66.644966 47.28419 C 65.69506 47.28419 65.18981 47.27969 64.75258 47.395695 C 64.31371 47.510536 62.92416 48.03824 62.559128 48.096573 C 62.194096 48.154903 61.380096 48.0399 60.43019 48.44701 C 59.481937 48.8529 58.111423 49.02584 57.16152 49.08417 C 56.21162 49.1425 55.039993 49.600117 54.236923 49.832836 C 53.433033 50.06434 52.107983 50.5815 52.107983 50.5815 C 52.107983 50.5815 49.335445 51.346928 48.02215 51.521313 C 46.70639 51.6957 44.22012 52.100975 43.635246 52.333694 C 43.26037 52.481953 42.13765 52.943176 41.570824 53.225723 C 39.89577 54.0612 35.604145 57.566875 32.90455 60.361935 L 74.42956 60.361935 L 74.42956 49.880627 C 73.32774 49.71794 71.8403 49.478916 71.2469 49.24346 C 70.37083 48.8959 69.50504 48.494797 69.50504 48.494797 C 69.50504 48.494797 68.61145 48.090355 68.17177 47.857635 C 67.73456 47.626133 67.593216 47.28419 66.64496 47.28419 z " fill="#498800" fill-opacity="1"/>
<path d="M 22.696571 51.67349 C 22.311234 51.723217 21.942554 51.783848 21.570436 51.842983 L 21.570436 66.35814 L 74.42956 66.35814 L 74.42956 60.14836 C 72.17578 60.017216 66.46827 59.86164 66.00952 59.778557 C 65.17217 59.628548 62.445976 58.777615 61.539627 58.57666 C 60.63328 58.374767 59.587013 58.12305 58.61167 57.82163 C 57.636333 57.519257 56.951912 57.313766 56.53265 57.11282 C 56.11456 56.910927 54.997585 56.81597 53.881897 56.66596 C 52.996193 56.546143 48.200977 55.702137 45.60046 55.15589 C 44.92645 55.01485 44.399666 54.88404 44.12782 54.801487 C 42.803383 54.398647 38.96892 53.84677 38.271908 53.645824 C 37.5749 53.44393 37.01002 53.34661 36.452766 53.245193 C 35.89551 53.14471 34.98382 53.09582 34.217815 53.044876 C 33.450634 52.994408 31.35916 53.091103 31.35916 53.091103 C 31.35916 53.091103 27.244926 52.19064 25.711151 51.889217 C 24.825443 51.71515 23.565178 51.67632 22.696571 51.673492 z " fill="#498800" fill-opacity="1"/>
<path d="M 21.570436 50.45931 L 21.570436 57.49709 C 45.95503 53.634068 54.258987 61.208035 72.74902 60.058685 C 72.786606 59.987404 73.69554 59.91717 74.429565 59.84742 L 74.429565 59.583336 C 73.16918 59.45236 71.15998 59.32159 70.68732 59.240032 C 69.73651 59.07775 66.6402 58.150227 65.611046 57.932827 C 64.58189 57.714417 63.39211 57.440266 62.284607 57.114178 C 61.177113 56.787064 60.38713 56.565727 59.91106 56.348335 C 59.43632 56.12992 58.180664 56.022068 56.913803 55.859787 C 55.90809 55.730164 50.459103 54.813423 47.50623 54.22248 C 46.74089 54.069897 46.134365 53.94207 45.825687 53.852764 C 44.321796 53.41696 39.96427 52.81577 39.172817 52.598373 C 38.381367 52.37996 37.761204 52.27235 37.128445 52.162636 C 36.49569 52.053944 35.451435 52.00648 34.58164 51.95137 C 33.71051 51.89677 31.341831 52.00419 31.341831 52.00419 C 31.341831 52.00419 26.673113 51.023075 24.931517 50.696983 C 23.94765 50.512768 22.554384 50.464046 21.57043 50.45931 z " fill="#19691b" fill-opacity="1"/>
<path d="M 74.42956 61.067368 C 64.35941 61.346012 40.08057 63.87628 29.314793 66.35815 L 74.429565 66.35815 L 74.429565 64.76251 C 74.41976 64.71412 74.414696 64.67044 74.429565 64.62814 L 74.429565 61.067368 z " fill="#19691b" fill-opacity="1"/>
<path d="M 69.61316 50.284267 C 69.60526 50.412617 69.57008 50.510227 69.56118 50.636986 L 69.59583 50.636986 C 69.60353 50.525528 69.60616 50.39682 69.61316 50.284267 z " fill="url(#linearGradient4149)"/>
<path color="#000000" d="M 21.567274 29.634836 L 74.430725 29.634836 L 74.430725 66.35177 L 21.567272 66.35177 z " display="inline" fill="#c8c8c8" fill-opacity="0.39215687" fill-rule="nonzero" stroke="none" visibility="visible"/>
<g transform="translate(-0.3948695,0.679049)">
<path d="M 18.264929 37.32212 L 78.52481 37.32212 " fill="none" stroke="#323232" stroke-dasharray="none" stroke-linecap="round" stroke-linejoin="miter" stroke-miterlimit="4" stroke-opacity="1" stroke-width="2.5"/>
<path color="#000000" d="M 53.21278 39.19176 C 53.21278 40.780334 51.924988 42.06813 50.33641 42.06813 C 48.747837 42.06813 47.460045 40.780334 47.460045 39.19176 C 47.45921 38.163574 48.007256 37.213142 48.897552 36.698803 C 49.78785 36.184467 50.884975 36.184467 51.77527 36.698803 C 52.665565 37.21314 53.213608 38.163574 53.212776 39.19176 z " display="inline" fill="#ffffff" fill-opacity="1" fill-rule="nonzero" stroke="#969696" stroke-dasharray="none" stroke-miterlimit="4" stroke-opacity="0.39215686" stroke-width="1" transform="translate(-1.9415468,-1.869639)" visibility="visible"/>
<path d="M 18.264929 47.32212 L 78.52481 47.32212 " fill="none" stroke="#323232" stroke-dasharray="none" stroke-linecap="round" stroke-linejoin="miter" stroke-miterlimit="4" stroke-opacity="1" stroke-width="2.5"/>
<path color="#000000" d="M 37.271233 47.32212 C 37.271233 48.910694 35.98344 50.19849 34.394863 50.19849 C 32.80629 50.19849 31.518496 48.910694 31.518496 47.32212 C 31.517662 46.293938 32.06571 45.343506 32.956005 44.829163 C 33.8463 44.314827 34.943428 44.314827 35.833725 44.829163 C 36.724026 45.3435 37.272064 46.293938 37.271233 47.32212 z " display="inline" fill="#ffffff" fill-opacity="1" fill-rule="nonzero" stroke="#969696" stroke-opacity="0.39215686" visibility="visible"/>
<path d="M 18.264929 57.32212 L 78.52481 57.32212 " fill="none" stroke="#323232" stroke-dasharray="none" stroke-linecap="round" stroke-linejoin="miter" stroke-miterlimit="4" stroke-opacity="1" stroke-width="2.5"/>
<path color="#000000" d="M 55.271233 57.32212 C 55.271233 58.910694 53.98344 60.19849 52.394863 60.19849 C 50.80629 60.19849 49.518497 58.910694 49.518497 57.32212 C 49.517666 56.293938 50.065712 55.343506 50.956005 54.829163 C 51.8463 54.314827 52.943428 54.314827 53.833725 54.829163 C 54.724026 55.3435 55.272064 56.293938 55.271233 57.32212 z " display="inline" fill="#ffffff" fill-opacity="1" fill-rule="nonzero" stroke="#969696" stroke-opacity="0.39215686" visibility="visible"/>
</g>
</svg>
