<?xml version="1.0" encoding="UTF-8"?>
<svg xmlns="http://www.w3.org/2000/svg" xmlns:xlink="http://www.w3.org/1999/xlink" baseProfile="tiny" contentScriptType="text/ecmascript" contentStyleType="text/css" height="96px" preserveAspectRatio="xMidYMid meet" version="1.1" viewBox="0 0 96 96" width="96px" x="0px" y="0px" zoomAndPan="magnify">
<defs>
<linearGradient xlink:actuate="onLoad" xlink:show="other" xlink:type="simple">
<stop offset="0" stop-color="#3a84ff" stop-opacity="1"/>
<stop offset="1" stop-color="#3a61ff" stop-opacity="0.99576271"/>
</linearGradient>
<linearGradient gradientUnits="userSpaceOnUse" id="linearGradient3804" x1="48.677967" x2="48.677967" xlink:actuate="onLoad" xlink:show="other" xlink:type="simple" y1="9.3559322" y2="88.678429">
<stop offset="0" stop-color="#434e67" stop-opacity="1"/>
<stop offset="1" stop-color="#343c50" stop-opacity="1"/>
</linearGradient>
</defs>
<path d="M 88.0 49.0 C 88.0 78.633 77.637 89.0 48.0 89.0 C 18.365 89.0 8.0 78.633 8.0 49.0 C 8.0 19.365 18.365 9.0 48.0 9.0 C 77.636 9.0 88.0 19.365 88.0 49.0 z " fill-opacity="0.4" stroke-opacity="0.4"/>
<rect fill="none" height="96" width="96"/>
<linearGradient gradientUnits="userSpaceOnUse" x1="47.9995" x2="47.9995" xlink:actuate="onLoad" xlink:show="other" xlink:type="simple" y1="8.5449" y2="89.2398">
<stop offset="0" stop-color="#00bacc"/>
<stop offset="0.2312" stop-color="#01a1bb"/>
<stop offset="0.747" stop-color="#026d98"/>
<stop offset="1" stop-color="#02598b"/>
</linearGradient>
<path d="M 88.0 48.0 C 88.0 77.633 77.637 88.0 48.0 88.0 C 18.365 88.0 8.0 77.633 8.0 48.0 C 8.0 18.365 18.365 8.0 48.0 8.0 C 77.636 8.0 88.0 18.365 88.0 48.0 z " fill="url(#linearGradient3804)" fill-opacity="1"/>
<path color="#000000" d="M 49.125 21.75 C 43.312534 21.750038 38.08221 23.09624 33.75 25.875 C 29.456133 28.629225 26.150532 32.639763 23.90625 37.625 C 22.064938 41.694317 21.093746 46.03858 21.09375 50.5625 C 21.093746 54.641724 21.921291 58.51042 23.5 62.0625 C 24.81102 64.97806 26.786232 67.58991 29.3125 69.78125 C 31.883137 72.011086 34.96801 73.654526 38.46875 74.71875 C 41.953217 75.778015 45.683857 76.24999 49.625 76.25 C 53.9079 76.24999 57.71473 75.70031 61.03125 74.46875 C 64.18341 73.298195 67.00164 71.70743 69.40625 69.59375 C 71.700874 67.576645 73.462585 65.45188 74.5625 63.1875 C 75.06337 62.17104 75.019936 60.948654 74.40625 59.96875 C 73.79257 58.98885 72.72854 58.430634 71.59375 58.4375 L 68.53125 58.4375 C 71.828964 54.379948 73.656204 49.6186 73.65625 44.46875 C 73.6562 40.59509 72.7382 36.847633 70.84375 33.46875 C 68.655136 29.609991 65.519066 26.5942 61.6875 24.625 C 57.905064 22.681175 53.681423 21.75004 49.125 21.75 z M 48.875 32.0 C 50.90354 32.00002 52.700703 32.376137 54.40625 32.9375 C 53.83727 33.09469 53.344677 33.332386 52.9375 33.75 C 52.820488 33.66652 52.76572 33.6123 52.625 33.53125 C 51.246277 32.73722 49.721226 32.29113 48.125 32.09375 C 48.3866 32.08395 48.60769 32.0 48.875 32.0 z M 62.28125 39.625 C 62.961903 41.139774 63.37497 42.669796 63.375 44.375 C 63.37497 46.209175 62.936115 48.044785 62.03125 49.875 C 61.269955 51.414703 60.384007 52.500675 59.3125 53.40625 C 59.3181 53.38037 59.3069 53.3699 59.3125 53.34375 L 62.28125 39.625 z M 47.15625 42.28125 C 48.077778 42.28126 48.249557 42.33982 48.84375 43.0 C 49.267487 43.470837 49.624977 44.314835 49.625 46.0625 C 49.624977 47.355915 49.38756 48.705425 48.90625 50.0625 C 48.41043 51.460377 47.88288 52.385693 47.25 53.125 C 46.514557 53.984077 45.812164 54.55436 45.21875 54.875 C 44.581245 55.21945 44.112347 55.281258 43.84375 55.28125 C 43.564857 55.28125 43.475582 55.25569 43.34375 55.1875 C 43.21192 55.11931 42.99638 54.960197 42.65625 54.5625 C 42.18792 54.014923 41.843735 53.20199 41.84375 51.4375 C 41.84374 50.398216 42.021793 49.12611 42.46875 47.6875 C 42.91227 46.259888 43.47777 45.149296 44.09375 44.3125 C 44.757614 43.41064 45.369183 42.88001 45.8125 42.625 C 46.298862 42.34523 46.56595 42.28126 47.15625 42.28125 z M 49.53125 63.3125 C 50.037956 63.836018 50.492836 64.42221 51.15625 64.75 C 52.179165 65.25546 53.271378 65.447365 54.40625 65.53125 C 52.94783 65.78829 51.380028 65.96874 49.5625 65.96875 C 47.64641 65.96874 45.849625 65.77245 44.15625 65.4375 C 45.714325 65.24568 47.220966 64.80716 48.59375 64.03125 C 49.05524 63.770405 49.25244 63.570686 49.53125 63.3125 z " display="inline" fill="#000000" fill-opacity="0.07843138" fill-rule="nonzero" stroke="none" transform="translate(0,2)" visibility="visible"/>
<path color="#000000" d="M 49.125 22.90625 C 43.489105 22.906288 38.494896 24.201174 34.375 26.84375 C 30.282026 29.469116 27.135044 33.281746 24.96875 38.09375 C 23.191116 42.022335 22.249996 46.20455 22.25 50.5625 C 22.249996 54.485268 23.04859 58.187466 24.5625 61.59375 C 25.802902 64.352264 27.654425 66.81743 30.0625 68.90625 C 32.500507 71.02104 35.448856 72.60245 38.8125 73.625 C 42.16707 74.64478 45.77344 75.09374 49.625 75.09375 C 53.80724 75.09374 57.47172 74.54594 60.625 73.375 C 63.670033 72.244225 66.373985 70.72489 68.65625 68.71875 C 70.86959 66.7731 72.51967 64.77003 73.53125 62.6875 C 73.859955 62.020424 73.81978 61.2307 73.425064 60.600433 C 73.03035 59.970165 72.3374 59.58925 71.59375 59.59375 L 67.09375 59.59375 C 66.39222 59.60133 65.738716 59.95142 65.34375 60.53125 C 64.139496 62.25547 62.198826 63.84569 59.5 65.1875 C 56.93665 66.461914 53.672592 67.12499 49.5625 67.125 C 45.749577 67.12499 42.346096 66.472755 39.28125 65.1875 C 36.28791 63.93223 34.123096 62.135494 32.59375 59.59375 C 31.058884 57.042866 30.281244 53.92174 30.28125 50.15625 C 30.281244 46.587547 31.046349 43.341324 32.65625 40.25 C 34.24561 37.198135 36.445072 34.935173 39.3125 33.3125 C 42.212067 31.671682 45.33393 30.84378 48.875 30.84375 C 51.978634 30.84378 54.71895 31.46696 57.21875 32.75 C 57.82822 33.062836 58.257195 33.457928 58.78125 33.8125 L 55.21875 33.8125 C 54.259193 33.813507 53.41698 34.451546 53.15625 35.375 C 52.789803 35.0918 52.46187 34.76128 52.0625 34.53125 C 50.463173 33.61017 48.684948 33.06254 46.84375 33.0625 C 44.44351 33.06254 42.074173 33.942192 39.8125 35.4375 C 37.445007 37.0028 35.51715 39.310753 34.03125 42.21875 C 32.546623 45.124233 31.749989 48.118076 31.75 51.125 C 31.749989 53.560917 32.268005 55.85314 33.28125 57.9375 C 34.290115 60.01292 35.7033 61.70027 37.5 62.8125 C 39.173397 63.848427 41.02515 64.46875 42.9375 64.46875 C 44.708546 64.46875 46.43912 63.931137 48.03125 63.03125 C 48.585476 62.717987 49.01716 62.19608 49.53125 61.8125 C 50.09401 62.617275 50.82737 63.309204 51.65625 63.71875 C 52.76648 64.26736 54.00153 64.46875 55.375 64.46875 C 59.629845 64.46875 63.57214 62.38452 66.875 58.71875 C 70.57035 54.642944 72.49995 49.780617 72.5 44.46875 C 72.49995 40.774456 71.637695 37.230885 69.84375 34.03125 C 67.76145 30.359932 64.7932 27.525429 61.15625 25.65625 C 57.549507 23.802715 53.52485 22.90629 49.125 22.90625 z M 61.75 36.5625 C 62.050285 36.95215 62.43753 37.29484 62.6875 37.71875 C 63.932297 39.829895 64.53121 41.98308 64.53125 44.375 C 64.53121 46.39716 64.036545 48.40486 63.0625 50.375 C 62.086246 52.34945 60.916187 53.80277 59.34375 54.90625 C 59.333332 54.906178 59.32292 54.906178 59.3125 54.90625 C 58.370094 55.574688 57.967876 55.61759 57.625 55.71875 C 57.745525 55.098686 57.945663 54.222237 58.1875 53.09375 L 61.75 36.5625 z M 47.15625 41.125 C 48.26231 41.125015 48.94213 41.3906 49.6875 42.21875 C 50.35577 42.961304 50.781227 44.144375 50.78125 46.0625 C 50.781227 47.494984 50.521988 48.965725 50.0 50.4375 C 49.470154 51.931313 48.864326 53.01135 48.125 53.875 C 47.319836 54.81552 46.533394 55.46859 45.78125 55.875 C 44.996243 56.29915 44.330708 56.437504 43.84375 56.4375 C 43.07854 56.437504 42.566776 56.23098 41.78125 55.3125 C 41.10521 54.522068 40.687485 53.368263 40.6875 51.4375 C 40.687485 50.260487 40.898403 48.87777 41.375 47.34375 C 41.847935 45.82146 42.44581 44.59012 43.15625 43.625 C 43.898 42.617332 44.632668 41.98011 45.25 41.625 C 45.87467 41.26568 46.41927 41.125015 47.15625 41.125 z " display="inline" fill="#000000" fill-opacity="0.07843138" fill-rule="nonzero" stroke="none" transform="translate(0,2)" visibility="visible"/>
<linearGradient gradientUnits="userSpaceOnUse" id="SVGID_2_" x1="47.9995" x2="47.9995" xlink:actuate="onLoad" xlink:show="other" xlink:type="simple" y1="8.2534" y2="87.4985">
<stop offset="0" stop-color="#ffffff"/>
<stop offset="1" stop-color="#ffffff" stop-opacity="0"/>
</linearGradient>
<path d="M 48.0 8.0 C 18.365 8.0 8.0 18.365 8.0 48.0 C 8.0 77.633 18.365 88.0 48.0 88.0 C 77.636 88.0 88.0 77.633 88.0 48.0 C 88.0 18.365 77.636 8.0 48.0 8.0 z M 48.0 87.0 C 18.842 87.0 9.0 77.159 9.0 48.0 C 9.0 18.842 18.842 9.0 48.0 9.0 C 77.158005 9.0 87.0 18.842 87.0 48.0 C 87.0 77.159 77.158 87.0 48.0 87.0 z " fill="url(#SVGID_2_)" fill-opacity="0.25" stroke-opacity="0.25"/>
<path d="M 36.146 47.29 L 36.146 46.456 C 36.139 46.613 36.131 46.905 36.146 47.29 z " fill="#f16522"/>
<linearGradient gradientUnits="userSpaceOnUse" x1="47.9995" x2="47.9995" xlink:actuate="onLoad" xlink:show="other" xlink:type="simple" y1="27.8447" y2="77.9766">
<stop offset="0" stop-color="#fafcef"/>
<stop offset="0.3232" stop-color="#fafcef"/>
<stop offset="1" stop-color="#d0cbc5"/>
</linearGradient>
<path d="M 57.587 52.66 L 57.587 52.353 C 57.583 52.44 57.583 52.543 57.587 52.66 z " fill="#ffffff"/>
<path color="#000000" d="M 49.115498 28.056404 C 53.232178 28.05644 56.912308 28.88144 60.190765 30.566263 C 63.46915 32.251163 66.06699 34.75936 67.9594 38.09585 C 69.5695 40.967613 70.349686 44.08834 70.34974 47.45804 C 70.349686 52.271942 68.67645 56.551327 65.29018 60.286232 C 62.269005 63.63936 58.955715 65.30596 55.370235 65.30596 C 54.22483 65.30596 53.28695 65.13665 52.581497 64.788055 C 51.875984 64.43946 51.359737 63.961395 51.02777 63.314007 C 50.81195 62.899017 50.68911 62.17528 50.589542 61.162697 C 49.51054 62.407677 48.30043 63.395348 46.964184 64.15063 C 45.62789 64.90591 44.28498 65.30596 42.940434 65.30596 C 41.463043 65.30596 40.03216 64.854454 38.637817 63.991272 C 37.24343 63.128098 36.08312 61.800125 35.21165 60.00736 C 34.34016 58.214607 33.89695 56.252537 33.89696 54.111176 C 33.89695 51.471848 34.57587 48.830853 35.928757 46.183193 C 37.281612 43.535576 38.97975 41.535324 40.988323 40.20733 C 42.996857 38.879383 44.95229 38.215405 46.84467 38.215378 C 48.288807 38.215405 49.676537 38.615456 50.987934 39.37071 C 52.29927 40.12602 53.42805 41.25313 54.374256 42.79687 L 55.210876 38.972317 L 59.67285 38.972317 L 56.087337 55.664894 C 55.58931 57.988853 55.330357 59.2803 55.33039 59.52929 C 55.330357 59.97749 55.507977 60.360935 55.848297 60.684624 C 56.188553 61.00832 56.601883 61.162697 57.08331 61.162693 C 57.96305 61.162697 59.121708 60.66139 60.549313 59.648808 C 62.44163 58.320847 63.90737 56.543022 65.01129 54.310368 C 66.11512 52.07773 66.684494 49.75213 66.68453 47.378365 C 66.684494 44.606255 65.952446 42.01671 64.53322 39.60974 C 63.113907 37.20282 61.0124 35.277267 58.198803 33.833073 C 55.38513 32.38894 52.279343 31.681795 48.876453 31.681765 C 44.99212 31.681795 41.451424 32.613037 38.239414 34.43066 C 35.027374 36.24835 32.517513 38.84453 30.749664 42.23912 C 28.981798 45.63377 28.120275 49.270737 28.120283 53.155033 C 28.120275 57.22195 28.981796 60.73443 30.749664 63.67255 C 32.517513 66.61069 35.093773 68.76366 38.43861 70.16633 C 41.783413 71.568985 45.486786 72.277794 49.55372 72.2778 C 53.90279 72.277794 57.53146 71.54741 60.469627 70.086655 C 63.40772 68.625885 65.622116 66.83977 67.082924 64.748215 L 71.58475 64.748215 C 70.738106 66.49117 69.30059 68.27729 67.24228 70.086655 C 65.183876 71.89601 62.710545 73.3352 59.872047 74.38928 C 57.03348 75.443344 53.63388 75.94299 49.6334 75.94301 C 45.94826 75.943 42.547 75.49481 39.434593 74.54864 C 36.32215 73.60245 33.657913 72.1865 31.466774 70.28585 C 29.275618 68.38519 27.638897 66.185745 26.526726 63.7124 C 25.132357 60.57508 24.415249 57.18876 24.415257 53.553432 C 24.415249 49.50314 25.265152 45.62879 26.925116 41.96025 C 28.950264 37.461777 31.803738 34.032303 35.53036 31.641926 C 39.25696 29.251616 43.803596 28.056444 49.115498 28.056408 z M 47.163376 41.96024 C 46.100975 41.960262 45.1133 42.217556 44.17544 42.757023 C 43.237537 43.29653 42.3063 44.15141 41.42654 45.346565 C 40.546738 46.541756 39.846237 48.019123 39.315067 49.728867 C 38.783863 51.43864 38.51827 53.002327 38.518288 54.42988 C 38.518272 56.704037 39.072697 58.466915 40.15169 59.72848 C 41.230644 60.990055 42.462337 61.60092 43.856728 61.60092 C 44.78628 61.60092 45.775623 61.320385 46.80482 60.764297 C 47.83397 60.208218 48.81501 59.389854 49.75291 58.294273 C 50.69077 57.198708 51.426125 55.835876 52.02374 54.15101 C 52.621296 52.466156 52.94001 50.74478 52.940037 49.051605 C 52.94001 46.794075 52.38724 45.03784 51.266796 43.792847 C 50.1463 42.547905 48.773514 41.96027 47.163376 41.96025 z " display="inline" fill="#000000" fill-opacity="0.07843138" fill-rule="nonzero" stroke="none" visibility="visible"/>
<path color="#000000" d="M 49.115498 25.056704 C 53.23217 25.056742 56.912304 25.88174 60.19076 27.566566 C 63.469147 29.251465 66.066986 31.759665 67.95939 35.096153 C 69.5695 37.967915 70.34968 41.08864 70.34973 44.458344 C 70.34968 49.272247 68.676445 53.55163 65.29017 57.286533 C 62.268997 60.63966 58.95571 62.30626 55.37023 62.30626 C 54.224827 62.30626 53.286945 62.136944 52.581493 61.788353 C 51.87598 61.43976 51.35973 60.961693 51.027767 60.314304 C 50.811947 59.899315 50.689102 59.175575 50.58954 58.16299 C 49.510536 59.407974 48.300423 60.395645 46.96418 61.150925 C 45.627888 61.906208 44.284977 62.30626 42.94043 62.30626 C 41.46304 62.30626 40.03216 61.85475 38.63781 60.99157 C 37.243427 60.12839 36.083115 58.800423 35.211647 57.00766 C 34.340157 55.214905 33.896942 53.25283 33.896957 51.111473 C 33.896942 48.472145 34.57587 45.83115 35.928753 43.18349 C 37.28161 40.535873 38.979748 38.53562 40.98832 37.207623 C 42.996853 35.87968 44.95229 35.215706 46.844666 35.21567 C 48.288803 35.215706 49.676533 35.61575 50.98793 36.37101 C 52.29927 37.126316 53.428047 38.25343 54.374252 39.79717 L 55.210873 35.972614 L 59.67285 35.972614 L 56.087337 52.665195 C 55.58931 54.98915 55.330357 56.2806 55.33039 56.529587 C 55.330357 56.977783 55.507977 57.361233 55.848297 57.68492 C 56.188553 58.008617 56.601883 58.16299 57.08331 58.16299 C 57.96305 58.16299 59.121708 57.66169 60.549313 56.649105 C 62.44163 55.321144 63.90737 53.543324 65.01129 51.310665 C 66.11512 49.078026 66.684494 46.752422 66.68453 44.378662 C 66.68449 41.60655 65.952446 39.01701 64.53322 36.61004 C 63.113907 34.20312 61.0124 32.277565 58.198803 30.83337 C 55.38513 29.389236 52.279343 28.682093 48.876453 28.68206 C 44.99212 28.682096 41.451424 29.613337 38.239414 31.430958 C 35.027374 33.248646 32.517513 35.844826 30.749664 39.23942 C 28.981798 42.634068 28.120275 46.27104 28.120283 50.155334 C 28.120275 54.22225 28.981796 57.73473 30.749664 60.672855 C 32.517513 63.61099 35.093773 65.76396 38.43861 67.166626 C 41.783413 68.56928 45.486786 69.27809 49.55372 69.2781 C 53.90279 69.27809 57.53146 68.54771 60.46963 67.08695 C 63.407726 65.62618 65.622116 63.840065 67.082924 61.748512 L 71.58475 61.748512 C 70.738106 63.49147 69.30059 65.27759 67.24228 67.08695 C 65.18388 68.89631 62.710545 70.335495 59.872047 71.38957 C 57.03348 72.44364 53.63388 72.94329 49.6334 72.9433 C 45.94826 72.94329 42.547 72.4951 39.434593 71.54893 C 36.32215 70.60274 33.657913 69.18679 31.466774 67.28614 C 29.275618 65.38548 27.638897 63.18603 26.526726 60.71269 C 25.132357 57.575367 24.41525 54.189045 24.415257 50.55372 C 24.41525 46.503426 25.265152 42.62908 26.925116 38.96054 C 28.950264 34.462067 31.803738 31.032593 35.53036 28.642216 C 39.25696 26.251907 43.803596 25.056734 49.115498 25.056698 z M 47.163376 38.96054 C 46.100975 38.960564 45.1133 39.217857 44.17544 39.757324 C 43.23754 40.296833 42.306305 41.15171 41.426544 42.346867 C 40.54674 43.542057 39.84624 45.019424 39.31507 46.729168 C 38.783867 48.438946 38.518272 50.00263 38.51829 51.430183 C 38.518276 53.704334 39.0727 55.467216 40.151695 56.728783 C 41.230648 57.990356 42.46234 58.601223 43.85673 58.60122 C 44.786285 58.601223 45.775627 58.320686 46.804825 57.7646 C 47.833973 57.208515 48.815018 56.390156 49.75292 55.294575 C 50.690773 54.19901 51.426132 52.836178 52.023743 51.15131 C 52.621304 49.466457 52.940018 47.745083 52.940044 46.051907 C 52.940018 43.794376 52.38725 42.03814 51.266804 40.793148 C 50.1463 39.548203 48.773514 38.96057 47.163376 38.96055 z " display="inline" fill="#ffffff" fill-opacity="1" fill-rule="nonzero" stroke="none" visibility="visible"/>
</svg>
