<?xml version="1.0" encoding="UTF-8"?>
<svg xmlns="http://www.w3.org/2000/svg" xmlns:xlink="http://www.w3.org/1999/xlink" baseProfile="tiny" contentScriptType="text/ecmascript" contentStyleType="text/css" height="20px" preserveAspectRatio="xMidYMid meet" version="1.1" viewBox="0 0 306 20" width="306px" x="0px" y="0px" zoomAndPan="magnify">
<g>
<g>
<path d="M 5.691 15.313 C 1.1100001 15.313 0.49300003 12.625 0.49300003 9.995 C 0.49300003 7.372 1.11 4.69 5.691 4.69 L 300.31 4.69 C 304.88998 4.69 305.507 7.379 305.507 10.01 C 305.507 12.6310005 304.88998 15.313 300.31 15.313 L 5.691 15.313 z " fill="url(#SVGID_1_)" fill-opacity="0.3" stroke-opacity="0.3"/>
<path d="M 300.31 5.689 C 303.735 5.689 304.507 7.209 304.507 10.009001 C 304.507 12.794001 303.757 14.312 300.31 14.312 L 5.691 14.312 C 2.265 14.312 1.493 12.792 1.493 9.994 C 1.493 7.2070007 2.243 5.6890006 5.691 5.6890006 L 300.31 5.6890006 " fill="#fa664b"/>
<defs>
<linearGradient gradientUnits="userSpaceOnUse" id="SVGID_1_" x1="153.0002" x2="153.0002" xlink:actuate="onLoad" xlink:show="other" xlink:type="simple" y1="15.3125" y2="4.6899">
<stop offset="0" stop-color="#ffffff"/>
<stop offset="1" stop-color="#ffffff" stop-opacity="0"/>
</linearGradient>
</defs>
</g>
<rect fill="none" height="20" width="306" x="0"/>
<g fill-opacity="0.5" stroke-opacity="0.5">
<path d="M 7.066 5.704 L 1.56 11.216 C 1.6689999 12.118 1.933 12.832 2.449 13.347 L 10.066 5.704 L 7.066 5.704 z " fill="#ffffff"/>
<polygon fill="#ffffff" points="17.222,5.704 9.254,13.683 12.269,13.683 20.222,5.704   "/>
<polygon fill="#ffffff" points="27.377,5.704 19.408,13.683 22.424,13.683 30.377,5.704   "/>
<polygon fill="#ffffff" points="37.533,5.704 29.564,13.683 32.58,13.683 40.533,5.704   "/>
<polygon fill="#ffffff" points="47.688,5.704 39.719,13.683 42.735,13.683 50.688,5.704   "/>
<polygon fill="#ffffff" points="57.844,5.704 49.875,13.683 52.89,13.683 60.844,5.704   "/>
<polygon fill="#ffffff" points="68,5.703 60.031,13.683 63.047,13.683 71,5.703   "/>
<polygon fill="#ffffff" points="78.155,5.703 70.186,13.683 73.202,13.683 81.155,5.703   "/>
<polygon fill="#ffffff" points="88.31,5.703 80.342,13.683 83.357,13.683 91.31,5.703   "/>
<polygon fill="#ffffff" points="98.467,5.703 90.498,13.683 93.513,13.683 101.467,5.703   "/>
<polygon fill="#ffffff" points="108.621,5.704 100.652,13.683 103.668,13.683 111.621,5.704   "/>
<polygon fill="#ffffff" points="118.777,5.704 110.808,13.683 113.824,13.683 121.777,5.704   "/>
<polygon fill="#ffffff" points="128.932,5.704 120.964,13.683 123.979,13.683 131.932,5.704   "/>
<polygon fill="#ffffff" points="139.088,5.703 131.119,13.683 134.135,13.683 142.088,5.703   "/>
<polygon fill="#ffffff" points="149.244,5.704 141.275,13.683 144.291,13.683 152.244,5.704   "/>
<polygon fill="#ffffff" points="159.399,5.704 151.43,13.683 154.446,13.683 162.399,5.704   "/>
<polygon fill="#ffffff" points="169.554,5.703 161.586,13.683 164.601,13.683 172.554,5.703   "/>
<polygon fill="#ffffff" points="179.711,5.703 171.742,13.683 174.758,13.683 182.711,5.703   "/>
<polygon fill="#ffffff" points="189.866,5.704 181.897,13.683 184.913,13.683 192.866,5.704   "/>
<polygon fill="#ffffff" points="200.021,5.703 192.052,13.683 195.068,13.683 203.021,5.703   "/>
<polygon fill="#ffffff" points="210.177,5.704 202.209,13.683 205.224,13.683 213.177,5.704   "/>
<polygon fill="#ffffff" points="220.332,5.703 212.363,13.683 215.379,13.683 223.332,5.703   "/>
<polygon fill="#ffffff" points="230.488,5.703 222.519,13.683 225.535,13.683 233.488,5.703   "/>
<polygon fill="#ffffff" points="240.643,5.703 232.675,13.683 235.69,13.683 243.643,5.703   "/>
<polygon fill="#ffffff" points="250.799,5.703 242.83,13.683 245.845,13.683 253.799,5.703   "/>
<polygon fill="#ffffff" points="260.955,5.703 252.986,13.683 256.002,13.683 263.955,5.703   "/>
<polygon fill="#ffffff" points="271.11,5.703 263.141,13.683 266.157,13.683 274.11,5.703   "/>
<polygon fill="#ffffff" points="281.265,5.703 273.297,13.683 276.312,13.683 284.265,5.703   "/>
<polygon fill="#ffffff" points="291.422,5.704 283.453,13.683 286.469,13.683 294.422,5.704   "/>
<path d="M 296.623 13.683 L 303.59 6.6949997 C 303.13098 6.2159996 302.467 5.9019995 301.514 5.7669997 L 293.608 13.683 L 296.623 13.683 z " fill="#ffffff"/>
</g>
<g>
<path d="M 5.689 7.379 L 300.134 7.379 C 303.21802 7.379 304.146 8.619 304.3 10.906 C 304.31998 10.648 304.33298 10.386 304.33298 10.101 C 304.33298 7.3 303.56097 5.7809997 300.13397 5.7809997 L 5.689 5.7809997 C 2.242 5.7809997 1.493 7.299 1.493 10.086 C 1.493 10.365 1.5070001 10.622999 1.524 10.877 C 1.68 8.609 2.594 7.379 5.689 7.379 z " fill="#191919" fill-opacity="0.1" stroke-opacity="0.1"/>
<path d="M 5.689 6.58 L 300.134 6.58 C 303.388 6.58 304.239 7.967 304.318 10.504 C 304.32098 10.369 304.33398 10.244 304.33398 10.101999 C 304.33398 7.300999 303.56198 5.781999 300.13498 5.781999 L 5.689 5.781999 C 2.242 5.781999 1.493 7.299999 1.493 10.086999 C 1.493 10.227999 1.5040001 10.348999 1.5090001 10.482999 C 1.587 7.961 2.419 6.58 5.689 6.58 z " fill="#6f6f6e"/>
</g>
</g>
</svg>
