<?xml version="1.0" encoding="UTF-8"?>
<svg xmlns="http://www.w3.org/2000/svg" xmlns:xlink="http://www.w3.org/1999/xlink" baseProfile="tiny" contentScriptType="text/ecmascript" contentStyleType="text/css" height="20px" preserveAspectRatio="xMidYMid meet" version="1.1" viewBox="0 0 306 20" width="306px" x="0px" y="0px" zoomAndPan="magnify">
<g>
<g>
<path d="M 5.691 15.313 C 1.1100001 15.313 0.49300003 12.625 0.49300003 9.995 C 0.49300003 7.372 1.11 4.69 5.691 4.69 L 300.31 4.69 C 304.88998 4.69 305.507 7.379 305.507 10.01 C 305.507 12.6310005 304.88998 15.313 300.31 15.313 L 5.691 15.313 z " fill="url(#SVGID_1_)" fill-opacity="0.3" stroke-opacity="0.3"/>
<path d="M 300.31 5.689 C 303.735 5.689 304.507 7.209 304.507 10.009001 C 304.507 12.794001 303.757 14.312 300.31 14.312 L 5.691 14.312 C 2.265 14.312 1.493 12.792 1.493 9.994 C 1.493 7.2070007 2.243 5.6890006 5.691 5.6890006 L 300.31 5.6890006 " fill="#fa664b"/>
<defs>
<linearGradient gradientUnits="userSpaceOnUse" id="SVGID_1_" x1="153.0002" x2="153.0002" xlink:actuate="onLoad" xlink:show="other" xlink:type="simple" y1="15.3125" y2="4.6899">
<stop offset="0" stop-color="#ffffff"/>
<stop offset="1" stop-color="#ffffff" stop-opacity="0"/>
</linearGradient>
</defs>
</g>
<rect fill="none" height="20" width="306" x="0"/>
<g fill-opacity="0.5" stroke-opacity="0.5">
<path d="M 5.182 5.704 C 2.1710002 5.852 1.4930003 7.351 1.4930003 9.994 C 1.4930003 10.094999 1.4970002 10.188999 1.4990003 10.285999 L 6.066 5.7039995 L 5.182 5.7039995 z " fill="#ffffff"/>
<polygon fill="#ffffff" points="13.222,5.704 5.254,13.683 8.269,13.683 16.222,5.704   "/>
<polygon fill="#ffffff" points="23.377,5.704 15.408,13.683 18.424,13.683 26.377,5.704   "/>
<polygon fill="#ffffff" points="33.533,5.704 25.564,13.683 28.58,13.683 36.533,5.704   "/>
<polygon fill="#ffffff" points="43.688,5.704 35.719,13.683 38.735,13.683 46.688,5.704   "/>
<polygon fill="#ffffff" points="53.844,5.704 45.875,13.683 48.89,13.683 56.844,5.704   "/>
<polygon fill="#ffffff" points="64,5.703 56.031,13.683 59.047,13.683 67,5.703   "/>
<polygon fill="#ffffff" points="74.155,5.703 66.186,13.683 69.202,13.683 77.155,5.703   "/>
<polygon fill="#ffffff" points="84.31,5.703 76.342,13.683 79.357,13.683 87.31,5.703   "/>
<polygon fill="#ffffff" points="94.467,5.703 86.498,13.683 89.513,13.683 97.467,5.703   "/>
<polygon fill="#ffffff" points="104.621,5.704 96.652,13.683 99.668,13.683 107.621,5.704   "/>
<polygon fill="#ffffff" points="114.777,5.704 106.808,13.683 109.824,13.683 117.777,5.704   "/>
<polygon fill="#ffffff" points="124.932,5.704 116.964,13.683 119.979,13.683 127.932,5.704   "/>
<polygon fill="#ffffff" points="135.088,5.703 127.119,13.683 130.135,13.683 138.088,5.703   "/>
<polygon fill="#ffffff" points="145.244,5.704 137.275,13.683 140.291,13.683 148.244,5.704   "/>
<polygon fill="#ffffff" points="155.399,5.704 147.43,13.683 150.446,13.683 158.399,5.704   "/>
<polygon fill="#ffffff" points="165.554,5.703 157.586,13.683 160.601,13.683 168.554,5.703   "/>
<polygon fill="#ffffff" points="175.711,5.703 167.742,13.683 170.758,13.683 178.711,5.703   "/>
<polygon fill="#ffffff" points="185.866,5.704 177.897,13.683 180.913,13.683 188.866,5.704   "/>
<polygon fill="#ffffff" points="196.021,5.703 188.052,13.683 191.068,13.683 199.021,5.703   "/>
<polygon fill="#ffffff" points="206.177,5.704 198.209,13.683 201.224,13.683 209.177,5.704   "/>
<polygon fill="#ffffff" points="216.332,5.703 208.363,13.683 211.379,13.683 219.332,5.703   "/>
<polygon fill="#ffffff" points="226.488,5.703 218.519,13.683 221.535,13.683 229.488,5.703   "/>
<polygon fill="#ffffff" points="236.643,5.703 228.675,13.683 231.69,13.683 239.643,5.703   "/>
<polygon fill="#ffffff" points="246.799,5.703 238.83,13.683 241.845,13.683 249.799,5.703   "/>
<polygon fill="#ffffff" points="256.955,5.703 248.986,13.683 252.002,13.683 259.955,5.703   "/>
<polygon fill="#ffffff" points="267.11,5.703 259.141,13.683 262.157,13.683 270.11,5.703   "/>
<polygon fill="#ffffff" points="277.265,5.703 269.297,13.683 272.312,13.683 280.265,5.703   "/>
<polygon fill="#ffffff" points="287.422,5.704 279.453,13.683 282.469,13.683 290.422,5.704   "/>
<polygon fill="#ffffff" points="297.576,5.704 289.607,13.683 292.623,13.683 300.576,5.704   "/>
<path d="M 302.779 13.683 L 304.233 12.223 C 304.434 11.612 304.507 10.870999 304.507 10.009999 C 304.507 9.643 304.49197 9.299999 304.46198 8.976999 L 299.76297 13.682999 L 302.779 13.682999 z " fill="#ffffff"/>
</g>
<g>
<path d="M 5.689 7.379 L 300.134 7.379 C 303.21802 7.379 304.146 8.619 304.3 10.906 C 304.31998 10.648 304.33298 10.386 304.33298 10.101 C 304.33298 7.3 303.56097 5.7809997 300.13397 5.7809997 L 5.689 5.7809997 C 2.242 5.7809997 1.493 7.299 1.493 10.086 C 1.493 10.365 1.5070001 10.622999 1.524 10.877 C 1.68 8.609 2.594 7.379 5.689 7.379 z " fill="#191919" fill-opacity="0.1" stroke-opacity="0.1"/>
<path d="M 5.689 6.58 L 300.134 6.58 C 303.388 6.58 304.239 7.967 304.318 10.504 C 304.32098 10.369 304.33398 10.244 304.33398 10.101999 C 304.33398 7.300999 303.56198 5.781999 300.13498 5.781999 L 5.689 5.781999 C 2.242 5.781999 1.493 7.299999 1.493 10.086999 C 1.493 10.227999 1.5040001 10.348999 1.5090001 10.482999 C 1.587 7.961 2.419 6.58 5.689 6.58 z " fill="#6f6f6e"/>
</g>
</g>
</svg>
